G04 #@! TF.FileFunction,Copper,L1,Top,Signal*
%FSLAX46Y46*%
G04 Gerber Fmt 4.6, Leading zero omitted, Abs format (unit mm)*
G04 Created by KiCad (PCBNEW 4.0.6) date 10/14/17 16:51:08*
%MOMM*%
%LPD*%
G01*
G04 APERTURE LIST*
%ADD10C,0.100000*%
%ADD11C,0.599440*%
%ADD12R,0.600000X0.400000*%
%ADD13R,1.350000X0.400000*%
%ADD14O,0.950000X1.250000*%
%ADD15O,1.550000X1.000000*%
%ADD16R,0.400000X0.600000*%
%ADD17R,0.800000X1.500000*%
%ADD18R,1.500000X0.800000*%
%ADD19R,1.100000X1.100000*%
%ADD20C,1.524000*%
%ADD21R,1.524000X1.524000*%
%ADD22R,1.050000X1.000000*%
%ADD23R,2.200000X1.050000*%
%ADD24R,0.750000X0.800000*%
%ADD25R,0.500000X0.600000*%
%ADD26R,0.600000X0.700000*%
%ADD27R,0.900000X1.200000*%
%ADD28R,1.200000X0.900000*%
%ADD29R,1.700000X1.700000*%
%ADD30O,1.700000X1.700000*%
%ADD31R,0.980000X3.400000*%
%ADD32R,0.900000X0.800000*%
%ADD33R,2.500000X1.000000*%
%ADD34R,0.800000X0.900000*%
%ADD35O,0.600000X0.240000*%
%ADD36R,1.580000X2.850000*%
%ADD37R,0.200000X0.775000*%
%ADD38C,0.300000*%
%ADD39C,0.600000*%
%ADD40C,0.127000*%
%ADD41C,0.508000*%
%ADD42C,0.254000*%
G04 APERTURE END LIST*
D10*
D11*
X165608000Y-103530400D03*
X139420600Y-103568500D03*
X139369800Y-102184200D03*
X139395200Y-106222800D03*
X139509500Y-104787700D03*
X141097000Y-114173000D03*
X142227300Y-114287300D03*
X142621000Y-113487200D03*
X142671800Y-112115600D03*
X143535400Y-112852200D03*
X145046700Y-111671100D03*
X145516600Y-113309400D03*
X144195800Y-114503200D03*
X145491200Y-114350800D03*
X146735800Y-114350800D03*
X148437600Y-114477800D03*
X149783800Y-114427000D03*
X151282400Y-114147600D03*
X151282400Y-113411000D03*
X152323800Y-113995200D03*
X153619200Y-114223800D03*
X152603200Y-113030000D03*
X151206200Y-112420400D03*
X170256200Y-96189800D03*
X172999400Y-97332800D03*
X152527000Y-97815400D03*
X142913100Y-95161100D03*
X143713200Y-95999300D03*
X142900400Y-96659700D03*
X143865600Y-97282000D03*
X142240000Y-101574600D03*
X142138400Y-102971600D03*
X143129000Y-107492800D03*
X143205200Y-102387400D03*
X143230600Y-101244400D03*
X146697700Y-101320600D03*
X147967700Y-101409500D03*
X156895800Y-104724200D03*
X154787600Y-103936800D03*
X154876500Y-107086400D03*
X154914600Y-108153200D03*
X152425400Y-108864400D03*
X151180800Y-107823000D03*
X147447000Y-107721400D03*
X149275800Y-107696000D03*
X149225000Y-105816400D03*
X149199600Y-103454200D03*
X149504400Y-102057200D03*
X149275800Y-101117400D03*
X150558500Y-101371400D03*
X151688800Y-101079300D03*
X153771600Y-101498400D03*
X155117800Y-101574600D03*
X161493200Y-102641400D03*
X166878000Y-103543100D03*
X170434000Y-98806000D03*
X171500800Y-100177600D03*
X171958000Y-103949500D03*
X171958000Y-103949500D03*
X171005500Y-104711500D03*
X169989500Y-105283000D03*
X175450500Y-102997000D03*
X174625000Y-104013000D03*
X174294800Y-97282000D03*
X170332400Y-97434400D03*
X173177200Y-106883200D03*
X175260000Y-105308400D03*
X156464000Y-112166400D03*
X156413200Y-109118400D03*
X154838400Y-112166400D03*
X159781240Y-113421160D03*
X161373820Y-113289080D03*
X160748980Y-114368580D03*
X162814000Y-113233200D03*
X162605720Y-114330480D03*
X164236400Y-114452400D03*
X158191200Y-108813600D03*
X164338000Y-113334800D03*
X166014400Y-101447600D03*
X165712140Y-114218720D03*
X167132000Y-113972340D03*
X160528000Y-101904800D03*
X159613600Y-102565200D03*
X163677600Y-99263200D03*
X165996620Y-112778540D03*
X167304720Y-112796320D03*
X156667200Y-101600000D03*
X168783000Y-113192560D03*
X168910000Y-114350800D03*
X162763200Y-100228400D03*
X162814000Y-102412800D03*
X168986200Y-112141000D03*
X165912800Y-99263200D03*
X170185080Y-113329720D03*
X171424600Y-111302800D03*
X169849800Y-111125000D03*
X171983400Y-112816640D03*
X164134800Y-101498400D03*
X170332400Y-114350800D03*
X170764200Y-112369600D03*
X170891200Y-103276400D03*
X170281600Y-100431600D03*
X171627800Y-114122200D03*
X173045120Y-114427000D03*
X173024800Y-112039400D03*
X173857920Y-113309400D03*
X157530800Y-113436400D03*
X174823120Y-114274600D03*
X157683200Y-114503200D03*
X159270700Y-114482880D03*
X175323500Y-112725200D03*
X174421800Y-111963200D03*
X163906200Y-103974900D03*
X171958000Y-102412800D03*
X155905200Y-113436400D03*
X168808400Y-110286800D03*
X169964100Y-109359700D03*
X156362400Y-114503200D03*
X158750000Y-101650800D03*
X154228800Y-113233200D03*
X172770800Y-110896400D03*
X174371000Y-110871000D03*
X170027600Y-104038400D03*
X175196500Y-108458000D03*
X171856400Y-99110800D03*
X175056800Y-109677200D03*
X173736000Y-109728000D03*
X154838400Y-114350800D03*
X172110400Y-109728000D03*
X170789600Y-110159800D03*
X171297600Y-108508800D03*
X170053000Y-107861100D03*
X154051000Y-102870000D03*
X153098500Y-102870000D03*
X152209500Y-102870000D03*
X151574500Y-104457500D03*
X151384000Y-105346500D03*
X163195000Y-107886500D03*
X162306000Y-107886500D03*
X161353500Y-107886500D03*
D12*
X138430000Y-110992500D03*
X138430000Y-111892500D03*
D13*
X126207500Y-108547500D03*
X126207500Y-109197500D03*
X126207500Y-109847500D03*
X126207500Y-110497500D03*
X126207500Y-111147500D03*
D14*
X126207500Y-107347500D03*
X126207500Y-112347500D03*
D15*
X123507500Y-106347500D03*
X123507500Y-113347500D03*
D16*
X152405500Y-89090500D03*
X151505500Y-89090500D03*
D17*
X167654500Y-96618500D03*
X166554500Y-96618500D03*
X165454500Y-96618500D03*
X164354500Y-96618500D03*
X163254500Y-96618500D03*
X162154500Y-96618500D03*
X161054500Y-96618500D03*
X159954500Y-96618500D03*
X158854500Y-96618500D03*
X157754500Y-96618500D03*
X156654500Y-96618500D03*
X155554500Y-96618500D03*
X154454500Y-96618500D03*
X153354500Y-96618500D03*
X152254500Y-96618500D03*
X151154500Y-96618500D03*
X150054500Y-96618500D03*
X148954500Y-96618500D03*
X147854500Y-96618500D03*
X146754500Y-96618500D03*
X145654500Y-96618500D03*
D18*
X144704500Y-98068500D03*
X144704500Y-99168500D03*
X144704500Y-100268500D03*
X144704500Y-101368500D03*
X144704500Y-102468500D03*
X144704500Y-103568500D03*
X144704500Y-104668500D03*
X144704500Y-105768500D03*
X144704500Y-106868500D03*
X144704500Y-107968500D03*
X144704500Y-109068500D03*
D17*
X145654500Y-110518500D03*
X146754500Y-110518500D03*
X147854500Y-110518500D03*
X148954500Y-110518500D03*
X150054500Y-110518500D03*
X151154500Y-110518500D03*
X152254500Y-110518500D03*
X153354500Y-110518500D03*
X154454500Y-110518500D03*
X155554500Y-110518500D03*
X156654500Y-110518500D03*
X157754500Y-110518500D03*
X158854500Y-110518500D03*
X159954500Y-110518500D03*
X161054500Y-110518500D03*
X162154500Y-110518500D03*
X163254500Y-110518500D03*
X164354500Y-110518500D03*
X165454500Y-110518500D03*
X166554500Y-110518500D03*
X167654500Y-110518500D03*
D18*
X168604500Y-109068500D03*
X168604500Y-107968500D03*
X168604500Y-106868500D03*
X168604500Y-105768500D03*
X168604500Y-104668500D03*
X168604500Y-103568500D03*
X168604500Y-102468500D03*
X168604500Y-101368500D03*
X168604500Y-100268500D03*
X168604500Y-99168500D03*
X168604500Y-98068500D03*
D19*
X166904500Y-98318500D03*
X166904500Y-100418500D03*
X166904500Y-102518500D03*
X166904500Y-104618500D03*
X166904500Y-106718500D03*
X166904500Y-108818500D03*
X165104500Y-98318500D03*
X165104500Y-100418500D03*
X165104500Y-102518500D03*
X165104500Y-104618500D03*
X165104500Y-106718500D03*
X165104500Y-108818500D03*
X163304500Y-98318500D03*
X163304500Y-108818500D03*
X159704500Y-98318500D03*
X159704500Y-108818500D03*
X153604500Y-98318500D03*
X153604500Y-108818500D03*
X150004500Y-98318500D03*
X150004500Y-108818500D03*
X148404500Y-98318500D03*
X148404500Y-100418500D03*
X148404500Y-102518500D03*
X148404500Y-104618500D03*
X148404500Y-106718500D03*
X148404500Y-108818500D03*
X146604500Y-98318500D03*
X146604500Y-100268500D03*
X146604500Y-102418500D03*
X146604500Y-104618500D03*
X146604500Y-106718500D03*
X146604500Y-108818500D03*
D12*
X138430000Y-112770500D03*
X138430000Y-113670500D03*
D11*
X136525000Y-107061000D03*
X136017000Y-106553000D03*
X135445500Y-107061000D03*
X135445500Y-113284000D03*
X135445500Y-112331500D03*
X135953500Y-112839500D03*
X136461500Y-113284000D03*
X136461500Y-112331500D03*
X132588000Y-109347000D03*
X133223000Y-109728000D03*
X133794500Y-109347000D03*
X141605000Y-107315000D03*
X140589000Y-107315000D03*
X139509500Y-107315000D03*
X139573000Y-108204000D03*
X140589000Y-108204000D03*
X141605000Y-108204000D03*
X141732000Y-110998000D03*
X140970000Y-110998000D03*
X140208000Y-110998000D03*
D20*
X170091100Y-116433600D03*
X170091100Y-118973600D03*
X167551100Y-116433600D03*
X167551100Y-118973600D03*
X165011100Y-116433600D03*
X165011100Y-118973600D03*
X162471100Y-116433600D03*
X162471100Y-118973600D03*
X159931100Y-116433600D03*
X159931100Y-118973600D03*
X157391100Y-116433600D03*
X157391100Y-118973600D03*
X154851100Y-116433600D03*
X154851100Y-118973600D03*
X152311100Y-116433600D03*
X152311100Y-118973600D03*
X149771100Y-116433600D03*
X149771100Y-118973600D03*
X147231100Y-116433600D03*
X147231100Y-118973600D03*
X144691100Y-116433600D03*
X144691100Y-118973600D03*
X142151100Y-116433600D03*
X142151100Y-118973600D03*
X139611100Y-116433600D03*
X139611100Y-118973600D03*
X137071100Y-116433600D03*
X137071100Y-118973600D03*
X134531100Y-116433600D03*
X134531100Y-118973600D03*
X131991100Y-116433600D03*
X131991100Y-118973600D03*
X129451100Y-116433600D03*
X129451100Y-118973600D03*
X126911100Y-116433600D03*
D21*
X126911100Y-118973600D03*
D20*
X170091100Y-91033600D03*
X170091100Y-93573600D03*
X167551100Y-91033600D03*
X167551100Y-93573600D03*
X165011100Y-91033600D03*
X165011100Y-93573600D03*
X162471100Y-91033600D03*
X162471100Y-93573600D03*
X159931100Y-91033600D03*
X159931100Y-93573600D03*
X157391100Y-91033600D03*
X157391100Y-93573600D03*
X154851100Y-91033600D03*
X154851100Y-93573600D03*
X152311100Y-91033600D03*
X152311100Y-93573600D03*
X149771100Y-91033600D03*
X149771100Y-93573600D03*
X147231100Y-91033600D03*
X147231100Y-93573600D03*
X144691100Y-91033600D03*
X144691100Y-93573600D03*
X142151100Y-91033600D03*
X142151100Y-93573600D03*
X139611100Y-91033600D03*
X139611100Y-93573600D03*
X137071100Y-91033600D03*
X137071100Y-93573600D03*
X134531100Y-91033600D03*
X134531100Y-93573600D03*
X131991100Y-91033600D03*
X131991100Y-93573600D03*
X129451100Y-91033600D03*
X129451100Y-93573600D03*
X126911100Y-91033600D03*
D21*
X126911100Y-93573600D03*
D22*
X171766500Y-106870500D03*
D23*
X173291500Y-108345500D03*
D22*
X174816500Y-106870500D03*
D23*
X173291500Y-105395500D03*
D24*
X132588000Y-112637000D03*
X132588000Y-111137000D03*
D25*
X133667500Y-111591000D03*
X133667500Y-112691000D03*
D26*
X173313000Y-102235000D03*
X174413000Y-102235000D03*
D27*
X129413000Y-98552000D03*
X126113000Y-98552000D03*
X129412000Y-103251000D03*
X126112000Y-103251000D03*
X129412000Y-100965000D03*
X126112000Y-100965000D03*
D28*
X129032000Y-105157000D03*
X129032000Y-108457000D03*
D26*
X173249500Y-99187000D03*
X174349500Y-99187000D03*
D29*
X123571000Y-99314000D03*
D30*
X123571000Y-101854000D03*
D31*
X134705000Y-104013000D03*
X137075000Y-104013000D03*
D16*
X123386000Y-96837500D03*
X122486000Y-96837500D03*
X174186000Y-101219000D03*
X173286000Y-101219000D03*
X124269500Y-95250000D03*
X125169500Y-95250000D03*
D12*
X134620000Y-112781500D03*
X134620000Y-111881500D03*
D16*
X139567500Y-114935000D03*
X140467500Y-114935000D03*
X137038500Y-114935000D03*
X136138500Y-114935000D03*
X174186000Y-100203000D03*
X173286000Y-100203000D03*
D32*
X171894500Y-94043500D03*
X171894500Y-95943500D03*
X173894500Y-94993500D03*
D33*
X140398500Y-109625000D03*
X140398500Y-112625000D03*
D34*
X129034500Y-112506000D03*
X130934500Y-112506000D03*
X129984500Y-110506000D03*
D16*
X130931500Y-109220000D03*
X131831500Y-109220000D03*
X133731000Y-113728500D03*
X134631000Y-113728500D03*
X133725500Y-114808000D03*
X134625500Y-114808000D03*
D29*
X140843000Y-103060500D03*
D30*
X140843000Y-105600500D03*
D11*
X139446000Y-110998000D03*
D24*
X137922000Y-97968500D03*
X137922000Y-96468500D03*
X136525000Y-97968500D03*
X136525000Y-96468500D03*
D35*
X137393000Y-111212000D03*
X137393000Y-110712000D03*
X137393000Y-110212000D03*
X137393000Y-109712000D03*
X137393000Y-109212000D03*
X137393000Y-108712000D03*
X137393000Y-108212000D03*
X134593000Y-108212000D03*
X134593000Y-108712000D03*
X134593000Y-109212000D03*
X134593000Y-109712000D03*
X134593000Y-110212000D03*
X134593000Y-110712000D03*
X134593000Y-111212000D03*
D36*
X135993000Y-109712000D03*
D37*
X135303000Y-111524500D03*
D38*
X135493000Y-110212000D03*
X136493000Y-110712000D03*
D37*
X135763000Y-111524500D03*
X136223000Y-111524500D03*
X136683000Y-111524500D03*
X136683000Y-107899500D03*
X136223000Y-107899500D03*
X135763000Y-107899500D03*
X135303000Y-107899500D03*
D38*
X135493000Y-109712000D03*
X135493000Y-110712000D03*
X135493000Y-109212000D03*
X135493000Y-108712000D03*
X135993000Y-108712000D03*
X135993000Y-109212000D03*
X135993000Y-109712000D03*
X135993000Y-110212000D03*
X135993000Y-110712000D03*
X136493000Y-110212000D03*
X136493000Y-109712000D03*
X136493000Y-109212000D03*
X136493000Y-108712000D03*
D39*
X161607500Y-106467991D03*
X137223500Y-99123500D03*
X144843500Y-97091500D03*
X147383500Y-103314500D03*
X156908500Y-95377000D03*
X155511500Y-95123000D03*
X151892000Y-98425000D03*
X142811500Y-108585000D03*
X130175000Y-107251500D03*
X122936000Y-112268000D03*
X129159000Y-113474500D03*
X155892500Y-100330000D03*
X157353000Y-108521500D03*
X167068500Y-107827002D03*
X166115812Y-107826316D03*
X165227000Y-107759500D03*
X164274500Y-107759500D03*
X173101000Y-92773500D03*
X130937000Y-113383002D03*
X124147790Y-116517210D03*
X157543500Y-102425500D03*
X162814000Y-104140000D03*
X143764000Y-121077010D03*
X151193500Y-106616500D03*
X130365500Y-105156000D03*
X123571000Y-95313500D03*
X130492500Y-103251000D03*
X130556000Y-100965000D03*
X130746500Y-98552000D03*
X133667500Y-110583500D03*
X137414000Y-111760000D03*
X170815000Y-95059500D03*
X124841000Y-107759500D03*
X174642479Y-100711000D03*
X158750000Y-113220500D03*
X157734000Y-112204500D03*
X139446000Y-114109500D03*
X147845925Y-95016611D03*
X154622500Y-109347000D03*
X152209500Y-111950500D03*
X151193500Y-109029500D03*
X153352500Y-112268000D03*
X165481000Y-111696500D03*
X166560500Y-111696500D03*
X167640000Y-111760000D03*
X174434500Y-103124000D03*
X174688500Y-94742000D03*
X124657553Y-109851890D03*
X124714000Y-109029500D03*
X123761500Y-104457500D03*
X175023490Y-99197813D03*
X156591000Y-97790000D03*
X157734000Y-97917000D03*
X154749500Y-98552000D03*
X155340886Y-97791794D03*
X124525709Y-110749556D03*
X150968870Y-97616990D03*
X138343220Y-115692200D03*
X143011598Y-105168298D03*
X143065500Y-98171000D03*
X138343220Y-114914400D03*
X143011598Y-104390498D03*
X150495000Y-95313500D03*
X144827498Y-96329500D03*
X166433500Y-94805500D03*
X162115500Y-97917000D03*
X160782000Y-95359521D03*
X158559500Y-97980500D03*
X160817077Y-97811112D03*
X149468050Y-95060277D03*
X147828000Y-111823500D03*
X150050500Y-111823500D03*
X148971000Y-111823500D03*
X146748500Y-111823500D03*
X146939000Y-95059500D03*
X130048000Y-108394500D03*
X128968500Y-109537500D03*
X130937000Y-111442500D03*
X139767544Y-95838513D03*
X133158936Y-95249582D03*
X128079500Y-95250000D03*
X130683000Y-95250000D03*
X135826500Y-95250000D03*
D40*
X173186000Y-102906500D02*
X173159000Y-102933500D01*
D41*
X137922000Y-97968500D02*
X137922000Y-98425000D01*
X137922000Y-98425000D02*
X137223500Y-99123500D01*
X136525000Y-97968500D02*
X136525000Y-98425000D01*
X136525000Y-98425000D02*
X137223500Y-99123500D01*
X142811500Y-108585000D02*
X143111499Y-108884999D01*
X122936000Y-112268000D02*
X124904500Y-112268000D01*
X124904500Y-112268000D02*
X124904500Y-111379000D01*
X124904500Y-111379000D02*
X125136000Y-111147500D01*
X125136000Y-111147500D02*
X126207500Y-111147500D01*
D42*
X129159000Y-113474500D02*
X129159000Y-112630500D01*
X129159000Y-112630500D02*
X129034500Y-112506000D01*
D41*
X126207500Y-111147500D02*
X125771000Y-111147500D01*
D42*
X171894500Y-94043500D02*
X171894500Y-93980000D01*
X171894500Y-93980000D02*
X173101000Y-92773500D01*
D40*
X138430000Y-113670500D02*
X136848000Y-113670500D01*
X136848000Y-113670500D02*
X136461500Y-113284000D01*
D41*
X134620000Y-112781500D02*
X134995500Y-112781500D01*
X134995500Y-112781500D02*
X135445500Y-112331500D01*
X133667500Y-112691000D02*
X134529500Y-112691000D01*
X134529500Y-112691000D02*
X134620000Y-112781500D01*
X132588000Y-112637000D02*
X133613500Y-112637000D01*
X133613500Y-112637000D02*
X133667500Y-112691000D01*
D42*
X134593000Y-110712000D02*
X135493000Y-110712000D01*
X137393000Y-110712000D02*
X136493000Y-110712000D01*
D41*
X122486000Y-96837500D02*
X122301000Y-96837500D01*
X122301000Y-96837500D02*
X122110500Y-97028000D01*
X122110500Y-97028000D02*
X122110500Y-115646200D01*
X125437900Y-118973600D02*
X126911100Y-118973600D01*
X122110500Y-115646200D02*
X125437900Y-118973600D01*
D40*
X140467500Y-114935000D02*
X140794500Y-114935000D01*
X140794500Y-114935000D02*
X140906500Y-115047000D01*
X140906500Y-115047000D02*
X140906500Y-118554500D01*
X140487400Y-118973600D02*
X139611100Y-118973600D01*
X140906500Y-118554500D02*
X140487400Y-118973600D01*
X136138500Y-114935000D02*
X136080500Y-114935000D01*
X136080500Y-114935000D02*
X135763000Y-115252500D01*
X135763000Y-115252500D02*
X135763000Y-118554500D01*
X135763000Y-118554500D02*
X136207500Y-118999000D01*
X136207500Y-118999000D02*
X137045700Y-118999000D01*
X137045700Y-118999000D02*
X137071100Y-118973600D01*
D41*
X171766500Y-106870500D02*
X168606500Y-106870500D01*
X168606500Y-106870500D02*
X168604500Y-106868500D01*
X129032000Y-105157000D02*
X130364500Y-105157000D01*
X130364500Y-105157000D02*
X130365500Y-105156000D01*
X131831500Y-109220000D02*
X132461000Y-109220000D01*
X132461000Y-109220000D02*
X132588000Y-109347000D01*
X132588000Y-111137000D02*
X132588000Y-110363000D01*
X132588000Y-110363000D02*
X133223000Y-109728000D01*
D42*
X123571000Y-95313500D02*
X124206000Y-95313500D01*
X124206000Y-95313500D02*
X124269500Y-95250000D01*
D41*
X129412000Y-103251000D02*
X130492500Y-103251000D01*
X129412000Y-100965000D02*
X130556000Y-100965000D01*
X129413000Y-98552000D02*
X130746500Y-98552000D01*
X129412000Y-100965000D02*
X129412000Y-103251000D01*
X129413000Y-98552000D02*
X129413000Y-100964000D01*
X129413000Y-100964000D02*
X129412000Y-100965000D01*
D42*
X137393000Y-111212000D02*
X137393000Y-111739000D01*
X137393000Y-111739000D02*
X137414000Y-111760000D01*
X133667500Y-111591000D02*
X133667500Y-110583500D01*
X133667500Y-110583500D02*
X134039000Y-110212000D01*
X134039000Y-110212000D02*
X134593000Y-110212000D01*
D40*
X171894500Y-95943500D02*
X171844500Y-95943500D01*
X171844500Y-95943500D02*
X170960500Y-95059500D01*
X170960500Y-95059500D02*
X170815000Y-95059500D01*
D41*
X126207500Y-108547500D02*
X125629000Y-108547500D01*
X125629000Y-108547500D02*
X124841000Y-107759500D01*
D42*
X174186000Y-100711000D02*
X174642479Y-100711000D01*
X174186000Y-100711000D02*
X174186000Y-100203000D01*
X174186000Y-101219000D02*
X174186000Y-100711000D01*
D41*
X134625500Y-114236500D02*
X134625500Y-113734000D01*
X134625500Y-114808000D02*
X134625500Y-114236500D01*
D42*
X134625500Y-114236500D02*
X134671501Y-114190499D01*
X134671501Y-114190499D02*
X139365001Y-114190499D01*
X139365001Y-114190499D02*
X139446000Y-114109500D01*
D40*
X138430000Y-110992500D02*
X139440500Y-110992500D01*
X139440500Y-110992500D02*
X139446000Y-110998000D01*
D41*
X134625500Y-113734000D02*
X134631000Y-113728500D01*
D40*
X148954500Y-96268500D02*
X147845925Y-95159925D01*
X148954500Y-96618500D02*
X148954500Y-96268500D01*
X147845925Y-95159925D02*
X147845925Y-95016611D01*
D42*
X154454500Y-110518500D02*
X154454500Y-109515000D01*
X154454500Y-109515000D02*
X154622500Y-109347000D01*
X152254500Y-110518500D02*
X152254500Y-111905500D01*
X152254500Y-111905500D02*
X152209500Y-111950500D01*
X151154500Y-110518500D02*
X151154500Y-109068500D01*
X151154500Y-109068500D02*
X151193500Y-109029500D01*
X153352500Y-112268000D02*
X153352500Y-110520500D01*
X153352500Y-110520500D02*
X153354500Y-110518500D01*
D41*
X165481000Y-111696500D02*
X165481000Y-110545000D01*
X165481000Y-110545000D02*
X165454500Y-110518500D01*
X166554500Y-110518500D02*
X166554500Y-111690500D01*
X166554500Y-111690500D02*
X166560500Y-111696500D01*
X167640000Y-111760000D02*
X167640000Y-110533000D01*
X167640000Y-110533000D02*
X167654500Y-110518500D01*
D42*
X173286000Y-101219000D02*
X173286000Y-102208000D01*
X173286000Y-102208000D02*
X173313000Y-102235000D01*
D40*
X174434500Y-103124000D02*
X174434500Y-102256500D01*
X174434500Y-102256500D02*
X174413000Y-102235000D01*
X173894500Y-94993500D02*
X174437000Y-94993500D01*
X174437000Y-94993500D02*
X174688500Y-94742000D01*
D41*
X124661943Y-109847500D02*
X124657553Y-109851890D01*
X126207500Y-109847500D02*
X124661943Y-109847500D01*
X126200000Y-109855000D02*
X126207500Y-109847500D01*
X124714000Y-109029500D02*
X124882000Y-109197500D01*
X124882000Y-109197500D02*
X126207500Y-109197500D01*
X125218500Y-98615500D02*
X126049500Y-98615500D01*
X126049500Y-98615500D02*
X126113000Y-98552000D01*
X125031500Y-97775000D02*
X125031500Y-98428500D01*
X125031500Y-98428500D02*
X125218500Y-98615500D01*
X123386000Y-96837500D02*
X124094000Y-96837500D01*
X124094000Y-96837500D02*
X125031500Y-97775000D01*
X126112000Y-103251000D02*
X124968000Y-103251000D01*
X124968000Y-103251000D02*
X123761500Y-104457500D01*
X125388001Y-101004001D02*
X125427002Y-100965000D01*
X125427002Y-100965000D02*
X126112000Y-100965000D01*
X123571000Y-101854000D02*
X124420999Y-101004001D01*
X124420999Y-101004001D02*
X125388001Y-101004001D01*
D42*
X173249500Y-99187000D02*
X173249500Y-100166500D01*
X173249500Y-100166500D02*
X173286000Y-100203000D01*
D40*
X174349500Y-99187000D02*
X175012677Y-99187000D01*
X175012677Y-99187000D02*
X175023490Y-99197813D01*
D42*
X156591000Y-97790000D02*
X156591000Y-96682000D01*
X156591000Y-96682000D02*
X156654500Y-96618500D01*
X157734000Y-97917000D02*
X157734000Y-96639000D01*
X157734000Y-96639000D02*
X157754500Y-96618500D01*
X154449501Y-97807501D02*
X154454500Y-97802502D01*
X154454500Y-97802502D02*
X154454500Y-96618500D01*
X154749500Y-98552000D02*
X154449501Y-98252001D01*
X154449501Y-98252001D02*
X154449501Y-97807501D01*
D40*
X155554500Y-96618500D02*
X155554500Y-97578180D01*
X155554500Y-97578180D02*
X155340886Y-97791794D01*
D41*
X125485030Y-110489990D02*
X124895470Y-110489990D01*
X126207500Y-110497500D02*
X125492540Y-110497500D01*
X124895470Y-110489990D02*
X124635903Y-110749556D01*
X125492540Y-110497500D02*
X125485030Y-110489990D01*
X124635903Y-110749556D02*
X124525709Y-110749556D01*
D40*
X151154500Y-96618500D02*
X151154500Y-97495500D01*
X151154500Y-97495500D02*
X151033010Y-97616990D01*
X151033010Y-97616990D02*
X150968870Y-97616990D01*
D42*
X134593000Y-111212000D02*
X134593000Y-111854500D01*
X134593000Y-111854500D02*
X134620000Y-111881500D01*
D40*
X138430000Y-111892500D02*
X138330000Y-111892500D01*
X138330000Y-111892500D02*
X137883510Y-111446010D01*
X137883510Y-111446010D02*
X137883510Y-110522510D01*
X137883510Y-110522510D02*
X137573000Y-110212000D01*
X137573000Y-110212000D02*
X137393000Y-110212000D01*
X138430000Y-111892500D02*
X138430000Y-112770500D01*
X139567500Y-114935000D02*
X139100420Y-114935000D01*
X139100420Y-114935000D02*
X138343220Y-115692200D01*
X143336971Y-104931797D02*
X143248099Y-104931797D01*
X143776074Y-105370900D02*
X143336971Y-104931797D01*
X143248099Y-104931797D02*
X143011598Y-105168298D01*
X144704500Y-105768500D02*
X144354500Y-105768500D01*
X144354500Y-105768500D02*
X143956900Y-105370900D01*
X143956900Y-105370900D02*
X143776074Y-105370900D01*
D42*
X143065500Y-98869500D02*
X143364500Y-99168500D01*
X143364500Y-99168500D02*
X144704500Y-99168500D01*
X143065500Y-98171000D02*
X143065500Y-98869500D01*
D40*
X137721100Y-114579400D02*
X138008220Y-114579400D01*
X138008220Y-114579400D02*
X138343220Y-114914400D01*
X137038500Y-114935000D02*
X137365500Y-114935000D01*
X137365500Y-114935000D02*
X137721100Y-114579400D01*
X143463225Y-104626999D02*
X143248099Y-104626999D01*
X143248099Y-104626999D02*
X143011598Y-104390498D01*
X143902326Y-105066100D02*
X143463225Y-104626999D01*
X144704500Y-104668500D02*
X144354500Y-104668500D01*
X144354500Y-104668500D02*
X143956900Y-105066100D01*
X143956900Y-105066100D02*
X143902326Y-105066100D01*
X150495000Y-95313500D02*
X151826500Y-95313500D01*
X151826500Y-95313500D02*
X152254500Y-95741500D01*
X152254500Y-95741500D02*
X152254500Y-96618500D01*
X152209500Y-96663500D02*
X152254500Y-96618500D01*
D42*
X166554500Y-96618500D02*
X166554500Y-94926500D01*
X166554500Y-94926500D02*
X166433500Y-94805500D01*
D40*
X162115500Y-97917000D02*
X162115500Y-97492736D01*
X162115500Y-97492736D02*
X162154500Y-97453736D01*
X162154500Y-97453736D02*
X162154500Y-96618500D01*
X159954500Y-96618500D02*
X159954500Y-96268500D01*
X159954500Y-96268500D02*
X160782000Y-95441000D01*
X160782000Y-95441000D02*
X160782000Y-95359521D01*
X158854500Y-97685500D02*
X158559500Y-97980500D01*
X158854500Y-96618500D02*
X158854500Y-97685500D01*
X161014888Y-97811112D02*
X161054500Y-97771500D01*
X161054500Y-97771500D02*
X161054500Y-96618500D01*
X160817077Y-97811112D02*
X161014888Y-97811112D01*
D42*
X149779776Y-95360276D02*
X149779776Y-96343776D01*
X149779776Y-96343776D02*
X150054500Y-96618500D01*
X149468050Y-95060277D02*
X149768049Y-95360276D01*
X149768049Y-95360276D02*
X149779776Y-95360276D01*
X147854500Y-110518500D02*
X147854500Y-111797000D01*
X147854500Y-111797000D02*
X147828000Y-111823500D01*
X150054500Y-110518500D02*
X150054500Y-111819500D01*
X150054500Y-111819500D02*
X150050500Y-111823500D01*
X148954500Y-110518500D02*
X148954500Y-111807000D01*
X148954500Y-111807000D02*
X148971000Y-111823500D01*
X146754500Y-110518500D02*
X146754500Y-111817500D01*
X146754500Y-111817500D02*
X146748500Y-111823500D01*
X146939000Y-95059500D02*
X147854500Y-95975000D01*
X147854500Y-95975000D02*
X147854500Y-96618500D01*
D41*
X162219642Y-89090500D02*
X152527000Y-89090500D01*
X163830000Y-95358198D02*
X163830000Y-90700858D01*
X163830000Y-90700858D02*
X162219642Y-89090500D01*
X164354500Y-96618500D02*
X164354500Y-95882698D01*
X164354500Y-95882698D02*
X163830000Y-95358198D01*
D42*
X130048000Y-108394500D02*
X129094500Y-108394500D01*
X129094500Y-108394500D02*
X129032000Y-108457000D01*
D41*
X130223500Y-109220000D02*
X129906000Y-109537500D01*
X129906000Y-109537500D02*
X128968500Y-109537500D01*
X130931500Y-109220000D02*
X130223500Y-109220000D01*
D42*
X130937000Y-111442500D02*
X130937000Y-112503500D01*
X130937000Y-112503500D02*
X130934500Y-112506000D01*
D41*
X133731000Y-113728500D02*
X132218698Y-113728500D01*
X132218698Y-113728500D02*
X131699000Y-113208802D01*
X131699000Y-113208802D02*
X131699000Y-112712500D01*
X131699000Y-112712500D02*
X131492500Y-112506000D01*
X131492500Y-112506000D02*
X130934500Y-112506000D01*
X130873500Y-114808000D02*
X129984500Y-113919000D01*
X129984500Y-113919000D02*
X129984500Y-110506000D01*
X133725500Y-114808000D02*
X130873500Y-114808000D01*
X137922000Y-96075500D02*
X138158987Y-95838513D01*
X138158987Y-95838513D02*
X139767544Y-95838513D01*
X137922000Y-96468500D02*
X137922000Y-96075500D01*
D42*
X137922000Y-96468500D02*
X137922000Y-96202500D01*
D41*
X140906500Y-94297500D02*
X139767544Y-95436456D01*
X139767544Y-95436456D02*
X139767544Y-95838513D01*
X140906500Y-90106500D02*
X140906500Y-94297500D01*
X141922500Y-89090500D02*
X140906500Y-90106500D01*
X151505500Y-89090500D02*
X141922500Y-89090500D01*
X136525000Y-96468500D02*
X136525000Y-95948500D01*
X136525000Y-95948500D02*
X135826500Y-95250000D01*
X135826500Y-95250000D02*
X133159354Y-95250000D01*
X133159354Y-95250000D02*
X133158936Y-95249582D01*
X133158518Y-95250000D02*
X133158936Y-95249582D01*
X130683000Y-95250000D02*
X133158518Y-95250000D01*
X125169500Y-95250000D02*
X128079500Y-95250000D01*
X128079500Y-95250000D02*
X130683000Y-95250000D01*
D40*
G36*
X146448586Y-94961506D02*
X146448415Y-95156638D01*
X146522932Y-95336983D01*
X146660792Y-95475083D01*
X146841006Y-95549914D01*
X146980524Y-95550036D01*
X147266789Y-95836301D01*
X147260268Y-95868500D01*
X147260268Y-97368500D01*
X147273551Y-97439095D01*
X147315273Y-97503932D01*
X147378933Y-97547429D01*
X147454500Y-97562732D01*
X148254500Y-97562732D01*
X148325095Y-97549449D01*
X148389932Y-97507727D01*
X148404240Y-97486786D01*
X148415273Y-97503932D01*
X148478933Y-97547429D01*
X148554500Y-97562732D01*
X149354500Y-97562732D01*
X149425095Y-97549449D01*
X149489932Y-97507727D01*
X149504240Y-97486786D01*
X149515273Y-97503932D01*
X149578933Y-97547429D01*
X149654500Y-97562732D01*
X150454500Y-97562732D01*
X150478422Y-97558231D01*
X150478285Y-97714128D01*
X150552802Y-97894473D01*
X150690662Y-98032573D01*
X150870876Y-98107404D01*
X151066008Y-98107575D01*
X151246353Y-98033058D01*
X151384453Y-97895198D01*
X151459284Y-97714984D01*
X151459417Y-97562732D01*
X151554500Y-97562732D01*
X151625095Y-97549449D01*
X151689932Y-97507727D01*
X151704240Y-97486786D01*
X151715273Y-97503932D01*
X151778933Y-97547429D01*
X151854500Y-97562732D01*
X152654500Y-97562732D01*
X152725095Y-97549449D01*
X152789932Y-97507727D01*
X152833429Y-97444067D01*
X152848732Y-97368500D01*
X152848732Y-95868500D01*
X153860268Y-95868500D01*
X153860268Y-97368500D01*
X153873551Y-97439095D01*
X153915273Y-97503932D01*
X153978933Y-97547429D01*
X154054500Y-97562732D01*
X154137000Y-97562732D01*
X154137000Y-97782369D01*
X154132001Y-97807501D01*
X154132001Y-98252001D01*
X154148030Y-98332583D01*
X154156169Y-98373503D01*
X154224995Y-98476507D01*
X154259036Y-98510549D01*
X154258915Y-98649138D01*
X154333432Y-98829483D01*
X154471292Y-98967583D01*
X154651506Y-99042414D01*
X154846638Y-99042585D01*
X155026983Y-98968068D01*
X155158279Y-98837000D01*
X172755268Y-98837000D01*
X172755268Y-99537000D01*
X172768551Y-99607595D01*
X172810273Y-99672432D01*
X172873933Y-99715929D01*
X172932000Y-99727688D01*
X172932000Y-99790948D01*
X172907071Y-99827433D01*
X172891768Y-99903000D01*
X172891768Y-100503000D01*
X172905051Y-100573595D01*
X172946773Y-100638432D01*
X173010433Y-100681929D01*
X173086000Y-100697232D01*
X173486000Y-100697232D01*
X173556595Y-100683949D01*
X173621432Y-100642227D01*
X173664929Y-100578567D01*
X173680232Y-100503000D01*
X173680232Y-99903000D01*
X173791768Y-99903000D01*
X173791768Y-100503000D01*
X173805051Y-100573595D01*
X173846773Y-100638432D01*
X173868500Y-100653277D01*
X173868500Y-100768234D01*
X173850568Y-100779773D01*
X173807071Y-100843433D01*
X173791768Y-100919000D01*
X173791768Y-101519000D01*
X173805051Y-101589595D01*
X173846773Y-101654432D01*
X173910433Y-101697929D01*
X173986000Y-101713232D01*
X174028138Y-101713232D01*
X173977568Y-101745773D01*
X173934071Y-101809433D01*
X173918768Y-101885000D01*
X173918768Y-102585000D01*
X173932051Y-102655595D01*
X173973773Y-102720432D01*
X174037433Y-102763929D01*
X174090215Y-102774618D01*
X174018917Y-102845792D01*
X173944086Y-103026006D01*
X173943915Y-103221138D01*
X174018432Y-103401483D01*
X174156292Y-103539583D01*
X174336506Y-103614414D01*
X174531638Y-103614585D01*
X174711983Y-103540068D01*
X174850083Y-103402208D01*
X174924914Y-103221994D01*
X174925085Y-103026862D01*
X174850568Y-102846517D01*
X174772268Y-102768080D01*
X174783595Y-102765949D01*
X174848432Y-102724227D01*
X174891929Y-102660567D01*
X174907232Y-102585000D01*
X174907232Y-101885000D01*
X174893949Y-101814405D01*
X174852227Y-101749568D01*
X174788567Y-101706071D01*
X174713000Y-101690768D01*
X174470862Y-101690768D01*
X174521432Y-101658227D01*
X174564929Y-101594567D01*
X174580232Y-101519000D01*
X174580232Y-101201445D01*
X174739617Y-101201585D01*
X174919962Y-101127068D01*
X175058062Y-100989208D01*
X175132893Y-100808994D01*
X175133064Y-100613862D01*
X175058547Y-100433517D01*
X174920687Y-100295417D01*
X174740473Y-100220586D01*
X174580232Y-100220446D01*
X174580232Y-99903000D01*
X174566949Y-99832405D01*
X174525227Y-99767568D01*
X174472047Y-99731232D01*
X174649500Y-99731232D01*
X174720095Y-99717949D01*
X174784932Y-99676227D01*
X174809611Y-99640108D01*
X174925496Y-99688227D01*
X175120628Y-99688398D01*
X175300973Y-99613881D01*
X175439073Y-99476021D01*
X175513904Y-99295807D01*
X175514075Y-99100675D01*
X175439558Y-98920330D01*
X175301698Y-98782230D01*
X175121484Y-98707399D01*
X174926352Y-98707228D01*
X174820511Y-98750961D01*
X174788727Y-98701568D01*
X174725067Y-98658071D01*
X174649500Y-98642768D01*
X174049500Y-98642768D01*
X173978905Y-98656051D01*
X173914068Y-98697773D01*
X173870571Y-98761433D01*
X173855268Y-98837000D01*
X173855268Y-99537000D01*
X173868551Y-99607595D01*
X173910273Y-99672432D01*
X173968321Y-99712094D01*
X173915405Y-99722051D01*
X173850568Y-99763773D01*
X173807071Y-99827433D01*
X173791768Y-99903000D01*
X173680232Y-99903000D01*
X173666949Y-99832405D01*
X173625227Y-99767568D01*
X173567179Y-99727906D01*
X173620095Y-99717949D01*
X173684932Y-99676227D01*
X173728429Y-99612567D01*
X173743732Y-99537000D01*
X173743732Y-98837000D01*
X173730449Y-98766405D01*
X173688727Y-98701568D01*
X173625067Y-98658071D01*
X173549500Y-98642768D01*
X172949500Y-98642768D01*
X172878905Y-98656051D01*
X172814068Y-98697773D01*
X172770571Y-98761433D01*
X172755268Y-98837000D01*
X155158279Y-98837000D01*
X155165083Y-98830208D01*
X155239914Y-98649994D01*
X155240085Y-98454862D01*
X155165568Y-98274517D01*
X155123938Y-98232814D01*
X155242892Y-98282208D01*
X155438024Y-98282379D01*
X155618369Y-98207862D01*
X155756469Y-98070002D01*
X155831300Y-97889788D01*
X155831471Y-97694656D01*
X155800325Y-97619278D01*
X155808500Y-97578180D01*
X155808500Y-97562732D01*
X155954500Y-97562732D01*
X156025095Y-97549449D01*
X156089932Y-97507727D01*
X156104240Y-97486786D01*
X156115273Y-97503932D01*
X156164667Y-97537681D01*
X156100586Y-97692006D01*
X156100415Y-97887138D01*
X156174932Y-98067483D01*
X156312792Y-98205583D01*
X156493006Y-98280414D01*
X156688138Y-98280585D01*
X156868483Y-98206068D01*
X157006583Y-98068208D01*
X157081414Y-97887994D01*
X157081585Y-97692862D01*
X157027816Y-97562732D01*
X157054500Y-97562732D01*
X157125095Y-97549449D01*
X157189932Y-97507727D01*
X157204240Y-97486786D01*
X157215273Y-97503932D01*
X157278933Y-97547429D01*
X157354500Y-97562732D01*
X157394609Y-97562732D01*
X157318417Y-97638792D01*
X157243586Y-97819006D01*
X157243415Y-98014138D01*
X157317932Y-98194483D01*
X157455792Y-98332583D01*
X157636006Y-98407414D01*
X157831138Y-98407585D01*
X158011483Y-98333068D01*
X158126865Y-98217887D01*
X158143432Y-98257983D01*
X158281292Y-98396083D01*
X158461506Y-98470914D01*
X158656638Y-98471085D01*
X158836983Y-98396568D01*
X158975083Y-98258708D01*
X159049914Y-98078494D01*
X159050085Y-97883362D01*
X159039318Y-97857303D01*
X159070182Y-97811112D01*
X159089165Y-97782702D01*
X159108500Y-97685500D01*
X159108500Y-97562732D01*
X159254500Y-97562732D01*
X159325095Y-97549449D01*
X159389932Y-97507727D01*
X159404240Y-97486786D01*
X159415273Y-97503932D01*
X159478933Y-97547429D01*
X159554500Y-97562732D01*
X160354500Y-97562732D01*
X160392041Y-97555668D01*
X160326663Y-97713118D01*
X160326492Y-97908250D01*
X160401009Y-98088595D01*
X160538869Y-98226695D01*
X160719083Y-98301526D01*
X160914215Y-98301697D01*
X161094560Y-98227180D01*
X161232660Y-98089320D01*
X161307491Y-97909106D01*
X161307608Y-97775986D01*
X161308500Y-97771500D01*
X161308500Y-97562732D01*
X161454500Y-97562732D01*
X161525095Y-97549449D01*
X161589932Y-97507727D01*
X161604240Y-97486786D01*
X161615273Y-97503932D01*
X161678933Y-97547429D01*
X161754500Y-97562732D01*
X161776109Y-97562732D01*
X161699917Y-97638792D01*
X161625086Y-97819006D01*
X161624915Y-98014138D01*
X161699432Y-98194483D01*
X161837292Y-98332583D01*
X162017506Y-98407414D01*
X162212638Y-98407585D01*
X162392983Y-98333068D01*
X162531083Y-98195208D01*
X162605914Y-98014994D01*
X162606085Y-97819862D01*
X162531568Y-97639517D01*
X162454916Y-97562732D01*
X162554500Y-97562732D01*
X162625095Y-97549449D01*
X162689932Y-97507727D01*
X162733429Y-97444067D01*
X162748732Y-97368500D01*
X162748732Y-95868500D01*
X162735449Y-95797905D01*
X162693727Y-95733068D01*
X162630067Y-95689571D01*
X162554500Y-95674268D01*
X161754500Y-95674268D01*
X161683905Y-95687551D01*
X161619068Y-95729273D01*
X161604760Y-95750214D01*
X161593727Y-95733068D01*
X161530067Y-95689571D01*
X161454500Y-95674268D01*
X161160980Y-95674268D01*
X161197583Y-95637729D01*
X161272414Y-95457515D01*
X161272585Y-95262383D01*
X161198068Y-95082038D01*
X161060208Y-94943938D01*
X160879994Y-94869107D01*
X160684862Y-94868936D01*
X160504517Y-94943453D01*
X160366417Y-95081313D01*
X160291586Y-95261527D01*
X160291415Y-95456659D01*
X160325248Y-95538542D01*
X160189522Y-95674268D01*
X159554500Y-95674268D01*
X159483905Y-95687551D01*
X159419068Y-95729273D01*
X159404760Y-95750214D01*
X159393727Y-95733068D01*
X159330067Y-95689571D01*
X159254500Y-95674268D01*
X158454500Y-95674268D01*
X158383905Y-95687551D01*
X158319068Y-95729273D01*
X158304760Y-95750214D01*
X158293727Y-95733068D01*
X158230067Y-95689571D01*
X158154500Y-95674268D01*
X157354500Y-95674268D01*
X157283905Y-95687551D01*
X157219068Y-95729273D01*
X157204760Y-95750214D01*
X157193727Y-95733068D01*
X157130067Y-95689571D01*
X157054500Y-95674268D01*
X156254500Y-95674268D01*
X156183905Y-95687551D01*
X156119068Y-95729273D01*
X156104760Y-95750214D01*
X156093727Y-95733068D01*
X156030067Y-95689571D01*
X155954500Y-95674268D01*
X155154500Y-95674268D01*
X155083905Y-95687551D01*
X155019068Y-95729273D01*
X155004760Y-95750214D01*
X154993727Y-95733068D01*
X154930067Y-95689571D01*
X154854500Y-95674268D01*
X154054500Y-95674268D01*
X153983905Y-95687551D01*
X153919068Y-95729273D01*
X153875571Y-95792933D01*
X153860268Y-95868500D01*
X152848732Y-95868500D01*
X152835449Y-95797905D01*
X152793727Y-95733068D01*
X152730067Y-95689571D01*
X152654500Y-95674268D01*
X152495127Y-95674268D01*
X152489165Y-95644298D01*
X152434105Y-95561895D01*
X152006105Y-95133895D01*
X151988523Y-95122147D01*
X151923702Y-95078835D01*
X151826500Y-95059500D01*
X150920771Y-95059500D01*
X150911068Y-95036017D01*
X150773208Y-94897917D01*
X150592994Y-94823086D01*
X150397862Y-94822915D01*
X150217517Y-94897432D01*
X150079417Y-95035292D01*
X150024889Y-95166610D01*
X150004282Y-95135770D01*
X149968943Y-95112157D01*
X149958514Y-95101728D01*
X149958635Y-94963139D01*
X149893500Y-94805500D01*
X163385500Y-94805500D01*
X163385500Y-95358198D01*
X163419336Y-95528301D01*
X163515691Y-95672507D01*
X163760268Y-95917084D01*
X163760268Y-97368500D01*
X163773551Y-97439095D01*
X163815273Y-97503932D01*
X163878933Y-97547429D01*
X163954500Y-97562732D01*
X164754500Y-97562732D01*
X164825095Y-97549449D01*
X164889932Y-97507727D01*
X164933429Y-97444067D01*
X164948732Y-97368500D01*
X164948732Y-95868500D01*
X164935449Y-95797905D01*
X164893727Y-95733068D01*
X164830067Y-95689571D01*
X164754500Y-95674268D01*
X164739555Y-95674268D01*
X164668809Y-95568389D01*
X164274500Y-95174080D01*
X164274500Y-94805500D01*
X165943000Y-94805500D01*
X165942915Y-94902638D01*
X166017432Y-95082983D01*
X166155292Y-95221083D01*
X166237000Y-95255011D01*
X166237000Y-95674268D01*
X166154500Y-95674268D01*
X166083905Y-95687551D01*
X166019068Y-95729273D01*
X165975571Y-95792933D01*
X165960268Y-95868500D01*
X165960268Y-97368500D01*
X165973551Y-97439095D01*
X166015273Y-97503932D01*
X166078933Y-97547429D01*
X166154500Y-97562732D01*
X166954500Y-97562732D01*
X167025095Y-97549449D01*
X167089932Y-97507727D01*
X167133429Y-97444067D01*
X167148732Y-97368500D01*
X167148732Y-97326844D01*
X171149389Y-97326844D01*
X171246694Y-97562340D01*
X171426712Y-97742673D01*
X171662038Y-97840388D01*
X171916844Y-97840611D01*
X172152340Y-97743306D01*
X172332673Y-97563288D01*
X172430388Y-97327962D01*
X172430611Y-97073156D01*
X172333306Y-96837660D01*
X172153288Y-96657327D01*
X171917962Y-96559612D01*
X171663156Y-96559389D01*
X171427660Y-96656694D01*
X171247327Y-96836712D01*
X171149612Y-97072038D01*
X171149389Y-97326844D01*
X167148732Y-97326844D01*
X167148732Y-95868500D01*
X167135449Y-95797905D01*
X167093727Y-95733068D01*
X167030067Y-95689571D01*
X166954500Y-95674268D01*
X166872000Y-95674268D01*
X166872000Y-95028517D01*
X166923914Y-94903494D01*
X166924000Y-94805500D01*
X170389365Y-94805500D01*
X170324586Y-94961506D01*
X170324415Y-95156638D01*
X170398932Y-95336983D01*
X170536792Y-95475083D01*
X170717006Y-95549914D01*
X170912138Y-95550085D01*
X171039323Y-95497533D01*
X171250268Y-95708478D01*
X171250268Y-96343500D01*
X171263551Y-96414095D01*
X171305273Y-96478932D01*
X171368933Y-96522429D01*
X171444500Y-96537732D01*
X172344500Y-96537732D01*
X172415095Y-96524449D01*
X172479932Y-96482727D01*
X172523429Y-96419067D01*
X172538732Y-96343500D01*
X172538732Y-95543500D01*
X172525449Y-95472905D01*
X172483727Y-95408068D01*
X172420067Y-95364571D01*
X172344500Y-95349268D01*
X171609478Y-95349268D01*
X171305512Y-95045302D01*
X171305585Y-94962362D01*
X171240771Y-94805500D01*
X173250268Y-94805500D01*
X173250268Y-95393500D01*
X173263551Y-95464095D01*
X173305273Y-95528932D01*
X173368933Y-95572429D01*
X173444500Y-95587732D01*
X174344500Y-95587732D01*
X174415095Y-95574449D01*
X174479932Y-95532727D01*
X174523429Y-95469067D01*
X174538732Y-95393500D01*
X174538732Y-95225138D01*
X174551859Y-95216367D01*
X174590506Y-95232414D01*
X174785638Y-95232585D01*
X174965983Y-95158068D01*
X175104083Y-95020208D01*
X175178914Y-94839994D01*
X175178944Y-94805500D01*
X175193713Y-94805500D01*
X175735600Y-97529752D01*
X175735600Y-112477448D01*
X175236640Y-114985893D01*
X141036405Y-114817695D01*
X140974105Y-114755395D01*
X140891702Y-114700335D01*
X140861732Y-114694373D01*
X140861732Y-114635000D01*
X140848449Y-114564405D01*
X140806727Y-114499568D01*
X140743067Y-114456071D01*
X140667500Y-114440768D01*
X140267500Y-114440768D01*
X140196905Y-114454051D01*
X140132068Y-114495773D01*
X140088571Y-114559433D01*
X140073268Y-114635000D01*
X140073268Y-114812958D01*
X139961732Y-114812409D01*
X139961732Y-114635000D01*
X139948449Y-114564405D01*
X139906727Y-114499568D01*
X139843067Y-114456071D01*
X139801528Y-114447659D01*
X139861583Y-114387708D01*
X139936414Y-114207494D01*
X139936585Y-114012362D01*
X139862068Y-113832017D01*
X139724208Y-113693917D01*
X139543994Y-113619086D01*
X139348862Y-113618915D01*
X139168517Y-113693432D01*
X139119434Y-113742430D01*
X139116022Y-113317638D01*
X158259415Y-113317638D01*
X158333932Y-113497983D01*
X158471792Y-113636083D01*
X158652006Y-113710914D01*
X158847138Y-113711085D01*
X159027483Y-113636568D01*
X159165583Y-113498708D01*
X159240414Y-113318494D01*
X159240585Y-113123362D01*
X159166068Y-112943017D01*
X159028208Y-112804917D01*
X158847994Y-112730086D01*
X158652862Y-112729915D01*
X158472517Y-112804432D01*
X158334417Y-112942292D01*
X158259586Y-113122506D01*
X158259415Y-113317638D01*
X139116022Y-113317638D01*
X139103612Y-111772700D01*
X142138400Y-111772700D01*
X142163105Y-111767697D01*
X142183917Y-111753477D01*
X142197557Y-111732280D01*
X142201900Y-111709200D01*
X142201900Y-111144670D01*
X142222135Y-111095939D01*
X142222305Y-110900917D01*
X142201900Y-110851533D01*
X142201900Y-109768500D01*
X146160268Y-109768500D01*
X146160268Y-111268500D01*
X146173551Y-111339095D01*
X146215273Y-111403932D01*
X146278933Y-111447429D01*
X146354500Y-111462732D01*
X146415621Y-111462732D01*
X146332917Y-111545292D01*
X146258086Y-111725506D01*
X146257915Y-111920638D01*
X146332432Y-112100983D01*
X146470292Y-112239083D01*
X146650506Y-112313914D01*
X146845638Y-112314085D01*
X147025983Y-112239568D01*
X147164083Y-112101708D01*
X147238914Y-111921494D01*
X147239085Y-111726362D01*
X147164568Y-111546017D01*
X147081428Y-111462732D01*
X147154500Y-111462732D01*
X147225095Y-111449449D01*
X147289932Y-111407727D01*
X147304240Y-111386786D01*
X147315273Y-111403932D01*
X147378933Y-111447429D01*
X147454500Y-111462732D01*
X147495121Y-111462732D01*
X147412417Y-111545292D01*
X147337586Y-111725506D01*
X147337415Y-111920638D01*
X147411932Y-112100983D01*
X147549792Y-112239083D01*
X147730006Y-112313914D01*
X147925138Y-112314085D01*
X148105483Y-112239568D01*
X148243583Y-112101708D01*
X148318414Y-111921494D01*
X148318585Y-111726362D01*
X148244068Y-111546017D01*
X148172000Y-111473824D01*
X148172000Y-111462732D01*
X148254500Y-111462732D01*
X148325095Y-111449449D01*
X148389932Y-111407727D01*
X148404240Y-111386786D01*
X148415273Y-111403932D01*
X148478933Y-111447429D01*
X148554500Y-111462732D01*
X148637000Y-111462732D01*
X148637000Y-111463851D01*
X148555417Y-111545292D01*
X148480586Y-111725506D01*
X148480415Y-111920638D01*
X148554932Y-112100983D01*
X148692792Y-112239083D01*
X148873006Y-112313914D01*
X149068138Y-112314085D01*
X149248483Y-112239568D01*
X149386583Y-112101708D01*
X149461414Y-111921494D01*
X149461585Y-111726362D01*
X149387068Y-111546017D01*
X149303928Y-111462732D01*
X149354500Y-111462732D01*
X149425095Y-111449449D01*
X149489932Y-111407727D01*
X149504240Y-111386786D01*
X149515273Y-111403932D01*
X149578933Y-111447429D01*
X149654500Y-111462732D01*
X149717621Y-111462732D01*
X149634917Y-111545292D01*
X149560086Y-111725506D01*
X149559915Y-111920638D01*
X149634432Y-112100983D01*
X149772292Y-112239083D01*
X149952506Y-112313914D01*
X150147638Y-112314085D01*
X150327983Y-112239568D01*
X150466083Y-112101708D01*
X150540914Y-111921494D01*
X150541085Y-111726362D01*
X150466568Y-111546017D01*
X150383428Y-111462732D01*
X150454500Y-111462732D01*
X150525095Y-111449449D01*
X150589932Y-111407727D01*
X150604240Y-111386786D01*
X150615273Y-111403932D01*
X150678933Y-111447429D01*
X150754500Y-111462732D01*
X151554500Y-111462732D01*
X151625095Y-111449449D01*
X151689932Y-111407727D01*
X151704240Y-111386786D01*
X151715273Y-111403932D01*
X151778933Y-111447429D01*
X151854500Y-111462732D01*
X151937000Y-111462732D01*
X151937000Y-111532373D01*
X151932017Y-111534432D01*
X151793917Y-111672292D01*
X151719086Y-111852506D01*
X151718915Y-112047638D01*
X151793432Y-112227983D01*
X151931292Y-112366083D01*
X152111506Y-112440914D01*
X152306638Y-112441085D01*
X152486983Y-112366568D01*
X152625083Y-112228708D01*
X152699914Y-112048494D01*
X152700085Y-111853362D01*
X152625568Y-111673017D01*
X152572000Y-111619356D01*
X152572000Y-111462732D01*
X152654500Y-111462732D01*
X152725095Y-111449449D01*
X152789932Y-111407727D01*
X152804240Y-111386786D01*
X152815273Y-111403932D01*
X152878933Y-111447429D01*
X152954500Y-111462732D01*
X153035000Y-111462732D01*
X153035000Y-111891879D01*
X152936917Y-111989792D01*
X152862086Y-112170006D01*
X152861915Y-112365138D01*
X152936432Y-112545483D01*
X153074292Y-112683583D01*
X153254506Y-112758414D01*
X153449638Y-112758585D01*
X153629983Y-112684068D01*
X153768083Y-112546208D01*
X153842914Y-112365994D01*
X153842970Y-112301638D01*
X157243415Y-112301638D01*
X157317932Y-112481983D01*
X157455792Y-112620083D01*
X157636006Y-112694914D01*
X157831138Y-112695085D01*
X158011483Y-112620568D01*
X158149583Y-112482708D01*
X158224414Y-112302494D01*
X158224585Y-112107362D01*
X158150068Y-111927017D01*
X158012208Y-111788917D01*
X157831994Y-111714086D01*
X157636862Y-111713915D01*
X157456517Y-111788432D01*
X157318417Y-111926292D01*
X157243586Y-112106506D01*
X157243415Y-112301638D01*
X153842970Y-112301638D01*
X153843085Y-112170862D01*
X153768568Y-111990517D01*
X153670000Y-111891777D01*
X153670000Y-111462732D01*
X153754500Y-111462732D01*
X153825095Y-111449449D01*
X153889932Y-111407727D01*
X153904240Y-111386786D01*
X153915273Y-111403932D01*
X153978933Y-111447429D01*
X154054500Y-111462732D01*
X154854500Y-111462732D01*
X154925095Y-111449449D01*
X154989932Y-111407727D01*
X155004240Y-111386786D01*
X155015273Y-111403932D01*
X155078933Y-111447429D01*
X155154500Y-111462732D01*
X155954500Y-111462732D01*
X156025095Y-111449449D01*
X156089932Y-111407727D01*
X156133429Y-111344067D01*
X156148732Y-111268500D01*
X156148732Y-109768500D01*
X157160268Y-109768500D01*
X157160268Y-111268500D01*
X157173551Y-111339095D01*
X157215273Y-111403932D01*
X157278933Y-111447429D01*
X157354500Y-111462732D01*
X158154500Y-111462732D01*
X158225095Y-111449449D01*
X158289932Y-111407727D01*
X158304240Y-111386786D01*
X158315273Y-111403932D01*
X158378933Y-111447429D01*
X158454500Y-111462732D01*
X159254500Y-111462732D01*
X159325095Y-111449449D01*
X159389932Y-111407727D01*
X159404240Y-111386786D01*
X159415273Y-111403932D01*
X159478933Y-111447429D01*
X159554500Y-111462732D01*
X160354500Y-111462732D01*
X160425095Y-111449449D01*
X160489932Y-111407727D01*
X160504240Y-111386786D01*
X160515273Y-111403932D01*
X160578933Y-111447429D01*
X160654500Y-111462732D01*
X161454500Y-111462732D01*
X161525095Y-111449449D01*
X161589932Y-111407727D01*
X161604240Y-111386786D01*
X161615273Y-111403932D01*
X161678933Y-111447429D01*
X161754500Y-111462732D01*
X162554500Y-111462732D01*
X162625095Y-111449449D01*
X162689932Y-111407727D01*
X162704240Y-111386786D01*
X162715273Y-111403932D01*
X162778933Y-111447429D01*
X162854500Y-111462732D01*
X163654500Y-111462732D01*
X163725095Y-111449449D01*
X163789932Y-111407727D01*
X163833429Y-111344067D01*
X163848732Y-111268500D01*
X163848732Y-109768500D01*
X164860268Y-109768500D01*
X164860268Y-111268500D01*
X164873551Y-111339095D01*
X164915273Y-111403932D01*
X164978933Y-111447429D01*
X165036500Y-111459087D01*
X165036500Y-111487932D01*
X164990586Y-111598506D01*
X164990415Y-111793638D01*
X165064932Y-111973983D01*
X165202792Y-112112083D01*
X165383006Y-112186914D01*
X165578138Y-112187085D01*
X165758483Y-112112568D01*
X165896583Y-111974708D01*
X165971414Y-111794494D01*
X165971585Y-111599362D01*
X165925500Y-111487828D01*
X165925500Y-111449188D01*
X165989932Y-111407727D01*
X166004240Y-111386786D01*
X166015273Y-111403932D01*
X166078933Y-111447429D01*
X166110000Y-111453720D01*
X166110000Y-111502382D01*
X166070086Y-111598506D01*
X166069915Y-111793638D01*
X166144432Y-111973983D01*
X166282292Y-112112083D01*
X166462506Y-112186914D01*
X166657638Y-112187085D01*
X166837983Y-112112568D01*
X166976083Y-111974708D01*
X167050914Y-111794494D01*
X167051085Y-111599362D01*
X166999000Y-111473307D01*
X166999000Y-111454359D01*
X167025095Y-111449449D01*
X167089932Y-111407727D01*
X167104240Y-111386786D01*
X167115273Y-111403932D01*
X167178933Y-111447429D01*
X167195500Y-111450784D01*
X167195500Y-111551432D01*
X167149586Y-111662006D01*
X167149415Y-111857138D01*
X167223932Y-112037483D01*
X167361792Y-112175583D01*
X167542006Y-112250414D01*
X167737138Y-112250585D01*
X167917483Y-112176068D01*
X168055583Y-112038208D01*
X168130414Y-111857994D01*
X168130585Y-111662862D01*
X168084500Y-111551328D01*
X168084500Y-111457087D01*
X168125095Y-111449449D01*
X168189932Y-111407727D01*
X168233429Y-111344067D01*
X168248732Y-111268500D01*
X168248732Y-109768500D01*
X168235449Y-109697905D01*
X168193727Y-109633068D01*
X168130067Y-109589571D01*
X168054500Y-109574268D01*
X167254500Y-109574268D01*
X167183905Y-109587551D01*
X167119068Y-109629273D01*
X167104760Y-109650214D01*
X167093727Y-109633068D01*
X167030067Y-109589571D01*
X166954500Y-109574268D01*
X166154500Y-109574268D01*
X166083905Y-109587551D01*
X166019068Y-109629273D01*
X166004760Y-109650214D01*
X165993727Y-109633068D01*
X165930067Y-109589571D01*
X165854500Y-109574268D01*
X165054500Y-109574268D01*
X164983905Y-109587551D01*
X164919068Y-109629273D01*
X164875571Y-109692933D01*
X164860268Y-109768500D01*
X163848732Y-109768500D01*
X163835449Y-109697905D01*
X163793727Y-109633068D01*
X163730067Y-109589571D01*
X163654500Y-109574268D01*
X162854500Y-109574268D01*
X162783905Y-109587551D01*
X162719068Y-109629273D01*
X162704760Y-109650214D01*
X162693727Y-109633068D01*
X162630067Y-109589571D01*
X162554500Y-109574268D01*
X161754500Y-109574268D01*
X161683905Y-109587551D01*
X161619068Y-109629273D01*
X161604760Y-109650214D01*
X161593727Y-109633068D01*
X161530067Y-109589571D01*
X161454500Y-109574268D01*
X160654500Y-109574268D01*
X160583905Y-109587551D01*
X160519068Y-109629273D01*
X160504760Y-109650214D01*
X160493727Y-109633068D01*
X160430067Y-109589571D01*
X160354500Y-109574268D01*
X159554500Y-109574268D01*
X159483905Y-109587551D01*
X159419068Y-109629273D01*
X159404760Y-109650214D01*
X159393727Y-109633068D01*
X159330067Y-109589571D01*
X159254500Y-109574268D01*
X158454500Y-109574268D01*
X158383905Y-109587551D01*
X158319068Y-109629273D01*
X158304760Y-109650214D01*
X158293727Y-109633068D01*
X158230067Y-109589571D01*
X158154500Y-109574268D01*
X157354500Y-109574268D01*
X157283905Y-109587551D01*
X157219068Y-109629273D01*
X157175571Y-109692933D01*
X157160268Y-109768500D01*
X156148732Y-109768500D01*
X156135449Y-109697905D01*
X156093727Y-109633068D01*
X156030067Y-109589571D01*
X155954500Y-109574268D01*
X155154500Y-109574268D01*
X155083905Y-109587551D01*
X155042713Y-109614058D01*
X155112914Y-109444994D01*
X155113085Y-109249862D01*
X155038568Y-109069517D01*
X154900708Y-108931417D01*
X154720494Y-108856586D01*
X154525362Y-108856415D01*
X154345017Y-108930932D01*
X154206917Y-109068792D01*
X154132086Y-109249006D01*
X154131915Y-109444138D01*
X154144862Y-109475473D01*
X154137000Y-109515000D01*
X154137000Y-109574268D01*
X154054500Y-109574268D01*
X153983905Y-109587551D01*
X153919068Y-109629273D01*
X153904760Y-109650214D01*
X153893727Y-109633068D01*
X153830067Y-109589571D01*
X153754500Y-109574268D01*
X152954500Y-109574268D01*
X152883905Y-109587551D01*
X152819068Y-109629273D01*
X152804760Y-109650214D01*
X152793727Y-109633068D01*
X152730067Y-109589571D01*
X152654500Y-109574268D01*
X151854500Y-109574268D01*
X151783905Y-109587551D01*
X151719068Y-109629273D01*
X151704760Y-109650214D01*
X151693727Y-109633068D01*
X151630067Y-109589571D01*
X151554500Y-109574268D01*
X151472000Y-109574268D01*
X151472000Y-109444553D01*
X151609083Y-109307708D01*
X151683914Y-109127494D01*
X151684085Y-108932362D01*
X151609568Y-108752017D01*
X151471708Y-108613917D01*
X151398757Y-108583625D01*
X172001000Y-108583625D01*
X172001000Y-108908393D01*
X172030002Y-108978409D01*
X172083590Y-109031998D01*
X172153607Y-109061000D01*
X173053375Y-109061000D01*
X173101000Y-109013375D01*
X173101000Y-108536000D01*
X173482000Y-108536000D01*
X173482000Y-109013375D01*
X173529625Y-109061000D01*
X174429393Y-109061000D01*
X174499410Y-109031998D01*
X174552998Y-108978409D01*
X174582000Y-108908393D01*
X174582000Y-108583625D01*
X174534375Y-108536000D01*
X173482000Y-108536000D01*
X173101000Y-108536000D01*
X172048625Y-108536000D01*
X172001000Y-108583625D01*
X151398757Y-108583625D01*
X151291494Y-108539086D01*
X151096362Y-108538915D01*
X150916017Y-108613432D01*
X150777917Y-108751292D01*
X150703086Y-108931506D01*
X150702915Y-109126638D01*
X150777432Y-109306983D01*
X150837000Y-109366655D01*
X150837000Y-109574268D01*
X150754500Y-109574268D01*
X150683905Y-109587551D01*
X150619068Y-109629273D01*
X150604760Y-109650214D01*
X150593727Y-109633068D01*
X150530067Y-109589571D01*
X150454500Y-109574268D01*
X149654500Y-109574268D01*
X149583905Y-109587551D01*
X149519068Y-109629273D01*
X149504760Y-109650214D01*
X149493727Y-109633068D01*
X149430067Y-109589571D01*
X149354500Y-109574268D01*
X148554500Y-109574268D01*
X148483905Y-109587551D01*
X148419068Y-109629273D01*
X148404760Y-109650214D01*
X148393727Y-109633068D01*
X148330067Y-109589571D01*
X148254500Y-109574268D01*
X147454500Y-109574268D01*
X147383905Y-109587551D01*
X147319068Y-109629273D01*
X147304760Y-109650214D01*
X147293727Y-109633068D01*
X147230067Y-109589571D01*
X147154500Y-109574268D01*
X146354500Y-109574268D01*
X146283905Y-109587551D01*
X146219068Y-109629273D01*
X146175571Y-109692933D01*
X146160268Y-109768500D01*
X142201900Y-109768500D01*
X142201900Y-107568500D01*
X143760268Y-107568500D01*
X143760268Y-108368500D01*
X143773551Y-108439095D01*
X143815273Y-108503932D01*
X143878933Y-108547429D01*
X143954500Y-108562732D01*
X145454500Y-108562732D01*
X145525095Y-108549449D01*
X145589932Y-108507727D01*
X145633429Y-108444067D01*
X145648732Y-108368500D01*
X145648732Y-107782607D01*
X172001000Y-107782607D01*
X172001000Y-108107375D01*
X172048625Y-108155000D01*
X173101000Y-108155000D01*
X173101000Y-107677625D01*
X173482000Y-107677625D01*
X173482000Y-108155000D01*
X174534375Y-108155000D01*
X174582000Y-108107375D01*
X174582000Y-107782607D01*
X174552998Y-107712591D01*
X174499410Y-107659002D01*
X174429393Y-107630000D01*
X173529625Y-107630000D01*
X173482000Y-107677625D01*
X173101000Y-107677625D01*
X173053375Y-107630000D01*
X172153607Y-107630000D01*
X172083590Y-107659002D01*
X172030002Y-107712591D01*
X172001000Y-107782607D01*
X145648732Y-107782607D01*
X145648732Y-107568500D01*
X145635449Y-107497905D01*
X145593727Y-107433068D01*
X145530067Y-107389571D01*
X145454500Y-107374268D01*
X143954500Y-107374268D01*
X143883905Y-107387551D01*
X143819068Y-107429273D01*
X143775571Y-107492933D01*
X143760268Y-107568500D01*
X142201900Y-107568500D01*
X142201900Y-106730800D01*
X142196897Y-106706095D01*
X142182677Y-106685283D01*
X142161480Y-106671643D01*
X142138400Y-106667300D01*
X139103235Y-106667300D01*
X139105495Y-105600500D01*
X139782115Y-105600500D01*
X139861318Y-105998682D01*
X140086870Y-106336245D01*
X140424433Y-106561797D01*
X140822615Y-106641000D01*
X140863385Y-106641000D01*
X141261567Y-106561797D01*
X141599130Y-106336245D01*
X141824682Y-105998682D01*
X141903885Y-105600500D01*
X141824682Y-105202318D01*
X141599130Y-104864755D01*
X141261567Y-104639203D01*
X140863385Y-104560000D01*
X140822615Y-104560000D01*
X140424433Y-104639203D01*
X140086870Y-104864755D01*
X139861318Y-105202318D01*
X139782115Y-105600500D01*
X139105495Y-105600500D01*
X139107852Y-104487636D01*
X142521013Y-104487636D01*
X142595530Y-104667981D01*
X142706826Y-104779471D01*
X142596015Y-104890090D01*
X142521184Y-105070304D01*
X142521013Y-105265436D01*
X142595530Y-105445781D01*
X142733390Y-105583881D01*
X142913604Y-105658712D01*
X143108736Y-105658883D01*
X143289081Y-105584366D01*
X143427181Y-105446506D01*
X143446337Y-105400373D01*
X143596469Y-105550505D01*
X143678872Y-105605565D01*
X143760268Y-105621756D01*
X143760268Y-106168500D01*
X143773551Y-106239095D01*
X143815273Y-106303932D01*
X143878933Y-106347429D01*
X143954500Y-106362732D01*
X145454500Y-106362732D01*
X145525095Y-106349449D01*
X145589932Y-106307727D01*
X145590401Y-106307040D01*
X162949406Y-106307040D01*
X163031519Y-106505769D01*
X163183432Y-106657946D01*
X163382016Y-106740406D01*
X163597040Y-106740594D01*
X163795769Y-106658481D01*
X163947946Y-106506568D01*
X163963753Y-106468500D01*
X167660268Y-106468500D01*
X167660268Y-107268500D01*
X167673551Y-107339095D01*
X167715273Y-107403932D01*
X167778933Y-107447429D01*
X167854500Y-107462732D01*
X169354500Y-107462732D01*
X169425095Y-107449449D01*
X169489932Y-107407727D01*
X169533429Y-107344067D01*
X169539315Y-107315000D01*
X171047268Y-107315000D01*
X171047268Y-107370500D01*
X171060551Y-107441095D01*
X171102273Y-107505932D01*
X171165933Y-107549429D01*
X171241500Y-107564732D01*
X172291500Y-107564732D01*
X172362095Y-107551449D01*
X172426932Y-107509727D01*
X172470429Y-107446067D01*
X172485732Y-107370500D01*
X172485732Y-107108625D01*
X174101000Y-107108625D01*
X174101000Y-107408393D01*
X174130002Y-107478409D01*
X174183590Y-107531998D01*
X174253607Y-107561000D01*
X174578375Y-107561000D01*
X174626000Y-107513375D01*
X174626000Y-107061000D01*
X175007000Y-107061000D01*
X175007000Y-107513375D01*
X175054625Y-107561000D01*
X175379393Y-107561000D01*
X175449410Y-107531998D01*
X175502998Y-107478409D01*
X175532000Y-107408393D01*
X175532000Y-107108625D01*
X175484375Y-107061000D01*
X175007000Y-107061000D01*
X174626000Y-107061000D01*
X174148625Y-107061000D01*
X174101000Y-107108625D01*
X172485732Y-107108625D01*
X172485732Y-106370500D01*
X172478603Y-106332607D01*
X174101000Y-106332607D01*
X174101000Y-106632375D01*
X174148625Y-106680000D01*
X174626000Y-106680000D01*
X174626000Y-106227625D01*
X175007000Y-106227625D01*
X175007000Y-106680000D01*
X175484375Y-106680000D01*
X175532000Y-106632375D01*
X175532000Y-106332607D01*
X175502998Y-106262591D01*
X175449410Y-106209002D01*
X175379393Y-106180000D01*
X175054625Y-106180000D01*
X175007000Y-106227625D01*
X174626000Y-106227625D01*
X174578375Y-106180000D01*
X174253607Y-106180000D01*
X174183590Y-106209002D01*
X174130002Y-106262591D01*
X174101000Y-106332607D01*
X172478603Y-106332607D01*
X172472449Y-106299905D01*
X172430727Y-106235068D01*
X172367067Y-106191571D01*
X172291500Y-106176268D01*
X171241500Y-106176268D01*
X171170905Y-106189551D01*
X171106068Y-106231273D01*
X171062571Y-106294933D01*
X171047268Y-106370500D01*
X171047268Y-106426000D01*
X169540735Y-106426000D01*
X169535449Y-106397905D01*
X169493727Y-106333068D01*
X169430067Y-106289571D01*
X169354500Y-106274268D01*
X167854500Y-106274268D01*
X167783905Y-106287551D01*
X167719068Y-106329273D01*
X167675571Y-106392933D01*
X167660268Y-106468500D01*
X163963753Y-106468500D01*
X164030406Y-106307984D01*
X164030594Y-106092960D01*
X163948481Y-105894231D01*
X163796568Y-105742054D01*
X163597984Y-105659594D01*
X163382960Y-105659406D01*
X163184231Y-105741519D01*
X163032054Y-105893432D01*
X162949594Y-106092016D01*
X162949406Y-106307040D01*
X145590401Y-106307040D01*
X145633429Y-106244067D01*
X145648732Y-106168500D01*
X145648732Y-105633625D01*
X172001000Y-105633625D01*
X172001000Y-105958393D01*
X172030002Y-106028409D01*
X172083590Y-106081998D01*
X172153607Y-106111000D01*
X173053375Y-106111000D01*
X173101000Y-106063375D01*
X173101000Y-105586000D01*
X173482000Y-105586000D01*
X173482000Y-106063375D01*
X173529625Y-106111000D01*
X174429393Y-106111000D01*
X174499410Y-106081998D01*
X174552998Y-106028409D01*
X174582000Y-105958393D01*
X174582000Y-105633625D01*
X174534375Y-105586000D01*
X173482000Y-105586000D01*
X173101000Y-105586000D01*
X172048625Y-105586000D01*
X172001000Y-105633625D01*
X145648732Y-105633625D01*
X145648732Y-105368500D01*
X145635449Y-105297905D01*
X145593727Y-105233068D01*
X145572786Y-105218760D01*
X145589932Y-105207727D01*
X145633429Y-105144067D01*
X145648732Y-105068500D01*
X145648732Y-104832607D01*
X172001000Y-104832607D01*
X172001000Y-105157375D01*
X172048625Y-105205000D01*
X173101000Y-105205000D01*
X173101000Y-104727625D01*
X173482000Y-104727625D01*
X173482000Y-105205000D01*
X174534375Y-105205000D01*
X174582000Y-105157375D01*
X174582000Y-104832607D01*
X174552998Y-104762591D01*
X174499410Y-104709002D01*
X174429393Y-104680000D01*
X173529625Y-104680000D01*
X173482000Y-104727625D01*
X173101000Y-104727625D01*
X173053375Y-104680000D01*
X172153607Y-104680000D01*
X172083590Y-104709002D01*
X172030002Y-104762591D01*
X172001000Y-104832607D01*
X145648732Y-104832607D01*
X145648732Y-104268500D01*
X145635449Y-104197905D01*
X145593727Y-104133068D01*
X145572786Y-104118760D01*
X145589932Y-104107727D01*
X145633429Y-104044067D01*
X145648732Y-103968500D01*
X145648732Y-103168500D01*
X145635449Y-103097905D01*
X145593727Y-103033068D01*
X145572786Y-103018760D01*
X145589932Y-103007727D01*
X145633429Y-102944067D01*
X145648732Y-102868500D01*
X145648732Y-102068500D01*
X145635449Y-101997905D01*
X145593727Y-101933068D01*
X145572786Y-101918760D01*
X145589932Y-101907727D01*
X145605460Y-101885000D01*
X172818768Y-101885000D01*
X172818768Y-102585000D01*
X172832051Y-102655595D01*
X172873773Y-102720432D01*
X172937433Y-102763929D01*
X172968488Y-102770218D01*
X172924335Y-102836299D01*
X172905000Y-102933500D01*
X172924335Y-103030701D01*
X172979395Y-103113105D01*
X173061799Y-103168165D01*
X173159000Y-103187500D01*
X173256201Y-103168165D01*
X173338605Y-103113105D01*
X173365605Y-103086105D01*
X173420666Y-103003701D01*
X173440000Y-102906500D01*
X173420666Y-102809299D01*
X173400576Y-102779232D01*
X173613000Y-102779232D01*
X173683595Y-102765949D01*
X173748432Y-102724227D01*
X173791929Y-102660567D01*
X173807232Y-102585000D01*
X173807232Y-101885000D01*
X173793949Y-101814405D01*
X173752227Y-101749568D01*
X173688567Y-101706071D01*
X173613000Y-101690768D01*
X173603500Y-101690768D01*
X173603500Y-101669766D01*
X173621432Y-101658227D01*
X173664929Y-101594567D01*
X173680232Y-101519000D01*
X173680232Y-100919000D01*
X173666949Y-100848405D01*
X173625227Y-100783568D01*
X173561567Y-100740071D01*
X173486000Y-100724768D01*
X173086000Y-100724768D01*
X173015405Y-100738051D01*
X172950568Y-100779773D01*
X172907071Y-100843433D01*
X172891768Y-100919000D01*
X172891768Y-101519000D01*
X172905051Y-101589595D01*
X172946773Y-101654432D01*
X172968500Y-101669277D01*
X172968500Y-101699141D01*
X172942405Y-101704051D01*
X172877568Y-101745773D01*
X172834071Y-101809433D01*
X172818768Y-101885000D01*
X145605460Y-101885000D01*
X145633429Y-101844067D01*
X145648732Y-101768500D01*
X145648732Y-100968500D01*
X145635449Y-100897905D01*
X145593727Y-100833068D01*
X145572786Y-100818760D01*
X145589932Y-100807727D01*
X145633429Y-100744067D01*
X145648732Y-100668500D01*
X145648732Y-99868500D01*
X167660268Y-99868500D01*
X167660268Y-100668500D01*
X167673551Y-100739095D01*
X167715273Y-100803932D01*
X167778933Y-100847429D01*
X167854500Y-100862732D01*
X169354500Y-100862732D01*
X169425095Y-100849449D01*
X169489932Y-100807727D01*
X169533429Y-100744067D01*
X169548732Y-100668500D01*
X169548732Y-99868500D01*
X169535449Y-99797905D01*
X169493727Y-99733068D01*
X169430067Y-99689571D01*
X169354500Y-99674268D01*
X167854500Y-99674268D01*
X167783905Y-99687551D01*
X167719068Y-99729273D01*
X167675571Y-99792933D01*
X167660268Y-99868500D01*
X145648732Y-99868500D01*
X145635449Y-99797905D01*
X145593727Y-99733068D01*
X145572786Y-99718760D01*
X145589932Y-99707727D01*
X145633429Y-99644067D01*
X145648732Y-99568500D01*
X145648732Y-98768500D01*
X145635449Y-98697905D01*
X145593727Y-98633068D01*
X145530067Y-98589571D01*
X145454500Y-98574268D01*
X143954500Y-98574268D01*
X143883905Y-98587551D01*
X143819068Y-98629273D01*
X143775571Y-98692933D01*
X143760268Y-98768500D01*
X143760268Y-98851000D01*
X143496013Y-98851000D01*
X143383000Y-98737988D01*
X143383000Y-98547121D01*
X143481083Y-98449208D01*
X143555914Y-98268994D01*
X143556085Y-98073862D01*
X143481568Y-97893517D01*
X143343708Y-97755417D01*
X143163494Y-97680586D01*
X142968362Y-97680415D01*
X142788017Y-97754932D01*
X142649917Y-97892792D01*
X142575086Y-98073006D01*
X142574915Y-98268138D01*
X142649432Y-98448483D01*
X142748000Y-98547223D01*
X142748000Y-98869500D01*
X142767510Y-98967583D01*
X142772168Y-98991002D01*
X142840994Y-99094006D01*
X143139994Y-99393007D01*
X143242998Y-99461832D01*
X143364500Y-99486000D01*
X143760268Y-99486000D01*
X143760268Y-99568500D01*
X143773551Y-99639095D01*
X143815273Y-99703932D01*
X143836214Y-99718240D01*
X143819068Y-99729273D01*
X143775571Y-99792933D01*
X143760268Y-99868500D01*
X143760268Y-100668500D01*
X143773551Y-100739095D01*
X143815273Y-100803932D01*
X143836214Y-100818240D01*
X143819068Y-100829273D01*
X143775571Y-100892933D01*
X143760268Y-100968500D01*
X143760268Y-101768500D01*
X143773551Y-101839095D01*
X143815273Y-101903932D01*
X143836214Y-101918240D01*
X143819068Y-101929273D01*
X143775571Y-101992933D01*
X143760268Y-102068500D01*
X143760268Y-102868500D01*
X143773551Y-102939095D01*
X143815273Y-103003932D01*
X143836214Y-103018240D01*
X143819068Y-103029273D01*
X143775571Y-103092933D01*
X143760268Y-103168500D01*
X143760268Y-103968500D01*
X143773551Y-104039095D01*
X143815273Y-104103932D01*
X143836214Y-104118240D01*
X143819068Y-104129273D01*
X143775571Y-104192933D01*
X143760268Y-104268500D01*
X143760268Y-104564832D01*
X143642830Y-104447394D01*
X143560427Y-104392334D01*
X143502106Y-104380733D01*
X143502183Y-104293360D01*
X143427666Y-104113015D01*
X143289806Y-103974915D01*
X143109592Y-103900084D01*
X142914460Y-103899913D01*
X142734115Y-103974430D01*
X142596015Y-104112290D01*
X142521184Y-104292504D01*
X142521013Y-104487636D01*
X139107852Y-104487636D01*
X139110371Y-103298625D01*
X139802500Y-103298625D01*
X139802500Y-103948393D01*
X139831502Y-104018409D01*
X139885090Y-104071998D01*
X139955107Y-104101000D01*
X140604875Y-104101000D01*
X140652500Y-104053375D01*
X140652500Y-103251000D01*
X141033500Y-103251000D01*
X141033500Y-104053375D01*
X141081125Y-104101000D01*
X141730893Y-104101000D01*
X141800910Y-104071998D01*
X141854498Y-104018409D01*
X141883500Y-103948393D01*
X141883500Y-103298625D01*
X141835875Y-103251000D01*
X141033500Y-103251000D01*
X140652500Y-103251000D01*
X139850125Y-103251000D01*
X139802500Y-103298625D01*
X139110371Y-103298625D01*
X139112756Y-102172607D01*
X139802500Y-102172607D01*
X139802500Y-102822375D01*
X139850125Y-102870000D01*
X140652500Y-102870000D01*
X140652500Y-102067625D01*
X141033500Y-102067625D01*
X141033500Y-102870000D01*
X141835875Y-102870000D01*
X141883500Y-102822375D01*
X141883500Y-102172607D01*
X141854498Y-102102591D01*
X141800910Y-102049002D01*
X141730893Y-102020000D01*
X141081125Y-102020000D01*
X141033500Y-102067625D01*
X140652500Y-102067625D01*
X140604875Y-102020000D01*
X139955107Y-102020000D01*
X139885090Y-102049002D01*
X139831502Y-102102591D01*
X139802500Y-102172607D01*
X139112756Y-102172607D01*
X139124931Y-96426638D01*
X144336913Y-96426638D01*
X144411430Y-96606983D01*
X144549290Y-96745083D01*
X144729504Y-96819914D01*
X144924636Y-96820085D01*
X145104981Y-96745568D01*
X145243081Y-96607708D01*
X145317912Y-96427494D01*
X145318083Y-96232362D01*
X145243566Y-96052017D01*
X145105706Y-95913917D01*
X144925492Y-95839086D01*
X144730360Y-95838915D01*
X144550015Y-95913432D01*
X144411915Y-96051292D01*
X144337084Y-96231506D01*
X144336913Y-96426638D01*
X139124931Y-96426638D01*
X139125236Y-96283013D01*
X139558976Y-96283013D01*
X139669550Y-96328927D01*
X139864682Y-96329098D01*
X140045027Y-96254581D01*
X140183127Y-96116721D01*
X140257958Y-95936507D01*
X140258129Y-95741375D01*
X140212044Y-95629841D01*
X140212044Y-95620574D01*
X141027118Y-94805500D01*
X146513365Y-94805500D01*
X146448586Y-94961506D01*
X146448586Y-94961506D01*
G37*
X146448586Y-94961506D02*
X146448415Y-95156638D01*
X146522932Y-95336983D01*
X146660792Y-95475083D01*
X146841006Y-95549914D01*
X146980524Y-95550036D01*
X147266789Y-95836301D01*
X147260268Y-95868500D01*
X147260268Y-97368500D01*
X147273551Y-97439095D01*
X147315273Y-97503932D01*
X147378933Y-97547429D01*
X147454500Y-97562732D01*
X148254500Y-97562732D01*
X148325095Y-97549449D01*
X148389932Y-97507727D01*
X148404240Y-97486786D01*
X148415273Y-97503932D01*
X148478933Y-97547429D01*
X148554500Y-97562732D01*
X149354500Y-97562732D01*
X149425095Y-97549449D01*
X149489932Y-97507727D01*
X149504240Y-97486786D01*
X149515273Y-97503932D01*
X149578933Y-97547429D01*
X149654500Y-97562732D01*
X150454500Y-97562732D01*
X150478422Y-97558231D01*
X150478285Y-97714128D01*
X150552802Y-97894473D01*
X150690662Y-98032573D01*
X150870876Y-98107404D01*
X151066008Y-98107575D01*
X151246353Y-98033058D01*
X151384453Y-97895198D01*
X151459284Y-97714984D01*
X151459417Y-97562732D01*
X151554500Y-97562732D01*
X151625095Y-97549449D01*
X151689932Y-97507727D01*
X151704240Y-97486786D01*
X151715273Y-97503932D01*
X151778933Y-97547429D01*
X151854500Y-97562732D01*
X152654500Y-97562732D01*
X152725095Y-97549449D01*
X152789932Y-97507727D01*
X152833429Y-97444067D01*
X152848732Y-97368500D01*
X152848732Y-95868500D01*
X153860268Y-95868500D01*
X153860268Y-97368500D01*
X153873551Y-97439095D01*
X153915273Y-97503932D01*
X153978933Y-97547429D01*
X154054500Y-97562732D01*
X154137000Y-97562732D01*
X154137000Y-97782369D01*
X154132001Y-97807501D01*
X154132001Y-98252001D01*
X154148030Y-98332583D01*
X154156169Y-98373503D01*
X154224995Y-98476507D01*
X154259036Y-98510549D01*
X154258915Y-98649138D01*
X154333432Y-98829483D01*
X154471292Y-98967583D01*
X154651506Y-99042414D01*
X154846638Y-99042585D01*
X155026983Y-98968068D01*
X155158279Y-98837000D01*
X172755268Y-98837000D01*
X172755268Y-99537000D01*
X172768551Y-99607595D01*
X172810273Y-99672432D01*
X172873933Y-99715929D01*
X172932000Y-99727688D01*
X172932000Y-99790948D01*
X172907071Y-99827433D01*
X172891768Y-99903000D01*
X172891768Y-100503000D01*
X172905051Y-100573595D01*
X172946773Y-100638432D01*
X173010433Y-100681929D01*
X173086000Y-100697232D01*
X173486000Y-100697232D01*
X173556595Y-100683949D01*
X173621432Y-100642227D01*
X173664929Y-100578567D01*
X173680232Y-100503000D01*
X173680232Y-99903000D01*
X173791768Y-99903000D01*
X173791768Y-100503000D01*
X173805051Y-100573595D01*
X173846773Y-100638432D01*
X173868500Y-100653277D01*
X173868500Y-100768234D01*
X173850568Y-100779773D01*
X173807071Y-100843433D01*
X173791768Y-100919000D01*
X173791768Y-101519000D01*
X173805051Y-101589595D01*
X173846773Y-101654432D01*
X173910433Y-101697929D01*
X173986000Y-101713232D01*
X174028138Y-101713232D01*
X173977568Y-101745773D01*
X173934071Y-101809433D01*
X173918768Y-101885000D01*
X173918768Y-102585000D01*
X173932051Y-102655595D01*
X173973773Y-102720432D01*
X174037433Y-102763929D01*
X174090215Y-102774618D01*
X174018917Y-102845792D01*
X173944086Y-103026006D01*
X173943915Y-103221138D01*
X174018432Y-103401483D01*
X174156292Y-103539583D01*
X174336506Y-103614414D01*
X174531638Y-103614585D01*
X174711983Y-103540068D01*
X174850083Y-103402208D01*
X174924914Y-103221994D01*
X174925085Y-103026862D01*
X174850568Y-102846517D01*
X174772268Y-102768080D01*
X174783595Y-102765949D01*
X174848432Y-102724227D01*
X174891929Y-102660567D01*
X174907232Y-102585000D01*
X174907232Y-101885000D01*
X174893949Y-101814405D01*
X174852227Y-101749568D01*
X174788567Y-101706071D01*
X174713000Y-101690768D01*
X174470862Y-101690768D01*
X174521432Y-101658227D01*
X174564929Y-101594567D01*
X174580232Y-101519000D01*
X174580232Y-101201445D01*
X174739617Y-101201585D01*
X174919962Y-101127068D01*
X175058062Y-100989208D01*
X175132893Y-100808994D01*
X175133064Y-100613862D01*
X175058547Y-100433517D01*
X174920687Y-100295417D01*
X174740473Y-100220586D01*
X174580232Y-100220446D01*
X174580232Y-99903000D01*
X174566949Y-99832405D01*
X174525227Y-99767568D01*
X174472047Y-99731232D01*
X174649500Y-99731232D01*
X174720095Y-99717949D01*
X174784932Y-99676227D01*
X174809611Y-99640108D01*
X174925496Y-99688227D01*
X175120628Y-99688398D01*
X175300973Y-99613881D01*
X175439073Y-99476021D01*
X175513904Y-99295807D01*
X175514075Y-99100675D01*
X175439558Y-98920330D01*
X175301698Y-98782230D01*
X175121484Y-98707399D01*
X174926352Y-98707228D01*
X174820511Y-98750961D01*
X174788727Y-98701568D01*
X174725067Y-98658071D01*
X174649500Y-98642768D01*
X174049500Y-98642768D01*
X173978905Y-98656051D01*
X173914068Y-98697773D01*
X173870571Y-98761433D01*
X173855268Y-98837000D01*
X173855268Y-99537000D01*
X173868551Y-99607595D01*
X173910273Y-99672432D01*
X173968321Y-99712094D01*
X173915405Y-99722051D01*
X173850568Y-99763773D01*
X173807071Y-99827433D01*
X173791768Y-99903000D01*
X173680232Y-99903000D01*
X173666949Y-99832405D01*
X173625227Y-99767568D01*
X173567179Y-99727906D01*
X173620095Y-99717949D01*
X173684932Y-99676227D01*
X173728429Y-99612567D01*
X173743732Y-99537000D01*
X173743732Y-98837000D01*
X173730449Y-98766405D01*
X173688727Y-98701568D01*
X173625067Y-98658071D01*
X173549500Y-98642768D01*
X172949500Y-98642768D01*
X172878905Y-98656051D01*
X172814068Y-98697773D01*
X172770571Y-98761433D01*
X172755268Y-98837000D01*
X155158279Y-98837000D01*
X155165083Y-98830208D01*
X155239914Y-98649994D01*
X155240085Y-98454862D01*
X155165568Y-98274517D01*
X155123938Y-98232814D01*
X155242892Y-98282208D01*
X155438024Y-98282379D01*
X155618369Y-98207862D01*
X155756469Y-98070002D01*
X155831300Y-97889788D01*
X155831471Y-97694656D01*
X155800325Y-97619278D01*
X155808500Y-97578180D01*
X155808500Y-97562732D01*
X155954500Y-97562732D01*
X156025095Y-97549449D01*
X156089932Y-97507727D01*
X156104240Y-97486786D01*
X156115273Y-97503932D01*
X156164667Y-97537681D01*
X156100586Y-97692006D01*
X156100415Y-97887138D01*
X156174932Y-98067483D01*
X156312792Y-98205583D01*
X156493006Y-98280414D01*
X156688138Y-98280585D01*
X156868483Y-98206068D01*
X157006583Y-98068208D01*
X157081414Y-97887994D01*
X157081585Y-97692862D01*
X157027816Y-97562732D01*
X157054500Y-97562732D01*
X157125095Y-97549449D01*
X157189932Y-97507727D01*
X157204240Y-97486786D01*
X157215273Y-97503932D01*
X157278933Y-97547429D01*
X157354500Y-97562732D01*
X157394609Y-97562732D01*
X157318417Y-97638792D01*
X157243586Y-97819006D01*
X157243415Y-98014138D01*
X157317932Y-98194483D01*
X157455792Y-98332583D01*
X157636006Y-98407414D01*
X157831138Y-98407585D01*
X158011483Y-98333068D01*
X158126865Y-98217887D01*
X158143432Y-98257983D01*
X158281292Y-98396083D01*
X158461506Y-98470914D01*
X158656638Y-98471085D01*
X158836983Y-98396568D01*
X158975083Y-98258708D01*
X159049914Y-98078494D01*
X159050085Y-97883362D01*
X159039318Y-97857303D01*
X159070182Y-97811112D01*
X159089165Y-97782702D01*
X159108500Y-97685500D01*
X159108500Y-97562732D01*
X159254500Y-97562732D01*
X159325095Y-97549449D01*
X159389932Y-97507727D01*
X159404240Y-97486786D01*
X159415273Y-97503932D01*
X159478933Y-97547429D01*
X159554500Y-97562732D01*
X160354500Y-97562732D01*
X160392041Y-97555668D01*
X160326663Y-97713118D01*
X160326492Y-97908250D01*
X160401009Y-98088595D01*
X160538869Y-98226695D01*
X160719083Y-98301526D01*
X160914215Y-98301697D01*
X161094560Y-98227180D01*
X161232660Y-98089320D01*
X161307491Y-97909106D01*
X161307608Y-97775986D01*
X161308500Y-97771500D01*
X161308500Y-97562732D01*
X161454500Y-97562732D01*
X161525095Y-97549449D01*
X161589932Y-97507727D01*
X161604240Y-97486786D01*
X161615273Y-97503932D01*
X161678933Y-97547429D01*
X161754500Y-97562732D01*
X161776109Y-97562732D01*
X161699917Y-97638792D01*
X161625086Y-97819006D01*
X161624915Y-98014138D01*
X161699432Y-98194483D01*
X161837292Y-98332583D01*
X162017506Y-98407414D01*
X162212638Y-98407585D01*
X162392983Y-98333068D01*
X162531083Y-98195208D01*
X162605914Y-98014994D01*
X162606085Y-97819862D01*
X162531568Y-97639517D01*
X162454916Y-97562732D01*
X162554500Y-97562732D01*
X162625095Y-97549449D01*
X162689932Y-97507727D01*
X162733429Y-97444067D01*
X162748732Y-97368500D01*
X162748732Y-95868500D01*
X162735449Y-95797905D01*
X162693727Y-95733068D01*
X162630067Y-95689571D01*
X162554500Y-95674268D01*
X161754500Y-95674268D01*
X161683905Y-95687551D01*
X161619068Y-95729273D01*
X161604760Y-95750214D01*
X161593727Y-95733068D01*
X161530067Y-95689571D01*
X161454500Y-95674268D01*
X161160980Y-95674268D01*
X161197583Y-95637729D01*
X161272414Y-95457515D01*
X161272585Y-95262383D01*
X161198068Y-95082038D01*
X161060208Y-94943938D01*
X160879994Y-94869107D01*
X160684862Y-94868936D01*
X160504517Y-94943453D01*
X160366417Y-95081313D01*
X160291586Y-95261527D01*
X160291415Y-95456659D01*
X160325248Y-95538542D01*
X160189522Y-95674268D01*
X159554500Y-95674268D01*
X159483905Y-95687551D01*
X159419068Y-95729273D01*
X159404760Y-95750214D01*
X159393727Y-95733068D01*
X159330067Y-95689571D01*
X159254500Y-95674268D01*
X158454500Y-95674268D01*
X158383905Y-95687551D01*
X158319068Y-95729273D01*
X158304760Y-95750214D01*
X158293727Y-95733068D01*
X158230067Y-95689571D01*
X158154500Y-95674268D01*
X157354500Y-95674268D01*
X157283905Y-95687551D01*
X157219068Y-95729273D01*
X157204760Y-95750214D01*
X157193727Y-95733068D01*
X157130067Y-95689571D01*
X157054500Y-95674268D01*
X156254500Y-95674268D01*
X156183905Y-95687551D01*
X156119068Y-95729273D01*
X156104760Y-95750214D01*
X156093727Y-95733068D01*
X156030067Y-95689571D01*
X155954500Y-95674268D01*
X155154500Y-95674268D01*
X155083905Y-95687551D01*
X155019068Y-95729273D01*
X155004760Y-95750214D01*
X154993727Y-95733068D01*
X154930067Y-95689571D01*
X154854500Y-95674268D01*
X154054500Y-95674268D01*
X153983905Y-95687551D01*
X153919068Y-95729273D01*
X153875571Y-95792933D01*
X153860268Y-95868500D01*
X152848732Y-95868500D01*
X152835449Y-95797905D01*
X152793727Y-95733068D01*
X152730067Y-95689571D01*
X152654500Y-95674268D01*
X152495127Y-95674268D01*
X152489165Y-95644298D01*
X152434105Y-95561895D01*
X152006105Y-95133895D01*
X151988523Y-95122147D01*
X151923702Y-95078835D01*
X151826500Y-95059500D01*
X150920771Y-95059500D01*
X150911068Y-95036017D01*
X150773208Y-94897917D01*
X150592994Y-94823086D01*
X150397862Y-94822915D01*
X150217517Y-94897432D01*
X150079417Y-95035292D01*
X150024889Y-95166610D01*
X150004282Y-95135770D01*
X149968943Y-95112157D01*
X149958514Y-95101728D01*
X149958635Y-94963139D01*
X149893500Y-94805500D01*
X163385500Y-94805500D01*
X163385500Y-95358198D01*
X163419336Y-95528301D01*
X163515691Y-95672507D01*
X163760268Y-95917084D01*
X163760268Y-97368500D01*
X163773551Y-97439095D01*
X163815273Y-97503932D01*
X163878933Y-97547429D01*
X163954500Y-97562732D01*
X164754500Y-97562732D01*
X164825095Y-97549449D01*
X164889932Y-97507727D01*
X164933429Y-97444067D01*
X164948732Y-97368500D01*
X164948732Y-95868500D01*
X164935449Y-95797905D01*
X164893727Y-95733068D01*
X164830067Y-95689571D01*
X164754500Y-95674268D01*
X164739555Y-95674268D01*
X164668809Y-95568389D01*
X164274500Y-95174080D01*
X164274500Y-94805500D01*
X165943000Y-94805500D01*
X165942915Y-94902638D01*
X166017432Y-95082983D01*
X166155292Y-95221083D01*
X166237000Y-95255011D01*
X166237000Y-95674268D01*
X166154500Y-95674268D01*
X166083905Y-95687551D01*
X166019068Y-95729273D01*
X165975571Y-95792933D01*
X165960268Y-95868500D01*
X165960268Y-97368500D01*
X165973551Y-97439095D01*
X166015273Y-97503932D01*
X166078933Y-97547429D01*
X166154500Y-97562732D01*
X166954500Y-97562732D01*
X167025095Y-97549449D01*
X167089932Y-97507727D01*
X167133429Y-97444067D01*
X167148732Y-97368500D01*
X167148732Y-97326844D01*
X171149389Y-97326844D01*
X171246694Y-97562340D01*
X171426712Y-97742673D01*
X171662038Y-97840388D01*
X171916844Y-97840611D01*
X172152340Y-97743306D01*
X172332673Y-97563288D01*
X172430388Y-97327962D01*
X172430611Y-97073156D01*
X172333306Y-96837660D01*
X172153288Y-96657327D01*
X171917962Y-96559612D01*
X171663156Y-96559389D01*
X171427660Y-96656694D01*
X171247327Y-96836712D01*
X171149612Y-97072038D01*
X171149389Y-97326844D01*
X167148732Y-97326844D01*
X167148732Y-95868500D01*
X167135449Y-95797905D01*
X167093727Y-95733068D01*
X167030067Y-95689571D01*
X166954500Y-95674268D01*
X166872000Y-95674268D01*
X166872000Y-95028517D01*
X166923914Y-94903494D01*
X166924000Y-94805500D01*
X170389365Y-94805500D01*
X170324586Y-94961506D01*
X170324415Y-95156638D01*
X170398932Y-95336983D01*
X170536792Y-95475083D01*
X170717006Y-95549914D01*
X170912138Y-95550085D01*
X171039323Y-95497533D01*
X171250268Y-95708478D01*
X171250268Y-96343500D01*
X171263551Y-96414095D01*
X171305273Y-96478932D01*
X171368933Y-96522429D01*
X171444500Y-96537732D01*
X172344500Y-96537732D01*
X172415095Y-96524449D01*
X172479932Y-96482727D01*
X172523429Y-96419067D01*
X172538732Y-96343500D01*
X172538732Y-95543500D01*
X172525449Y-95472905D01*
X172483727Y-95408068D01*
X172420067Y-95364571D01*
X172344500Y-95349268D01*
X171609478Y-95349268D01*
X171305512Y-95045302D01*
X171305585Y-94962362D01*
X171240771Y-94805500D01*
X173250268Y-94805500D01*
X173250268Y-95393500D01*
X173263551Y-95464095D01*
X173305273Y-95528932D01*
X173368933Y-95572429D01*
X173444500Y-95587732D01*
X174344500Y-95587732D01*
X174415095Y-95574449D01*
X174479932Y-95532727D01*
X174523429Y-95469067D01*
X174538732Y-95393500D01*
X174538732Y-95225138D01*
X174551859Y-95216367D01*
X174590506Y-95232414D01*
X174785638Y-95232585D01*
X174965983Y-95158068D01*
X175104083Y-95020208D01*
X175178914Y-94839994D01*
X175178944Y-94805500D01*
X175193713Y-94805500D01*
X175735600Y-97529752D01*
X175735600Y-112477448D01*
X175236640Y-114985893D01*
X141036405Y-114817695D01*
X140974105Y-114755395D01*
X140891702Y-114700335D01*
X140861732Y-114694373D01*
X140861732Y-114635000D01*
X140848449Y-114564405D01*
X140806727Y-114499568D01*
X140743067Y-114456071D01*
X140667500Y-114440768D01*
X140267500Y-114440768D01*
X140196905Y-114454051D01*
X140132068Y-114495773D01*
X140088571Y-114559433D01*
X140073268Y-114635000D01*
X140073268Y-114812958D01*
X139961732Y-114812409D01*
X139961732Y-114635000D01*
X139948449Y-114564405D01*
X139906727Y-114499568D01*
X139843067Y-114456071D01*
X139801528Y-114447659D01*
X139861583Y-114387708D01*
X139936414Y-114207494D01*
X139936585Y-114012362D01*
X139862068Y-113832017D01*
X139724208Y-113693917D01*
X139543994Y-113619086D01*
X139348862Y-113618915D01*
X139168517Y-113693432D01*
X139119434Y-113742430D01*
X139116022Y-113317638D01*
X158259415Y-113317638D01*
X158333932Y-113497983D01*
X158471792Y-113636083D01*
X158652006Y-113710914D01*
X158847138Y-113711085D01*
X159027483Y-113636568D01*
X159165583Y-113498708D01*
X159240414Y-113318494D01*
X159240585Y-113123362D01*
X159166068Y-112943017D01*
X159028208Y-112804917D01*
X158847994Y-112730086D01*
X158652862Y-112729915D01*
X158472517Y-112804432D01*
X158334417Y-112942292D01*
X158259586Y-113122506D01*
X158259415Y-113317638D01*
X139116022Y-113317638D01*
X139103612Y-111772700D01*
X142138400Y-111772700D01*
X142163105Y-111767697D01*
X142183917Y-111753477D01*
X142197557Y-111732280D01*
X142201900Y-111709200D01*
X142201900Y-111144670D01*
X142222135Y-111095939D01*
X142222305Y-110900917D01*
X142201900Y-110851533D01*
X142201900Y-109768500D01*
X146160268Y-109768500D01*
X146160268Y-111268500D01*
X146173551Y-111339095D01*
X146215273Y-111403932D01*
X146278933Y-111447429D01*
X146354500Y-111462732D01*
X146415621Y-111462732D01*
X146332917Y-111545292D01*
X146258086Y-111725506D01*
X146257915Y-111920638D01*
X146332432Y-112100983D01*
X146470292Y-112239083D01*
X146650506Y-112313914D01*
X146845638Y-112314085D01*
X147025983Y-112239568D01*
X147164083Y-112101708D01*
X147238914Y-111921494D01*
X147239085Y-111726362D01*
X147164568Y-111546017D01*
X147081428Y-111462732D01*
X147154500Y-111462732D01*
X147225095Y-111449449D01*
X147289932Y-111407727D01*
X147304240Y-111386786D01*
X147315273Y-111403932D01*
X147378933Y-111447429D01*
X147454500Y-111462732D01*
X147495121Y-111462732D01*
X147412417Y-111545292D01*
X147337586Y-111725506D01*
X147337415Y-111920638D01*
X147411932Y-112100983D01*
X147549792Y-112239083D01*
X147730006Y-112313914D01*
X147925138Y-112314085D01*
X148105483Y-112239568D01*
X148243583Y-112101708D01*
X148318414Y-111921494D01*
X148318585Y-111726362D01*
X148244068Y-111546017D01*
X148172000Y-111473824D01*
X148172000Y-111462732D01*
X148254500Y-111462732D01*
X148325095Y-111449449D01*
X148389932Y-111407727D01*
X148404240Y-111386786D01*
X148415273Y-111403932D01*
X148478933Y-111447429D01*
X148554500Y-111462732D01*
X148637000Y-111462732D01*
X148637000Y-111463851D01*
X148555417Y-111545292D01*
X148480586Y-111725506D01*
X148480415Y-111920638D01*
X148554932Y-112100983D01*
X148692792Y-112239083D01*
X148873006Y-112313914D01*
X149068138Y-112314085D01*
X149248483Y-112239568D01*
X149386583Y-112101708D01*
X149461414Y-111921494D01*
X149461585Y-111726362D01*
X149387068Y-111546017D01*
X149303928Y-111462732D01*
X149354500Y-111462732D01*
X149425095Y-111449449D01*
X149489932Y-111407727D01*
X149504240Y-111386786D01*
X149515273Y-111403932D01*
X149578933Y-111447429D01*
X149654500Y-111462732D01*
X149717621Y-111462732D01*
X149634917Y-111545292D01*
X149560086Y-111725506D01*
X149559915Y-111920638D01*
X149634432Y-112100983D01*
X149772292Y-112239083D01*
X149952506Y-112313914D01*
X150147638Y-112314085D01*
X150327983Y-112239568D01*
X150466083Y-112101708D01*
X150540914Y-111921494D01*
X150541085Y-111726362D01*
X150466568Y-111546017D01*
X150383428Y-111462732D01*
X150454500Y-111462732D01*
X150525095Y-111449449D01*
X150589932Y-111407727D01*
X150604240Y-111386786D01*
X150615273Y-111403932D01*
X150678933Y-111447429D01*
X150754500Y-111462732D01*
X151554500Y-111462732D01*
X151625095Y-111449449D01*
X151689932Y-111407727D01*
X151704240Y-111386786D01*
X151715273Y-111403932D01*
X151778933Y-111447429D01*
X151854500Y-111462732D01*
X151937000Y-111462732D01*
X151937000Y-111532373D01*
X151932017Y-111534432D01*
X151793917Y-111672292D01*
X151719086Y-111852506D01*
X151718915Y-112047638D01*
X151793432Y-112227983D01*
X151931292Y-112366083D01*
X152111506Y-112440914D01*
X152306638Y-112441085D01*
X152486983Y-112366568D01*
X152625083Y-112228708D01*
X152699914Y-112048494D01*
X152700085Y-111853362D01*
X152625568Y-111673017D01*
X152572000Y-111619356D01*
X152572000Y-111462732D01*
X152654500Y-111462732D01*
X152725095Y-111449449D01*
X152789932Y-111407727D01*
X152804240Y-111386786D01*
X152815273Y-111403932D01*
X152878933Y-111447429D01*
X152954500Y-111462732D01*
X153035000Y-111462732D01*
X153035000Y-111891879D01*
X152936917Y-111989792D01*
X152862086Y-112170006D01*
X152861915Y-112365138D01*
X152936432Y-112545483D01*
X153074292Y-112683583D01*
X153254506Y-112758414D01*
X153449638Y-112758585D01*
X153629983Y-112684068D01*
X153768083Y-112546208D01*
X153842914Y-112365994D01*
X153842970Y-112301638D01*
X157243415Y-112301638D01*
X157317932Y-112481983D01*
X157455792Y-112620083D01*
X157636006Y-112694914D01*
X157831138Y-112695085D01*
X158011483Y-112620568D01*
X158149583Y-112482708D01*
X158224414Y-112302494D01*
X158224585Y-112107362D01*
X158150068Y-111927017D01*
X158012208Y-111788917D01*
X157831994Y-111714086D01*
X157636862Y-111713915D01*
X157456517Y-111788432D01*
X157318417Y-111926292D01*
X157243586Y-112106506D01*
X157243415Y-112301638D01*
X153842970Y-112301638D01*
X153843085Y-112170862D01*
X153768568Y-111990517D01*
X153670000Y-111891777D01*
X153670000Y-111462732D01*
X153754500Y-111462732D01*
X153825095Y-111449449D01*
X153889932Y-111407727D01*
X153904240Y-111386786D01*
X153915273Y-111403932D01*
X153978933Y-111447429D01*
X154054500Y-111462732D01*
X154854500Y-111462732D01*
X154925095Y-111449449D01*
X154989932Y-111407727D01*
X155004240Y-111386786D01*
X155015273Y-111403932D01*
X155078933Y-111447429D01*
X155154500Y-111462732D01*
X155954500Y-111462732D01*
X156025095Y-111449449D01*
X156089932Y-111407727D01*
X156133429Y-111344067D01*
X156148732Y-111268500D01*
X156148732Y-109768500D01*
X157160268Y-109768500D01*
X157160268Y-111268500D01*
X157173551Y-111339095D01*
X157215273Y-111403932D01*
X157278933Y-111447429D01*
X157354500Y-111462732D01*
X158154500Y-111462732D01*
X158225095Y-111449449D01*
X158289932Y-111407727D01*
X158304240Y-111386786D01*
X158315273Y-111403932D01*
X158378933Y-111447429D01*
X158454500Y-111462732D01*
X159254500Y-111462732D01*
X159325095Y-111449449D01*
X159389932Y-111407727D01*
X159404240Y-111386786D01*
X159415273Y-111403932D01*
X159478933Y-111447429D01*
X159554500Y-111462732D01*
X160354500Y-111462732D01*
X160425095Y-111449449D01*
X160489932Y-111407727D01*
X160504240Y-111386786D01*
X160515273Y-111403932D01*
X160578933Y-111447429D01*
X160654500Y-111462732D01*
X161454500Y-111462732D01*
X161525095Y-111449449D01*
X161589932Y-111407727D01*
X161604240Y-111386786D01*
X161615273Y-111403932D01*
X161678933Y-111447429D01*
X161754500Y-111462732D01*
X162554500Y-111462732D01*
X162625095Y-111449449D01*
X162689932Y-111407727D01*
X162704240Y-111386786D01*
X162715273Y-111403932D01*
X162778933Y-111447429D01*
X162854500Y-111462732D01*
X163654500Y-111462732D01*
X163725095Y-111449449D01*
X163789932Y-111407727D01*
X163833429Y-111344067D01*
X163848732Y-111268500D01*
X163848732Y-109768500D01*
X164860268Y-109768500D01*
X164860268Y-111268500D01*
X164873551Y-111339095D01*
X164915273Y-111403932D01*
X164978933Y-111447429D01*
X165036500Y-111459087D01*
X165036500Y-111487932D01*
X164990586Y-111598506D01*
X164990415Y-111793638D01*
X165064932Y-111973983D01*
X165202792Y-112112083D01*
X165383006Y-112186914D01*
X165578138Y-112187085D01*
X165758483Y-112112568D01*
X165896583Y-111974708D01*
X165971414Y-111794494D01*
X165971585Y-111599362D01*
X165925500Y-111487828D01*
X165925500Y-111449188D01*
X165989932Y-111407727D01*
X166004240Y-111386786D01*
X166015273Y-111403932D01*
X166078933Y-111447429D01*
X166110000Y-111453720D01*
X166110000Y-111502382D01*
X166070086Y-111598506D01*
X166069915Y-111793638D01*
X166144432Y-111973983D01*
X166282292Y-112112083D01*
X166462506Y-112186914D01*
X166657638Y-112187085D01*
X166837983Y-112112568D01*
X166976083Y-111974708D01*
X167050914Y-111794494D01*
X167051085Y-111599362D01*
X166999000Y-111473307D01*
X166999000Y-111454359D01*
X167025095Y-111449449D01*
X167089932Y-111407727D01*
X167104240Y-111386786D01*
X167115273Y-111403932D01*
X167178933Y-111447429D01*
X167195500Y-111450784D01*
X167195500Y-111551432D01*
X167149586Y-111662006D01*
X167149415Y-111857138D01*
X167223932Y-112037483D01*
X167361792Y-112175583D01*
X167542006Y-112250414D01*
X167737138Y-112250585D01*
X167917483Y-112176068D01*
X168055583Y-112038208D01*
X168130414Y-111857994D01*
X168130585Y-111662862D01*
X168084500Y-111551328D01*
X168084500Y-111457087D01*
X168125095Y-111449449D01*
X168189932Y-111407727D01*
X168233429Y-111344067D01*
X168248732Y-111268500D01*
X168248732Y-109768500D01*
X168235449Y-109697905D01*
X168193727Y-109633068D01*
X168130067Y-109589571D01*
X168054500Y-109574268D01*
X167254500Y-109574268D01*
X167183905Y-109587551D01*
X167119068Y-109629273D01*
X167104760Y-109650214D01*
X167093727Y-109633068D01*
X167030067Y-109589571D01*
X166954500Y-109574268D01*
X166154500Y-109574268D01*
X166083905Y-109587551D01*
X166019068Y-109629273D01*
X166004760Y-109650214D01*
X165993727Y-109633068D01*
X165930067Y-109589571D01*
X165854500Y-109574268D01*
X165054500Y-109574268D01*
X164983905Y-109587551D01*
X164919068Y-109629273D01*
X164875571Y-109692933D01*
X164860268Y-109768500D01*
X163848732Y-109768500D01*
X163835449Y-109697905D01*
X163793727Y-109633068D01*
X163730067Y-109589571D01*
X163654500Y-109574268D01*
X162854500Y-109574268D01*
X162783905Y-109587551D01*
X162719068Y-109629273D01*
X162704760Y-109650214D01*
X162693727Y-109633068D01*
X162630067Y-109589571D01*
X162554500Y-109574268D01*
X161754500Y-109574268D01*
X161683905Y-109587551D01*
X161619068Y-109629273D01*
X161604760Y-109650214D01*
X161593727Y-109633068D01*
X161530067Y-109589571D01*
X161454500Y-109574268D01*
X160654500Y-109574268D01*
X160583905Y-109587551D01*
X160519068Y-109629273D01*
X160504760Y-109650214D01*
X160493727Y-109633068D01*
X160430067Y-109589571D01*
X160354500Y-109574268D01*
X159554500Y-109574268D01*
X159483905Y-109587551D01*
X159419068Y-109629273D01*
X159404760Y-109650214D01*
X159393727Y-109633068D01*
X159330067Y-109589571D01*
X159254500Y-109574268D01*
X158454500Y-109574268D01*
X158383905Y-109587551D01*
X158319068Y-109629273D01*
X158304760Y-109650214D01*
X158293727Y-109633068D01*
X158230067Y-109589571D01*
X158154500Y-109574268D01*
X157354500Y-109574268D01*
X157283905Y-109587551D01*
X157219068Y-109629273D01*
X157175571Y-109692933D01*
X157160268Y-109768500D01*
X156148732Y-109768500D01*
X156135449Y-109697905D01*
X156093727Y-109633068D01*
X156030067Y-109589571D01*
X155954500Y-109574268D01*
X155154500Y-109574268D01*
X155083905Y-109587551D01*
X155042713Y-109614058D01*
X155112914Y-109444994D01*
X155113085Y-109249862D01*
X155038568Y-109069517D01*
X154900708Y-108931417D01*
X154720494Y-108856586D01*
X154525362Y-108856415D01*
X154345017Y-108930932D01*
X154206917Y-109068792D01*
X154132086Y-109249006D01*
X154131915Y-109444138D01*
X154144862Y-109475473D01*
X154137000Y-109515000D01*
X154137000Y-109574268D01*
X154054500Y-109574268D01*
X153983905Y-109587551D01*
X153919068Y-109629273D01*
X153904760Y-109650214D01*
X153893727Y-109633068D01*
X153830067Y-109589571D01*
X153754500Y-109574268D01*
X152954500Y-109574268D01*
X152883905Y-109587551D01*
X152819068Y-109629273D01*
X152804760Y-109650214D01*
X152793727Y-109633068D01*
X152730067Y-109589571D01*
X152654500Y-109574268D01*
X151854500Y-109574268D01*
X151783905Y-109587551D01*
X151719068Y-109629273D01*
X151704760Y-109650214D01*
X151693727Y-109633068D01*
X151630067Y-109589571D01*
X151554500Y-109574268D01*
X151472000Y-109574268D01*
X151472000Y-109444553D01*
X151609083Y-109307708D01*
X151683914Y-109127494D01*
X151684085Y-108932362D01*
X151609568Y-108752017D01*
X151471708Y-108613917D01*
X151398757Y-108583625D01*
X172001000Y-108583625D01*
X172001000Y-108908393D01*
X172030002Y-108978409D01*
X172083590Y-109031998D01*
X172153607Y-109061000D01*
X173053375Y-109061000D01*
X173101000Y-109013375D01*
X173101000Y-108536000D01*
X173482000Y-108536000D01*
X173482000Y-109013375D01*
X173529625Y-109061000D01*
X174429393Y-109061000D01*
X174499410Y-109031998D01*
X174552998Y-108978409D01*
X174582000Y-108908393D01*
X174582000Y-108583625D01*
X174534375Y-108536000D01*
X173482000Y-108536000D01*
X173101000Y-108536000D01*
X172048625Y-108536000D01*
X172001000Y-108583625D01*
X151398757Y-108583625D01*
X151291494Y-108539086D01*
X151096362Y-108538915D01*
X150916017Y-108613432D01*
X150777917Y-108751292D01*
X150703086Y-108931506D01*
X150702915Y-109126638D01*
X150777432Y-109306983D01*
X150837000Y-109366655D01*
X150837000Y-109574268D01*
X150754500Y-109574268D01*
X150683905Y-109587551D01*
X150619068Y-109629273D01*
X150604760Y-109650214D01*
X150593727Y-109633068D01*
X150530067Y-109589571D01*
X150454500Y-109574268D01*
X149654500Y-109574268D01*
X149583905Y-109587551D01*
X149519068Y-109629273D01*
X149504760Y-109650214D01*
X149493727Y-109633068D01*
X149430067Y-109589571D01*
X149354500Y-109574268D01*
X148554500Y-109574268D01*
X148483905Y-109587551D01*
X148419068Y-109629273D01*
X148404760Y-109650214D01*
X148393727Y-109633068D01*
X148330067Y-109589571D01*
X148254500Y-109574268D01*
X147454500Y-109574268D01*
X147383905Y-109587551D01*
X147319068Y-109629273D01*
X147304760Y-109650214D01*
X147293727Y-109633068D01*
X147230067Y-109589571D01*
X147154500Y-109574268D01*
X146354500Y-109574268D01*
X146283905Y-109587551D01*
X146219068Y-109629273D01*
X146175571Y-109692933D01*
X146160268Y-109768500D01*
X142201900Y-109768500D01*
X142201900Y-107568500D01*
X143760268Y-107568500D01*
X143760268Y-108368500D01*
X143773551Y-108439095D01*
X143815273Y-108503932D01*
X143878933Y-108547429D01*
X143954500Y-108562732D01*
X145454500Y-108562732D01*
X145525095Y-108549449D01*
X145589932Y-108507727D01*
X145633429Y-108444067D01*
X145648732Y-108368500D01*
X145648732Y-107782607D01*
X172001000Y-107782607D01*
X172001000Y-108107375D01*
X172048625Y-108155000D01*
X173101000Y-108155000D01*
X173101000Y-107677625D01*
X173482000Y-107677625D01*
X173482000Y-108155000D01*
X174534375Y-108155000D01*
X174582000Y-108107375D01*
X174582000Y-107782607D01*
X174552998Y-107712591D01*
X174499410Y-107659002D01*
X174429393Y-107630000D01*
X173529625Y-107630000D01*
X173482000Y-107677625D01*
X173101000Y-107677625D01*
X173053375Y-107630000D01*
X172153607Y-107630000D01*
X172083590Y-107659002D01*
X172030002Y-107712591D01*
X172001000Y-107782607D01*
X145648732Y-107782607D01*
X145648732Y-107568500D01*
X145635449Y-107497905D01*
X145593727Y-107433068D01*
X145530067Y-107389571D01*
X145454500Y-107374268D01*
X143954500Y-107374268D01*
X143883905Y-107387551D01*
X143819068Y-107429273D01*
X143775571Y-107492933D01*
X143760268Y-107568500D01*
X142201900Y-107568500D01*
X142201900Y-106730800D01*
X142196897Y-106706095D01*
X142182677Y-106685283D01*
X142161480Y-106671643D01*
X142138400Y-106667300D01*
X139103235Y-106667300D01*
X139105495Y-105600500D01*
X139782115Y-105600500D01*
X139861318Y-105998682D01*
X140086870Y-106336245D01*
X140424433Y-106561797D01*
X140822615Y-106641000D01*
X140863385Y-106641000D01*
X141261567Y-106561797D01*
X141599130Y-106336245D01*
X141824682Y-105998682D01*
X141903885Y-105600500D01*
X141824682Y-105202318D01*
X141599130Y-104864755D01*
X141261567Y-104639203D01*
X140863385Y-104560000D01*
X140822615Y-104560000D01*
X140424433Y-104639203D01*
X140086870Y-104864755D01*
X139861318Y-105202318D01*
X139782115Y-105600500D01*
X139105495Y-105600500D01*
X139107852Y-104487636D01*
X142521013Y-104487636D01*
X142595530Y-104667981D01*
X142706826Y-104779471D01*
X142596015Y-104890090D01*
X142521184Y-105070304D01*
X142521013Y-105265436D01*
X142595530Y-105445781D01*
X142733390Y-105583881D01*
X142913604Y-105658712D01*
X143108736Y-105658883D01*
X143289081Y-105584366D01*
X143427181Y-105446506D01*
X143446337Y-105400373D01*
X143596469Y-105550505D01*
X143678872Y-105605565D01*
X143760268Y-105621756D01*
X143760268Y-106168500D01*
X143773551Y-106239095D01*
X143815273Y-106303932D01*
X143878933Y-106347429D01*
X143954500Y-106362732D01*
X145454500Y-106362732D01*
X145525095Y-106349449D01*
X145589932Y-106307727D01*
X145590401Y-106307040D01*
X162949406Y-106307040D01*
X163031519Y-106505769D01*
X163183432Y-106657946D01*
X163382016Y-106740406D01*
X163597040Y-106740594D01*
X163795769Y-106658481D01*
X163947946Y-106506568D01*
X163963753Y-106468500D01*
X167660268Y-106468500D01*
X167660268Y-107268500D01*
X167673551Y-107339095D01*
X167715273Y-107403932D01*
X167778933Y-107447429D01*
X167854500Y-107462732D01*
X169354500Y-107462732D01*
X169425095Y-107449449D01*
X169489932Y-107407727D01*
X169533429Y-107344067D01*
X169539315Y-107315000D01*
X171047268Y-107315000D01*
X171047268Y-107370500D01*
X171060551Y-107441095D01*
X171102273Y-107505932D01*
X171165933Y-107549429D01*
X171241500Y-107564732D01*
X172291500Y-107564732D01*
X172362095Y-107551449D01*
X172426932Y-107509727D01*
X172470429Y-107446067D01*
X172485732Y-107370500D01*
X172485732Y-107108625D01*
X174101000Y-107108625D01*
X174101000Y-107408393D01*
X174130002Y-107478409D01*
X174183590Y-107531998D01*
X174253607Y-107561000D01*
X174578375Y-107561000D01*
X174626000Y-107513375D01*
X174626000Y-107061000D01*
X175007000Y-107061000D01*
X175007000Y-107513375D01*
X175054625Y-107561000D01*
X175379393Y-107561000D01*
X175449410Y-107531998D01*
X175502998Y-107478409D01*
X175532000Y-107408393D01*
X175532000Y-107108625D01*
X175484375Y-107061000D01*
X175007000Y-107061000D01*
X174626000Y-107061000D01*
X174148625Y-107061000D01*
X174101000Y-107108625D01*
X172485732Y-107108625D01*
X172485732Y-106370500D01*
X172478603Y-106332607D01*
X174101000Y-106332607D01*
X174101000Y-106632375D01*
X174148625Y-106680000D01*
X174626000Y-106680000D01*
X174626000Y-106227625D01*
X175007000Y-106227625D01*
X175007000Y-106680000D01*
X175484375Y-106680000D01*
X175532000Y-106632375D01*
X175532000Y-106332607D01*
X175502998Y-106262591D01*
X175449410Y-106209002D01*
X175379393Y-106180000D01*
X175054625Y-106180000D01*
X175007000Y-106227625D01*
X174626000Y-106227625D01*
X174578375Y-106180000D01*
X174253607Y-106180000D01*
X174183590Y-106209002D01*
X174130002Y-106262591D01*
X174101000Y-106332607D01*
X172478603Y-106332607D01*
X172472449Y-106299905D01*
X172430727Y-106235068D01*
X172367067Y-106191571D01*
X172291500Y-106176268D01*
X171241500Y-106176268D01*
X171170905Y-106189551D01*
X171106068Y-106231273D01*
X171062571Y-106294933D01*
X171047268Y-106370500D01*
X171047268Y-106426000D01*
X169540735Y-106426000D01*
X169535449Y-106397905D01*
X169493727Y-106333068D01*
X169430067Y-106289571D01*
X169354500Y-106274268D01*
X167854500Y-106274268D01*
X167783905Y-106287551D01*
X167719068Y-106329273D01*
X167675571Y-106392933D01*
X167660268Y-106468500D01*
X163963753Y-106468500D01*
X164030406Y-106307984D01*
X164030594Y-106092960D01*
X163948481Y-105894231D01*
X163796568Y-105742054D01*
X163597984Y-105659594D01*
X163382960Y-105659406D01*
X163184231Y-105741519D01*
X163032054Y-105893432D01*
X162949594Y-106092016D01*
X162949406Y-106307040D01*
X145590401Y-106307040D01*
X145633429Y-106244067D01*
X145648732Y-106168500D01*
X145648732Y-105633625D01*
X172001000Y-105633625D01*
X172001000Y-105958393D01*
X172030002Y-106028409D01*
X172083590Y-106081998D01*
X172153607Y-106111000D01*
X173053375Y-106111000D01*
X173101000Y-106063375D01*
X173101000Y-105586000D01*
X173482000Y-105586000D01*
X173482000Y-106063375D01*
X173529625Y-106111000D01*
X174429393Y-106111000D01*
X174499410Y-106081998D01*
X174552998Y-106028409D01*
X174582000Y-105958393D01*
X174582000Y-105633625D01*
X174534375Y-105586000D01*
X173482000Y-105586000D01*
X173101000Y-105586000D01*
X172048625Y-105586000D01*
X172001000Y-105633625D01*
X145648732Y-105633625D01*
X145648732Y-105368500D01*
X145635449Y-105297905D01*
X145593727Y-105233068D01*
X145572786Y-105218760D01*
X145589932Y-105207727D01*
X145633429Y-105144067D01*
X145648732Y-105068500D01*
X145648732Y-104832607D01*
X172001000Y-104832607D01*
X172001000Y-105157375D01*
X172048625Y-105205000D01*
X173101000Y-105205000D01*
X173101000Y-104727625D01*
X173482000Y-104727625D01*
X173482000Y-105205000D01*
X174534375Y-105205000D01*
X174582000Y-105157375D01*
X174582000Y-104832607D01*
X174552998Y-104762591D01*
X174499410Y-104709002D01*
X174429393Y-104680000D01*
X173529625Y-104680000D01*
X173482000Y-104727625D01*
X173101000Y-104727625D01*
X173053375Y-104680000D01*
X172153607Y-104680000D01*
X172083590Y-104709002D01*
X172030002Y-104762591D01*
X172001000Y-104832607D01*
X145648732Y-104832607D01*
X145648732Y-104268500D01*
X145635449Y-104197905D01*
X145593727Y-104133068D01*
X145572786Y-104118760D01*
X145589932Y-104107727D01*
X145633429Y-104044067D01*
X145648732Y-103968500D01*
X145648732Y-103168500D01*
X145635449Y-103097905D01*
X145593727Y-103033068D01*
X145572786Y-103018760D01*
X145589932Y-103007727D01*
X145633429Y-102944067D01*
X145648732Y-102868500D01*
X145648732Y-102068500D01*
X145635449Y-101997905D01*
X145593727Y-101933068D01*
X145572786Y-101918760D01*
X145589932Y-101907727D01*
X145605460Y-101885000D01*
X172818768Y-101885000D01*
X172818768Y-102585000D01*
X172832051Y-102655595D01*
X172873773Y-102720432D01*
X172937433Y-102763929D01*
X172968488Y-102770218D01*
X172924335Y-102836299D01*
X172905000Y-102933500D01*
X172924335Y-103030701D01*
X172979395Y-103113105D01*
X173061799Y-103168165D01*
X173159000Y-103187500D01*
X173256201Y-103168165D01*
X173338605Y-103113105D01*
X173365605Y-103086105D01*
X173420666Y-103003701D01*
X173440000Y-102906500D01*
X173420666Y-102809299D01*
X173400576Y-102779232D01*
X173613000Y-102779232D01*
X173683595Y-102765949D01*
X173748432Y-102724227D01*
X173791929Y-102660567D01*
X173807232Y-102585000D01*
X173807232Y-101885000D01*
X173793949Y-101814405D01*
X173752227Y-101749568D01*
X173688567Y-101706071D01*
X173613000Y-101690768D01*
X173603500Y-101690768D01*
X173603500Y-101669766D01*
X173621432Y-101658227D01*
X173664929Y-101594567D01*
X173680232Y-101519000D01*
X173680232Y-100919000D01*
X173666949Y-100848405D01*
X173625227Y-100783568D01*
X173561567Y-100740071D01*
X173486000Y-100724768D01*
X173086000Y-100724768D01*
X173015405Y-100738051D01*
X172950568Y-100779773D01*
X172907071Y-100843433D01*
X172891768Y-100919000D01*
X172891768Y-101519000D01*
X172905051Y-101589595D01*
X172946773Y-101654432D01*
X172968500Y-101669277D01*
X172968500Y-101699141D01*
X172942405Y-101704051D01*
X172877568Y-101745773D01*
X172834071Y-101809433D01*
X172818768Y-101885000D01*
X145605460Y-101885000D01*
X145633429Y-101844067D01*
X145648732Y-101768500D01*
X145648732Y-100968500D01*
X145635449Y-100897905D01*
X145593727Y-100833068D01*
X145572786Y-100818760D01*
X145589932Y-100807727D01*
X145633429Y-100744067D01*
X145648732Y-100668500D01*
X145648732Y-99868500D01*
X167660268Y-99868500D01*
X167660268Y-100668500D01*
X167673551Y-100739095D01*
X167715273Y-100803932D01*
X167778933Y-100847429D01*
X167854500Y-100862732D01*
X169354500Y-100862732D01*
X169425095Y-100849449D01*
X169489932Y-100807727D01*
X169533429Y-100744067D01*
X169548732Y-100668500D01*
X169548732Y-99868500D01*
X169535449Y-99797905D01*
X169493727Y-99733068D01*
X169430067Y-99689571D01*
X169354500Y-99674268D01*
X167854500Y-99674268D01*
X167783905Y-99687551D01*
X167719068Y-99729273D01*
X167675571Y-99792933D01*
X167660268Y-99868500D01*
X145648732Y-99868500D01*
X145635449Y-99797905D01*
X145593727Y-99733068D01*
X145572786Y-99718760D01*
X145589932Y-99707727D01*
X145633429Y-99644067D01*
X145648732Y-99568500D01*
X145648732Y-98768500D01*
X145635449Y-98697905D01*
X145593727Y-98633068D01*
X145530067Y-98589571D01*
X145454500Y-98574268D01*
X143954500Y-98574268D01*
X143883905Y-98587551D01*
X143819068Y-98629273D01*
X143775571Y-98692933D01*
X143760268Y-98768500D01*
X143760268Y-98851000D01*
X143496013Y-98851000D01*
X143383000Y-98737988D01*
X143383000Y-98547121D01*
X143481083Y-98449208D01*
X143555914Y-98268994D01*
X143556085Y-98073862D01*
X143481568Y-97893517D01*
X143343708Y-97755417D01*
X143163494Y-97680586D01*
X142968362Y-97680415D01*
X142788017Y-97754932D01*
X142649917Y-97892792D01*
X142575086Y-98073006D01*
X142574915Y-98268138D01*
X142649432Y-98448483D01*
X142748000Y-98547223D01*
X142748000Y-98869500D01*
X142767510Y-98967583D01*
X142772168Y-98991002D01*
X142840994Y-99094006D01*
X143139994Y-99393007D01*
X143242998Y-99461832D01*
X143364500Y-99486000D01*
X143760268Y-99486000D01*
X143760268Y-99568500D01*
X143773551Y-99639095D01*
X143815273Y-99703932D01*
X143836214Y-99718240D01*
X143819068Y-99729273D01*
X143775571Y-99792933D01*
X143760268Y-99868500D01*
X143760268Y-100668500D01*
X143773551Y-100739095D01*
X143815273Y-100803932D01*
X143836214Y-100818240D01*
X143819068Y-100829273D01*
X143775571Y-100892933D01*
X143760268Y-100968500D01*
X143760268Y-101768500D01*
X143773551Y-101839095D01*
X143815273Y-101903932D01*
X143836214Y-101918240D01*
X143819068Y-101929273D01*
X143775571Y-101992933D01*
X143760268Y-102068500D01*
X143760268Y-102868500D01*
X143773551Y-102939095D01*
X143815273Y-103003932D01*
X143836214Y-103018240D01*
X143819068Y-103029273D01*
X143775571Y-103092933D01*
X143760268Y-103168500D01*
X143760268Y-103968500D01*
X143773551Y-104039095D01*
X143815273Y-104103932D01*
X143836214Y-104118240D01*
X143819068Y-104129273D01*
X143775571Y-104192933D01*
X143760268Y-104268500D01*
X143760268Y-104564832D01*
X143642830Y-104447394D01*
X143560427Y-104392334D01*
X143502106Y-104380733D01*
X143502183Y-104293360D01*
X143427666Y-104113015D01*
X143289806Y-103974915D01*
X143109592Y-103900084D01*
X142914460Y-103899913D01*
X142734115Y-103974430D01*
X142596015Y-104112290D01*
X142521184Y-104292504D01*
X142521013Y-104487636D01*
X139107852Y-104487636D01*
X139110371Y-103298625D01*
X139802500Y-103298625D01*
X139802500Y-103948393D01*
X139831502Y-104018409D01*
X139885090Y-104071998D01*
X139955107Y-104101000D01*
X140604875Y-104101000D01*
X140652500Y-104053375D01*
X140652500Y-103251000D01*
X141033500Y-103251000D01*
X141033500Y-104053375D01*
X141081125Y-104101000D01*
X141730893Y-104101000D01*
X141800910Y-104071998D01*
X141854498Y-104018409D01*
X141883500Y-103948393D01*
X141883500Y-103298625D01*
X141835875Y-103251000D01*
X141033500Y-103251000D01*
X140652500Y-103251000D01*
X139850125Y-103251000D01*
X139802500Y-103298625D01*
X139110371Y-103298625D01*
X139112756Y-102172607D01*
X139802500Y-102172607D01*
X139802500Y-102822375D01*
X139850125Y-102870000D01*
X140652500Y-102870000D01*
X140652500Y-102067625D01*
X141033500Y-102067625D01*
X141033500Y-102870000D01*
X141835875Y-102870000D01*
X141883500Y-102822375D01*
X141883500Y-102172607D01*
X141854498Y-102102591D01*
X141800910Y-102049002D01*
X141730893Y-102020000D01*
X141081125Y-102020000D01*
X141033500Y-102067625D01*
X140652500Y-102067625D01*
X140604875Y-102020000D01*
X139955107Y-102020000D01*
X139885090Y-102049002D01*
X139831502Y-102102591D01*
X139802500Y-102172607D01*
X139112756Y-102172607D01*
X139124931Y-96426638D01*
X144336913Y-96426638D01*
X144411430Y-96606983D01*
X144549290Y-96745083D01*
X144729504Y-96819914D01*
X144924636Y-96820085D01*
X145104981Y-96745568D01*
X145243081Y-96607708D01*
X145317912Y-96427494D01*
X145318083Y-96232362D01*
X145243566Y-96052017D01*
X145105706Y-95913917D01*
X144925492Y-95839086D01*
X144730360Y-95838915D01*
X144550015Y-95913432D01*
X144411915Y-96051292D01*
X144337084Y-96231506D01*
X144336913Y-96426638D01*
X139124931Y-96426638D01*
X139125236Y-96283013D01*
X139558976Y-96283013D01*
X139669550Y-96328927D01*
X139864682Y-96329098D01*
X140045027Y-96254581D01*
X140183127Y-96116721D01*
X140257958Y-95936507D01*
X140258129Y-95741375D01*
X140212044Y-95629841D01*
X140212044Y-95620574D01*
X141027118Y-94805500D01*
X146513365Y-94805500D01*
X146448586Y-94961506D01*
G36*
X135191500Y-105981500D02*
X135001000Y-105981500D01*
X134976295Y-105986503D01*
X134955483Y-106000723D01*
X134941843Y-106021920D01*
X134937500Y-106045000D01*
X134937500Y-108839000D01*
X132969000Y-108839000D01*
X132969000Y-102298500D01*
X135191500Y-102298500D01*
X135191500Y-105981500D01*
X135191500Y-105981500D01*
G37*
X135191500Y-105981500D02*
X135001000Y-105981500D01*
X134976295Y-105986503D01*
X134955483Y-106000723D01*
X134941843Y-106021920D01*
X134937500Y-106045000D01*
X134937500Y-108839000D01*
X132969000Y-108839000D01*
X132969000Y-102298500D01*
X135191500Y-102298500D01*
X135191500Y-105981500D01*
G36*
X138811000Y-108902500D02*
X137587636Y-108902500D01*
X137582609Y-108901500D01*
X137203391Y-108901500D01*
X137198364Y-108902500D01*
X137033000Y-108902500D01*
X137033000Y-106045000D01*
X137027997Y-106020295D01*
X137013777Y-105999483D01*
X136992580Y-105985843D01*
X136969500Y-105981500D01*
X136525000Y-105981500D01*
X136525000Y-102298500D01*
X138811000Y-102298500D01*
X138811000Y-108902500D01*
X138811000Y-108902500D01*
G37*
X138811000Y-108902500D02*
X137587636Y-108902500D01*
X137582609Y-108901500D01*
X137203391Y-108901500D01*
X137198364Y-108902500D01*
X137033000Y-108902500D01*
X137033000Y-106045000D01*
X137027997Y-106020295D01*
X137013777Y-105999483D01*
X136992580Y-105985843D01*
X136969500Y-105981500D01*
X136525000Y-105981500D01*
X136525000Y-102298500D01*
X138811000Y-102298500D01*
X138811000Y-108902500D01*
G36*
X136779000Y-113538000D02*
X135191500Y-113538000D01*
X135191500Y-106299000D01*
X136779000Y-106299000D01*
X136779000Y-113538000D01*
X136779000Y-113538000D01*
G37*
X136779000Y-113538000D02*
X135191500Y-113538000D01*
X135191500Y-106299000D01*
X136779000Y-106299000D01*
X136779000Y-113538000D01*
G36*
X134937500Y-109918500D02*
X134868075Y-109918500D01*
X134782609Y-109901500D01*
X134628192Y-109901500D01*
X134593000Y-109894500D01*
X134039000Y-109894500D01*
X133918343Y-109918500D01*
X132334000Y-109918500D01*
X132334000Y-109093000D01*
X134937500Y-109093000D01*
X134937500Y-109918500D01*
X134937500Y-109918500D01*
G37*
X134937500Y-109918500D02*
X134868075Y-109918500D01*
X134782609Y-109901500D01*
X134628192Y-109901500D01*
X134593000Y-109894500D01*
X134039000Y-109894500D01*
X133918343Y-109918500D01*
X132334000Y-109918500D01*
X132334000Y-109093000D01*
X134937500Y-109093000D01*
X134937500Y-109918500D01*
G36*
X141909624Y-111493300D02*
X139128500Y-111493300D01*
X139128500Y-109956600D01*
X139123497Y-109931895D01*
X139109277Y-109911083D01*
X139088080Y-109897443D01*
X139065000Y-109893100D01*
X137033000Y-109893100D01*
X137033000Y-109169200D01*
X139065000Y-109169200D01*
X139089705Y-109164197D01*
X139110517Y-109149977D01*
X139124157Y-109128780D01*
X139128499Y-109105322D01*
X139116179Y-107035600D01*
X141897275Y-107035600D01*
X141909624Y-111493300D01*
X141909624Y-111493300D01*
G37*
X141909624Y-111493300D02*
X139128500Y-111493300D01*
X139128500Y-109956600D01*
X139123497Y-109931895D01*
X139109277Y-109911083D01*
X139088080Y-109897443D01*
X139065000Y-109893100D01*
X137033000Y-109893100D01*
X137033000Y-109169200D01*
X139065000Y-109169200D01*
X139089705Y-109164197D01*
X139110517Y-109149977D01*
X139124157Y-109128780D01*
X139128499Y-109105322D01*
X139116179Y-107035600D01*
X141897275Y-107035600D01*
X141909624Y-111493300D01*
M02*
