G04 #@! TF.FileFunction,Copper,L3,Inr,Signal*
%FSLAX46Y46*%
G04 Gerber Fmt 4.6, Leading zero omitted, Abs format (unit mm)*
G04 Created by KiCad (PCBNEW 4.0.6) date 10/14/17 16:46:59*
%MOMM*%
%LPD*%
G01*
G04 APERTURE LIST*
%ADD10C,0.100000*%
%ADD11C,0.599440*%
%ADD12O,0.950000X1.250000*%
%ADD13O,1.550000X1.000000*%
%ADD14C,1.524000*%
%ADD15R,1.524000X1.524000*%
%ADD16R,1.700000X1.700000*%
%ADD17O,1.700000X1.700000*%
%ADD18C,0.300000*%
%ADD19C,0.600000*%
%ADD20C,0.254000*%
%ADD21C,0.127000*%
G04 APERTURE END LIST*
D10*
D11*
X165608000Y-103530400D03*
X139420600Y-103568500D03*
X139369800Y-102184200D03*
X139395200Y-106222800D03*
X139509500Y-104787700D03*
X141097000Y-114173000D03*
X142227300Y-114287300D03*
X142621000Y-113487200D03*
X142671800Y-112115600D03*
X143535400Y-112852200D03*
X145046700Y-111671100D03*
X145516600Y-113309400D03*
X144195800Y-114503200D03*
X145491200Y-114350800D03*
X146735800Y-114350800D03*
X148437600Y-114477800D03*
X149783800Y-114427000D03*
X151282400Y-114147600D03*
X151282400Y-113411000D03*
X152323800Y-113995200D03*
X153619200Y-114223800D03*
X152603200Y-113030000D03*
X151206200Y-112420400D03*
X170256200Y-96189800D03*
X172999400Y-97332800D03*
X152527000Y-97815400D03*
X142913100Y-95161100D03*
X143713200Y-95999300D03*
X142900400Y-96659700D03*
X143865600Y-97282000D03*
X142240000Y-101574600D03*
X142138400Y-102971600D03*
X143129000Y-107492800D03*
X143205200Y-102387400D03*
X143230600Y-101244400D03*
X146697700Y-101320600D03*
X147967700Y-101409500D03*
X156895800Y-104724200D03*
X154787600Y-103936800D03*
X154876500Y-107086400D03*
X154914600Y-108153200D03*
X152425400Y-108864400D03*
X151180800Y-107823000D03*
X147447000Y-107721400D03*
X149275800Y-107696000D03*
X149225000Y-105816400D03*
X149199600Y-103454200D03*
X149504400Y-102057200D03*
X149275800Y-101117400D03*
X150558500Y-101371400D03*
X151688800Y-101079300D03*
X153771600Y-101498400D03*
X155117800Y-101574600D03*
X161493200Y-102641400D03*
X166878000Y-103543100D03*
X170434000Y-98806000D03*
X171500800Y-100177600D03*
X171958000Y-103949500D03*
X171958000Y-103949500D03*
X171005500Y-104711500D03*
X169989500Y-105283000D03*
X175450500Y-102997000D03*
X174625000Y-104013000D03*
X174294800Y-97282000D03*
X170332400Y-97434400D03*
X173177200Y-106883200D03*
X175260000Y-105308400D03*
X156464000Y-112166400D03*
X156413200Y-109118400D03*
X154838400Y-112166400D03*
X159781240Y-113421160D03*
X161373820Y-113289080D03*
X160748980Y-114368580D03*
X162814000Y-113233200D03*
X162605720Y-114330480D03*
X164236400Y-114452400D03*
X158191200Y-108813600D03*
X164338000Y-113334800D03*
X166014400Y-101447600D03*
X165712140Y-114218720D03*
X167132000Y-113972340D03*
X160528000Y-101904800D03*
X159613600Y-102565200D03*
X163677600Y-99263200D03*
X165996620Y-112778540D03*
X167304720Y-112796320D03*
X156667200Y-101600000D03*
X168783000Y-113192560D03*
X168910000Y-114350800D03*
X162763200Y-100228400D03*
X162814000Y-102412800D03*
X168986200Y-112141000D03*
X165912800Y-99263200D03*
X170185080Y-113329720D03*
X171424600Y-111302800D03*
X169849800Y-111125000D03*
X171983400Y-112816640D03*
X164134800Y-101498400D03*
X170332400Y-114350800D03*
X170764200Y-112369600D03*
X170891200Y-103276400D03*
X170281600Y-100431600D03*
X171627800Y-114122200D03*
X173045120Y-114427000D03*
X173024800Y-112039400D03*
X173857920Y-113309400D03*
X157530800Y-113436400D03*
X174823120Y-114274600D03*
X157683200Y-114503200D03*
X159270700Y-114482880D03*
X175323500Y-112725200D03*
X174421800Y-111963200D03*
X163906200Y-103974900D03*
X171958000Y-102412800D03*
X155905200Y-113436400D03*
X168808400Y-110286800D03*
X169964100Y-109359700D03*
X156362400Y-114503200D03*
X158750000Y-101650800D03*
X154228800Y-113233200D03*
X172770800Y-110896400D03*
X174371000Y-110871000D03*
X170027600Y-104038400D03*
X175196500Y-108458000D03*
X171856400Y-99110800D03*
X175056800Y-109677200D03*
X173736000Y-109728000D03*
X154838400Y-114350800D03*
X172110400Y-109728000D03*
X170789600Y-110159800D03*
X171297600Y-108508800D03*
X170053000Y-107861100D03*
X154051000Y-102870000D03*
X153098500Y-102870000D03*
X152209500Y-102870000D03*
X151574500Y-104457500D03*
X151384000Y-105346500D03*
X163195000Y-107886500D03*
X162306000Y-107886500D03*
X161353500Y-107886500D03*
D12*
X126207500Y-107347500D03*
X126207500Y-112347500D03*
D13*
X123507500Y-106347500D03*
X123507500Y-113347500D03*
D11*
X136525000Y-107061000D03*
X136017000Y-106553000D03*
X135445500Y-107061000D03*
X135445500Y-113284000D03*
X135445500Y-112331500D03*
X135953500Y-112839500D03*
X136461500Y-113284000D03*
X136461500Y-112331500D03*
X132588000Y-109347000D03*
X133223000Y-109728000D03*
X133794500Y-109347000D03*
X141605000Y-107315000D03*
X140589000Y-107315000D03*
X139509500Y-107315000D03*
X139573000Y-108204000D03*
X140589000Y-108204000D03*
X141605000Y-108204000D03*
X141732000Y-110998000D03*
X140970000Y-110998000D03*
X140208000Y-110998000D03*
D14*
X170091100Y-116433600D03*
X170091100Y-118973600D03*
X167551100Y-116433600D03*
X167551100Y-118973600D03*
X165011100Y-116433600D03*
X165011100Y-118973600D03*
X162471100Y-116433600D03*
X162471100Y-118973600D03*
X159931100Y-116433600D03*
X159931100Y-118973600D03*
X157391100Y-116433600D03*
X157391100Y-118973600D03*
X154851100Y-116433600D03*
X154851100Y-118973600D03*
X152311100Y-116433600D03*
X152311100Y-118973600D03*
X149771100Y-116433600D03*
X149771100Y-118973600D03*
X147231100Y-116433600D03*
X147231100Y-118973600D03*
X144691100Y-116433600D03*
X144691100Y-118973600D03*
X142151100Y-116433600D03*
X142151100Y-118973600D03*
X139611100Y-116433600D03*
X139611100Y-118973600D03*
X137071100Y-116433600D03*
X137071100Y-118973600D03*
X134531100Y-116433600D03*
X134531100Y-118973600D03*
X131991100Y-116433600D03*
X131991100Y-118973600D03*
X129451100Y-116433600D03*
X129451100Y-118973600D03*
X126911100Y-116433600D03*
D15*
X126911100Y-118973600D03*
D14*
X170091100Y-91033600D03*
X170091100Y-93573600D03*
X167551100Y-91033600D03*
X167551100Y-93573600D03*
X165011100Y-91033600D03*
X165011100Y-93573600D03*
X162471100Y-91033600D03*
X162471100Y-93573600D03*
X159931100Y-91033600D03*
X159931100Y-93573600D03*
X157391100Y-91033600D03*
X157391100Y-93573600D03*
X154851100Y-91033600D03*
X154851100Y-93573600D03*
X152311100Y-91033600D03*
X152311100Y-93573600D03*
X149771100Y-91033600D03*
X149771100Y-93573600D03*
X147231100Y-91033600D03*
X147231100Y-93573600D03*
X144691100Y-91033600D03*
X144691100Y-93573600D03*
X142151100Y-91033600D03*
X142151100Y-93573600D03*
X139611100Y-91033600D03*
X139611100Y-93573600D03*
X137071100Y-91033600D03*
X137071100Y-93573600D03*
X134531100Y-91033600D03*
X134531100Y-93573600D03*
X131991100Y-91033600D03*
X131991100Y-93573600D03*
X129451100Y-91033600D03*
X129451100Y-93573600D03*
X126911100Y-91033600D03*
D15*
X126911100Y-93573600D03*
D16*
X123571000Y-99314000D03*
D17*
X123571000Y-101854000D03*
D16*
X140843000Y-103060500D03*
D17*
X140843000Y-105600500D03*
D11*
X139446000Y-110998000D03*
D18*
X135493000Y-110212000D03*
X136493000Y-110712000D03*
X135493000Y-109712000D03*
X135493000Y-110712000D03*
X135493000Y-109212000D03*
X135493000Y-108712000D03*
X135993000Y-108712000D03*
X135993000Y-109212000D03*
X135993000Y-109712000D03*
X135993000Y-110212000D03*
X135993000Y-110712000D03*
X136493000Y-110212000D03*
X136493000Y-109712000D03*
X136493000Y-109212000D03*
X136493000Y-108712000D03*
D19*
X161607500Y-106467991D03*
X137223500Y-99123500D03*
X144843500Y-97091500D03*
X147383500Y-103314500D03*
X156908500Y-95377000D03*
X155511500Y-95123000D03*
X151892000Y-98425000D03*
X142811500Y-108585000D03*
X130175000Y-107251500D03*
X122936000Y-112268000D03*
X129159000Y-113474500D03*
X155892500Y-100330000D03*
X157353000Y-108521500D03*
X167068500Y-107827002D03*
X166115812Y-107826316D03*
X165227000Y-107759500D03*
X164274500Y-107759500D03*
X173101000Y-92773500D03*
X130937000Y-113383002D03*
X124147790Y-116517210D03*
X157543500Y-102425500D03*
X162814000Y-104140000D03*
X143764000Y-121077010D03*
X151193500Y-106616500D03*
X130365500Y-105156000D03*
X123571000Y-95313500D03*
X130492500Y-103251000D03*
X130556000Y-100965000D03*
X130746500Y-98552000D03*
X133667500Y-110583500D03*
X137414000Y-111760000D03*
X170815000Y-95059500D03*
X124841000Y-107759500D03*
X174642479Y-100711000D03*
X158750000Y-113220500D03*
X157734000Y-112204500D03*
X139446000Y-114109500D03*
X147845925Y-95016611D03*
X154622500Y-109347000D03*
X152209500Y-111950500D03*
X151193500Y-109029500D03*
X153352500Y-112268000D03*
X165481000Y-111696500D03*
X166560500Y-111696500D03*
X167640000Y-111760000D03*
X174434500Y-103124000D03*
X174688500Y-94742000D03*
X124657553Y-109851890D03*
X124714000Y-109029500D03*
X123761500Y-104457500D03*
X175023490Y-99197813D03*
X156591000Y-97790000D03*
X157734000Y-97917000D03*
X154749500Y-98552000D03*
X155340886Y-97791794D03*
X124525709Y-110749556D03*
X150968870Y-97616990D03*
X138343220Y-115692200D03*
X143011598Y-105168298D03*
X143065500Y-98171000D03*
X138343220Y-114914400D03*
X143011598Y-104390498D03*
X150495000Y-95313500D03*
X144827498Y-96329500D03*
X166433500Y-94805500D03*
X162115500Y-97917000D03*
X160782000Y-95359521D03*
X158559500Y-97980500D03*
X160817077Y-97811112D03*
X149468050Y-95060277D03*
X147828000Y-111823500D03*
X150050500Y-111823500D03*
X148971000Y-111823500D03*
X146748500Y-111823500D03*
X146939000Y-95059500D03*
X130048000Y-108394500D03*
X128968500Y-109537500D03*
X130937000Y-111442500D03*
X139767544Y-95838513D03*
X133158936Y-95249582D03*
X128079500Y-95250000D03*
X130683000Y-95250000D03*
X135826500Y-95250000D03*
D20*
X156273500Y-94805500D02*
X156273500Y-94996000D01*
X156273500Y-94996000D02*
X156146500Y-95123000D01*
D21*
G36*
X169724340Y-88514900D02*
X172880753Y-90623947D01*
X174989800Y-93780360D01*
X175145678Y-94564010D01*
X175104568Y-94464517D01*
X174966708Y-94326417D01*
X174786494Y-94251586D01*
X174591362Y-94251415D01*
X174411017Y-94325932D01*
X174272917Y-94463792D01*
X174198086Y-94644006D01*
X174197915Y-94839138D01*
X174272432Y-95019483D01*
X174410292Y-95157583D01*
X174590506Y-95232414D01*
X174785638Y-95232585D01*
X174965983Y-95158068D01*
X175104083Y-95020208D01*
X175178914Y-94839994D01*
X175179009Y-94731578D01*
X175735600Y-97529752D01*
X175735600Y-112477448D01*
X174989800Y-116226840D01*
X172880753Y-119383253D01*
X169724340Y-121492300D01*
X165974952Y-122238100D01*
X131027252Y-122238100D01*
X127277860Y-121492300D01*
X124121447Y-119383253D01*
X123338574Y-118211600D01*
X125954868Y-118211600D01*
X125954868Y-119735600D01*
X125968151Y-119806195D01*
X126009873Y-119871032D01*
X126073533Y-119914529D01*
X126149100Y-119929832D01*
X127673100Y-119929832D01*
X127743695Y-119916549D01*
X127808532Y-119874827D01*
X127852029Y-119811167D01*
X127867332Y-119735600D01*
X127867332Y-119162233D01*
X128498435Y-119162233D01*
X128643139Y-119512443D01*
X128910847Y-119780620D01*
X129260805Y-119925935D01*
X129639733Y-119926265D01*
X129989943Y-119781561D01*
X130258120Y-119513853D01*
X130403435Y-119163895D01*
X130403436Y-119162233D01*
X131038435Y-119162233D01*
X131183139Y-119512443D01*
X131450847Y-119780620D01*
X131800805Y-119925935D01*
X132179733Y-119926265D01*
X132529943Y-119781561D01*
X132798120Y-119513853D01*
X132943435Y-119163895D01*
X132943436Y-119162233D01*
X133578435Y-119162233D01*
X133723139Y-119512443D01*
X133990847Y-119780620D01*
X134340805Y-119925935D01*
X134719733Y-119926265D01*
X135069943Y-119781561D01*
X135338120Y-119513853D01*
X135483435Y-119163895D01*
X135483436Y-119162233D01*
X136118435Y-119162233D01*
X136263139Y-119512443D01*
X136530847Y-119780620D01*
X136880805Y-119925935D01*
X137259733Y-119926265D01*
X137609943Y-119781561D01*
X137878120Y-119513853D01*
X138023435Y-119163895D01*
X138023436Y-119162233D01*
X138658435Y-119162233D01*
X138803139Y-119512443D01*
X139070847Y-119780620D01*
X139420805Y-119925935D01*
X139799733Y-119926265D01*
X140149943Y-119781561D01*
X140418120Y-119513853D01*
X140563435Y-119163895D01*
X140563436Y-119162233D01*
X141198435Y-119162233D01*
X141343139Y-119512443D01*
X141610847Y-119780620D01*
X141960805Y-119925935D01*
X142339733Y-119926265D01*
X142689943Y-119781561D01*
X142724265Y-119747299D01*
X144186809Y-119747299D01*
X144285473Y-119855995D01*
X144654028Y-119944053D01*
X145028226Y-119884369D01*
X145096727Y-119855995D01*
X145195391Y-119747299D01*
X144691100Y-119243008D01*
X144186809Y-119747299D01*
X142724265Y-119747299D01*
X142958120Y-119513853D01*
X143103435Y-119163895D01*
X143103633Y-118936528D01*
X143720647Y-118936528D01*
X143780331Y-119310726D01*
X143808705Y-119379227D01*
X143917401Y-119477891D01*
X144421692Y-118973600D01*
X144960508Y-118973600D01*
X145464799Y-119477891D01*
X145573495Y-119379227D01*
X145625340Y-119162233D01*
X146278435Y-119162233D01*
X146423139Y-119512443D01*
X146690847Y-119780620D01*
X147040805Y-119925935D01*
X147419733Y-119926265D01*
X147769943Y-119781561D01*
X148038120Y-119513853D01*
X148183435Y-119163895D01*
X148183436Y-119162233D01*
X148818435Y-119162233D01*
X148963139Y-119512443D01*
X149230847Y-119780620D01*
X149580805Y-119925935D01*
X149959733Y-119926265D01*
X150309943Y-119781561D01*
X150578120Y-119513853D01*
X150723435Y-119163895D01*
X150723436Y-119162233D01*
X151358435Y-119162233D01*
X151503139Y-119512443D01*
X151770847Y-119780620D01*
X152120805Y-119925935D01*
X152499733Y-119926265D01*
X152849943Y-119781561D01*
X153118120Y-119513853D01*
X153263435Y-119163895D01*
X153263436Y-119162233D01*
X153898435Y-119162233D01*
X154043139Y-119512443D01*
X154310847Y-119780620D01*
X154660805Y-119925935D01*
X155039733Y-119926265D01*
X155389943Y-119781561D01*
X155658120Y-119513853D01*
X155803435Y-119163895D01*
X155803436Y-119162233D01*
X156438435Y-119162233D01*
X156583139Y-119512443D01*
X156850847Y-119780620D01*
X157200805Y-119925935D01*
X157579733Y-119926265D01*
X157929943Y-119781561D01*
X158198120Y-119513853D01*
X158343435Y-119163895D01*
X158343436Y-119162233D01*
X158978435Y-119162233D01*
X159123139Y-119512443D01*
X159390847Y-119780620D01*
X159740805Y-119925935D01*
X160119733Y-119926265D01*
X160469943Y-119781561D01*
X160738120Y-119513853D01*
X160883435Y-119163895D01*
X160883436Y-119162233D01*
X161518435Y-119162233D01*
X161663139Y-119512443D01*
X161930847Y-119780620D01*
X162280805Y-119925935D01*
X162659733Y-119926265D01*
X163009943Y-119781561D01*
X163278120Y-119513853D01*
X163423435Y-119163895D01*
X163423436Y-119162233D01*
X164058435Y-119162233D01*
X164203139Y-119512443D01*
X164470847Y-119780620D01*
X164820805Y-119925935D01*
X165199733Y-119926265D01*
X165549943Y-119781561D01*
X165818120Y-119513853D01*
X165963435Y-119163895D01*
X165963436Y-119162233D01*
X166598435Y-119162233D01*
X166743139Y-119512443D01*
X167010847Y-119780620D01*
X167360805Y-119925935D01*
X167739733Y-119926265D01*
X168089943Y-119781561D01*
X168358120Y-119513853D01*
X168503435Y-119163895D01*
X168503436Y-119162233D01*
X169138435Y-119162233D01*
X169283139Y-119512443D01*
X169550847Y-119780620D01*
X169900805Y-119925935D01*
X170279733Y-119926265D01*
X170629943Y-119781561D01*
X170898120Y-119513853D01*
X171043435Y-119163895D01*
X171043765Y-118784967D01*
X170899061Y-118434757D01*
X170631353Y-118166580D01*
X170281395Y-118021265D01*
X169902467Y-118020935D01*
X169552257Y-118165639D01*
X169284080Y-118433347D01*
X169138765Y-118783305D01*
X169138435Y-119162233D01*
X168503436Y-119162233D01*
X168503765Y-118784967D01*
X168359061Y-118434757D01*
X168091353Y-118166580D01*
X167741395Y-118021265D01*
X167362467Y-118020935D01*
X167012257Y-118165639D01*
X166744080Y-118433347D01*
X166598765Y-118783305D01*
X166598435Y-119162233D01*
X165963436Y-119162233D01*
X165963765Y-118784967D01*
X165819061Y-118434757D01*
X165551353Y-118166580D01*
X165201395Y-118021265D01*
X164822467Y-118020935D01*
X164472257Y-118165639D01*
X164204080Y-118433347D01*
X164058765Y-118783305D01*
X164058435Y-119162233D01*
X163423436Y-119162233D01*
X163423765Y-118784967D01*
X163279061Y-118434757D01*
X163011353Y-118166580D01*
X162661395Y-118021265D01*
X162282467Y-118020935D01*
X161932257Y-118165639D01*
X161664080Y-118433347D01*
X161518765Y-118783305D01*
X161518435Y-119162233D01*
X160883436Y-119162233D01*
X160883765Y-118784967D01*
X160739061Y-118434757D01*
X160471353Y-118166580D01*
X160121395Y-118021265D01*
X159742467Y-118020935D01*
X159392257Y-118165639D01*
X159124080Y-118433347D01*
X158978765Y-118783305D01*
X158978435Y-119162233D01*
X158343436Y-119162233D01*
X158343765Y-118784967D01*
X158199061Y-118434757D01*
X157931353Y-118166580D01*
X157581395Y-118021265D01*
X157202467Y-118020935D01*
X156852257Y-118165639D01*
X156584080Y-118433347D01*
X156438765Y-118783305D01*
X156438435Y-119162233D01*
X155803436Y-119162233D01*
X155803765Y-118784967D01*
X155659061Y-118434757D01*
X155391353Y-118166580D01*
X155041395Y-118021265D01*
X154662467Y-118020935D01*
X154312257Y-118165639D01*
X154044080Y-118433347D01*
X153898765Y-118783305D01*
X153898435Y-119162233D01*
X153263436Y-119162233D01*
X153263765Y-118784967D01*
X153119061Y-118434757D01*
X152851353Y-118166580D01*
X152501395Y-118021265D01*
X152122467Y-118020935D01*
X151772257Y-118165639D01*
X151504080Y-118433347D01*
X151358765Y-118783305D01*
X151358435Y-119162233D01*
X150723436Y-119162233D01*
X150723765Y-118784967D01*
X150579061Y-118434757D01*
X150311353Y-118166580D01*
X149961395Y-118021265D01*
X149582467Y-118020935D01*
X149232257Y-118165639D01*
X148964080Y-118433347D01*
X148818765Y-118783305D01*
X148818435Y-119162233D01*
X148183436Y-119162233D01*
X148183765Y-118784967D01*
X148039061Y-118434757D01*
X147771353Y-118166580D01*
X147421395Y-118021265D01*
X147042467Y-118020935D01*
X146692257Y-118165639D01*
X146424080Y-118433347D01*
X146278765Y-118783305D01*
X146278435Y-119162233D01*
X145625340Y-119162233D01*
X145661553Y-119010672D01*
X145601869Y-118636474D01*
X145573495Y-118567973D01*
X145464799Y-118469309D01*
X144960508Y-118973600D01*
X144421692Y-118973600D01*
X143917401Y-118469309D01*
X143808705Y-118567973D01*
X143720647Y-118936528D01*
X143103633Y-118936528D01*
X143103765Y-118784967D01*
X142959061Y-118434757D01*
X142724616Y-118199901D01*
X144186809Y-118199901D01*
X144691100Y-118704192D01*
X145195391Y-118199901D01*
X145096727Y-118091205D01*
X144728172Y-118003147D01*
X144353974Y-118062831D01*
X144285473Y-118091205D01*
X144186809Y-118199901D01*
X142724616Y-118199901D01*
X142691353Y-118166580D01*
X142341395Y-118021265D01*
X141962467Y-118020935D01*
X141612257Y-118165639D01*
X141344080Y-118433347D01*
X141198765Y-118783305D01*
X141198435Y-119162233D01*
X140563436Y-119162233D01*
X140563765Y-118784967D01*
X140419061Y-118434757D01*
X140151353Y-118166580D01*
X139801395Y-118021265D01*
X139422467Y-118020935D01*
X139072257Y-118165639D01*
X138804080Y-118433347D01*
X138658765Y-118783305D01*
X138658435Y-119162233D01*
X138023436Y-119162233D01*
X138023765Y-118784967D01*
X137879061Y-118434757D01*
X137611353Y-118166580D01*
X137261395Y-118021265D01*
X136882467Y-118020935D01*
X136532257Y-118165639D01*
X136264080Y-118433347D01*
X136118765Y-118783305D01*
X136118435Y-119162233D01*
X135483436Y-119162233D01*
X135483765Y-118784967D01*
X135339061Y-118434757D01*
X135071353Y-118166580D01*
X134721395Y-118021265D01*
X134342467Y-118020935D01*
X133992257Y-118165639D01*
X133724080Y-118433347D01*
X133578765Y-118783305D01*
X133578435Y-119162233D01*
X132943436Y-119162233D01*
X132943765Y-118784967D01*
X132799061Y-118434757D01*
X132531353Y-118166580D01*
X132181395Y-118021265D01*
X131802467Y-118020935D01*
X131452257Y-118165639D01*
X131184080Y-118433347D01*
X131038765Y-118783305D01*
X131038435Y-119162233D01*
X130403436Y-119162233D01*
X130403765Y-118784967D01*
X130259061Y-118434757D01*
X129991353Y-118166580D01*
X129641395Y-118021265D01*
X129262467Y-118020935D01*
X128912257Y-118165639D01*
X128644080Y-118433347D01*
X128498765Y-118783305D01*
X128498435Y-119162233D01*
X127867332Y-119162233D01*
X127867332Y-118211600D01*
X127854049Y-118141005D01*
X127812327Y-118076168D01*
X127748667Y-118032671D01*
X127673100Y-118017368D01*
X126149100Y-118017368D01*
X126078505Y-118030651D01*
X126013668Y-118072373D01*
X125970171Y-118136033D01*
X125954868Y-118211600D01*
X123338574Y-118211600D01*
X122276594Y-116622233D01*
X125958435Y-116622233D01*
X126103139Y-116972443D01*
X126370847Y-117240620D01*
X126720805Y-117385935D01*
X127099733Y-117386265D01*
X127449943Y-117241561D01*
X127718120Y-116973853D01*
X127863435Y-116623895D01*
X127863436Y-116622233D01*
X128498435Y-116622233D01*
X128643139Y-116972443D01*
X128910847Y-117240620D01*
X129260805Y-117385935D01*
X129639733Y-117386265D01*
X129989943Y-117241561D01*
X130258120Y-116973853D01*
X130403435Y-116623895D01*
X130403436Y-116622233D01*
X131038435Y-116622233D01*
X131183139Y-116972443D01*
X131450847Y-117240620D01*
X131800805Y-117385935D01*
X132179733Y-117386265D01*
X132529943Y-117241561D01*
X132798120Y-116973853D01*
X132943435Y-116623895D01*
X132943436Y-116622233D01*
X133578435Y-116622233D01*
X133723139Y-116972443D01*
X133990847Y-117240620D01*
X134340805Y-117385935D01*
X134719733Y-117386265D01*
X135069943Y-117241561D01*
X135338120Y-116973853D01*
X135483435Y-116623895D01*
X135483436Y-116622233D01*
X136118435Y-116622233D01*
X136263139Y-116972443D01*
X136530847Y-117240620D01*
X136880805Y-117385935D01*
X137259733Y-117386265D01*
X137609943Y-117241561D01*
X137878120Y-116973853D01*
X138023435Y-116623895D01*
X138023436Y-116622233D01*
X138658435Y-116622233D01*
X138803139Y-116972443D01*
X139070847Y-117240620D01*
X139420805Y-117385935D01*
X139799733Y-117386265D01*
X140149943Y-117241561D01*
X140418120Y-116973853D01*
X140563435Y-116623895D01*
X140563436Y-116622233D01*
X141198435Y-116622233D01*
X141343139Y-116972443D01*
X141610847Y-117240620D01*
X141960805Y-117385935D01*
X142339733Y-117386265D01*
X142689943Y-117241561D01*
X142724265Y-117207299D01*
X144186809Y-117207299D01*
X144285473Y-117315995D01*
X144654028Y-117404053D01*
X145028226Y-117344369D01*
X145096727Y-117315995D01*
X145195391Y-117207299D01*
X144691100Y-116703008D01*
X144186809Y-117207299D01*
X142724265Y-117207299D01*
X142958120Y-116973853D01*
X143103435Y-116623895D01*
X143103633Y-116396528D01*
X143720647Y-116396528D01*
X143780331Y-116770726D01*
X143808705Y-116839227D01*
X143917401Y-116937891D01*
X144421692Y-116433600D01*
X144960508Y-116433600D01*
X145464799Y-116937891D01*
X145573495Y-116839227D01*
X145625340Y-116622233D01*
X146278435Y-116622233D01*
X146423139Y-116972443D01*
X146690847Y-117240620D01*
X147040805Y-117385935D01*
X147419733Y-117386265D01*
X147769943Y-117241561D01*
X148038120Y-116973853D01*
X148183435Y-116623895D01*
X148183436Y-116622233D01*
X148818435Y-116622233D01*
X148963139Y-116972443D01*
X149230847Y-117240620D01*
X149580805Y-117385935D01*
X149959733Y-117386265D01*
X150309943Y-117241561D01*
X150344265Y-117207299D01*
X151806809Y-117207299D01*
X151905473Y-117315995D01*
X152274028Y-117404053D01*
X152648226Y-117344369D01*
X152716727Y-117315995D01*
X152815391Y-117207299D01*
X152311100Y-116703008D01*
X151806809Y-117207299D01*
X150344265Y-117207299D01*
X150578120Y-116973853D01*
X150723435Y-116623895D01*
X150723633Y-116396528D01*
X151340647Y-116396528D01*
X151400331Y-116770726D01*
X151428705Y-116839227D01*
X151537401Y-116937891D01*
X152041692Y-116433600D01*
X152580508Y-116433600D01*
X153084799Y-116937891D01*
X153193495Y-116839227D01*
X153245340Y-116622233D01*
X153898435Y-116622233D01*
X154043139Y-116972443D01*
X154310847Y-117240620D01*
X154660805Y-117385935D01*
X155039733Y-117386265D01*
X155389943Y-117241561D01*
X155658120Y-116973853D01*
X155803435Y-116623895D01*
X155803436Y-116622233D01*
X156438435Y-116622233D01*
X156583139Y-116972443D01*
X156850847Y-117240620D01*
X157200805Y-117385935D01*
X157579733Y-117386265D01*
X157929943Y-117241561D01*
X158198120Y-116973853D01*
X158343435Y-116623895D01*
X158343436Y-116622233D01*
X158978435Y-116622233D01*
X159123139Y-116972443D01*
X159390847Y-117240620D01*
X159740805Y-117385935D01*
X160119733Y-117386265D01*
X160469943Y-117241561D01*
X160738120Y-116973853D01*
X160883435Y-116623895D01*
X160883436Y-116622233D01*
X161518435Y-116622233D01*
X161663139Y-116972443D01*
X161930847Y-117240620D01*
X162280805Y-117385935D01*
X162659733Y-117386265D01*
X163009943Y-117241561D01*
X163278120Y-116973853D01*
X163423435Y-116623895D01*
X163423436Y-116622233D01*
X164058435Y-116622233D01*
X164203139Y-116972443D01*
X164470847Y-117240620D01*
X164820805Y-117385935D01*
X165199733Y-117386265D01*
X165549943Y-117241561D01*
X165818120Y-116973853D01*
X165963435Y-116623895D01*
X165963436Y-116622233D01*
X166598435Y-116622233D01*
X166743139Y-116972443D01*
X167010847Y-117240620D01*
X167360805Y-117385935D01*
X167739733Y-117386265D01*
X168089943Y-117241561D01*
X168358120Y-116973853D01*
X168503435Y-116623895D01*
X168503436Y-116622233D01*
X169138435Y-116622233D01*
X169283139Y-116972443D01*
X169550847Y-117240620D01*
X169900805Y-117385935D01*
X170279733Y-117386265D01*
X170629943Y-117241561D01*
X170898120Y-116973853D01*
X171043435Y-116623895D01*
X171043765Y-116244967D01*
X170899061Y-115894757D01*
X170631353Y-115626580D01*
X170281395Y-115481265D01*
X169902467Y-115480935D01*
X169552257Y-115625639D01*
X169284080Y-115893347D01*
X169138765Y-116243305D01*
X169138435Y-116622233D01*
X168503436Y-116622233D01*
X168503765Y-116244967D01*
X168359061Y-115894757D01*
X168091353Y-115626580D01*
X167741395Y-115481265D01*
X167362467Y-115480935D01*
X167012257Y-115625639D01*
X166744080Y-115893347D01*
X166598765Y-116243305D01*
X166598435Y-116622233D01*
X165963436Y-116622233D01*
X165963765Y-116244967D01*
X165819061Y-115894757D01*
X165551353Y-115626580D01*
X165201395Y-115481265D01*
X164822467Y-115480935D01*
X164472257Y-115625639D01*
X164204080Y-115893347D01*
X164058765Y-116243305D01*
X164058435Y-116622233D01*
X163423436Y-116622233D01*
X163423765Y-116244967D01*
X163279061Y-115894757D01*
X163011353Y-115626580D01*
X162661395Y-115481265D01*
X162282467Y-115480935D01*
X161932257Y-115625639D01*
X161664080Y-115893347D01*
X161518765Y-116243305D01*
X161518435Y-116622233D01*
X160883436Y-116622233D01*
X160883765Y-116244967D01*
X160739061Y-115894757D01*
X160471353Y-115626580D01*
X160121395Y-115481265D01*
X159742467Y-115480935D01*
X159392257Y-115625639D01*
X159124080Y-115893347D01*
X158978765Y-116243305D01*
X158978435Y-116622233D01*
X158343436Y-116622233D01*
X158343765Y-116244967D01*
X158199061Y-115894757D01*
X157931353Y-115626580D01*
X157581395Y-115481265D01*
X157202467Y-115480935D01*
X156852257Y-115625639D01*
X156584080Y-115893347D01*
X156438765Y-116243305D01*
X156438435Y-116622233D01*
X155803436Y-116622233D01*
X155803765Y-116244967D01*
X155659061Y-115894757D01*
X155391353Y-115626580D01*
X155041395Y-115481265D01*
X154662467Y-115480935D01*
X154312257Y-115625639D01*
X154044080Y-115893347D01*
X153898765Y-116243305D01*
X153898435Y-116622233D01*
X153245340Y-116622233D01*
X153281553Y-116470672D01*
X153221869Y-116096474D01*
X153193495Y-116027973D01*
X153084799Y-115929309D01*
X152580508Y-116433600D01*
X152041692Y-116433600D01*
X151537401Y-115929309D01*
X151428705Y-116027973D01*
X151340647Y-116396528D01*
X150723633Y-116396528D01*
X150723765Y-116244967D01*
X150579061Y-115894757D01*
X150344616Y-115659901D01*
X151806809Y-115659901D01*
X152311100Y-116164192D01*
X152815391Y-115659901D01*
X152716727Y-115551205D01*
X152348172Y-115463147D01*
X151973974Y-115522831D01*
X151905473Y-115551205D01*
X151806809Y-115659901D01*
X150344616Y-115659901D01*
X150311353Y-115626580D01*
X149961395Y-115481265D01*
X149582467Y-115480935D01*
X149232257Y-115625639D01*
X148964080Y-115893347D01*
X148818765Y-116243305D01*
X148818435Y-116622233D01*
X148183436Y-116622233D01*
X148183765Y-116244967D01*
X148039061Y-115894757D01*
X147771353Y-115626580D01*
X147421395Y-115481265D01*
X147042467Y-115480935D01*
X146692257Y-115625639D01*
X146424080Y-115893347D01*
X146278765Y-116243305D01*
X146278435Y-116622233D01*
X145625340Y-116622233D01*
X145661553Y-116470672D01*
X145601869Y-116096474D01*
X145573495Y-116027973D01*
X145464799Y-115929309D01*
X144960508Y-116433600D01*
X144421692Y-116433600D01*
X143917401Y-115929309D01*
X143808705Y-116027973D01*
X143720647Y-116396528D01*
X143103633Y-116396528D01*
X143103765Y-116244967D01*
X142959061Y-115894757D01*
X142724616Y-115659901D01*
X144186809Y-115659901D01*
X144691100Y-116164192D01*
X145195391Y-115659901D01*
X145096727Y-115551205D01*
X144728172Y-115463147D01*
X144353974Y-115522831D01*
X144285473Y-115551205D01*
X144186809Y-115659901D01*
X142724616Y-115659901D01*
X142691353Y-115626580D01*
X142341395Y-115481265D01*
X141962467Y-115480935D01*
X141612257Y-115625639D01*
X141344080Y-115893347D01*
X141198765Y-116243305D01*
X141198435Y-116622233D01*
X140563436Y-116622233D01*
X140563765Y-116244967D01*
X140419061Y-115894757D01*
X140151353Y-115626580D01*
X139801395Y-115481265D01*
X139422467Y-115480935D01*
X139072257Y-115625639D01*
X138804080Y-115893347D01*
X138658765Y-116243305D01*
X138658435Y-116622233D01*
X138023436Y-116622233D01*
X138023765Y-116244967D01*
X137879061Y-115894757D01*
X137611353Y-115626580D01*
X137261395Y-115481265D01*
X136882467Y-115480935D01*
X136532257Y-115625639D01*
X136264080Y-115893347D01*
X136118765Y-116243305D01*
X136118435Y-116622233D01*
X135483436Y-116622233D01*
X135483765Y-116244967D01*
X135339061Y-115894757D01*
X135071353Y-115626580D01*
X134721395Y-115481265D01*
X134342467Y-115480935D01*
X133992257Y-115625639D01*
X133724080Y-115893347D01*
X133578765Y-116243305D01*
X133578435Y-116622233D01*
X132943436Y-116622233D01*
X132943765Y-116244967D01*
X132799061Y-115894757D01*
X132531353Y-115626580D01*
X132181395Y-115481265D01*
X131802467Y-115480935D01*
X131452257Y-115625639D01*
X131184080Y-115893347D01*
X131038765Y-116243305D01*
X131038435Y-116622233D01*
X130403436Y-116622233D01*
X130403765Y-116244967D01*
X130259061Y-115894757D01*
X129991353Y-115626580D01*
X129641395Y-115481265D01*
X129262467Y-115480935D01*
X128912257Y-115625639D01*
X128644080Y-115893347D01*
X128498765Y-116243305D01*
X128498435Y-116622233D01*
X127863436Y-116622233D01*
X127863765Y-116244967D01*
X127719061Y-115894757D01*
X127451353Y-115626580D01*
X127101395Y-115481265D01*
X126722467Y-115480935D01*
X126372257Y-115625639D01*
X126104080Y-115893347D01*
X125958765Y-116243305D01*
X125958435Y-116622233D01*
X122276594Y-116622233D01*
X122012400Y-116226840D01*
X121770662Y-115011538D01*
X137852635Y-115011538D01*
X137927152Y-115191883D01*
X138038448Y-115303373D01*
X137927637Y-115413992D01*
X137852806Y-115594206D01*
X137852635Y-115789338D01*
X137927152Y-115969683D01*
X138065012Y-116107783D01*
X138245226Y-116182614D01*
X138440358Y-116182785D01*
X138620703Y-116108268D01*
X138758803Y-115970408D01*
X138833634Y-115790194D01*
X138833805Y-115595062D01*
X138759288Y-115414717D01*
X138647992Y-115303227D01*
X138758803Y-115192608D01*
X138833634Y-115012394D01*
X138833805Y-114817262D01*
X138759288Y-114636917D01*
X138621428Y-114498817D01*
X138441214Y-114423986D01*
X138246082Y-114423815D01*
X138065737Y-114498332D01*
X137927637Y-114636192D01*
X137852806Y-114816406D01*
X137852635Y-115011538D01*
X121770662Y-115011538D01*
X121610558Y-114206638D01*
X138955415Y-114206638D01*
X139029932Y-114386983D01*
X139167792Y-114525083D01*
X139348006Y-114599914D01*
X139543138Y-114600085D01*
X139723483Y-114525568D01*
X139861583Y-114387708D01*
X139936414Y-114207494D01*
X139936585Y-114012362D01*
X139862068Y-113832017D01*
X139724208Y-113693917D01*
X139543994Y-113619086D01*
X139348862Y-113618915D01*
X139168517Y-113693432D01*
X139030417Y-113831292D01*
X138955586Y-114011506D01*
X138955415Y-114206638D01*
X121610558Y-114206638D01*
X121439664Y-113347500D01*
X122523085Y-113347500D01*
X122575646Y-113611743D01*
X122725328Y-113835757D01*
X122949342Y-113985439D01*
X123213585Y-114038000D01*
X123801415Y-114038000D01*
X124065658Y-113985439D01*
X124289672Y-113835757D01*
X124439354Y-113611743D01*
X124491915Y-113347500D01*
X124485976Y-113317638D01*
X158259415Y-113317638D01*
X158333932Y-113497983D01*
X158471792Y-113636083D01*
X158652006Y-113710914D01*
X158847138Y-113711085D01*
X159027483Y-113636568D01*
X159165583Y-113498708D01*
X159240414Y-113318494D01*
X159240585Y-113123362D01*
X159166068Y-112943017D01*
X159028208Y-112804917D01*
X158847994Y-112730086D01*
X158652862Y-112729915D01*
X158472517Y-112804432D01*
X158334417Y-112942292D01*
X158259586Y-113122506D01*
X158259415Y-113317638D01*
X124485976Y-113317638D01*
X124439354Y-113083257D01*
X124289672Y-112859243D01*
X124065658Y-112709561D01*
X123801415Y-112657000D01*
X123213585Y-112657000D01*
X122949342Y-112709561D01*
X122725328Y-112859243D01*
X122575646Y-113083257D01*
X122523085Y-113347500D01*
X121439664Y-113347500D01*
X121266600Y-112477452D01*
X121266600Y-112181523D01*
X125542000Y-112181523D01*
X125542000Y-112513477D01*
X125592658Y-112768153D01*
X125736920Y-112984057D01*
X125952824Y-113128319D01*
X126207500Y-113178977D01*
X126462176Y-113128319D01*
X126678080Y-112984057D01*
X126822342Y-112768153D01*
X126873000Y-112513477D01*
X126873000Y-112181523D01*
X126822342Y-111926847D01*
X126678080Y-111710943D01*
X126462176Y-111566681D01*
X126326222Y-111539638D01*
X130446415Y-111539638D01*
X130520932Y-111719983D01*
X130658792Y-111858083D01*
X130839006Y-111932914D01*
X131034138Y-111933085D01*
X131214483Y-111858568D01*
X131215915Y-111857138D01*
X136923415Y-111857138D01*
X136997932Y-112037483D01*
X137135792Y-112175583D01*
X137316006Y-112250414D01*
X137511138Y-112250585D01*
X137691483Y-112176068D01*
X137829583Y-112038208D01*
X137878402Y-111920638D01*
X146257915Y-111920638D01*
X146332432Y-112100983D01*
X146470292Y-112239083D01*
X146650506Y-112313914D01*
X146845638Y-112314085D01*
X147025983Y-112239568D01*
X147164083Y-112101708D01*
X147238914Y-111921494D01*
X147238914Y-111920638D01*
X147337415Y-111920638D01*
X147411932Y-112100983D01*
X147549792Y-112239083D01*
X147730006Y-112313914D01*
X147925138Y-112314085D01*
X148105483Y-112239568D01*
X148243583Y-112101708D01*
X148318414Y-111921494D01*
X148318414Y-111920638D01*
X148480415Y-111920638D01*
X148554932Y-112100983D01*
X148692792Y-112239083D01*
X148873006Y-112313914D01*
X149068138Y-112314085D01*
X149248483Y-112239568D01*
X149386583Y-112101708D01*
X149461414Y-111921494D01*
X149461414Y-111920638D01*
X149559915Y-111920638D01*
X149634432Y-112100983D01*
X149772292Y-112239083D01*
X149952506Y-112313914D01*
X150147638Y-112314085D01*
X150327983Y-112239568D01*
X150466083Y-112101708D01*
X150488534Y-112047638D01*
X151718915Y-112047638D01*
X151793432Y-112227983D01*
X151931292Y-112366083D01*
X152111506Y-112440914D01*
X152306638Y-112441085D01*
X152486983Y-112366568D01*
X152488415Y-112365138D01*
X152861915Y-112365138D01*
X152936432Y-112545483D01*
X153074292Y-112683583D01*
X153254506Y-112758414D01*
X153449638Y-112758585D01*
X153629983Y-112684068D01*
X153768083Y-112546208D01*
X153842914Y-112365994D01*
X153842970Y-112301638D01*
X157243415Y-112301638D01*
X157317932Y-112481983D01*
X157455792Y-112620083D01*
X157636006Y-112694914D01*
X157831138Y-112695085D01*
X158011483Y-112620568D01*
X158149583Y-112482708D01*
X158224414Y-112302494D01*
X158224585Y-112107362D01*
X158150068Y-111927017D01*
X158016921Y-111793638D01*
X164990415Y-111793638D01*
X165064932Y-111973983D01*
X165202792Y-112112083D01*
X165383006Y-112186914D01*
X165578138Y-112187085D01*
X165758483Y-112112568D01*
X165896583Y-111974708D01*
X165971414Y-111794494D01*
X165971414Y-111793638D01*
X166069915Y-111793638D01*
X166144432Y-111973983D01*
X166282292Y-112112083D01*
X166462506Y-112186914D01*
X166657638Y-112187085D01*
X166837983Y-112112568D01*
X166976083Y-111974708D01*
X167024902Y-111857138D01*
X167149415Y-111857138D01*
X167223932Y-112037483D01*
X167361792Y-112175583D01*
X167542006Y-112250414D01*
X167737138Y-112250585D01*
X167917483Y-112176068D01*
X168055583Y-112038208D01*
X168130414Y-111857994D01*
X168130585Y-111662862D01*
X168056068Y-111482517D01*
X167918208Y-111344417D01*
X167737994Y-111269586D01*
X167542862Y-111269415D01*
X167362517Y-111343932D01*
X167224417Y-111481792D01*
X167149586Y-111662006D01*
X167149415Y-111857138D01*
X167024902Y-111857138D01*
X167050914Y-111794494D01*
X167051085Y-111599362D01*
X166976568Y-111419017D01*
X166838708Y-111280917D01*
X166658494Y-111206086D01*
X166463362Y-111205915D01*
X166283017Y-111280432D01*
X166144917Y-111418292D01*
X166070086Y-111598506D01*
X166069915Y-111793638D01*
X165971414Y-111793638D01*
X165971585Y-111599362D01*
X165897068Y-111419017D01*
X165759208Y-111280917D01*
X165578994Y-111206086D01*
X165383862Y-111205915D01*
X165203517Y-111280432D01*
X165065417Y-111418292D01*
X164990586Y-111598506D01*
X164990415Y-111793638D01*
X158016921Y-111793638D01*
X158012208Y-111788917D01*
X157831994Y-111714086D01*
X157636862Y-111713915D01*
X157456517Y-111788432D01*
X157318417Y-111926292D01*
X157243586Y-112106506D01*
X157243415Y-112301638D01*
X153842970Y-112301638D01*
X153843085Y-112170862D01*
X153768568Y-111990517D01*
X153630708Y-111852417D01*
X153450494Y-111777586D01*
X153255362Y-111777415D01*
X153075017Y-111851932D01*
X152936917Y-111989792D01*
X152862086Y-112170006D01*
X152861915Y-112365138D01*
X152488415Y-112365138D01*
X152625083Y-112228708D01*
X152699914Y-112048494D01*
X152700085Y-111853362D01*
X152625568Y-111673017D01*
X152487708Y-111534917D01*
X152307494Y-111460086D01*
X152112362Y-111459915D01*
X151932017Y-111534432D01*
X151793917Y-111672292D01*
X151719086Y-111852506D01*
X151718915Y-112047638D01*
X150488534Y-112047638D01*
X150540914Y-111921494D01*
X150541085Y-111726362D01*
X150466568Y-111546017D01*
X150328708Y-111407917D01*
X150148494Y-111333086D01*
X149953362Y-111332915D01*
X149773017Y-111407432D01*
X149634917Y-111545292D01*
X149560086Y-111725506D01*
X149559915Y-111920638D01*
X149461414Y-111920638D01*
X149461585Y-111726362D01*
X149387068Y-111546017D01*
X149249208Y-111407917D01*
X149068994Y-111333086D01*
X148873862Y-111332915D01*
X148693517Y-111407432D01*
X148555417Y-111545292D01*
X148480586Y-111725506D01*
X148480415Y-111920638D01*
X148318414Y-111920638D01*
X148318585Y-111726362D01*
X148244068Y-111546017D01*
X148106208Y-111407917D01*
X147925994Y-111333086D01*
X147730862Y-111332915D01*
X147550517Y-111407432D01*
X147412417Y-111545292D01*
X147337586Y-111725506D01*
X147337415Y-111920638D01*
X147238914Y-111920638D01*
X147239085Y-111726362D01*
X147164568Y-111546017D01*
X147026708Y-111407917D01*
X146846494Y-111333086D01*
X146651362Y-111332915D01*
X146471017Y-111407432D01*
X146332917Y-111545292D01*
X146258086Y-111725506D01*
X146257915Y-111920638D01*
X137878402Y-111920638D01*
X137904414Y-111857994D01*
X137904585Y-111662862D01*
X137830068Y-111482517D01*
X137692208Y-111344417D01*
X137511994Y-111269586D01*
X137316862Y-111269415D01*
X137136517Y-111343932D01*
X136998417Y-111481792D01*
X136923586Y-111662006D01*
X136923415Y-111857138D01*
X131215915Y-111857138D01*
X131352583Y-111720708D01*
X131427414Y-111540494D01*
X131427585Y-111345362D01*
X131353068Y-111165017D01*
X131283256Y-111095083D01*
X138955695Y-111095083D01*
X139030169Y-111275325D01*
X139167950Y-111413346D01*
X139348061Y-111488135D01*
X139543083Y-111488305D01*
X139723325Y-111413831D01*
X139827060Y-111310277D01*
X139929950Y-111413346D01*
X140110061Y-111488135D01*
X140305083Y-111488305D01*
X140485325Y-111413831D01*
X140589060Y-111310277D01*
X140691950Y-111413346D01*
X140872061Y-111488135D01*
X141067083Y-111488305D01*
X141247325Y-111413831D01*
X141351060Y-111310277D01*
X141453950Y-111413346D01*
X141634061Y-111488135D01*
X141829083Y-111488305D01*
X142009325Y-111413831D01*
X142147346Y-111276050D01*
X142222135Y-111095939D01*
X142222305Y-110900917D01*
X142147831Y-110720675D01*
X142010050Y-110582654D01*
X141829939Y-110507865D01*
X141634917Y-110507695D01*
X141454675Y-110582169D01*
X141350940Y-110685723D01*
X141248050Y-110582654D01*
X141067939Y-110507865D01*
X140872917Y-110507695D01*
X140692675Y-110582169D01*
X140588940Y-110685723D01*
X140486050Y-110582654D01*
X140305939Y-110507865D01*
X140110917Y-110507695D01*
X139930675Y-110582169D01*
X139826940Y-110685723D01*
X139724050Y-110582654D01*
X139543939Y-110507865D01*
X139348917Y-110507695D01*
X139168675Y-110582169D01*
X139030654Y-110719950D01*
X138955865Y-110900061D01*
X138955695Y-111095083D01*
X131283256Y-111095083D01*
X131215208Y-111026917D01*
X131034994Y-110952086D01*
X130839862Y-110951915D01*
X130659517Y-111026432D01*
X130521417Y-111164292D01*
X130446586Y-111344506D01*
X130446415Y-111539638D01*
X126326222Y-111539638D01*
X126207500Y-111516023D01*
X125952824Y-111566681D01*
X125736920Y-111710943D01*
X125592658Y-111926847D01*
X125542000Y-112181523D01*
X121266600Y-112181523D01*
X121266600Y-110846694D01*
X124035124Y-110846694D01*
X124109641Y-111027039D01*
X124247501Y-111165139D01*
X124427715Y-111239970D01*
X124622847Y-111240141D01*
X124803192Y-111165624D01*
X124941292Y-111027764D01*
X125016123Y-110847550D01*
X125016294Y-110652418D01*
X124941777Y-110472073D01*
X124803917Y-110333973D01*
X124789628Y-110328040D01*
X124935036Y-110267958D01*
X125073136Y-110130098D01*
X125147967Y-109949884D01*
X125148138Y-109754752D01*
X125098508Y-109634638D01*
X128477915Y-109634638D01*
X128552432Y-109814983D01*
X128690292Y-109953083D01*
X128870506Y-110027914D01*
X129065638Y-110028085D01*
X129245983Y-109953568D01*
X129384083Y-109815708D01*
X129458914Y-109635494D01*
X129459081Y-109444083D01*
X132097695Y-109444083D01*
X132172169Y-109624325D01*
X132309950Y-109762346D01*
X132490061Y-109837135D01*
X132685083Y-109837305D01*
X132732701Y-109817630D01*
X132732695Y-109825083D01*
X132807169Y-110005325D01*
X132944950Y-110143346D01*
X133125061Y-110218135D01*
X133320083Y-110218305D01*
X133352454Y-110204930D01*
X133251917Y-110305292D01*
X133177086Y-110485506D01*
X133176915Y-110680638D01*
X133251432Y-110860983D01*
X133389292Y-110999083D01*
X133569506Y-111073914D01*
X133764638Y-111074085D01*
X133944983Y-110999568D01*
X134083083Y-110861708D01*
X134157914Y-110681494D01*
X134158085Y-110486362D01*
X134083568Y-110306017D01*
X133945708Y-110167917D01*
X133765494Y-110093086D01*
X133570362Y-110092915D01*
X133537889Y-110106333D01*
X133638346Y-110006050D01*
X133708482Y-109837145D01*
X133891583Y-109837305D01*
X134071825Y-109762831D01*
X134209846Y-109625050D01*
X134284635Y-109444939D01*
X134284805Y-109249917D01*
X134233868Y-109126638D01*
X150702915Y-109126638D01*
X150777432Y-109306983D01*
X150915292Y-109445083D01*
X151095506Y-109519914D01*
X151290638Y-109520085D01*
X151470983Y-109445568D01*
X151472415Y-109444138D01*
X154131915Y-109444138D01*
X154206432Y-109624483D01*
X154344292Y-109762583D01*
X154524506Y-109837414D01*
X154719638Y-109837585D01*
X154899983Y-109763068D01*
X155038083Y-109625208D01*
X155112914Y-109444994D01*
X155113085Y-109249862D01*
X155038568Y-109069517D01*
X154900708Y-108931417D01*
X154720494Y-108856586D01*
X154525362Y-108856415D01*
X154345017Y-108930932D01*
X154206917Y-109068792D01*
X154132086Y-109249006D01*
X154131915Y-109444138D01*
X151472415Y-109444138D01*
X151609083Y-109307708D01*
X151683914Y-109127494D01*
X151684085Y-108932362D01*
X151609568Y-108752017D01*
X151471708Y-108613917D01*
X151291494Y-108539086D01*
X151096362Y-108538915D01*
X150916017Y-108613432D01*
X150777917Y-108751292D01*
X150703086Y-108931506D01*
X150702915Y-109126638D01*
X134233868Y-109126638D01*
X134210331Y-109069675D01*
X134072550Y-108931654D01*
X133892439Y-108856865D01*
X133697417Y-108856695D01*
X133517175Y-108931169D01*
X133379154Y-109068950D01*
X133309018Y-109237855D01*
X133125917Y-109237695D01*
X133078299Y-109257370D01*
X133078305Y-109249917D01*
X133003831Y-109069675D01*
X132866050Y-108931654D01*
X132685939Y-108856865D01*
X132490917Y-108856695D01*
X132310675Y-108931169D01*
X132172654Y-109068950D01*
X132097865Y-109249061D01*
X132097695Y-109444083D01*
X129459081Y-109444083D01*
X129459085Y-109440362D01*
X129384568Y-109260017D01*
X129246708Y-109121917D01*
X129066494Y-109047086D01*
X128871362Y-109046915D01*
X128691017Y-109121432D01*
X128552917Y-109259292D01*
X128478086Y-109439506D01*
X128477915Y-109634638D01*
X125098508Y-109634638D01*
X125073621Y-109574407D01*
X124958578Y-109459164D01*
X124991483Y-109445568D01*
X125129583Y-109307708D01*
X125204414Y-109127494D01*
X125204585Y-108932362D01*
X125130068Y-108752017D01*
X124992208Y-108613917D01*
X124811994Y-108539086D01*
X124616862Y-108538915D01*
X124436517Y-108613432D01*
X124298417Y-108751292D01*
X124223586Y-108931506D01*
X124223415Y-109126638D01*
X124297932Y-109306983D01*
X124412975Y-109422226D01*
X124380070Y-109435822D01*
X124241970Y-109573682D01*
X124167139Y-109753896D01*
X124166968Y-109949028D01*
X124241485Y-110129373D01*
X124379345Y-110267473D01*
X124393634Y-110273406D01*
X124248226Y-110333488D01*
X124110126Y-110471348D01*
X124035295Y-110651562D01*
X124035124Y-110846694D01*
X121266600Y-110846694D01*
X121266600Y-108491638D01*
X129557415Y-108491638D01*
X129631932Y-108671983D01*
X129769792Y-108810083D01*
X129950006Y-108884914D01*
X130145138Y-108885085D01*
X130325483Y-108810568D01*
X130463583Y-108672708D01*
X130538414Y-108492494D01*
X130538585Y-108297362D01*
X130464068Y-108117017D01*
X130326208Y-107978917D01*
X130145994Y-107904086D01*
X129950862Y-107903915D01*
X129770517Y-107978432D01*
X129632417Y-108116292D01*
X129557586Y-108296506D01*
X129557415Y-108491638D01*
X121266600Y-108491638D01*
X121266600Y-107856638D01*
X124350415Y-107856638D01*
X124424932Y-108036983D01*
X124562792Y-108175083D01*
X124743006Y-108249914D01*
X124938138Y-108250085D01*
X125118483Y-108175568D01*
X125256583Y-108037708D01*
X125331414Y-107857494D01*
X125331585Y-107662362D01*
X125257068Y-107482017D01*
X125119208Y-107343917D01*
X124938994Y-107269086D01*
X124743862Y-107268915D01*
X124563517Y-107343432D01*
X124425417Y-107481292D01*
X124350586Y-107661506D01*
X124350415Y-107856638D01*
X121266600Y-107856638D01*
X121266600Y-107181523D01*
X125542000Y-107181523D01*
X125542000Y-107513477D01*
X125592658Y-107768153D01*
X125736920Y-107984057D01*
X125952824Y-108128319D01*
X126207500Y-108178977D01*
X126462176Y-108128319D01*
X126678080Y-107984057D01*
X126822342Y-107768153D01*
X126873000Y-107513477D01*
X126873000Y-107412083D01*
X139019195Y-107412083D01*
X139093669Y-107592325D01*
X139231450Y-107730346D01*
X139333282Y-107772630D01*
X139295675Y-107788169D01*
X139157654Y-107925950D01*
X139082865Y-108106061D01*
X139082695Y-108301083D01*
X139157169Y-108481325D01*
X139294950Y-108619346D01*
X139475061Y-108694135D01*
X139670083Y-108694305D01*
X139850325Y-108619831D01*
X139988346Y-108482050D01*
X140063135Y-108301939D01*
X140063305Y-108106917D01*
X139988831Y-107926675D01*
X139851050Y-107788654D01*
X139749218Y-107746370D01*
X139786825Y-107730831D01*
X139924846Y-107593050D01*
X139999635Y-107412939D01*
X139999635Y-107412083D01*
X140098695Y-107412083D01*
X140173169Y-107592325D01*
X140310950Y-107730346D01*
X140381110Y-107759479D01*
X140311675Y-107788169D01*
X140173654Y-107925950D01*
X140098865Y-108106061D01*
X140098695Y-108301083D01*
X140173169Y-108481325D01*
X140310950Y-108619346D01*
X140491061Y-108694135D01*
X140686083Y-108694305D01*
X140866325Y-108619831D01*
X141004346Y-108482050D01*
X141079135Y-108301939D01*
X141079305Y-108106917D01*
X141004831Y-107926675D01*
X140867050Y-107788654D01*
X140796890Y-107759521D01*
X140866325Y-107730831D01*
X141004346Y-107593050D01*
X141079135Y-107412939D01*
X141079135Y-107412083D01*
X141114695Y-107412083D01*
X141189169Y-107592325D01*
X141326950Y-107730346D01*
X141397110Y-107759479D01*
X141327675Y-107788169D01*
X141189654Y-107925950D01*
X141114865Y-108106061D01*
X141114695Y-108301083D01*
X141189169Y-108481325D01*
X141326950Y-108619346D01*
X141507061Y-108694135D01*
X141702083Y-108694305D01*
X141882325Y-108619831D01*
X142020346Y-108482050D01*
X142095135Y-108301939D01*
X142095305Y-108106917D01*
X142020831Y-107926675D01*
X141883050Y-107788654D01*
X141812890Y-107759521D01*
X141882325Y-107730831D01*
X142020346Y-107593050D01*
X142095135Y-107412939D01*
X142095305Y-107217917D01*
X142020831Y-107037675D01*
X141883050Y-106899654D01*
X141702939Y-106824865D01*
X141507917Y-106824695D01*
X141327675Y-106899169D01*
X141189654Y-107036950D01*
X141114865Y-107217061D01*
X141114695Y-107412083D01*
X141079135Y-107412083D01*
X141079305Y-107217917D01*
X141004831Y-107037675D01*
X140867050Y-106899654D01*
X140686939Y-106824865D01*
X140491917Y-106824695D01*
X140311675Y-106899169D01*
X140173654Y-107036950D01*
X140098865Y-107217061D01*
X140098695Y-107412083D01*
X139999635Y-107412083D01*
X139999805Y-107217917D01*
X139925331Y-107037675D01*
X139787550Y-106899654D01*
X139607439Y-106824865D01*
X139412417Y-106824695D01*
X139232175Y-106899169D01*
X139094154Y-107036950D01*
X139019365Y-107217061D01*
X139019195Y-107412083D01*
X126873000Y-107412083D01*
X126873000Y-107181523D01*
X126822342Y-106926847D01*
X126678080Y-106710943D01*
X126462176Y-106566681D01*
X126207500Y-106516023D01*
X125952824Y-106566681D01*
X125736920Y-106710943D01*
X125592658Y-106926847D01*
X125542000Y-107181523D01*
X121266600Y-107181523D01*
X121266600Y-106347500D01*
X122523085Y-106347500D01*
X122575646Y-106611743D01*
X122725328Y-106835757D01*
X122949342Y-106985439D01*
X123213585Y-107038000D01*
X123801415Y-107038000D01*
X124065658Y-106985439D01*
X124289672Y-106835757D01*
X124439354Y-106611743D01*
X124491915Y-106347500D01*
X124439354Y-106083257D01*
X124289672Y-105859243D01*
X124065658Y-105709561D01*
X123801415Y-105657000D01*
X123213585Y-105657000D01*
X122949342Y-105709561D01*
X122725328Y-105859243D01*
X122575646Y-106083257D01*
X122523085Y-106347500D01*
X121266600Y-106347500D01*
X121266600Y-105253138D01*
X129874915Y-105253138D01*
X129949432Y-105433483D01*
X130087292Y-105571583D01*
X130267506Y-105646414D01*
X130462638Y-105646585D01*
X130574172Y-105600500D01*
X139782115Y-105600500D01*
X139861318Y-105998682D01*
X140086870Y-106336245D01*
X140424433Y-106561797D01*
X140822615Y-106641000D01*
X140863385Y-106641000D01*
X141261567Y-106561797D01*
X141599130Y-106336245D01*
X141618644Y-106307040D01*
X162949406Y-106307040D01*
X163031519Y-106505769D01*
X163183432Y-106657946D01*
X163382016Y-106740406D01*
X163597040Y-106740594D01*
X163795769Y-106658481D01*
X163947946Y-106506568D01*
X164030406Y-106307984D01*
X164030594Y-106092960D01*
X163948481Y-105894231D01*
X163796568Y-105742054D01*
X163597984Y-105659594D01*
X163382960Y-105659406D01*
X163184231Y-105741519D01*
X163032054Y-105893432D01*
X162949594Y-106092016D01*
X162949406Y-106307040D01*
X141618644Y-106307040D01*
X141824682Y-105998682D01*
X141903885Y-105600500D01*
X141824682Y-105202318D01*
X141599130Y-104864755D01*
X141261567Y-104639203D01*
X140863385Y-104560000D01*
X140822615Y-104560000D01*
X140424433Y-104639203D01*
X140086870Y-104864755D01*
X139861318Y-105202318D01*
X139782115Y-105600500D01*
X130574172Y-105600500D01*
X130642983Y-105572068D01*
X130781083Y-105434208D01*
X130855914Y-105253994D01*
X130856085Y-105058862D01*
X130781568Y-104878517D01*
X130643708Y-104740417D01*
X130463494Y-104665586D01*
X130268362Y-104665415D01*
X130088017Y-104739932D01*
X129949917Y-104877792D01*
X129875086Y-105058006D01*
X129874915Y-105253138D01*
X121266600Y-105253138D01*
X121266600Y-104554638D01*
X123270915Y-104554638D01*
X123345432Y-104734983D01*
X123483292Y-104873083D01*
X123663506Y-104947914D01*
X123858638Y-104948085D01*
X124038983Y-104873568D01*
X124177083Y-104735708D01*
X124251914Y-104555494D01*
X124251973Y-104487636D01*
X142521013Y-104487636D01*
X142595530Y-104667981D01*
X142706826Y-104779471D01*
X142596015Y-104890090D01*
X142521184Y-105070304D01*
X142521013Y-105265436D01*
X142595530Y-105445781D01*
X142733390Y-105583881D01*
X142913604Y-105658712D01*
X143108736Y-105658883D01*
X143289081Y-105584366D01*
X143427181Y-105446506D01*
X143502012Y-105266292D01*
X143502183Y-105071160D01*
X143427666Y-104890815D01*
X143316370Y-104779325D01*
X143427181Y-104668706D01*
X143502012Y-104488492D01*
X143502183Y-104293360D01*
X143427666Y-104113015D01*
X143289806Y-103974915D01*
X143109592Y-103900084D01*
X142914460Y-103899913D01*
X142734115Y-103974430D01*
X142596015Y-104112290D01*
X142521184Y-104292504D01*
X142521013Y-104487636D01*
X124251973Y-104487636D01*
X124252085Y-104360362D01*
X124177568Y-104180017D01*
X124039708Y-104041917D01*
X123859494Y-103967086D01*
X123664362Y-103966915D01*
X123484017Y-104041432D01*
X123345917Y-104179292D01*
X123271086Y-104359506D01*
X123270915Y-104554638D01*
X121266600Y-104554638D01*
X121266600Y-103348138D01*
X130001915Y-103348138D01*
X130076432Y-103528483D01*
X130214292Y-103666583D01*
X130394506Y-103741414D01*
X130589638Y-103741585D01*
X130769983Y-103667068D01*
X130908083Y-103529208D01*
X130982914Y-103348994D01*
X130982958Y-103298625D01*
X139802500Y-103298625D01*
X139802500Y-103948393D01*
X139831502Y-104018409D01*
X139885090Y-104071998D01*
X139955107Y-104101000D01*
X140604875Y-104101000D01*
X140652500Y-104053375D01*
X140652500Y-103251000D01*
X141033500Y-103251000D01*
X141033500Y-104053375D01*
X141081125Y-104101000D01*
X141730893Y-104101000D01*
X141800910Y-104071998D01*
X141854498Y-104018409D01*
X141883500Y-103948393D01*
X141883500Y-103298625D01*
X141835875Y-103251000D01*
X141033500Y-103251000D01*
X140652500Y-103251000D01*
X139850125Y-103251000D01*
X139802500Y-103298625D01*
X130982958Y-103298625D01*
X130983025Y-103221138D01*
X173943915Y-103221138D01*
X174018432Y-103401483D01*
X174156292Y-103539583D01*
X174336506Y-103614414D01*
X174531638Y-103614585D01*
X174711983Y-103540068D01*
X174850083Y-103402208D01*
X174924914Y-103221994D01*
X174925085Y-103026862D01*
X174850568Y-102846517D01*
X174712708Y-102708417D01*
X174532494Y-102633586D01*
X174337362Y-102633415D01*
X174157017Y-102707932D01*
X174018917Y-102845792D01*
X173944086Y-103026006D01*
X173943915Y-103221138D01*
X130983025Y-103221138D01*
X130983085Y-103153862D01*
X130908568Y-102973517D01*
X130770708Y-102835417D01*
X130590494Y-102760586D01*
X130395362Y-102760415D01*
X130215017Y-102834932D01*
X130076917Y-102972792D01*
X130002086Y-103153006D01*
X130001915Y-103348138D01*
X121266600Y-103348138D01*
X121266600Y-101854000D01*
X122510115Y-101854000D01*
X122589318Y-102252182D01*
X122814870Y-102589745D01*
X123152433Y-102815297D01*
X123550615Y-102894500D01*
X123591385Y-102894500D01*
X123989567Y-102815297D01*
X124327130Y-102589745D01*
X124552682Y-102252182D01*
X124568510Y-102172607D01*
X139802500Y-102172607D01*
X139802500Y-102822375D01*
X139850125Y-102870000D01*
X140652500Y-102870000D01*
X140652500Y-102067625D01*
X141033500Y-102067625D01*
X141033500Y-102870000D01*
X141835875Y-102870000D01*
X141883500Y-102822375D01*
X141883500Y-102172607D01*
X141854498Y-102102591D01*
X141800910Y-102049002D01*
X141730893Y-102020000D01*
X141081125Y-102020000D01*
X141033500Y-102067625D01*
X140652500Y-102067625D01*
X140604875Y-102020000D01*
X139955107Y-102020000D01*
X139885090Y-102049002D01*
X139831502Y-102102591D01*
X139802500Y-102172607D01*
X124568510Y-102172607D01*
X124631885Y-101854000D01*
X124552682Y-101455818D01*
X124327130Y-101118255D01*
X124243145Y-101062138D01*
X130065415Y-101062138D01*
X130139932Y-101242483D01*
X130277792Y-101380583D01*
X130458006Y-101455414D01*
X130653138Y-101455585D01*
X130833483Y-101381068D01*
X130971583Y-101243208D01*
X131046414Y-101062994D01*
X131046585Y-100867862D01*
X131021908Y-100808138D01*
X174151894Y-100808138D01*
X174226411Y-100988483D01*
X174364271Y-101126583D01*
X174544485Y-101201414D01*
X174739617Y-101201585D01*
X174919962Y-101127068D01*
X175058062Y-100989208D01*
X175132893Y-100808994D01*
X175133064Y-100613862D01*
X175058547Y-100433517D01*
X174920687Y-100295417D01*
X174740473Y-100220586D01*
X174545341Y-100220415D01*
X174364996Y-100294932D01*
X174226896Y-100432792D01*
X174152065Y-100613006D01*
X174151894Y-100808138D01*
X131021908Y-100808138D01*
X130972068Y-100687517D01*
X130834208Y-100549417D01*
X130653994Y-100474586D01*
X130458862Y-100474415D01*
X130278517Y-100548932D01*
X130140417Y-100686792D01*
X130065586Y-100867006D01*
X130065415Y-101062138D01*
X124243145Y-101062138D01*
X123989567Y-100892703D01*
X123591385Y-100813500D01*
X123550615Y-100813500D01*
X123152433Y-100892703D01*
X122814870Y-101118255D01*
X122589318Y-101455818D01*
X122510115Y-101854000D01*
X121266600Y-101854000D01*
X121266600Y-99552125D01*
X122530500Y-99552125D01*
X122530500Y-100201893D01*
X122559502Y-100271909D01*
X122613090Y-100325498D01*
X122683107Y-100354500D01*
X123332875Y-100354500D01*
X123380500Y-100306875D01*
X123380500Y-99504500D01*
X123761500Y-99504500D01*
X123761500Y-100306875D01*
X123809125Y-100354500D01*
X124458893Y-100354500D01*
X124528910Y-100325498D01*
X124582498Y-100271909D01*
X124611500Y-100201893D01*
X124611500Y-99552125D01*
X124563875Y-99504500D01*
X123761500Y-99504500D01*
X123380500Y-99504500D01*
X122578125Y-99504500D01*
X122530500Y-99552125D01*
X121266600Y-99552125D01*
X121266600Y-99294951D01*
X174532905Y-99294951D01*
X174607422Y-99475296D01*
X174745282Y-99613396D01*
X174925496Y-99688227D01*
X175120628Y-99688398D01*
X175300973Y-99613881D01*
X175439073Y-99476021D01*
X175513904Y-99295807D01*
X175514075Y-99100675D01*
X175439558Y-98920330D01*
X175301698Y-98782230D01*
X175121484Y-98707399D01*
X174926352Y-98707228D01*
X174746007Y-98781745D01*
X174607907Y-98919605D01*
X174533076Y-99099819D01*
X174532905Y-99294951D01*
X121266600Y-99294951D01*
X121266600Y-98426107D01*
X122530500Y-98426107D01*
X122530500Y-99075875D01*
X122578125Y-99123500D01*
X123380500Y-99123500D01*
X123380500Y-98321125D01*
X123761500Y-98321125D01*
X123761500Y-99123500D01*
X124563875Y-99123500D01*
X124611500Y-99075875D01*
X124611500Y-98649138D01*
X130255915Y-98649138D01*
X130330432Y-98829483D01*
X130468292Y-98967583D01*
X130648506Y-99042414D01*
X130843638Y-99042585D01*
X131023983Y-98968068D01*
X131162083Y-98830208D01*
X131236914Y-98649994D01*
X131237085Y-98454862D01*
X131162568Y-98274517D01*
X131156201Y-98268138D01*
X142574915Y-98268138D01*
X142649432Y-98448483D01*
X142787292Y-98586583D01*
X142967506Y-98661414D01*
X143162638Y-98661585D01*
X143192762Y-98649138D01*
X154258915Y-98649138D01*
X154333432Y-98829483D01*
X154471292Y-98967583D01*
X154651506Y-99042414D01*
X154846638Y-99042585D01*
X155026983Y-98968068D01*
X155165083Y-98830208D01*
X155239914Y-98649994D01*
X155240085Y-98454862D01*
X155165568Y-98274517D01*
X155123938Y-98232814D01*
X155242892Y-98282208D01*
X155438024Y-98282379D01*
X155618369Y-98207862D01*
X155756469Y-98070002D01*
X155831300Y-97889788D01*
X155831302Y-97887138D01*
X156100415Y-97887138D01*
X156174932Y-98067483D01*
X156312792Y-98205583D01*
X156493006Y-98280414D01*
X156688138Y-98280585D01*
X156868483Y-98206068D01*
X157006583Y-98068208D01*
X157029034Y-98014138D01*
X157243415Y-98014138D01*
X157317932Y-98194483D01*
X157455792Y-98332583D01*
X157636006Y-98407414D01*
X157831138Y-98407585D01*
X158011483Y-98333068D01*
X158126865Y-98217887D01*
X158143432Y-98257983D01*
X158281292Y-98396083D01*
X158461506Y-98470914D01*
X158656638Y-98471085D01*
X158836983Y-98396568D01*
X158975083Y-98258708D01*
X159049914Y-98078494D01*
X159050063Y-97908250D01*
X160326492Y-97908250D01*
X160401009Y-98088595D01*
X160538869Y-98226695D01*
X160719083Y-98301526D01*
X160914215Y-98301697D01*
X161094560Y-98227180D01*
X161232660Y-98089320D01*
X161263878Y-98014138D01*
X161624915Y-98014138D01*
X161699432Y-98194483D01*
X161837292Y-98332583D01*
X162017506Y-98407414D01*
X162212638Y-98407585D01*
X162392983Y-98333068D01*
X162531083Y-98195208D01*
X162605914Y-98014994D01*
X162606085Y-97819862D01*
X162531568Y-97639517D01*
X162393708Y-97501417D01*
X162213494Y-97426586D01*
X162018362Y-97426415D01*
X161838017Y-97500932D01*
X161699917Y-97638792D01*
X161625086Y-97819006D01*
X161624915Y-98014138D01*
X161263878Y-98014138D01*
X161307491Y-97909106D01*
X161307662Y-97713974D01*
X161233145Y-97533629D01*
X161095285Y-97395529D01*
X160929873Y-97326844D01*
X171149389Y-97326844D01*
X171246694Y-97562340D01*
X171426712Y-97742673D01*
X171662038Y-97840388D01*
X171916844Y-97840611D01*
X172152340Y-97743306D01*
X172332673Y-97563288D01*
X172430388Y-97327962D01*
X172430611Y-97073156D01*
X172333306Y-96837660D01*
X172153288Y-96657327D01*
X171917962Y-96559612D01*
X171663156Y-96559389D01*
X171427660Y-96656694D01*
X171247327Y-96836712D01*
X171149612Y-97072038D01*
X171149389Y-97326844D01*
X160929873Y-97326844D01*
X160915071Y-97320698D01*
X160719939Y-97320527D01*
X160539594Y-97395044D01*
X160401494Y-97532904D01*
X160326663Y-97713118D01*
X160326492Y-97908250D01*
X159050063Y-97908250D01*
X159050085Y-97883362D01*
X158975568Y-97703017D01*
X158837708Y-97564917D01*
X158657494Y-97490086D01*
X158462362Y-97489915D01*
X158282017Y-97564432D01*
X158166635Y-97679613D01*
X158150068Y-97639517D01*
X158012208Y-97501417D01*
X157831994Y-97426586D01*
X157636862Y-97426415D01*
X157456517Y-97500932D01*
X157318417Y-97638792D01*
X157243586Y-97819006D01*
X157243415Y-98014138D01*
X157029034Y-98014138D01*
X157081414Y-97887994D01*
X157081585Y-97692862D01*
X157007068Y-97512517D01*
X156869208Y-97374417D01*
X156688994Y-97299586D01*
X156493862Y-97299415D01*
X156313517Y-97373932D01*
X156175417Y-97511792D01*
X156100586Y-97692006D01*
X156100415Y-97887138D01*
X155831302Y-97887138D01*
X155831471Y-97694656D01*
X155756954Y-97514311D01*
X155619094Y-97376211D01*
X155438880Y-97301380D01*
X155243748Y-97301209D01*
X155063403Y-97375726D01*
X154925303Y-97513586D01*
X154850472Y-97693800D01*
X154850301Y-97888932D01*
X154924818Y-98069277D01*
X154966448Y-98110980D01*
X154847494Y-98061586D01*
X154652362Y-98061415D01*
X154472017Y-98135932D01*
X154333917Y-98273792D01*
X154259086Y-98454006D01*
X154258915Y-98649138D01*
X143192762Y-98649138D01*
X143342983Y-98587068D01*
X143481083Y-98449208D01*
X143555914Y-98268994D01*
X143556085Y-98073862D01*
X143481568Y-97893517D01*
X143343708Y-97755417D01*
X143244273Y-97714128D01*
X150478285Y-97714128D01*
X150552802Y-97894473D01*
X150690662Y-98032573D01*
X150870876Y-98107404D01*
X151066008Y-98107575D01*
X151246353Y-98033058D01*
X151384453Y-97895198D01*
X151459284Y-97714984D01*
X151459455Y-97519852D01*
X151384938Y-97339507D01*
X151247078Y-97201407D01*
X151066864Y-97126576D01*
X150871732Y-97126405D01*
X150691387Y-97200922D01*
X150553287Y-97338782D01*
X150478456Y-97518996D01*
X150478285Y-97714128D01*
X143244273Y-97714128D01*
X143163494Y-97680586D01*
X142968362Y-97680415D01*
X142788017Y-97754932D01*
X142649917Y-97892792D01*
X142575086Y-98073006D01*
X142574915Y-98268138D01*
X131156201Y-98268138D01*
X131024708Y-98136417D01*
X130844494Y-98061586D01*
X130649362Y-98061415D01*
X130469017Y-98135932D01*
X130330917Y-98273792D01*
X130256086Y-98454006D01*
X130255915Y-98649138D01*
X124611500Y-98649138D01*
X124611500Y-98426107D01*
X124582498Y-98356091D01*
X124528910Y-98302502D01*
X124458893Y-98273500D01*
X123809125Y-98273500D01*
X123761500Y-98321125D01*
X123380500Y-98321125D01*
X123332875Y-98273500D01*
X122683107Y-98273500D01*
X122613090Y-98302502D01*
X122559502Y-98356091D01*
X122530500Y-98426107D01*
X121266600Y-98426107D01*
X121266600Y-97529748D01*
X121486021Y-96426638D01*
X144336913Y-96426638D01*
X144411430Y-96606983D01*
X144549290Y-96745083D01*
X144729504Y-96819914D01*
X144924636Y-96820085D01*
X145104981Y-96745568D01*
X145243081Y-96607708D01*
X145317912Y-96427494D01*
X145318083Y-96232362D01*
X145243566Y-96052017D01*
X145105706Y-95913917D01*
X144925492Y-95839086D01*
X144730360Y-95838915D01*
X144550015Y-95913432D01*
X144411915Y-96051292D01*
X144337084Y-96231506D01*
X144336913Y-96426638D01*
X121486021Y-96426638D01*
X121583685Y-95935651D01*
X139276959Y-95935651D01*
X139351476Y-96115996D01*
X139489336Y-96254096D01*
X139669550Y-96328927D01*
X139864682Y-96329098D01*
X140045027Y-96254581D01*
X140183127Y-96116721D01*
X140257958Y-95936507D01*
X140258129Y-95741375D01*
X140183612Y-95561030D01*
X140045752Y-95422930D01*
X139865538Y-95348099D01*
X139670406Y-95347928D01*
X139490061Y-95422445D01*
X139351961Y-95560305D01*
X139277130Y-95740519D01*
X139276959Y-95935651D01*
X121583685Y-95935651D01*
X121688117Y-95410638D01*
X123080415Y-95410638D01*
X123154932Y-95590983D01*
X123292792Y-95729083D01*
X123473006Y-95803914D01*
X123668138Y-95804085D01*
X123848483Y-95729568D01*
X123986583Y-95591708D01*
X124061414Y-95411494D01*
X124061470Y-95347138D01*
X127588915Y-95347138D01*
X127663432Y-95527483D01*
X127801292Y-95665583D01*
X127981506Y-95740414D01*
X128176638Y-95740585D01*
X128356983Y-95666068D01*
X128495083Y-95528208D01*
X128569914Y-95347994D01*
X128569914Y-95347138D01*
X130192415Y-95347138D01*
X130266932Y-95527483D01*
X130404792Y-95665583D01*
X130585006Y-95740414D01*
X130780138Y-95740585D01*
X130960483Y-95666068D01*
X131098583Y-95528208D01*
X131173414Y-95347994D01*
X131173415Y-95346720D01*
X132668351Y-95346720D01*
X132742868Y-95527065D01*
X132880728Y-95665165D01*
X133060942Y-95739996D01*
X133256074Y-95740167D01*
X133436419Y-95665650D01*
X133574519Y-95527790D01*
X133649350Y-95347576D01*
X133649350Y-95347138D01*
X135335915Y-95347138D01*
X135410432Y-95527483D01*
X135548292Y-95665583D01*
X135728506Y-95740414D01*
X135923638Y-95740585D01*
X136103983Y-95666068D01*
X136242083Y-95528208D01*
X136316914Y-95347994D01*
X136317081Y-95156638D01*
X146448415Y-95156638D01*
X146522932Y-95336983D01*
X146660792Y-95475083D01*
X146841006Y-95549914D01*
X147036138Y-95550085D01*
X147216483Y-95475568D01*
X147354583Y-95337708D01*
X147401345Y-95225091D01*
X147429857Y-95294094D01*
X147567717Y-95432194D01*
X147747931Y-95507025D01*
X147943063Y-95507196D01*
X148123408Y-95432679D01*
X148261508Y-95294819D01*
X148318562Y-95157415D01*
X148977465Y-95157415D01*
X149051982Y-95337760D01*
X149189842Y-95475860D01*
X149370056Y-95550691D01*
X149565188Y-95550862D01*
X149745533Y-95476345D01*
X149811354Y-95410638D01*
X150004415Y-95410638D01*
X150078932Y-95590983D01*
X150216792Y-95729083D01*
X150397006Y-95803914D01*
X150592138Y-95804085D01*
X150772483Y-95729568D01*
X150910583Y-95591708D01*
X150966659Y-95456659D01*
X160291415Y-95456659D01*
X160365932Y-95637004D01*
X160503792Y-95775104D01*
X160684006Y-95849935D01*
X160879138Y-95850106D01*
X161059483Y-95775589D01*
X161197583Y-95637729D01*
X161272414Y-95457515D01*
X161272585Y-95262383D01*
X161198068Y-95082038D01*
X161060208Y-94943938D01*
X160960747Y-94902638D01*
X165942915Y-94902638D01*
X166017432Y-95082983D01*
X166155292Y-95221083D01*
X166335506Y-95295914D01*
X166530638Y-95296085D01*
X166710983Y-95221568D01*
X166776026Y-95156638D01*
X170324415Y-95156638D01*
X170398932Y-95336983D01*
X170536792Y-95475083D01*
X170717006Y-95549914D01*
X170912138Y-95550085D01*
X171092483Y-95475568D01*
X171230583Y-95337708D01*
X171305414Y-95157494D01*
X171305585Y-94962362D01*
X171231068Y-94782017D01*
X171093208Y-94643917D01*
X170912994Y-94569086D01*
X170717862Y-94568915D01*
X170537517Y-94643432D01*
X170399417Y-94781292D01*
X170324586Y-94961506D01*
X170324415Y-95156638D01*
X166776026Y-95156638D01*
X166849083Y-95083708D01*
X166923914Y-94903494D01*
X166924085Y-94708362D01*
X166849568Y-94528017D01*
X166711708Y-94389917D01*
X166531494Y-94315086D01*
X166336362Y-94314915D01*
X166156017Y-94389432D01*
X166017917Y-94527292D01*
X165943086Y-94707506D01*
X165942915Y-94902638D01*
X160960747Y-94902638D01*
X160879994Y-94869107D01*
X160684862Y-94868936D01*
X160504517Y-94943453D01*
X160366417Y-95081313D01*
X160291586Y-95261527D01*
X160291415Y-95456659D01*
X150966659Y-95456659D01*
X150985414Y-95411494D01*
X150985585Y-95216362D01*
X150947009Y-95123000D01*
X155829001Y-95123000D01*
X155853168Y-95244502D01*
X155921994Y-95347506D01*
X156024998Y-95416332D01*
X156146500Y-95440499D01*
X156268002Y-95416332D01*
X156371006Y-95347506D01*
X156498006Y-95220506D01*
X156566832Y-95117502D01*
X156567408Y-95114605D01*
X156591000Y-94996000D01*
X156591000Y-94805500D01*
X156566832Y-94683998D01*
X156498006Y-94580994D01*
X156395002Y-94512168D01*
X156273500Y-94488000D01*
X156151998Y-94512168D01*
X156048994Y-94580994D01*
X155980168Y-94683998D01*
X155956000Y-94805500D01*
X155956000Y-94864488D01*
X155921994Y-94898494D01*
X155853168Y-95001498D01*
X155829001Y-95123000D01*
X150947009Y-95123000D01*
X150911068Y-95036017D01*
X150773208Y-94897917D01*
X150592994Y-94823086D01*
X150397862Y-94822915D01*
X150217517Y-94897432D01*
X150079417Y-95035292D01*
X150004586Y-95215506D01*
X150004415Y-95410638D01*
X149811354Y-95410638D01*
X149883633Y-95338485D01*
X149958464Y-95158271D01*
X149958635Y-94963139D01*
X149884118Y-94782794D01*
X149746258Y-94644694D01*
X149566044Y-94569863D01*
X149370912Y-94569692D01*
X149190567Y-94644209D01*
X149052467Y-94782069D01*
X148977636Y-94962283D01*
X148977465Y-95157415D01*
X148318562Y-95157415D01*
X148336339Y-95114605D01*
X148336510Y-94919473D01*
X148261993Y-94739128D01*
X148124133Y-94601028D01*
X147943919Y-94526197D01*
X147748787Y-94526026D01*
X147568442Y-94600543D01*
X147430342Y-94738403D01*
X147383580Y-94851020D01*
X147355068Y-94782017D01*
X147217208Y-94643917D01*
X147036994Y-94569086D01*
X146841862Y-94568915D01*
X146661517Y-94643432D01*
X146523417Y-94781292D01*
X146448586Y-94961506D01*
X146448415Y-95156638D01*
X136317081Y-95156638D01*
X136317085Y-95152862D01*
X136242568Y-94972517D01*
X136104708Y-94834417D01*
X135924494Y-94759586D01*
X135729362Y-94759415D01*
X135549017Y-94833932D01*
X135410917Y-94971792D01*
X135336086Y-95152006D01*
X135335915Y-95347138D01*
X133649350Y-95347138D01*
X133649521Y-95152444D01*
X133575004Y-94972099D01*
X133437144Y-94833999D01*
X133256930Y-94759168D01*
X133061798Y-94758997D01*
X132881453Y-94833514D01*
X132743353Y-94971374D01*
X132668522Y-95151588D01*
X132668351Y-95346720D01*
X131173415Y-95346720D01*
X131173585Y-95152862D01*
X131099068Y-94972517D01*
X130961208Y-94834417D01*
X130780994Y-94759586D01*
X130585862Y-94759415D01*
X130405517Y-94833932D01*
X130267417Y-94971792D01*
X130192586Y-95152006D01*
X130192415Y-95347138D01*
X128569914Y-95347138D01*
X128570085Y-95152862D01*
X128495568Y-94972517D01*
X128357708Y-94834417D01*
X128177494Y-94759586D01*
X127982362Y-94759415D01*
X127802017Y-94833932D01*
X127663917Y-94971792D01*
X127589086Y-95152006D01*
X127588915Y-95347138D01*
X124061470Y-95347138D01*
X124061585Y-95216362D01*
X123987068Y-95036017D01*
X123849208Y-94897917D01*
X123668994Y-94823086D01*
X123473862Y-94822915D01*
X123293517Y-94897432D01*
X123155417Y-95035292D01*
X123080586Y-95215506D01*
X123080415Y-95410638D01*
X121688117Y-95410638D01*
X122012400Y-93780360D01*
X122659704Y-92811600D01*
X125954868Y-92811600D01*
X125954868Y-94335600D01*
X125968151Y-94406195D01*
X126009873Y-94471032D01*
X126073533Y-94514529D01*
X126149100Y-94529832D01*
X127673100Y-94529832D01*
X127743695Y-94516549D01*
X127808532Y-94474827D01*
X127852029Y-94411167D01*
X127867332Y-94335600D01*
X127867332Y-93762233D01*
X128498435Y-93762233D01*
X128643139Y-94112443D01*
X128910847Y-94380620D01*
X129260805Y-94525935D01*
X129639733Y-94526265D01*
X129989943Y-94381561D01*
X130258120Y-94113853D01*
X130403435Y-93763895D01*
X130403436Y-93762233D01*
X131038435Y-93762233D01*
X131183139Y-94112443D01*
X131450847Y-94380620D01*
X131800805Y-94525935D01*
X132179733Y-94526265D01*
X132529943Y-94381561D01*
X132798120Y-94113853D01*
X132943435Y-93763895D01*
X132943436Y-93762233D01*
X133578435Y-93762233D01*
X133723139Y-94112443D01*
X133990847Y-94380620D01*
X134340805Y-94525935D01*
X134719733Y-94526265D01*
X135069943Y-94381561D01*
X135338120Y-94113853D01*
X135483435Y-93763895D01*
X135483436Y-93762233D01*
X136118435Y-93762233D01*
X136263139Y-94112443D01*
X136530847Y-94380620D01*
X136880805Y-94525935D01*
X137259733Y-94526265D01*
X137609943Y-94381561D01*
X137878120Y-94113853D01*
X138023435Y-93763895D01*
X138023436Y-93762233D01*
X138658435Y-93762233D01*
X138803139Y-94112443D01*
X139070847Y-94380620D01*
X139420805Y-94525935D01*
X139799733Y-94526265D01*
X140149943Y-94381561D01*
X140418120Y-94113853D01*
X140563435Y-93763895D01*
X140563436Y-93762233D01*
X141198435Y-93762233D01*
X141343139Y-94112443D01*
X141610847Y-94380620D01*
X141960805Y-94525935D01*
X142339733Y-94526265D01*
X142689943Y-94381561D01*
X142724265Y-94347299D01*
X144186809Y-94347299D01*
X144285473Y-94455995D01*
X144654028Y-94544053D01*
X145028226Y-94484369D01*
X145096727Y-94455995D01*
X145195391Y-94347299D01*
X144691100Y-93843008D01*
X144186809Y-94347299D01*
X142724265Y-94347299D01*
X142958120Y-94113853D01*
X143103435Y-93763895D01*
X143103633Y-93536528D01*
X143720647Y-93536528D01*
X143780331Y-93910726D01*
X143808705Y-93979227D01*
X143917401Y-94077891D01*
X144421692Y-93573600D01*
X144960508Y-93573600D01*
X145464799Y-94077891D01*
X145573495Y-93979227D01*
X145625340Y-93762233D01*
X146278435Y-93762233D01*
X146423139Y-94112443D01*
X146690847Y-94380620D01*
X147040805Y-94525935D01*
X147419733Y-94526265D01*
X147769943Y-94381561D01*
X148038120Y-94113853D01*
X148183435Y-93763895D01*
X148183436Y-93762233D01*
X148818435Y-93762233D01*
X148963139Y-94112443D01*
X149230847Y-94380620D01*
X149580805Y-94525935D01*
X149959733Y-94526265D01*
X150309943Y-94381561D01*
X150344265Y-94347299D01*
X151806809Y-94347299D01*
X151905473Y-94455995D01*
X152274028Y-94544053D01*
X152648226Y-94484369D01*
X152716727Y-94455995D01*
X152815391Y-94347299D01*
X152311100Y-93843008D01*
X151806809Y-94347299D01*
X150344265Y-94347299D01*
X150578120Y-94113853D01*
X150723435Y-93763895D01*
X150723633Y-93536528D01*
X151340647Y-93536528D01*
X151400331Y-93910726D01*
X151428705Y-93979227D01*
X151537401Y-94077891D01*
X152041692Y-93573600D01*
X152580508Y-93573600D01*
X153084799Y-94077891D01*
X153193495Y-93979227D01*
X153245340Y-93762233D01*
X153898435Y-93762233D01*
X154043139Y-94112443D01*
X154310847Y-94380620D01*
X154660805Y-94525935D01*
X155039733Y-94526265D01*
X155389943Y-94381561D01*
X155658120Y-94113853D01*
X155803435Y-93763895D01*
X155803436Y-93762233D01*
X156438435Y-93762233D01*
X156583139Y-94112443D01*
X156850847Y-94380620D01*
X157200805Y-94525935D01*
X157579733Y-94526265D01*
X157929943Y-94381561D01*
X158198120Y-94113853D01*
X158343435Y-93763895D01*
X158343436Y-93762233D01*
X158978435Y-93762233D01*
X159123139Y-94112443D01*
X159390847Y-94380620D01*
X159740805Y-94525935D01*
X160119733Y-94526265D01*
X160469943Y-94381561D01*
X160738120Y-94113853D01*
X160883435Y-93763895D01*
X160883436Y-93762233D01*
X161518435Y-93762233D01*
X161663139Y-94112443D01*
X161930847Y-94380620D01*
X162280805Y-94525935D01*
X162659733Y-94526265D01*
X163009943Y-94381561D01*
X163278120Y-94113853D01*
X163423435Y-93763895D01*
X163423436Y-93762233D01*
X164058435Y-93762233D01*
X164203139Y-94112443D01*
X164470847Y-94380620D01*
X164820805Y-94525935D01*
X165199733Y-94526265D01*
X165549943Y-94381561D01*
X165818120Y-94113853D01*
X165963435Y-93763895D01*
X165963436Y-93762233D01*
X166598435Y-93762233D01*
X166743139Y-94112443D01*
X167010847Y-94380620D01*
X167360805Y-94525935D01*
X167739733Y-94526265D01*
X168089943Y-94381561D01*
X168358120Y-94113853D01*
X168503435Y-93763895D01*
X168503436Y-93762233D01*
X169138435Y-93762233D01*
X169283139Y-94112443D01*
X169550847Y-94380620D01*
X169900805Y-94525935D01*
X170279733Y-94526265D01*
X170629943Y-94381561D01*
X170898120Y-94113853D01*
X171043435Y-93763895D01*
X171043765Y-93384967D01*
X170899061Y-93034757D01*
X170631353Y-92766580D01*
X170281395Y-92621265D01*
X169902467Y-92620935D01*
X169552257Y-92765639D01*
X169284080Y-93033347D01*
X169138765Y-93383305D01*
X169138435Y-93762233D01*
X168503436Y-93762233D01*
X168503765Y-93384967D01*
X168359061Y-93034757D01*
X168091353Y-92766580D01*
X167741395Y-92621265D01*
X167362467Y-92620935D01*
X167012257Y-92765639D01*
X166744080Y-93033347D01*
X166598765Y-93383305D01*
X166598435Y-93762233D01*
X165963436Y-93762233D01*
X165963765Y-93384967D01*
X165819061Y-93034757D01*
X165551353Y-92766580D01*
X165201395Y-92621265D01*
X164822467Y-92620935D01*
X164472257Y-92765639D01*
X164204080Y-93033347D01*
X164058765Y-93383305D01*
X164058435Y-93762233D01*
X163423436Y-93762233D01*
X163423765Y-93384967D01*
X163279061Y-93034757D01*
X163011353Y-92766580D01*
X162661395Y-92621265D01*
X162282467Y-92620935D01*
X161932257Y-92765639D01*
X161664080Y-93033347D01*
X161518765Y-93383305D01*
X161518435Y-93762233D01*
X160883436Y-93762233D01*
X160883765Y-93384967D01*
X160739061Y-93034757D01*
X160471353Y-92766580D01*
X160121395Y-92621265D01*
X159742467Y-92620935D01*
X159392257Y-92765639D01*
X159124080Y-93033347D01*
X158978765Y-93383305D01*
X158978435Y-93762233D01*
X158343436Y-93762233D01*
X158343765Y-93384967D01*
X158199061Y-93034757D01*
X157931353Y-92766580D01*
X157581395Y-92621265D01*
X157202467Y-92620935D01*
X156852257Y-92765639D01*
X156584080Y-93033347D01*
X156438765Y-93383305D01*
X156438435Y-93762233D01*
X155803436Y-93762233D01*
X155803765Y-93384967D01*
X155659061Y-93034757D01*
X155391353Y-92766580D01*
X155041395Y-92621265D01*
X154662467Y-92620935D01*
X154312257Y-92765639D01*
X154044080Y-93033347D01*
X153898765Y-93383305D01*
X153898435Y-93762233D01*
X153245340Y-93762233D01*
X153281553Y-93610672D01*
X153221869Y-93236474D01*
X153193495Y-93167973D01*
X153084799Y-93069309D01*
X152580508Y-93573600D01*
X152041692Y-93573600D01*
X151537401Y-93069309D01*
X151428705Y-93167973D01*
X151340647Y-93536528D01*
X150723633Y-93536528D01*
X150723765Y-93384967D01*
X150579061Y-93034757D01*
X150344616Y-92799901D01*
X151806809Y-92799901D01*
X152311100Y-93304192D01*
X152815391Y-92799901D01*
X152716727Y-92691205D01*
X152348172Y-92603147D01*
X151973974Y-92662831D01*
X151905473Y-92691205D01*
X151806809Y-92799901D01*
X150344616Y-92799901D01*
X150311353Y-92766580D01*
X149961395Y-92621265D01*
X149582467Y-92620935D01*
X149232257Y-92765639D01*
X148964080Y-93033347D01*
X148818765Y-93383305D01*
X148818435Y-93762233D01*
X148183436Y-93762233D01*
X148183765Y-93384967D01*
X148039061Y-93034757D01*
X147771353Y-92766580D01*
X147421395Y-92621265D01*
X147042467Y-92620935D01*
X146692257Y-92765639D01*
X146424080Y-93033347D01*
X146278765Y-93383305D01*
X146278435Y-93762233D01*
X145625340Y-93762233D01*
X145661553Y-93610672D01*
X145601869Y-93236474D01*
X145573495Y-93167973D01*
X145464799Y-93069309D01*
X144960508Y-93573600D01*
X144421692Y-93573600D01*
X143917401Y-93069309D01*
X143808705Y-93167973D01*
X143720647Y-93536528D01*
X143103633Y-93536528D01*
X143103765Y-93384967D01*
X142959061Y-93034757D01*
X142724616Y-92799901D01*
X144186809Y-92799901D01*
X144691100Y-93304192D01*
X145195391Y-92799901D01*
X145096727Y-92691205D01*
X144728172Y-92603147D01*
X144353974Y-92662831D01*
X144285473Y-92691205D01*
X144186809Y-92799901D01*
X142724616Y-92799901D01*
X142691353Y-92766580D01*
X142341395Y-92621265D01*
X141962467Y-92620935D01*
X141612257Y-92765639D01*
X141344080Y-93033347D01*
X141198765Y-93383305D01*
X141198435Y-93762233D01*
X140563436Y-93762233D01*
X140563765Y-93384967D01*
X140419061Y-93034757D01*
X140151353Y-92766580D01*
X139801395Y-92621265D01*
X139422467Y-92620935D01*
X139072257Y-92765639D01*
X138804080Y-93033347D01*
X138658765Y-93383305D01*
X138658435Y-93762233D01*
X138023436Y-93762233D01*
X138023765Y-93384967D01*
X137879061Y-93034757D01*
X137611353Y-92766580D01*
X137261395Y-92621265D01*
X136882467Y-92620935D01*
X136532257Y-92765639D01*
X136264080Y-93033347D01*
X136118765Y-93383305D01*
X136118435Y-93762233D01*
X135483436Y-93762233D01*
X135483765Y-93384967D01*
X135339061Y-93034757D01*
X135071353Y-92766580D01*
X134721395Y-92621265D01*
X134342467Y-92620935D01*
X133992257Y-92765639D01*
X133724080Y-93033347D01*
X133578765Y-93383305D01*
X133578435Y-93762233D01*
X132943436Y-93762233D01*
X132943765Y-93384967D01*
X132799061Y-93034757D01*
X132531353Y-92766580D01*
X132181395Y-92621265D01*
X131802467Y-92620935D01*
X131452257Y-92765639D01*
X131184080Y-93033347D01*
X131038765Y-93383305D01*
X131038435Y-93762233D01*
X130403436Y-93762233D01*
X130403765Y-93384967D01*
X130259061Y-93034757D01*
X129991353Y-92766580D01*
X129641395Y-92621265D01*
X129262467Y-92620935D01*
X128912257Y-92765639D01*
X128644080Y-93033347D01*
X128498765Y-93383305D01*
X128498435Y-93762233D01*
X127867332Y-93762233D01*
X127867332Y-92811600D01*
X127854049Y-92741005D01*
X127812327Y-92676168D01*
X127748667Y-92632671D01*
X127673100Y-92617368D01*
X126149100Y-92617368D01*
X126078505Y-92630651D01*
X126013668Y-92672373D01*
X125970171Y-92736033D01*
X125954868Y-92811600D01*
X122659704Y-92811600D01*
X123721685Y-91222233D01*
X125958435Y-91222233D01*
X126103139Y-91572443D01*
X126370847Y-91840620D01*
X126720805Y-91985935D01*
X127099733Y-91986265D01*
X127449943Y-91841561D01*
X127718120Y-91573853D01*
X127863435Y-91223895D01*
X127863436Y-91222233D01*
X128498435Y-91222233D01*
X128643139Y-91572443D01*
X128910847Y-91840620D01*
X129260805Y-91985935D01*
X129639733Y-91986265D01*
X129989943Y-91841561D01*
X130258120Y-91573853D01*
X130403435Y-91223895D01*
X130403436Y-91222233D01*
X131038435Y-91222233D01*
X131183139Y-91572443D01*
X131450847Y-91840620D01*
X131800805Y-91985935D01*
X132179733Y-91986265D01*
X132529943Y-91841561D01*
X132798120Y-91573853D01*
X132943435Y-91223895D01*
X132943436Y-91222233D01*
X133578435Y-91222233D01*
X133723139Y-91572443D01*
X133990847Y-91840620D01*
X134340805Y-91985935D01*
X134719733Y-91986265D01*
X135069943Y-91841561D01*
X135338120Y-91573853D01*
X135483435Y-91223895D01*
X135483436Y-91222233D01*
X136118435Y-91222233D01*
X136263139Y-91572443D01*
X136530847Y-91840620D01*
X136880805Y-91985935D01*
X137259733Y-91986265D01*
X137609943Y-91841561D01*
X137878120Y-91573853D01*
X138023435Y-91223895D01*
X138023436Y-91222233D01*
X138658435Y-91222233D01*
X138803139Y-91572443D01*
X139070847Y-91840620D01*
X139420805Y-91985935D01*
X139799733Y-91986265D01*
X140149943Y-91841561D01*
X140418120Y-91573853D01*
X140563435Y-91223895D01*
X140563436Y-91222233D01*
X141198435Y-91222233D01*
X141343139Y-91572443D01*
X141610847Y-91840620D01*
X141960805Y-91985935D01*
X142339733Y-91986265D01*
X142689943Y-91841561D01*
X142958120Y-91573853D01*
X143103435Y-91223895D01*
X143103436Y-91222233D01*
X143738435Y-91222233D01*
X143883139Y-91572443D01*
X144150847Y-91840620D01*
X144500805Y-91985935D01*
X144879733Y-91986265D01*
X145229943Y-91841561D01*
X145498120Y-91573853D01*
X145643435Y-91223895D01*
X145643436Y-91222233D01*
X146278435Y-91222233D01*
X146423139Y-91572443D01*
X146690847Y-91840620D01*
X147040805Y-91985935D01*
X147419733Y-91986265D01*
X147769943Y-91841561D01*
X148038120Y-91573853D01*
X148183435Y-91223895D01*
X148183436Y-91222233D01*
X148818435Y-91222233D01*
X148963139Y-91572443D01*
X149230847Y-91840620D01*
X149580805Y-91985935D01*
X149959733Y-91986265D01*
X150309943Y-91841561D01*
X150578120Y-91573853D01*
X150723435Y-91223895D01*
X150723436Y-91222233D01*
X151358435Y-91222233D01*
X151503139Y-91572443D01*
X151770847Y-91840620D01*
X152120805Y-91985935D01*
X152499733Y-91986265D01*
X152849943Y-91841561D01*
X153118120Y-91573853D01*
X153263435Y-91223895D01*
X153263436Y-91222233D01*
X153898435Y-91222233D01*
X154043139Y-91572443D01*
X154310847Y-91840620D01*
X154660805Y-91985935D01*
X155039733Y-91986265D01*
X155389943Y-91841561D01*
X155658120Y-91573853D01*
X155803435Y-91223895D01*
X155803436Y-91222233D01*
X156438435Y-91222233D01*
X156583139Y-91572443D01*
X156850847Y-91840620D01*
X157200805Y-91985935D01*
X157579733Y-91986265D01*
X157929943Y-91841561D01*
X158198120Y-91573853D01*
X158343435Y-91223895D01*
X158343436Y-91222233D01*
X158978435Y-91222233D01*
X159123139Y-91572443D01*
X159390847Y-91840620D01*
X159740805Y-91985935D01*
X160119733Y-91986265D01*
X160469943Y-91841561D01*
X160738120Y-91573853D01*
X160883435Y-91223895D01*
X160883436Y-91222233D01*
X161518435Y-91222233D01*
X161663139Y-91572443D01*
X161930847Y-91840620D01*
X162280805Y-91985935D01*
X162659733Y-91986265D01*
X163009943Y-91841561D01*
X163278120Y-91573853D01*
X163423435Y-91223895D01*
X163423436Y-91222233D01*
X164058435Y-91222233D01*
X164203139Y-91572443D01*
X164470847Y-91840620D01*
X164820805Y-91985935D01*
X165199733Y-91986265D01*
X165549943Y-91841561D01*
X165818120Y-91573853D01*
X165963435Y-91223895D01*
X165963436Y-91222233D01*
X166598435Y-91222233D01*
X166743139Y-91572443D01*
X167010847Y-91840620D01*
X167360805Y-91985935D01*
X167739733Y-91986265D01*
X168089943Y-91841561D01*
X168358120Y-91573853D01*
X168503435Y-91223895D01*
X168503436Y-91222233D01*
X169138435Y-91222233D01*
X169283139Y-91572443D01*
X169550847Y-91840620D01*
X169900805Y-91985935D01*
X170279733Y-91986265D01*
X170629943Y-91841561D01*
X170898120Y-91573853D01*
X171043435Y-91223895D01*
X171043765Y-90844967D01*
X170899061Y-90494757D01*
X170631353Y-90226580D01*
X170281395Y-90081265D01*
X169902467Y-90080935D01*
X169552257Y-90225639D01*
X169284080Y-90493347D01*
X169138765Y-90843305D01*
X169138435Y-91222233D01*
X168503436Y-91222233D01*
X168503765Y-90844967D01*
X168359061Y-90494757D01*
X168091353Y-90226580D01*
X167741395Y-90081265D01*
X167362467Y-90080935D01*
X167012257Y-90225639D01*
X166744080Y-90493347D01*
X166598765Y-90843305D01*
X166598435Y-91222233D01*
X165963436Y-91222233D01*
X165963765Y-90844967D01*
X165819061Y-90494757D01*
X165551353Y-90226580D01*
X165201395Y-90081265D01*
X164822467Y-90080935D01*
X164472257Y-90225639D01*
X164204080Y-90493347D01*
X164058765Y-90843305D01*
X164058435Y-91222233D01*
X163423436Y-91222233D01*
X163423765Y-90844967D01*
X163279061Y-90494757D01*
X163011353Y-90226580D01*
X162661395Y-90081265D01*
X162282467Y-90080935D01*
X161932257Y-90225639D01*
X161664080Y-90493347D01*
X161518765Y-90843305D01*
X161518435Y-91222233D01*
X160883436Y-91222233D01*
X160883765Y-90844967D01*
X160739061Y-90494757D01*
X160471353Y-90226580D01*
X160121395Y-90081265D01*
X159742467Y-90080935D01*
X159392257Y-90225639D01*
X159124080Y-90493347D01*
X158978765Y-90843305D01*
X158978435Y-91222233D01*
X158343436Y-91222233D01*
X158343765Y-90844967D01*
X158199061Y-90494757D01*
X157931353Y-90226580D01*
X157581395Y-90081265D01*
X157202467Y-90080935D01*
X156852257Y-90225639D01*
X156584080Y-90493347D01*
X156438765Y-90843305D01*
X156438435Y-91222233D01*
X155803436Y-91222233D01*
X155803765Y-90844967D01*
X155659061Y-90494757D01*
X155391353Y-90226580D01*
X155041395Y-90081265D01*
X154662467Y-90080935D01*
X154312257Y-90225639D01*
X154044080Y-90493347D01*
X153898765Y-90843305D01*
X153898435Y-91222233D01*
X153263436Y-91222233D01*
X153263765Y-90844967D01*
X153119061Y-90494757D01*
X152851353Y-90226580D01*
X152501395Y-90081265D01*
X152122467Y-90080935D01*
X151772257Y-90225639D01*
X151504080Y-90493347D01*
X151358765Y-90843305D01*
X151358435Y-91222233D01*
X150723436Y-91222233D01*
X150723765Y-90844967D01*
X150579061Y-90494757D01*
X150311353Y-90226580D01*
X149961395Y-90081265D01*
X149582467Y-90080935D01*
X149232257Y-90225639D01*
X148964080Y-90493347D01*
X148818765Y-90843305D01*
X148818435Y-91222233D01*
X148183436Y-91222233D01*
X148183765Y-90844967D01*
X148039061Y-90494757D01*
X147771353Y-90226580D01*
X147421395Y-90081265D01*
X147042467Y-90080935D01*
X146692257Y-90225639D01*
X146424080Y-90493347D01*
X146278765Y-90843305D01*
X146278435Y-91222233D01*
X145643436Y-91222233D01*
X145643765Y-90844967D01*
X145499061Y-90494757D01*
X145231353Y-90226580D01*
X144881395Y-90081265D01*
X144502467Y-90080935D01*
X144152257Y-90225639D01*
X143884080Y-90493347D01*
X143738765Y-90843305D01*
X143738435Y-91222233D01*
X143103436Y-91222233D01*
X143103765Y-90844967D01*
X142959061Y-90494757D01*
X142691353Y-90226580D01*
X142341395Y-90081265D01*
X141962467Y-90080935D01*
X141612257Y-90225639D01*
X141344080Y-90493347D01*
X141198765Y-90843305D01*
X141198435Y-91222233D01*
X140563436Y-91222233D01*
X140563765Y-90844967D01*
X140419061Y-90494757D01*
X140151353Y-90226580D01*
X139801395Y-90081265D01*
X139422467Y-90080935D01*
X139072257Y-90225639D01*
X138804080Y-90493347D01*
X138658765Y-90843305D01*
X138658435Y-91222233D01*
X138023436Y-91222233D01*
X138023765Y-90844967D01*
X137879061Y-90494757D01*
X137611353Y-90226580D01*
X137261395Y-90081265D01*
X136882467Y-90080935D01*
X136532257Y-90225639D01*
X136264080Y-90493347D01*
X136118765Y-90843305D01*
X136118435Y-91222233D01*
X135483436Y-91222233D01*
X135483765Y-90844967D01*
X135339061Y-90494757D01*
X135071353Y-90226580D01*
X134721395Y-90081265D01*
X134342467Y-90080935D01*
X133992257Y-90225639D01*
X133724080Y-90493347D01*
X133578765Y-90843305D01*
X133578435Y-91222233D01*
X132943436Y-91222233D01*
X132943765Y-90844967D01*
X132799061Y-90494757D01*
X132531353Y-90226580D01*
X132181395Y-90081265D01*
X131802467Y-90080935D01*
X131452257Y-90225639D01*
X131184080Y-90493347D01*
X131038765Y-90843305D01*
X131038435Y-91222233D01*
X130403436Y-91222233D01*
X130403765Y-90844967D01*
X130259061Y-90494757D01*
X129991353Y-90226580D01*
X129641395Y-90081265D01*
X129262467Y-90080935D01*
X128912257Y-90225639D01*
X128644080Y-90493347D01*
X128498765Y-90843305D01*
X128498435Y-91222233D01*
X127863436Y-91222233D01*
X127863765Y-90844967D01*
X127719061Y-90494757D01*
X127451353Y-90226580D01*
X127101395Y-90081265D01*
X126722467Y-90080935D01*
X126372257Y-90225639D01*
X126104080Y-90493347D01*
X125958765Y-90843305D01*
X125958435Y-91222233D01*
X123721685Y-91222233D01*
X124121447Y-90623947D01*
X127277860Y-88514900D01*
X131027252Y-87769100D01*
X165974952Y-87769100D01*
X169724340Y-88514900D01*
X169724340Y-88514900D01*
G37*
X169724340Y-88514900D02*
X172880753Y-90623947D01*
X174989800Y-93780360D01*
X175145678Y-94564010D01*
X175104568Y-94464517D01*
X174966708Y-94326417D01*
X174786494Y-94251586D01*
X174591362Y-94251415D01*
X174411017Y-94325932D01*
X174272917Y-94463792D01*
X174198086Y-94644006D01*
X174197915Y-94839138D01*
X174272432Y-95019483D01*
X174410292Y-95157583D01*
X174590506Y-95232414D01*
X174785638Y-95232585D01*
X174965983Y-95158068D01*
X175104083Y-95020208D01*
X175178914Y-94839994D01*
X175179009Y-94731578D01*
X175735600Y-97529752D01*
X175735600Y-112477448D01*
X174989800Y-116226840D01*
X172880753Y-119383253D01*
X169724340Y-121492300D01*
X165974952Y-122238100D01*
X131027252Y-122238100D01*
X127277860Y-121492300D01*
X124121447Y-119383253D01*
X123338574Y-118211600D01*
X125954868Y-118211600D01*
X125954868Y-119735600D01*
X125968151Y-119806195D01*
X126009873Y-119871032D01*
X126073533Y-119914529D01*
X126149100Y-119929832D01*
X127673100Y-119929832D01*
X127743695Y-119916549D01*
X127808532Y-119874827D01*
X127852029Y-119811167D01*
X127867332Y-119735600D01*
X127867332Y-119162233D01*
X128498435Y-119162233D01*
X128643139Y-119512443D01*
X128910847Y-119780620D01*
X129260805Y-119925935D01*
X129639733Y-119926265D01*
X129989943Y-119781561D01*
X130258120Y-119513853D01*
X130403435Y-119163895D01*
X130403436Y-119162233D01*
X131038435Y-119162233D01*
X131183139Y-119512443D01*
X131450847Y-119780620D01*
X131800805Y-119925935D01*
X132179733Y-119926265D01*
X132529943Y-119781561D01*
X132798120Y-119513853D01*
X132943435Y-119163895D01*
X132943436Y-119162233D01*
X133578435Y-119162233D01*
X133723139Y-119512443D01*
X133990847Y-119780620D01*
X134340805Y-119925935D01*
X134719733Y-119926265D01*
X135069943Y-119781561D01*
X135338120Y-119513853D01*
X135483435Y-119163895D01*
X135483436Y-119162233D01*
X136118435Y-119162233D01*
X136263139Y-119512443D01*
X136530847Y-119780620D01*
X136880805Y-119925935D01*
X137259733Y-119926265D01*
X137609943Y-119781561D01*
X137878120Y-119513853D01*
X138023435Y-119163895D01*
X138023436Y-119162233D01*
X138658435Y-119162233D01*
X138803139Y-119512443D01*
X139070847Y-119780620D01*
X139420805Y-119925935D01*
X139799733Y-119926265D01*
X140149943Y-119781561D01*
X140418120Y-119513853D01*
X140563435Y-119163895D01*
X140563436Y-119162233D01*
X141198435Y-119162233D01*
X141343139Y-119512443D01*
X141610847Y-119780620D01*
X141960805Y-119925935D01*
X142339733Y-119926265D01*
X142689943Y-119781561D01*
X142724265Y-119747299D01*
X144186809Y-119747299D01*
X144285473Y-119855995D01*
X144654028Y-119944053D01*
X145028226Y-119884369D01*
X145096727Y-119855995D01*
X145195391Y-119747299D01*
X144691100Y-119243008D01*
X144186809Y-119747299D01*
X142724265Y-119747299D01*
X142958120Y-119513853D01*
X143103435Y-119163895D01*
X143103633Y-118936528D01*
X143720647Y-118936528D01*
X143780331Y-119310726D01*
X143808705Y-119379227D01*
X143917401Y-119477891D01*
X144421692Y-118973600D01*
X144960508Y-118973600D01*
X145464799Y-119477891D01*
X145573495Y-119379227D01*
X145625340Y-119162233D01*
X146278435Y-119162233D01*
X146423139Y-119512443D01*
X146690847Y-119780620D01*
X147040805Y-119925935D01*
X147419733Y-119926265D01*
X147769943Y-119781561D01*
X148038120Y-119513853D01*
X148183435Y-119163895D01*
X148183436Y-119162233D01*
X148818435Y-119162233D01*
X148963139Y-119512443D01*
X149230847Y-119780620D01*
X149580805Y-119925935D01*
X149959733Y-119926265D01*
X150309943Y-119781561D01*
X150578120Y-119513853D01*
X150723435Y-119163895D01*
X150723436Y-119162233D01*
X151358435Y-119162233D01*
X151503139Y-119512443D01*
X151770847Y-119780620D01*
X152120805Y-119925935D01*
X152499733Y-119926265D01*
X152849943Y-119781561D01*
X153118120Y-119513853D01*
X153263435Y-119163895D01*
X153263436Y-119162233D01*
X153898435Y-119162233D01*
X154043139Y-119512443D01*
X154310847Y-119780620D01*
X154660805Y-119925935D01*
X155039733Y-119926265D01*
X155389943Y-119781561D01*
X155658120Y-119513853D01*
X155803435Y-119163895D01*
X155803436Y-119162233D01*
X156438435Y-119162233D01*
X156583139Y-119512443D01*
X156850847Y-119780620D01*
X157200805Y-119925935D01*
X157579733Y-119926265D01*
X157929943Y-119781561D01*
X158198120Y-119513853D01*
X158343435Y-119163895D01*
X158343436Y-119162233D01*
X158978435Y-119162233D01*
X159123139Y-119512443D01*
X159390847Y-119780620D01*
X159740805Y-119925935D01*
X160119733Y-119926265D01*
X160469943Y-119781561D01*
X160738120Y-119513853D01*
X160883435Y-119163895D01*
X160883436Y-119162233D01*
X161518435Y-119162233D01*
X161663139Y-119512443D01*
X161930847Y-119780620D01*
X162280805Y-119925935D01*
X162659733Y-119926265D01*
X163009943Y-119781561D01*
X163278120Y-119513853D01*
X163423435Y-119163895D01*
X163423436Y-119162233D01*
X164058435Y-119162233D01*
X164203139Y-119512443D01*
X164470847Y-119780620D01*
X164820805Y-119925935D01*
X165199733Y-119926265D01*
X165549943Y-119781561D01*
X165818120Y-119513853D01*
X165963435Y-119163895D01*
X165963436Y-119162233D01*
X166598435Y-119162233D01*
X166743139Y-119512443D01*
X167010847Y-119780620D01*
X167360805Y-119925935D01*
X167739733Y-119926265D01*
X168089943Y-119781561D01*
X168358120Y-119513853D01*
X168503435Y-119163895D01*
X168503436Y-119162233D01*
X169138435Y-119162233D01*
X169283139Y-119512443D01*
X169550847Y-119780620D01*
X169900805Y-119925935D01*
X170279733Y-119926265D01*
X170629943Y-119781561D01*
X170898120Y-119513853D01*
X171043435Y-119163895D01*
X171043765Y-118784967D01*
X170899061Y-118434757D01*
X170631353Y-118166580D01*
X170281395Y-118021265D01*
X169902467Y-118020935D01*
X169552257Y-118165639D01*
X169284080Y-118433347D01*
X169138765Y-118783305D01*
X169138435Y-119162233D01*
X168503436Y-119162233D01*
X168503765Y-118784967D01*
X168359061Y-118434757D01*
X168091353Y-118166580D01*
X167741395Y-118021265D01*
X167362467Y-118020935D01*
X167012257Y-118165639D01*
X166744080Y-118433347D01*
X166598765Y-118783305D01*
X166598435Y-119162233D01*
X165963436Y-119162233D01*
X165963765Y-118784967D01*
X165819061Y-118434757D01*
X165551353Y-118166580D01*
X165201395Y-118021265D01*
X164822467Y-118020935D01*
X164472257Y-118165639D01*
X164204080Y-118433347D01*
X164058765Y-118783305D01*
X164058435Y-119162233D01*
X163423436Y-119162233D01*
X163423765Y-118784967D01*
X163279061Y-118434757D01*
X163011353Y-118166580D01*
X162661395Y-118021265D01*
X162282467Y-118020935D01*
X161932257Y-118165639D01*
X161664080Y-118433347D01*
X161518765Y-118783305D01*
X161518435Y-119162233D01*
X160883436Y-119162233D01*
X160883765Y-118784967D01*
X160739061Y-118434757D01*
X160471353Y-118166580D01*
X160121395Y-118021265D01*
X159742467Y-118020935D01*
X159392257Y-118165639D01*
X159124080Y-118433347D01*
X158978765Y-118783305D01*
X158978435Y-119162233D01*
X158343436Y-119162233D01*
X158343765Y-118784967D01*
X158199061Y-118434757D01*
X157931353Y-118166580D01*
X157581395Y-118021265D01*
X157202467Y-118020935D01*
X156852257Y-118165639D01*
X156584080Y-118433347D01*
X156438765Y-118783305D01*
X156438435Y-119162233D01*
X155803436Y-119162233D01*
X155803765Y-118784967D01*
X155659061Y-118434757D01*
X155391353Y-118166580D01*
X155041395Y-118021265D01*
X154662467Y-118020935D01*
X154312257Y-118165639D01*
X154044080Y-118433347D01*
X153898765Y-118783305D01*
X153898435Y-119162233D01*
X153263436Y-119162233D01*
X153263765Y-118784967D01*
X153119061Y-118434757D01*
X152851353Y-118166580D01*
X152501395Y-118021265D01*
X152122467Y-118020935D01*
X151772257Y-118165639D01*
X151504080Y-118433347D01*
X151358765Y-118783305D01*
X151358435Y-119162233D01*
X150723436Y-119162233D01*
X150723765Y-118784967D01*
X150579061Y-118434757D01*
X150311353Y-118166580D01*
X149961395Y-118021265D01*
X149582467Y-118020935D01*
X149232257Y-118165639D01*
X148964080Y-118433347D01*
X148818765Y-118783305D01*
X148818435Y-119162233D01*
X148183436Y-119162233D01*
X148183765Y-118784967D01*
X148039061Y-118434757D01*
X147771353Y-118166580D01*
X147421395Y-118021265D01*
X147042467Y-118020935D01*
X146692257Y-118165639D01*
X146424080Y-118433347D01*
X146278765Y-118783305D01*
X146278435Y-119162233D01*
X145625340Y-119162233D01*
X145661553Y-119010672D01*
X145601869Y-118636474D01*
X145573495Y-118567973D01*
X145464799Y-118469309D01*
X144960508Y-118973600D01*
X144421692Y-118973600D01*
X143917401Y-118469309D01*
X143808705Y-118567973D01*
X143720647Y-118936528D01*
X143103633Y-118936528D01*
X143103765Y-118784967D01*
X142959061Y-118434757D01*
X142724616Y-118199901D01*
X144186809Y-118199901D01*
X144691100Y-118704192D01*
X145195391Y-118199901D01*
X145096727Y-118091205D01*
X144728172Y-118003147D01*
X144353974Y-118062831D01*
X144285473Y-118091205D01*
X144186809Y-118199901D01*
X142724616Y-118199901D01*
X142691353Y-118166580D01*
X142341395Y-118021265D01*
X141962467Y-118020935D01*
X141612257Y-118165639D01*
X141344080Y-118433347D01*
X141198765Y-118783305D01*
X141198435Y-119162233D01*
X140563436Y-119162233D01*
X140563765Y-118784967D01*
X140419061Y-118434757D01*
X140151353Y-118166580D01*
X139801395Y-118021265D01*
X139422467Y-118020935D01*
X139072257Y-118165639D01*
X138804080Y-118433347D01*
X138658765Y-118783305D01*
X138658435Y-119162233D01*
X138023436Y-119162233D01*
X138023765Y-118784967D01*
X137879061Y-118434757D01*
X137611353Y-118166580D01*
X137261395Y-118021265D01*
X136882467Y-118020935D01*
X136532257Y-118165639D01*
X136264080Y-118433347D01*
X136118765Y-118783305D01*
X136118435Y-119162233D01*
X135483436Y-119162233D01*
X135483765Y-118784967D01*
X135339061Y-118434757D01*
X135071353Y-118166580D01*
X134721395Y-118021265D01*
X134342467Y-118020935D01*
X133992257Y-118165639D01*
X133724080Y-118433347D01*
X133578765Y-118783305D01*
X133578435Y-119162233D01*
X132943436Y-119162233D01*
X132943765Y-118784967D01*
X132799061Y-118434757D01*
X132531353Y-118166580D01*
X132181395Y-118021265D01*
X131802467Y-118020935D01*
X131452257Y-118165639D01*
X131184080Y-118433347D01*
X131038765Y-118783305D01*
X131038435Y-119162233D01*
X130403436Y-119162233D01*
X130403765Y-118784967D01*
X130259061Y-118434757D01*
X129991353Y-118166580D01*
X129641395Y-118021265D01*
X129262467Y-118020935D01*
X128912257Y-118165639D01*
X128644080Y-118433347D01*
X128498765Y-118783305D01*
X128498435Y-119162233D01*
X127867332Y-119162233D01*
X127867332Y-118211600D01*
X127854049Y-118141005D01*
X127812327Y-118076168D01*
X127748667Y-118032671D01*
X127673100Y-118017368D01*
X126149100Y-118017368D01*
X126078505Y-118030651D01*
X126013668Y-118072373D01*
X125970171Y-118136033D01*
X125954868Y-118211600D01*
X123338574Y-118211600D01*
X122276594Y-116622233D01*
X125958435Y-116622233D01*
X126103139Y-116972443D01*
X126370847Y-117240620D01*
X126720805Y-117385935D01*
X127099733Y-117386265D01*
X127449943Y-117241561D01*
X127718120Y-116973853D01*
X127863435Y-116623895D01*
X127863436Y-116622233D01*
X128498435Y-116622233D01*
X128643139Y-116972443D01*
X128910847Y-117240620D01*
X129260805Y-117385935D01*
X129639733Y-117386265D01*
X129989943Y-117241561D01*
X130258120Y-116973853D01*
X130403435Y-116623895D01*
X130403436Y-116622233D01*
X131038435Y-116622233D01*
X131183139Y-116972443D01*
X131450847Y-117240620D01*
X131800805Y-117385935D01*
X132179733Y-117386265D01*
X132529943Y-117241561D01*
X132798120Y-116973853D01*
X132943435Y-116623895D01*
X132943436Y-116622233D01*
X133578435Y-116622233D01*
X133723139Y-116972443D01*
X133990847Y-117240620D01*
X134340805Y-117385935D01*
X134719733Y-117386265D01*
X135069943Y-117241561D01*
X135338120Y-116973853D01*
X135483435Y-116623895D01*
X135483436Y-116622233D01*
X136118435Y-116622233D01*
X136263139Y-116972443D01*
X136530847Y-117240620D01*
X136880805Y-117385935D01*
X137259733Y-117386265D01*
X137609943Y-117241561D01*
X137878120Y-116973853D01*
X138023435Y-116623895D01*
X138023436Y-116622233D01*
X138658435Y-116622233D01*
X138803139Y-116972443D01*
X139070847Y-117240620D01*
X139420805Y-117385935D01*
X139799733Y-117386265D01*
X140149943Y-117241561D01*
X140418120Y-116973853D01*
X140563435Y-116623895D01*
X140563436Y-116622233D01*
X141198435Y-116622233D01*
X141343139Y-116972443D01*
X141610847Y-117240620D01*
X141960805Y-117385935D01*
X142339733Y-117386265D01*
X142689943Y-117241561D01*
X142724265Y-117207299D01*
X144186809Y-117207299D01*
X144285473Y-117315995D01*
X144654028Y-117404053D01*
X145028226Y-117344369D01*
X145096727Y-117315995D01*
X145195391Y-117207299D01*
X144691100Y-116703008D01*
X144186809Y-117207299D01*
X142724265Y-117207299D01*
X142958120Y-116973853D01*
X143103435Y-116623895D01*
X143103633Y-116396528D01*
X143720647Y-116396528D01*
X143780331Y-116770726D01*
X143808705Y-116839227D01*
X143917401Y-116937891D01*
X144421692Y-116433600D01*
X144960508Y-116433600D01*
X145464799Y-116937891D01*
X145573495Y-116839227D01*
X145625340Y-116622233D01*
X146278435Y-116622233D01*
X146423139Y-116972443D01*
X146690847Y-117240620D01*
X147040805Y-117385935D01*
X147419733Y-117386265D01*
X147769943Y-117241561D01*
X148038120Y-116973853D01*
X148183435Y-116623895D01*
X148183436Y-116622233D01*
X148818435Y-116622233D01*
X148963139Y-116972443D01*
X149230847Y-117240620D01*
X149580805Y-117385935D01*
X149959733Y-117386265D01*
X150309943Y-117241561D01*
X150344265Y-117207299D01*
X151806809Y-117207299D01*
X151905473Y-117315995D01*
X152274028Y-117404053D01*
X152648226Y-117344369D01*
X152716727Y-117315995D01*
X152815391Y-117207299D01*
X152311100Y-116703008D01*
X151806809Y-117207299D01*
X150344265Y-117207299D01*
X150578120Y-116973853D01*
X150723435Y-116623895D01*
X150723633Y-116396528D01*
X151340647Y-116396528D01*
X151400331Y-116770726D01*
X151428705Y-116839227D01*
X151537401Y-116937891D01*
X152041692Y-116433600D01*
X152580508Y-116433600D01*
X153084799Y-116937891D01*
X153193495Y-116839227D01*
X153245340Y-116622233D01*
X153898435Y-116622233D01*
X154043139Y-116972443D01*
X154310847Y-117240620D01*
X154660805Y-117385935D01*
X155039733Y-117386265D01*
X155389943Y-117241561D01*
X155658120Y-116973853D01*
X155803435Y-116623895D01*
X155803436Y-116622233D01*
X156438435Y-116622233D01*
X156583139Y-116972443D01*
X156850847Y-117240620D01*
X157200805Y-117385935D01*
X157579733Y-117386265D01*
X157929943Y-117241561D01*
X158198120Y-116973853D01*
X158343435Y-116623895D01*
X158343436Y-116622233D01*
X158978435Y-116622233D01*
X159123139Y-116972443D01*
X159390847Y-117240620D01*
X159740805Y-117385935D01*
X160119733Y-117386265D01*
X160469943Y-117241561D01*
X160738120Y-116973853D01*
X160883435Y-116623895D01*
X160883436Y-116622233D01*
X161518435Y-116622233D01*
X161663139Y-116972443D01*
X161930847Y-117240620D01*
X162280805Y-117385935D01*
X162659733Y-117386265D01*
X163009943Y-117241561D01*
X163278120Y-116973853D01*
X163423435Y-116623895D01*
X163423436Y-116622233D01*
X164058435Y-116622233D01*
X164203139Y-116972443D01*
X164470847Y-117240620D01*
X164820805Y-117385935D01*
X165199733Y-117386265D01*
X165549943Y-117241561D01*
X165818120Y-116973853D01*
X165963435Y-116623895D01*
X165963436Y-116622233D01*
X166598435Y-116622233D01*
X166743139Y-116972443D01*
X167010847Y-117240620D01*
X167360805Y-117385935D01*
X167739733Y-117386265D01*
X168089943Y-117241561D01*
X168358120Y-116973853D01*
X168503435Y-116623895D01*
X168503436Y-116622233D01*
X169138435Y-116622233D01*
X169283139Y-116972443D01*
X169550847Y-117240620D01*
X169900805Y-117385935D01*
X170279733Y-117386265D01*
X170629943Y-117241561D01*
X170898120Y-116973853D01*
X171043435Y-116623895D01*
X171043765Y-116244967D01*
X170899061Y-115894757D01*
X170631353Y-115626580D01*
X170281395Y-115481265D01*
X169902467Y-115480935D01*
X169552257Y-115625639D01*
X169284080Y-115893347D01*
X169138765Y-116243305D01*
X169138435Y-116622233D01*
X168503436Y-116622233D01*
X168503765Y-116244967D01*
X168359061Y-115894757D01*
X168091353Y-115626580D01*
X167741395Y-115481265D01*
X167362467Y-115480935D01*
X167012257Y-115625639D01*
X166744080Y-115893347D01*
X166598765Y-116243305D01*
X166598435Y-116622233D01*
X165963436Y-116622233D01*
X165963765Y-116244967D01*
X165819061Y-115894757D01*
X165551353Y-115626580D01*
X165201395Y-115481265D01*
X164822467Y-115480935D01*
X164472257Y-115625639D01*
X164204080Y-115893347D01*
X164058765Y-116243305D01*
X164058435Y-116622233D01*
X163423436Y-116622233D01*
X163423765Y-116244967D01*
X163279061Y-115894757D01*
X163011353Y-115626580D01*
X162661395Y-115481265D01*
X162282467Y-115480935D01*
X161932257Y-115625639D01*
X161664080Y-115893347D01*
X161518765Y-116243305D01*
X161518435Y-116622233D01*
X160883436Y-116622233D01*
X160883765Y-116244967D01*
X160739061Y-115894757D01*
X160471353Y-115626580D01*
X160121395Y-115481265D01*
X159742467Y-115480935D01*
X159392257Y-115625639D01*
X159124080Y-115893347D01*
X158978765Y-116243305D01*
X158978435Y-116622233D01*
X158343436Y-116622233D01*
X158343765Y-116244967D01*
X158199061Y-115894757D01*
X157931353Y-115626580D01*
X157581395Y-115481265D01*
X157202467Y-115480935D01*
X156852257Y-115625639D01*
X156584080Y-115893347D01*
X156438765Y-116243305D01*
X156438435Y-116622233D01*
X155803436Y-116622233D01*
X155803765Y-116244967D01*
X155659061Y-115894757D01*
X155391353Y-115626580D01*
X155041395Y-115481265D01*
X154662467Y-115480935D01*
X154312257Y-115625639D01*
X154044080Y-115893347D01*
X153898765Y-116243305D01*
X153898435Y-116622233D01*
X153245340Y-116622233D01*
X153281553Y-116470672D01*
X153221869Y-116096474D01*
X153193495Y-116027973D01*
X153084799Y-115929309D01*
X152580508Y-116433600D01*
X152041692Y-116433600D01*
X151537401Y-115929309D01*
X151428705Y-116027973D01*
X151340647Y-116396528D01*
X150723633Y-116396528D01*
X150723765Y-116244967D01*
X150579061Y-115894757D01*
X150344616Y-115659901D01*
X151806809Y-115659901D01*
X152311100Y-116164192D01*
X152815391Y-115659901D01*
X152716727Y-115551205D01*
X152348172Y-115463147D01*
X151973974Y-115522831D01*
X151905473Y-115551205D01*
X151806809Y-115659901D01*
X150344616Y-115659901D01*
X150311353Y-115626580D01*
X149961395Y-115481265D01*
X149582467Y-115480935D01*
X149232257Y-115625639D01*
X148964080Y-115893347D01*
X148818765Y-116243305D01*
X148818435Y-116622233D01*
X148183436Y-116622233D01*
X148183765Y-116244967D01*
X148039061Y-115894757D01*
X147771353Y-115626580D01*
X147421395Y-115481265D01*
X147042467Y-115480935D01*
X146692257Y-115625639D01*
X146424080Y-115893347D01*
X146278765Y-116243305D01*
X146278435Y-116622233D01*
X145625340Y-116622233D01*
X145661553Y-116470672D01*
X145601869Y-116096474D01*
X145573495Y-116027973D01*
X145464799Y-115929309D01*
X144960508Y-116433600D01*
X144421692Y-116433600D01*
X143917401Y-115929309D01*
X143808705Y-116027973D01*
X143720647Y-116396528D01*
X143103633Y-116396528D01*
X143103765Y-116244967D01*
X142959061Y-115894757D01*
X142724616Y-115659901D01*
X144186809Y-115659901D01*
X144691100Y-116164192D01*
X145195391Y-115659901D01*
X145096727Y-115551205D01*
X144728172Y-115463147D01*
X144353974Y-115522831D01*
X144285473Y-115551205D01*
X144186809Y-115659901D01*
X142724616Y-115659901D01*
X142691353Y-115626580D01*
X142341395Y-115481265D01*
X141962467Y-115480935D01*
X141612257Y-115625639D01*
X141344080Y-115893347D01*
X141198765Y-116243305D01*
X141198435Y-116622233D01*
X140563436Y-116622233D01*
X140563765Y-116244967D01*
X140419061Y-115894757D01*
X140151353Y-115626580D01*
X139801395Y-115481265D01*
X139422467Y-115480935D01*
X139072257Y-115625639D01*
X138804080Y-115893347D01*
X138658765Y-116243305D01*
X138658435Y-116622233D01*
X138023436Y-116622233D01*
X138023765Y-116244967D01*
X137879061Y-115894757D01*
X137611353Y-115626580D01*
X137261395Y-115481265D01*
X136882467Y-115480935D01*
X136532257Y-115625639D01*
X136264080Y-115893347D01*
X136118765Y-116243305D01*
X136118435Y-116622233D01*
X135483436Y-116622233D01*
X135483765Y-116244967D01*
X135339061Y-115894757D01*
X135071353Y-115626580D01*
X134721395Y-115481265D01*
X134342467Y-115480935D01*
X133992257Y-115625639D01*
X133724080Y-115893347D01*
X133578765Y-116243305D01*
X133578435Y-116622233D01*
X132943436Y-116622233D01*
X132943765Y-116244967D01*
X132799061Y-115894757D01*
X132531353Y-115626580D01*
X132181395Y-115481265D01*
X131802467Y-115480935D01*
X131452257Y-115625639D01*
X131184080Y-115893347D01*
X131038765Y-116243305D01*
X131038435Y-116622233D01*
X130403436Y-116622233D01*
X130403765Y-116244967D01*
X130259061Y-115894757D01*
X129991353Y-115626580D01*
X129641395Y-115481265D01*
X129262467Y-115480935D01*
X128912257Y-115625639D01*
X128644080Y-115893347D01*
X128498765Y-116243305D01*
X128498435Y-116622233D01*
X127863436Y-116622233D01*
X127863765Y-116244967D01*
X127719061Y-115894757D01*
X127451353Y-115626580D01*
X127101395Y-115481265D01*
X126722467Y-115480935D01*
X126372257Y-115625639D01*
X126104080Y-115893347D01*
X125958765Y-116243305D01*
X125958435Y-116622233D01*
X122276594Y-116622233D01*
X122012400Y-116226840D01*
X121770662Y-115011538D01*
X137852635Y-115011538D01*
X137927152Y-115191883D01*
X138038448Y-115303373D01*
X137927637Y-115413992D01*
X137852806Y-115594206D01*
X137852635Y-115789338D01*
X137927152Y-115969683D01*
X138065012Y-116107783D01*
X138245226Y-116182614D01*
X138440358Y-116182785D01*
X138620703Y-116108268D01*
X138758803Y-115970408D01*
X138833634Y-115790194D01*
X138833805Y-115595062D01*
X138759288Y-115414717D01*
X138647992Y-115303227D01*
X138758803Y-115192608D01*
X138833634Y-115012394D01*
X138833805Y-114817262D01*
X138759288Y-114636917D01*
X138621428Y-114498817D01*
X138441214Y-114423986D01*
X138246082Y-114423815D01*
X138065737Y-114498332D01*
X137927637Y-114636192D01*
X137852806Y-114816406D01*
X137852635Y-115011538D01*
X121770662Y-115011538D01*
X121610558Y-114206638D01*
X138955415Y-114206638D01*
X139029932Y-114386983D01*
X139167792Y-114525083D01*
X139348006Y-114599914D01*
X139543138Y-114600085D01*
X139723483Y-114525568D01*
X139861583Y-114387708D01*
X139936414Y-114207494D01*
X139936585Y-114012362D01*
X139862068Y-113832017D01*
X139724208Y-113693917D01*
X139543994Y-113619086D01*
X139348862Y-113618915D01*
X139168517Y-113693432D01*
X139030417Y-113831292D01*
X138955586Y-114011506D01*
X138955415Y-114206638D01*
X121610558Y-114206638D01*
X121439664Y-113347500D01*
X122523085Y-113347500D01*
X122575646Y-113611743D01*
X122725328Y-113835757D01*
X122949342Y-113985439D01*
X123213585Y-114038000D01*
X123801415Y-114038000D01*
X124065658Y-113985439D01*
X124289672Y-113835757D01*
X124439354Y-113611743D01*
X124491915Y-113347500D01*
X124485976Y-113317638D01*
X158259415Y-113317638D01*
X158333932Y-113497983D01*
X158471792Y-113636083D01*
X158652006Y-113710914D01*
X158847138Y-113711085D01*
X159027483Y-113636568D01*
X159165583Y-113498708D01*
X159240414Y-113318494D01*
X159240585Y-113123362D01*
X159166068Y-112943017D01*
X159028208Y-112804917D01*
X158847994Y-112730086D01*
X158652862Y-112729915D01*
X158472517Y-112804432D01*
X158334417Y-112942292D01*
X158259586Y-113122506D01*
X158259415Y-113317638D01*
X124485976Y-113317638D01*
X124439354Y-113083257D01*
X124289672Y-112859243D01*
X124065658Y-112709561D01*
X123801415Y-112657000D01*
X123213585Y-112657000D01*
X122949342Y-112709561D01*
X122725328Y-112859243D01*
X122575646Y-113083257D01*
X122523085Y-113347500D01*
X121439664Y-113347500D01*
X121266600Y-112477452D01*
X121266600Y-112181523D01*
X125542000Y-112181523D01*
X125542000Y-112513477D01*
X125592658Y-112768153D01*
X125736920Y-112984057D01*
X125952824Y-113128319D01*
X126207500Y-113178977D01*
X126462176Y-113128319D01*
X126678080Y-112984057D01*
X126822342Y-112768153D01*
X126873000Y-112513477D01*
X126873000Y-112181523D01*
X126822342Y-111926847D01*
X126678080Y-111710943D01*
X126462176Y-111566681D01*
X126326222Y-111539638D01*
X130446415Y-111539638D01*
X130520932Y-111719983D01*
X130658792Y-111858083D01*
X130839006Y-111932914D01*
X131034138Y-111933085D01*
X131214483Y-111858568D01*
X131215915Y-111857138D01*
X136923415Y-111857138D01*
X136997932Y-112037483D01*
X137135792Y-112175583D01*
X137316006Y-112250414D01*
X137511138Y-112250585D01*
X137691483Y-112176068D01*
X137829583Y-112038208D01*
X137878402Y-111920638D01*
X146257915Y-111920638D01*
X146332432Y-112100983D01*
X146470292Y-112239083D01*
X146650506Y-112313914D01*
X146845638Y-112314085D01*
X147025983Y-112239568D01*
X147164083Y-112101708D01*
X147238914Y-111921494D01*
X147238914Y-111920638D01*
X147337415Y-111920638D01*
X147411932Y-112100983D01*
X147549792Y-112239083D01*
X147730006Y-112313914D01*
X147925138Y-112314085D01*
X148105483Y-112239568D01*
X148243583Y-112101708D01*
X148318414Y-111921494D01*
X148318414Y-111920638D01*
X148480415Y-111920638D01*
X148554932Y-112100983D01*
X148692792Y-112239083D01*
X148873006Y-112313914D01*
X149068138Y-112314085D01*
X149248483Y-112239568D01*
X149386583Y-112101708D01*
X149461414Y-111921494D01*
X149461414Y-111920638D01*
X149559915Y-111920638D01*
X149634432Y-112100983D01*
X149772292Y-112239083D01*
X149952506Y-112313914D01*
X150147638Y-112314085D01*
X150327983Y-112239568D01*
X150466083Y-112101708D01*
X150488534Y-112047638D01*
X151718915Y-112047638D01*
X151793432Y-112227983D01*
X151931292Y-112366083D01*
X152111506Y-112440914D01*
X152306638Y-112441085D01*
X152486983Y-112366568D01*
X152488415Y-112365138D01*
X152861915Y-112365138D01*
X152936432Y-112545483D01*
X153074292Y-112683583D01*
X153254506Y-112758414D01*
X153449638Y-112758585D01*
X153629983Y-112684068D01*
X153768083Y-112546208D01*
X153842914Y-112365994D01*
X153842970Y-112301638D01*
X157243415Y-112301638D01*
X157317932Y-112481983D01*
X157455792Y-112620083D01*
X157636006Y-112694914D01*
X157831138Y-112695085D01*
X158011483Y-112620568D01*
X158149583Y-112482708D01*
X158224414Y-112302494D01*
X158224585Y-112107362D01*
X158150068Y-111927017D01*
X158016921Y-111793638D01*
X164990415Y-111793638D01*
X165064932Y-111973983D01*
X165202792Y-112112083D01*
X165383006Y-112186914D01*
X165578138Y-112187085D01*
X165758483Y-112112568D01*
X165896583Y-111974708D01*
X165971414Y-111794494D01*
X165971414Y-111793638D01*
X166069915Y-111793638D01*
X166144432Y-111973983D01*
X166282292Y-112112083D01*
X166462506Y-112186914D01*
X166657638Y-112187085D01*
X166837983Y-112112568D01*
X166976083Y-111974708D01*
X167024902Y-111857138D01*
X167149415Y-111857138D01*
X167223932Y-112037483D01*
X167361792Y-112175583D01*
X167542006Y-112250414D01*
X167737138Y-112250585D01*
X167917483Y-112176068D01*
X168055583Y-112038208D01*
X168130414Y-111857994D01*
X168130585Y-111662862D01*
X168056068Y-111482517D01*
X167918208Y-111344417D01*
X167737994Y-111269586D01*
X167542862Y-111269415D01*
X167362517Y-111343932D01*
X167224417Y-111481792D01*
X167149586Y-111662006D01*
X167149415Y-111857138D01*
X167024902Y-111857138D01*
X167050914Y-111794494D01*
X167051085Y-111599362D01*
X166976568Y-111419017D01*
X166838708Y-111280917D01*
X166658494Y-111206086D01*
X166463362Y-111205915D01*
X166283017Y-111280432D01*
X166144917Y-111418292D01*
X166070086Y-111598506D01*
X166069915Y-111793638D01*
X165971414Y-111793638D01*
X165971585Y-111599362D01*
X165897068Y-111419017D01*
X165759208Y-111280917D01*
X165578994Y-111206086D01*
X165383862Y-111205915D01*
X165203517Y-111280432D01*
X165065417Y-111418292D01*
X164990586Y-111598506D01*
X164990415Y-111793638D01*
X158016921Y-111793638D01*
X158012208Y-111788917D01*
X157831994Y-111714086D01*
X157636862Y-111713915D01*
X157456517Y-111788432D01*
X157318417Y-111926292D01*
X157243586Y-112106506D01*
X157243415Y-112301638D01*
X153842970Y-112301638D01*
X153843085Y-112170862D01*
X153768568Y-111990517D01*
X153630708Y-111852417D01*
X153450494Y-111777586D01*
X153255362Y-111777415D01*
X153075017Y-111851932D01*
X152936917Y-111989792D01*
X152862086Y-112170006D01*
X152861915Y-112365138D01*
X152488415Y-112365138D01*
X152625083Y-112228708D01*
X152699914Y-112048494D01*
X152700085Y-111853362D01*
X152625568Y-111673017D01*
X152487708Y-111534917D01*
X152307494Y-111460086D01*
X152112362Y-111459915D01*
X151932017Y-111534432D01*
X151793917Y-111672292D01*
X151719086Y-111852506D01*
X151718915Y-112047638D01*
X150488534Y-112047638D01*
X150540914Y-111921494D01*
X150541085Y-111726362D01*
X150466568Y-111546017D01*
X150328708Y-111407917D01*
X150148494Y-111333086D01*
X149953362Y-111332915D01*
X149773017Y-111407432D01*
X149634917Y-111545292D01*
X149560086Y-111725506D01*
X149559915Y-111920638D01*
X149461414Y-111920638D01*
X149461585Y-111726362D01*
X149387068Y-111546017D01*
X149249208Y-111407917D01*
X149068994Y-111333086D01*
X148873862Y-111332915D01*
X148693517Y-111407432D01*
X148555417Y-111545292D01*
X148480586Y-111725506D01*
X148480415Y-111920638D01*
X148318414Y-111920638D01*
X148318585Y-111726362D01*
X148244068Y-111546017D01*
X148106208Y-111407917D01*
X147925994Y-111333086D01*
X147730862Y-111332915D01*
X147550517Y-111407432D01*
X147412417Y-111545292D01*
X147337586Y-111725506D01*
X147337415Y-111920638D01*
X147238914Y-111920638D01*
X147239085Y-111726362D01*
X147164568Y-111546017D01*
X147026708Y-111407917D01*
X146846494Y-111333086D01*
X146651362Y-111332915D01*
X146471017Y-111407432D01*
X146332917Y-111545292D01*
X146258086Y-111725506D01*
X146257915Y-111920638D01*
X137878402Y-111920638D01*
X137904414Y-111857994D01*
X137904585Y-111662862D01*
X137830068Y-111482517D01*
X137692208Y-111344417D01*
X137511994Y-111269586D01*
X137316862Y-111269415D01*
X137136517Y-111343932D01*
X136998417Y-111481792D01*
X136923586Y-111662006D01*
X136923415Y-111857138D01*
X131215915Y-111857138D01*
X131352583Y-111720708D01*
X131427414Y-111540494D01*
X131427585Y-111345362D01*
X131353068Y-111165017D01*
X131283256Y-111095083D01*
X138955695Y-111095083D01*
X139030169Y-111275325D01*
X139167950Y-111413346D01*
X139348061Y-111488135D01*
X139543083Y-111488305D01*
X139723325Y-111413831D01*
X139827060Y-111310277D01*
X139929950Y-111413346D01*
X140110061Y-111488135D01*
X140305083Y-111488305D01*
X140485325Y-111413831D01*
X140589060Y-111310277D01*
X140691950Y-111413346D01*
X140872061Y-111488135D01*
X141067083Y-111488305D01*
X141247325Y-111413831D01*
X141351060Y-111310277D01*
X141453950Y-111413346D01*
X141634061Y-111488135D01*
X141829083Y-111488305D01*
X142009325Y-111413831D01*
X142147346Y-111276050D01*
X142222135Y-111095939D01*
X142222305Y-110900917D01*
X142147831Y-110720675D01*
X142010050Y-110582654D01*
X141829939Y-110507865D01*
X141634917Y-110507695D01*
X141454675Y-110582169D01*
X141350940Y-110685723D01*
X141248050Y-110582654D01*
X141067939Y-110507865D01*
X140872917Y-110507695D01*
X140692675Y-110582169D01*
X140588940Y-110685723D01*
X140486050Y-110582654D01*
X140305939Y-110507865D01*
X140110917Y-110507695D01*
X139930675Y-110582169D01*
X139826940Y-110685723D01*
X139724050Y-110582654D01*
X139543939Y-110507865D01*
X139348917Y-110507695D01*
X139168675Y-110582169D01*
X139030654Y-110719950D01*
X138955865Y-110900061D01*
X138955695Y-111095083D01*
X131283256Y-111095083D01*
X131215208Y-111026917D01*
X131034994Y-110952086D01*
X130839862Y-110951915D01*
X130659517Y-111026432D01*
X130521417Y-111164292D01*
X130446586Y-111344506D01*
X130446415Y-111539638D01*
X126326222Y-111539638D01*
X126207500Y-111516023D01*
X125952824Y-111566681D01*
X125736920Y-111710943D01*
X125592658Y-111926847D01*
X125542000Y-112181523D01*
X121266600Y-112181523D01*
X121266600Y-110846694D01*
X124035124Y-110846694D01*
X124109641Y-111027039D01*
X124247501Y-111165139D01*
X124427715Y-111239970D01*
X124622847Y-111240141D01*
X124803192Y-111165624D01*
X124941292Y-111027764D01*
X125016123Y-110847550D01*
X125016294Y-110652418D01*
X124941777Y-110472073D01*
X124803917Y-110333973D01*
X124789628Y-110328040D01*
X124935036Y-110267958D01*
X125073136Y-110130098D01*
X125147967Y-109949884D01*
X125148138Y-109754752D01*
X125098508Y-109634638D01*
X128477915Y-109634638D01*
X128552432Y-109814983D01*
X128690292Y-109953083D01*
X128870506Y-110027914D01*
X129065638Y-110028085D01*
X129245983Y-109953568D01*
X129384083Y-109815708D01*
X129458914Y-109635494D01*
X129459081Y-109444083D01*
X132097695Y-109444083D01*
X132172169Y-109624325D01*
X132309950Y-109762346D01*
X132490061Y-109837135D01*
X132685083Y-109837305D01*
X132732701Y-109817630D01*
X132732695Y-109825083D01*
X132807169Y-110005325D01*
X132944950Y-110143346D01*
X133125061Y-110218135D01*
X133320083Y-110218305D01*
X133352454Y-110204930D01*
X133251917Y-110305292D01*
X133177086Y-110485506D01*
X133176915Y-110680638D01*
X133251432Y-110860983D01*
X133389292Y-110999083D01*
X133569506Y-111073914D01*
X133764638Y-111074085D01*
X133944983Y-110999568D01*
X134083083Y-110861708D01*
X134157914Y-110681494D01*
X134158085Y-110486362D01*
X134083568Y-110306017D01*
X133945708Y-110167917D01*
X133765494Y-110093086D01*
X133570362Y-110092915D01*
X133537889Y-110106333D01*
X133638346Y-110006050D01*
X133708482Y-109837145D01*
X133891583Y-109837305D01*
X134071825Y-109762831D01*
X134209846Y-109625050D01*
X134284635Y-109444939D01*
X134284805Y-109249917D01*
X134233868Y-109126638D01*
X150702915Y-109126638D01*
X150777432Y-109306983D01*
X150915292Y-109445083D01*
X151095506Y-109519914D01*
X151290638Y-109520085D01*
X151470983Y-109445568D01*
X151472415Y-109444138D01*
X154131915Y-109444138D01*
X154206432Y-109624483D01*
X154344292Y-109762583D01*
X154524506Y-109837414D01*
X154719638Y-109837585D01*
X154899983Y-109763068D01*
X155038083Y-109625208D01*
X155112914Y-109444994D01*
X155113085Y-109249862D01*
X155038568Y-109069517D01*
X154900708Y-108931417D01*
X154720494Y-108856586D01*
X154525362Y-108856415D01*
X154345017Y-108930932D01*
X154206917Y-109068792D01*
X154132086Y-109249006D01*
X154131915Y-109444138D01*
X151472415Y-109444138D01*
X151609083Y-109307708D01*
X151683914Y-109127494D01*
X151684085Y-108932362D01*
X151609568Y-108752017D01*
X151471708Y-108613917D01*
X151291494Y-108539086D01*
X151096362Y-108538915D01*
X150916017Y-108613432D01*
X150777917Y-108751292D01*
X150703086Y-108931506D01*
X150702915Y-109126638D01*
X134233868Y-109126638D01*
X134210331Y-109069675D01*
X134072550Y-108931654D01*
X133892439Y-108856865D01*
X133697417Y-108856695D01*
X133517175Y-108931169D01*
X133379154Y-109068950D01*
X133309018Y-109237855D01*
X133125917Y-109237695D01*
X133078299Y-109257370D01*
X133078305Y-109249917D01*
X133003831Y-109069675D01*
X132866050Y-108931654D01*
X132685939Y-108856865D01*
X132490917Y-108856695D01*
X132310675Y-108931169D01*
X132172654Y-109068950D01*
X132097865Y-109249061D01*
X132097695Y-109444083D01*
X129459081Y-109444083D01*
X129459085Y-109440362D01*
X129384568Y-109260017D01*
X129246708Y-109121917D01*
X129066494Y-109047086D01*
X128871362Y-109046915D01*
X128691017Y-109121432D01*
X128552917Y-109259292D01*
X128478086Y-109439506D01*
X128477915Y-109634638D01*
X125098508Y-109634638D01*
X125073621Y-109574407D01*
X124958578Y-109459164D01*
X124991483Y-109445568D01*
X125129583Y-109307708D01*
X125204414Y-109127494D01*
X125204585Y-108932362D01*
X125130068Y-108752017D01*
X124992208Y-108613917D01*
X124811994Y-108539086D01*
X124616862Y-108538915D01*
X124436517Y-108613432D01*
X124298417Y-108751292D01*
X124223586Y-108931506D01*
X124223415Y-109126638D01*
X124297932Y-109306983D01*
X124412975Y-109422226D01*
X124380070Y-109435822D01*
X124241970Y-109573682D01*
X124167139Y-109753896D01*
X124166968Y-109949028D01*
X124241485Y-110129373D01*
X124379345Y-110267473D01*
X124393634Y-110273406D01*
X124248226Y-110333488D01*
X124110126Y-110471348D01*
X124035295Y-110651562D01*
X124035124Y-110846694D01*
X121266600Y-110846694D01*
X121266600Y-108491638D01*
X129557415Y-108491638D01*
X129631932Y-108671983D01*
X129769792Y-108810083D01*
X129950006Y-108884914D01*
X130145138Y-108885085D01*
X130325483Y-108810568D01*
X130463583Y-108672708D01*
X130538414Y-108492494D01*
X130538585Y-108297362D01*
X130464068Y-108117017D01*
X130326208Y-107978917D01*
X130145994Y-107904086D01*
X129950862Y-107903915D01*
X129770517Y-107978432D01*
X129632417Y-108116292D01*
X129557586Y-108296506D01*
X129557415Y-108491638D01*
X121266600Y-108491638D01*
X121266600Y-107856638D01*
X124350415Y-107856638D01*
X124424932Y-108036983D01*
X124562792Y-108175083D01*
X124743006Y-108249914D01*
X124938138Y-108250085D01*
X125118483Y-108175568D01*
X125256583Y-108037708D01*
X125331414Y-107857494D01*
X125331585Y-107662362D01*
X125257068Y-107482017D01*
X125119208Y-107343917D01*
X124938994Y-107269086D01*
X124743862Y-107268915D01*
X124563517Y-107343432D01*
X124425417Y-107481292D01*
X124350586Y-107661506D01*
X124350415Y-107856638D01*
X121266600Y-107856638D01*
X121266600Y-107181523D01*
X125542000Y-107181523D01*
X125542000Y-107513477D01*
X125592658Y-107768153D01*
X125736920Y-107984057D01*
X125952824Y-108128319D01*
X126207500Y-108178977D01*
X126462176Y-108128319D01*
X126678080Y-107984057D01*
X126822342Y-107768153D01*
X126873000Y-107513477D01*
X126873000Y-107412083D01*
X139019195Y-107412083D01*
X139093669Y-107592325D01*
X139231450Y-107730346D01*
X139333282Y-107772630D01*
X139295675Y-107788169D01*
X139157654Y-107925950D01*
X139082865Y-108106061D01*
X139082695Y-108301083D01*
X139157169Y-108481325D01*
X139294950Y-108619346D01*
X139475061Y-108694135D01*
X139670083Y-108694305D01*
X139850325Y-108619831D01*
X139988346Y-108482050D01*
X140063135Y-108301939D01*
X140063305Y-108106917D01*
X139988831Y-107926675D01*
X139851050Y-107788654D01*
X139749218Y-107746370D01*
X139786825Y-107730831D01*
X139924846Y-107593050D01*
X139999635Y-107412939D01*
X139999635Y-107412083D01*
X140098695Y-107412083D01*
X140173169Y-107592325D01*
X140310950Y-107730346D01*
X140381110Y-107759479D01*
X140311675Y-107788169D01*
X140173654Y-107925950D01*
X140098865Y-108106061D01*
X140098695Y-108301083D01*
X140173169Y-108481325D01*
X140310950Y-108619346D01*
X140491061Y-108694135D01*
X140686083Y-108694305D01*
X140866325Y-108619831D01*
X141004346Y-108482050D01*
X141079135Y-108301939D01*
X141079305Y-108106917D01*
X141004831Y-107926675D01*
X140867050Y-107788654D01*
X140796890Y-107759521D01*
X140866325Y-107730831D01*
X141004346Y-107593050D01*
X141079135Y-107412939D01*
X141079135Y-107412083D01*
X141114695Y-107412083D01*
X141189169Y-107592325D01*
X141326950Y-107730346D01*
X141397110Y-107759479D01*
X141327675Y-107788169D01*
X141189654Y-107925950D01*
X141114865Y-108106061D01*
X141114695Y-108301083D01*
X141189169Y-108481325D01*
X141326950Y-108619346D01*
X141507061Y-108694135D01*
X141702083Y-108694305D01*
X141882325Y-108619831D01*
X142020346Y-108482050D01*
X142095135Y-108301939D01*
X142095305Y-108106917D01*
X142020831Y-107926675D01*
X141883050Y-107788654D01*
X141812890Y-107759521D01*
X141882325Y-107730831D01*
X142020346Y-107593050D01*
X142095135Y-107412939D01*
X142095305Y-107217917D01*
X142020831Y-107037675D01*
X141883050Y-106899654D01*
X141702939Y-106824865D01*
X141507917Y-106824695D01*
X141327675Y-106899169D01*
X141189654Y-107036950D01*
X141114865Y-107217061D01*
X141114695Y-107412083D01*
X141079135Y-107412083D01*
X141079305Y-107217917D01*
X141004831Y-107037675D01*
X140867050Y-106899654D01*
X140686939Y-106824865D01*
X140491917Y-106824695D01*
X140311675Y-106899169D01*
X140173654Y-107036950D01*
X140098865Y-107217061D01*
X140098695Y-107412083D01*
X139999635Y-107412083D01*
X139999805Y-107217917D01*
X139925331Y-107037675D01*
X139787550Y-106899654D01*
X139607439Y-106824865D01*
X139412417Y-106824695D01*
X139232175Y-106899169D01*
X139094154Y-107036950D01*
X139019365Y-107217061D01*
X139019195Y-107412083D01*
X126873000Y-107412083D01*
X126873000Y-107181523D01*
X126822342Y-106926847D01*
X126678080Y-106710943D01*
X126462176Y-106566681D01*
X126207500Y-106516023D01*
X125952824Y-106566681D01*
X125736920Y-106710943D01*
X125592658Y-106926847D01*
X125542000Y-107181523D01*
X121266600Y-107181523D01*
X121266600Y-106347500D01*
X122523085Y-106347500D01*
X122575646Y-106611743D01*
X122725328Y-106835757D01*
X122949342Y-106985439D01*
X123213585Y-107038000D01*
X123801415Y-107038000D01*
X124065658Y-106985439D01*
X124289672Y-106835757D01*
X124439354Y-106611743D01*
X124491915Y-106347500D01*
X124439354Y-106083257D01*
X124289672Y-105859243D01*
X124065658Y-105709561D01*
X123801415Y-105657000D01*
X123213585Y-105657000D01*
X122949342Y-105709561D01*
X122725328Y-105859243D01*
X122575646Y-106083257D01*
X122523085Y-106347500D01*
X121266600Y-106347500D01*
X121266600Y-105253138D01*
X129874915Y-105253138D01*
X129949432Y-105433483D01*
X130087292Y-105571583D01*
X130267506Y-105646414D01*
X130462638Y-105646585D01*
X130574172Y-105600500D01*
X139782115Y-105600500D01*
X139861318Y-105998682D01*
X140086870Y-106336245D01*
X140424433Y-106561797D01*
X140822615Y-106641000D01*
X140863385Y-106641000D01*
X141261567Y-106561797D01*
X141599130Y-106336245D01*
X141618644Y-106307040D01*
X162949406Y-106307040D01*
X163031519Y-106505769D01*
X163183432Y-106657946D01*
X163382016Y-106740406D01*
X163597040Y-106740594D01*
X163795769Y-106658481D01*
X163947946Y-106506568D01*
X164030406Y-106307984D01*
X164030594Y-106092960D01*
X163948481Y-105894231D01*
X163796568Y-105742054D01*
X163597984Y-105659594D01*
X163382960Y-105659406D01*
X163184231Y-105741519D01*
X163032054Y-105893432D01*
X162949594Y-106092016D01*
X162949406Y-106307040D01*
X141618644Y-106307040D01*
X141824682Y-105998682D01*
X141903885Y-105600500D01*
X141824682Y-105202318D01*
X141599130Y-104864755D01*
X141261567Y-104639203D01*
X140863385Y-104560000D01*
X140822615Y-104560000D01*
X140424433Y-104639203D01*
X140086870Y-104864755D01*
X139861318Y-105202318D01*
X139782115Y-105600500D01*
X130574172Y-105600500D01*
X130642983Y-105572068D01*
X130781083Y-105434208D01*
X130855914Y-105253994D01*
X130856085Y-105058862D01*
X130781568Y-104878517D01*
X130643708Y-104740417D01*
X130463494Y-104665586D01*
X130268362Y-104665415D01*
X130088017Y-104739932D01*
X129949917Y-104877792D01*
X129875086Y-105058006D01*
X129874915Y-105253138D01*
X121266600Y-105253138D01*
X121266600Y-104554638D01*
X123270915Y-104554638D01*
X123345432Y-104734983D01*
X123483292Y-104873083D01*
X123663506Y-104947914D01*
X123858638Y-104948085D01*
X124038983Y-104873568D01*
X124177083Y-104735708D01*
X124251914Y-104555494D01*
X124251973Y-104487636D01*
X142521013Y-104487636D01*
X142595530Y-104667981D01*
X142706826Y-104779471D01*
X142596015Y-104890090D01*
X142521184Y-105070304D01*
X142521013Y-105265436D01*
X142595530Y-105445781D01*
X142733390Y-105583881D01*
X142913604Y-105658712D01*
X143108736Y-105658883D01*
X143289081Y-105584366D01*
X143427181Y-105446506D01*
X143502012Y-105266292D01*
X143502183Y-105071160D01*
X143427666Y-104890815D01*
X143316370Y-104779325D01*
X143427181Y-104668706D01*
X143502012Y-104488492D01*
X143502183Y-104293360D01*
X143427666Y-104113015D01*
X143289806Y-103974915D01*
X143109592Y-103900084D01*
X142914460Y-103899913D01*
X142734115Y-103974430D01*
X142596015Y-104112290D01*
X142521184Y-104292504D01*
X142521013Y-104487636D01*
X124251973Y-104487636D01*
X124252085Y-104360362D01*
X124177568Y-104180017D01*
X124039708Y-104041917D01*
X123859494Y-103967086D01*
X123664362Y-103966915D01*
X123484017Y-104041432D01*
X123345917Y-104179292D01*
X123271086Y-104359506D01*
X123270915Y-104554638D01*
X121266600Y-104554638D01*
X121266600Y-103348138D01*
X130001915Y-103348138D01*
X130076432Y-103528483D01*
X130214292Y-103666583D01*
X130394506Y-103741414D01*
X130589638Y-103741585D01*
X130769983Y-103667068D01*
X130908083Y-103529208D01*
X130982914Y-103348994D01*
X130982958Y-103298625D01*
X139802500Y-103298625D01*
X139802500Y-103948393D01*
X139831502Y-104018409D01*
X139885090Y-104071998D01*
X139955107Y-104101000D01*
X140604875Y-104101000D01*
X140652500Y-104053375D01*
X140652500Y-103251000D01*
X141033500Y-103251000D01*
X141033500Y-104053375D01*
X141081125Y-104101000D01*
X141730893Y-104101000D01*
X141800910Y-104071998D01*
X141854498Y-104018409D01*
X141883500Y-103948393D01*
X141883500Y-103298625D01*
X141835875Y-103251000D01*
X141033500Y-103251000D01*
X140652500Y-103251000D01*
X139850125Y-103251000D01*
X139802500Y-103298625D01*
X130982958Y-103298625D01*
X130983025Y-103221138D01*
X173943915Y-103221138D01*
X174018432Y-103401483D01*
X174156292Y-103539583D01*
X174336506Y-103614414D01*
X174531638Y-103614585D01*
X174711983Y-103540068D01*
X174850083Y-103402208D01*
X174924914Y-103221994D01*
X174925085Y-103026862D01*
X174850568Y-102846517D01*
X174712708Y-102708417D01*
X174532494Y-102633586D01*
X174337362Y-102633415D01*
X174157017Y-102707932D01*
X174018917Y-102845792D01*
X173944086Y-103026006D01*
X173943915Y-103221138D01*
X130983025Y-103221138D01*
X130983085Y-103153862D01*
X130908568Y-102973517D01*
X130770708Y-102835417D01*
X130590494Y-102760586D01*
X130395362Y-102760415D01*
X130215017Y-102834932D01*
X130076917Y-102972792D01*
X130002086Y-103153006D01*
X130001915Y-103348138D01*
X121266600Y-103348138D01*
X121266600Y-101854000D01*
X122510115Y-101854000D01*
X122589318Y-102252182D01*
X122814870Y-102589745D01*
X123152433Y-102815297D01*
X123550615Y-102894500D01*
X123591385Y-102894500D01*
X123989567Y-102815297D01*
X124327130Y-102589745D01*
X124552682Y-102252182D01*
X124568510Y-102172607D01*
X139802500Y-102172607D01*
X139802500Y-102822375D01*
X139850125Y-102870000D01*
X140652500Y-102870000D01*
X140652500Y-102067625D01*
X141033500Y-102067625D01*
X141033500Y-102870000D01*
X141835875Y-102870000D01*
X141883500Y-102822375D01*
X141883500Y-102172607D01*
X141854498Y-102102591D01*
X141800910Y-102049002D01*
X141730893Y-102020000D01*
X141081125Y-102020000D01*
X141033500Y-102067625D01*
X140652500Y-102067625D01*
X140604875Y-102020000D01*
X139955107Y-102020000D01*
X139885090Y-102049002D01*
X139831502Y-102102591D01*
X139802500Y-102172607D01*
X124568510Y-102172607D01*
X124631885Y-101854000D01*
X124552682Y-101455818D01*
X124327130Y-101118255D01*
X124243145Y-101062138D01*
X130065415Y-101062138D01*
X130139932Y-101242483D01*
X130277792Y-101380583D01*
X130458006Y-101455414D01*
X130653138Y-101455585D01*
X130833483Y-101381068D01*
X130971583Y-101243208D01*
X131046414Y-101062994D01*
X131046585Y-100867862D01*
X131021908Y-100808138D01*
X174151894Y-100808138D01*
X174226411Y-100988483D01*
X174364271Y-101126583D01*
X174544485Y-101201414D01*
X174739617Y-101201585D01*
X174919962Y-101127068D01*
X175058062Y-100989208D01*
X175132893Y-100808994D01*
X175133064Y-100613862D01*
X175058547Y-100433517D01*
X174920687Y-100295417D01*
X174740473Y-100220586D01*
X174545341Y-100220415D01*
X174364996Y-100294932D01*
X174226896Y-100432792D01*
X174152065Y-100613006D01*
X174151894Y-100808138D01*
X131021908Y-100808138D01*
X130972068Y-100687517D01*
X130834208Y-100549417D01*
X130653994Y-100474586D01*
X130458862Y-100474415D01*
X130278517Y-100548932D01*
X130140417Y-100686792D01*
X130065586Y-100867006D01*
X130065415Y-101062138D01*
X124243145Y-101062138D01*
X123989567Y-100892703D01*
X123591385Y-100813500D01*
X123550615Y-100813500D01*
X123152433Y-100892703D01*
X122814870Y-101118255D01*
X122589318Y-101455818D01*
X122510115Y-101854000D01*
X121266600Y-101854000D01*
X121266600Y-99552125D01*
X122530500Y-99552125D01*
X122530500Y-100201893D01*
X122559502Y-100271909D01*
X122613090Y-100325498D01*
X122683107Y-100354500D01*
X123332875Y-100354500D01*
X123380500Y-100306875D01*
X123380500Y-99504500D01*
X123761500Y-99504500D01*
X123761500Y-100306875D01*
X123809125Y-100354500D01*
X124458893Y-100354500D01*
X124528910Y-100325498D01*
X124582498Y-100271909D01*
X124611500Y-100201893D01*
X124611500Y-99552125D01*
X124563875Y-99504500D01*
X123761500Y-99504500D01*
X123380500Y-99504500D01*
X122578125Y-99504500D01*
X122530500Y-99552125D01*
X121266600Y-99552125D01*
X121266600Y-99294951D01*
X174532905Y-99294951D01*
X174607422Y-99475296D01*
X174745282Y-99613396D01*
X174925496Y-99688227D01*
X175120628Y-99688398D01*
X175300973Y-99613881D01*
X175439073Y-99476021D01*
X175513904Y-99295807D01*
X175514075Y-99100675D01*
X175439558Y-98920330D01*
X175301698Y-98782230D01*
X175121484Y-98707399D01*
X174926352Y-98707228D01*
X174746007Y-98781745D01*
X174607907Y-98919605D01*
X174533076Y-99099819D01*
X174532905Y-99294951D01*
X121266600Y-99294951D01*
X121266600Y-98426107D01*
X122530500Y-98426107D01*
X122530500Y-99075875D01*
X122578125Y-99123500D01*
X123380500Y-99123500D01*
X123380500Y-98321125D01*
X123761500Y-98321125D01*
X123761500Y-99123500D01*
X124563875Y-99123500D01*
X124611500Y-99075875D01*
X124611500Y-98649138D01*
X130255915Y-98649138D01*
X130330432Y-98829483D01*
X130468292Y-98967583D01*
X130648506Y-99042414D01*
X130843638Y-99042585D01*
X131023983Y-98968068D01*
X131162083Y-98830208D01*
X131236914Y-98649994D01*
X131237085Y-98454862D01*
X131162568Y-98274517D01*
X131156201Y-98268138D01*
X142574915Y-98268138D01*
X142649432Y-98448483D01*
X142787292Y-98586583D01*
X142967506Y-98661414D01*
X143162638Y-98661585D01*
X143192762Y-98649138D01*
X154258915Y-98649138D01*
X154333432Y-98829483D01*
X154471292Y-98967583D01*
X154651506Y-99042414D01*
X154846638Y-99042585D01*
X155026983Y-98968068D01*
X155165083Y-98830208D01*
X155239914Y-98649994D01*
X155240085Y-98454862D01*
X155165568Y-98274517D01*
X155123938Y-98232814D01*
X155242892Y-98282208D01*
X155438024Y-98282379D01*
X155618369Y-98207862D01*
X155756469Y-98070002D01*
X155831300Y-97889788D01*
X155831302Y-97887138D01*
X156100415Y-97887138D01*
X156174932Y-98067483D01*
X156312792Y-98205583D01*
X156493006Y-98280414D01*
X156688138Y-98280585D01*
X156868483Y-98206068D01*
X157006583Y-98068208D01*
X157029034Y-98014138D01*
X157243415Y-98014138D01*
X157317932Y-98194483D01*
X157455792Y-98332583D01*
X157636006Y-98407414D01*
X157831138Y-98407585D01*
X158011483Y-98333068D01*
X158126865Y-98217887D01*
X158143432Y-98257983D01*
X158281292Y-98396083D01*
X158461506Y-98470914D01*
X158656638Y-98471085D01*
X158836983Y-98396568D01*
X158975083Y-98258708D01*
X159049914Y-98078494D01*
X159050063Y-97908250D01*
X160326492Y-97908250D01*
X160401009Y-98088595D01*
X160538869Y-98226695D01*
X160719083Y-98301526D01*
X160914215Y-98301697D01*
X161094560Y-98227180D01*
X161232660Y-98089320D01*
X161263878Y-98014138D01*
X161624915Y-98014138D01*
X161699432Y-98194483D01*
X161837292Y-98332583D01*
X162017506Y-98407414D01*
X162212638Y-98407585D01*
X162392983Y-98333068D01*
X162531083Y-98195208D01*
X162605914Y-98014994D01*
X162606085Y-97819862D01*
X162531568Y-97639517D01*
X162393708Y-97501417D01*
X162213494Y-97426586D01*
X162018362Y-97426415D01*
X161838017Y-97500932D01*
X161699917Y-97638792D01*
X161625086Y-97819006D01*
X161624915Y-98014138D01*
X161263878Y-98014138D01*
X161307491Y-97909106D01*
X161307662Y-97713974D01*
X161233145Y-97533629D01*
X161095285Y-97395529D01*
X160929873Y-97326844D01*
X171149389Y-97326844D01*
X171246694Y-97562340D01*
X171426712Y-97742673D01*
X171662038Y-97840388D01*
X171916844Y-97840611D01*
X172152340Y-97743306D01*
X172332673Y-97563288D01*
X172430388Y-97327962D01*
X172430611Y-97073156D01*
X172333306Y-96837660D01*
X172153288Y-96657327D01*
X171917962Y-96559612D01*
X171663156Y-96559389D01*
X171427660Y-96656694D01*
X171247327Y-96836712D01*
X171149612Y-97072038D01*
X171149389Y-97326844D01*
X160929873Y-97326844D01*
X160915071Y-97320698D01*
X160719939Y-97320527D01*
X160539594Y-97395044D01*
X160401494Y-97532904D01*
X160326663Y-97713118D01*
X160326492Y-97908250D01*
X159050063Y-97908250D01*
X159050085Y-97883362D01*
X158975568Y-97703017D01*
X158837708Y-97564917D01*
X158657494Y-97490086D01*
X158462362Y-97489915D01*
X158282017Y-97564432D01*
X158166635Y-97679613D01*
X158150068Y-97639517D01*
X158012208Y-97501417D01*
X157831994Y-97426586D01*
X157636862Y-97426415D01*
X157456517Y-97500932D01*
X157318417Y-97638792D01*
X157243586Y-97819006D01*
X157243415Y-98014138D01*
X157029034Y-98014138D01*
X157081414Y-97887994D01*
X157081585Y-97692862D01*
X157007068Y-97512517D01*
X156869208Y-97374417D01*
X156688994Y-97299586D01*
X156493862Y-97299415D01*
X156313517Y-97373932D01*
X156175417Y-97511792D01*
X156100586Y-97692006D01*
X156100415Y-97887138D01*
X155831302Y-97887138D01*
X155831471Y-97694656D01*
X155756954Y-97514311D01*
X155619094Y-97376211D01*
X155438880Y-97301380D01*
X155243748Y-97301209D01*
X155063403Y-97375726D01*
X154925303Y-97513586D01*
X154850472Y-97693800D01*
X154850301Y-97888932D01*
X154924818Y-98069277D01*
X154966448Y-98110980D01*
X154847494Y-98061586D01*
X154652362Y-98061415D01*
X154472017Y-98135932D01*
X154333917Y-98273792D01*
X154259086Y-98454006D01*
X154258915Y-98649138D01*
X143192762Y-98649138D01*
X143342983Y-98587068D01*
X143481083Y-98449208D01*
X143555914Y-98268994D01*
X143556085Y-98073862D01*
X143481568Y-97893517D01*
X143343708Y-97755417D01*
X143244273Y-97714128D01*
X150478285Y-97714128D01*
X150552802Y-97894473D01*
X150690662Y-98032573D01*
X150870876Y-98107404D01*
X151066008Y-98107575D01*
X151246353Y-98033058D01*
X151384453Y-97895198D01*
X151459284Y-97714984D01*
X151459455Y-97519852D01*
X151384938Y-97339507D01*
X151247078Y-97201407D01*
X151066864Y-97126576D01*
X150871732Y-97126405D01*
X150691387Y-97200922D01*
X150553287Y-97338782D01*
X150478456Y-97518996D01*
X150478285Y-97714128D01*
X143244273Y-97714128D01*
X143163494Y-97680586D01*
X142968362Y-97680415D01*
X142788017Y-97754932D01*
X142649917Y-97892792D01*
X142575086Y-98073006D01*
X142574915Y-98268138D01*
X131156201Y-98268138D01*
X131024708Y-98136417D01*
X130844494Y-98061586D01*
X130649362Y-98061415D01*
X130469017Y-98135932D01*
X130330917Y-98273792D01*
X130256086Y-98454006D01*
X130255915Y-98649138D01*
X124611500Y-98649138D01*
X124611500Y-98426107D01*
X124582498Y-98356091D01*
X124528910Y-98302502D01*
X124458893Y-98273500D01*
X123809125Y-98273500D01*
X123761500Y-98321125D01*
X123380500Y-98321125D01*
X123332875Y-98273500D01*
X122683107Y-98273500D01*
X122613090Y-98302502D01*
X122559502Y-98356091D01*
X122530500Y-98426107D01*
X121266600Y-98426107D01*
X121266600Y-97529748D01*
X121486021Y-96426638D01*
X144336913Y-96426638D01*
X144411430Y-96606983D01*
X144549290Y-96745083D01*
X144729504Y-96819914D01*
X144924636Y-96820085D01*
X145104981Y-96745568D01*
X145243081Y-96607708D01*
X145317912Y-96427494D01*
X145318083Y-96232362D01*
X145243566Y-96052017D01*
X145105706Y-95913917D01*
X144925492Y-95839086D01*
X144730360Y-95838915D01*
X144550015Y-95913432D01*
X144411915Y-96051292D01*
X144337084Y-96231506D01*
X144336913Y-96426638D01*
X121486021Y-96426638D01*
X121583685Y-95935651D01*
X139276959Y-95935651D01*
X139351476Y-96115996D01*
X139489336Y-96254096D01*
X139669550Y-96328927D01*
X139864682Y-96329098D01*
X140045027Y-96254581D01*
X140183127Y-96116721D01*
X140257958Y-95936507D01*
X140258129Y-95741375D01*
X140183612Y-95561030D01*
X140045752Y-95422930D01*
X139865538Y-95348099D01*
X139670406Y-95347928D01*
X139490061Y-95422445D01*
X139351961Y-95560305D01*
X139277130Y-95740519D01*
X139276959Y-95935651D01*
X121583685Y-95935651D01*
X121688117Y-95410638D01*
X123080415Y-95410638D01*
X123154932Y-95590983D01*
X123292792Y-95729083D01*
X123473006Y-95803914D01*
X123668138Y-95804085D01*
X123848483Y-95729568D01*
X123986583Y-95591708D01*
X124061414Y-95411494D01*
X124061470Y-95347138D01*
X127588915Y-95347138D01*
X127663432Y-95527483D01*
X127801292Y-95665583D01*
X127981506Y-95740414D01*
X128176638Y-95740585D01*
X128356983Y-95666068D01*
X128495083Y-95528208D01*
X128569914Y-95347994D01*
X128569914Y-95347138D01*
X130192415Y-95347138D01*
X130266932Y-95527483D01*
X130404792Y-95665583D01*
X130585006Y-95740414D01*
X130780138Y-95740585D01*
X130960483Y-95666068D01*
X131098583Y-95528208D01*
X131173414Y-95347994D01*
X131173415Y-95346720D01*
X132668351Y-95346720D01*
X132742868Y-95527065D01*
X132880728Y-95665165D01*
X133060942Y-95739996D01*
X133256074Y-95740167D01*
X133436419Y-95665650D01*
X133574519Y-95527790D01*
X133649350Y-95347576D01*
X133649350Y-95347138D01*
X135335915Y-95347138D01*
X135410432Y-95527483D01*
X135548292Y-95665583D01*
X135728506Y-95740414D01*
X135923638Y-95740585D01*
X136103983Y-95666068D01*
X136242083Y-95528208D01*
X136316914Y-95347994D01*
X136317081Y-95156638D01*
X146448415Y-95156638D01*
X146522932Y-95336983D01*
X146660792Y-95475083D01*
X146841006Y-95549914D01*
X147036138Y-95550085D01*
X147216483Y-95475568D01*
X147354583Y-95337708D01*
X147401345Y-95225091D01*
X147429857Y-95294094D01*
X147567717Y-95432194D01*
X147747931Y-95507025D01*
X147943063Y-95507196D01*
X148123408Y-95432679D01*
X148261508Y-95294819D01*
X148318562Y-95157415D01*
X148977465Y-95157415D01*
X149051982Y-95337760D01*
X149189842Y-95475860D01*
X149370056Y-95550691D01*
X149565188Y-95550862D01*
X149745533Y-95476345D01*
X149811354Y-95410638D01*
X150004415Y-95410638D01*
X150078932Y-95590983D01*
X150216792Y-95729083D01*
X150397006Y-95803914D01*
X150592138Y-95804085D01*
X150772483Y-95729568D01*
X150910583Y-95591708D01*
X150966659Y-95456659D01*
X160291415Y-95456659D01*
X160365932Y-95637004D01*
X160503792Y-95775104D01*
X160684006Y-95849935D01*
X160879138Y-95850106D01*
X161059483Y-95775589D01*
X161197583Y-95637729D01*
X161272414Y-95457515D01*
X161272585Y-95262383D01*
X161198068Y-95082038D01*
X161060208Y-94943938D01*
X160960747Y-94902638D01*
X165942915Y-94902638D01*
X166017432Y-95082983D01*
X166155292Y-95221083D01*
X166335506Y-95295914D01*
X166530638Y-95296085D01*
X166710983Y-95221568D01*
X166776026Y-95156638D01*
X170324415Y-95156638D01*
X170398932Y-95336983D01*
X170536792Y-95475083D01*
X170717006Y-95549914D01*
X170912138Y-95550085D01*
X171092483Y-95475568D01*
X171230583Y-95337708D01*
X171305414Y-95157494D01*
X171305585Y-94962362D01*
X171231068Y-94782017D01*
X171093208Y-94643917D01*
X170912994Y-94569086D01*
X170717862Y-94568915D01*
X170537517Y-94643432D01*
X170399417Y-94781292D01*
X170324586Y-94961506D01*
X170324415Y-95156638D01*
X166776026Y-95156638D01*
X166849083Y-95083708D01*
X166923914Y-94903494D01*
X166924085Y-94708362D01*
X166849568Y-94528017D01*
X166711708Y-94389917D01*
X166531494Y-94315086D01*
X166336362Y-94314915D01*
X166156017Y-94389432D01*
X166017917Y-94527292D01*
X165943086Y-94707506D01*
X165942915Y-94902638D01*
X160960747Y-94902638D01*
X160879994Y-94869107D01*
X160684862Y-94868936D01*
X160504517Y-94943453D01*
X160366417Y-95081313D01*
X160291586Y-95261527D01*
X160291415Y-95456659D01*
X150966659Y-95456659D01*
X150985414Y-95411494D01*
X150985585Y-95216362D01*
X150947009Y-95123000D01*
X155829001Y-95123000D01*
X155853168Y-95244502D01*
X155921994Y-95347506D01*
X156024998Y-95416332D01*
X156146500Y-95440499D01*
X156268002Y-95416332D01*
X156371006Y-95347506D01*
X156498006Y-95220506D01*
X156566832Y-95117502D01*
X156567408Y-95114605D01*
X156591000Y-94996000D01*
X156591000Y-94805500D01*
X156566832Y-94683998D01*
X156498006Y-94580994D01*
X156395002Y-94512168D01*
X156273500Y-94488000D01*
X156151998Y-94512168D01*
X156048994Y-94580994D01*
X155980168Y-94683998D01*
X155956000Y-94805500D01*
X155956000Y-94864488D01*
X155921994Y-94898494D01*
X155853168Y-95001498D01*
X155829001Y-95123000D01*
X150947009Y-95123000D01*
X150911068Y-95036017D01*
X150773208Y-94897917D01*
X150592994Y-94823086D01*
X150397862Y-94822915D01*
X150217517Y-94897432D01*
X150079417Y-95035292D01*
X150004586Y-95215506D01*
X150004415Y-95410638D01*
X149811354Y-95410638D01*
X149883633Y-95338485D01*
X149958464Y-95158271D01*
X149958635Y-94963139D01*
X149884118Y-94782794D01*
X149746258Y-94644694D01*
X149566044Y-94569863D01*
X149370912Y-94569692D01*
X149190567Y-94644209D01*
X149052467Y-94782069D01*
X148977636Y-94962283D01*
X148977465Y-95157415D01*
X148318562Y-95157415D01*
X148336339Y-95114605D01*
X148336510Y-94919473D01*
X148261993Y-94739128D01*
X148124133Y-94601028D01*
X147943919Y-94526197D01*
X147748787Y-94526026D01*
X147568442Y-94600543D01*
X147430342Y-94738403D01*
X147383580Y-94851020D01*
X147355068Y-94782017D01*
X147217208Y-94643917D01*
X147036994Y-94569086D01*
X146841862Y-94568915D01*
X146661517Y-94643432D01*
X146523417Y-94781292D01*
X146448586Y-94961506D01*
X146448415Y-95156638D01*
X136317081Y-95156638D01*
X136317085Y-95152862D01*
X136242568Y-94972517D01*
X136104708Y-94834417D01*
X135924494Y-94759586D01*
X135729362Y-94759415D01*
X135549017Y-94833932D01*
X135410917Y-94971792D01*
X135336086Y-95152006D01*
X135335915Y-95347138D01*
X133649350Y-95347138D01*
X133649521Y-95152444D01*
X133575004Y-94972099D01*
X133437144Y-94833999D01*
X133256930Y-94759168D01*
X133061798Y-94758997D01*
X132881453Y-94833514D01*
X132743353Y-94971374D01*
X132668522Y-95151588D01*
X132668351Y-95346720D01*
X131173415Y-95346720D01*
X131173585Y-95152862D01*
X131099068Y-94972517D01*
X130961208Y-94834417D01*
X130780994Y-94759586D01*
X130585862Y-94759415D01*
X130405517Y-94833932D01*
X130267417Y-94971792D01*
X130192586Y-95152006D01*
X130192415Y-95347138D01*
X128569914Y-95347138D01*
X128570085Y-95152862D01*
X128495568Y-94972517D01*
X128357708Y-94834417D01*
X128177494Y-94759586D01*
X127982362Y-94759415D01*
X127802017Y-94833932D01*
X127663917Y-94971792D01*
X127589086Y-95152006D01*
X127588915Y-95347138D01*
X124061470Y-95347138D01*
X124061585Y-95216362D01*
X123987068Y-95036017D01*
X123849208Y-94897917D01*
X123668994Y-94823086D01*
X123473862Y-94822915D01*
X123293517Y-94897432D01*
X123155417Y-95035292D01*
X123080586Y-95215506D01*
X123080415Y-95410638D01*
X121688117Y-95410638D01*
X122012400Y-93780360D01*
X122659704Y-92811600D01*
X125954868Y-92811600D01*
X125954868Y-94335600D01*
X125968151Y-94406195D01*
X126009873Y-94471032D01*
X126073533Y-94514529D01*
X126149100Y-94529832D01*
X127673100Y-94529832D01*
X127743695Y-94516549D01*
X127808532Y-94474827D01*
X127852029Y-94411167D01*
X127867332Y-94335600D01*
X127867332Y-93762233D01*
X128498435Y-93762233D01*
X128643139Y-94112443D01*
X128910847Y-94380620D01*
X129260805Y-94525935D01*
X129639733Y-94526265D01*
X129989943Y-94381561D01*
X130258120Y-94113853D01*
X130403435Y-93763895D01*
X130403436Y-93762233D01*
X131038435Y-93762233D01*
X131183139Y-94112443D01*
X131450847Y-94380620D01*
X131800805Y-94525935D01*
X132179733Y-94526265D01*
X132529943Y-94381561D01*
X132798120Y-94113853D01*
X132943435Y-93763895D01*
X132943436Y-93762233D01*
X133578435Y-93762233D01*
X133723139Y-94112443D01*
X133990847Y-94380620D01*
X134340805Y-94525935D01*
X134719733Y-94526265D01*
X135069943Y-94381561D01*
X135338120Y-94113853D01*
X135483435Y-93763895D01*
X135483436Y-93762233D01*
X136118435Y-93762233D01*
X136263139Y-94112443D01*
X136530847Y-94380620D01*
X136880805Y-94525935D01*
X137259733Y-94526265D01*
X137609943Y-94381561D01*
X137878120Y-94113853D01*
X138023435Y-93763895D01*
X138023436Y-93762233D01*
X138658435Y-93762233D01*
X138803139Y-94112443D01*
X139070847Y-94380620D01*
X139420805Y-94525935D01*
X139799733Y-94526265D01*
X140149943Y-94381561D01*
X140418120Y-94113853D01*
X140563435Y-93763895D01*
X140563436Y-93762233D01*
X141198435Y-93762233D01*
X141343139Y-94112443D01*
X141610847Y-94380620D01*
X141960805Y-94525935D01*
X142339733Y-94526265D01*
X142689943Y-94381561D01*
X142724265Y-94347299D01*
X144186809Y-94347299D01*
X144285473Y-94455995D01*
X144654028Y-94544053D01*
X145028226Y-94484369D01*
X145096727Y-94455995D01*
X145195391Y-94347299D01*
X144691100Y-93843008D01*
X144186809Y-94347299D01*
X142724265Y-94347299D01*
X142958120Y-94113853D01*
X143103435Y-93763895D01*
X143103633Y-93536528D01*
X143720647Y-93536528D01*
X143780331Y-93910726D01*
X143808705Y-93979227D01*
X143917401Y-94077891D01*
X144421692Y-93573600D01*
X144960508Y-93573600D01*
X145464799Y-94077891D01*
X145573495Y-93979227D01*
X145625340Y-93762233D01*
X146278435Y-93762233D01*
X146423139Y-94112443D01*
X146690847Y-94380620D01*
X147040805Y-94525935D01*
X147419733Y-94526265D01*
X147769943Y-94381561D01*
X148038120Y-94113853D01*
X148183435Y-93763895D01*
X148183436Y-93762233D01*
X148818435Y-93762233D01*
X148963139Y-94112443D01*
X149230847Y-94380620D01*
X149580805Y-94525935D01*
X149959733Y-94526265D01*
X150309943Y-94381561D01*
X150344265Y-94347299D01*
X151806809Y-94347299D01*
X151905473Y-94455995D01*
X152274028Y-94544053D01*
X152648226Y-94484369D01*
X152716727Y-94455995D01*
X152815391Y-94347299D01*
X152311100Y-93843008D01*
X151806809Y-94347299D01*
X150344265Y-94347299D01*
X150578120Y-94113853D01*
X150723435Y-93763895D01*
X150723633Y-93536528D01*
X151340647Y-93536528D01*
X151400331Y-93910726D01*
X151428705Y-93979227D01*
X151537401Y-94077891D01*
X152041692Y-93573600D01*
X152580508Y-93573600D01*
X153084799Y-94077891D01*
X153193495Y-93979227D01*
X153245340Y-93762233D01*
X153898435Y-93762233D01*
X154043139Y-94112443D01*
X154310847Y-94380620D01*
X154660805Y-94525935D01*
X155039733Y-94526265D01*
X155389943Y-94381561D01*
X155658120Y-94113853D01*
X155803435Y-93763895D01*
X155803436Y-93762233D01*
X156438435Y-93762233D01*
X156583139Y-94112443D01*
X156850847Y-94380620D01*
X157200805Y-94525935D01*
X157579733Y-94526265D01*
X157929943Y-94381561D01*
X158198120Y-94113853D01*
X158343435Y-93763895D01*
X158343436Y-93762233D01*
X158978435Y-93762233D01*
X159123139Y-94112443D01*
X159390847Y-94380620D01*
X159740805Y-94525935D01*
X160119733Y-94526265D01*
X160469943Y-94381561D01*
X160738120Y-94113853D01*
X160883435Y-93763895D01*
X160883436Y-93762233D01*
X161518435Y-93762233D01*
X161663139Y-94112443D01*
X161930847Y-94380620D01*
X162280805Y-94525935D01*
X162659733Y-94526265D01*
X163009943Y-94381561D01*
X163278120Y-94113853D01*
X163423435Y-93763895D01*
X163423436Y-93762233D01*
X164058435Y-93762233D01*
X164203139Y-94112443D01*
X164470847Y-94380620D01*
X164820805Y-94525935D01*
X165199733Y-94526265D01*
X165549943Y-94381561D01*
X165818120Y-94113853D01*
X165963435Y-93763895D01*
X165963436Y-93762233D01*
X166598435Y-93762233D01*
X166743139Y-94112443D01*
X167010847Y-94380620D01*
X167360805Y-94525935D01*
X167739733Y-94526265D01*
X168089943Y-94381561D01*
X168358120Y-94113853D01*
X168503435Y-93763895D01*
X168503436Y-93762233D01*
X169138435Y-93762233D01*
X169283139Y-94112443D01*
X169550847Y-94380620D01*
X169900805Y-94525935D01*
X170279733Y-94526265D01*
X170629943Y-94381561D01*
X170898120Y-94113853D01*
X171043435Y-93763895D01*
X171043765Y-93384967D01*
X170899061Y-93034757D01*
X170631353Y-92766580D01*
X170281395Y-92621265D01*
X169902467Y-92620935D01*
X169552257Y-92765639D01*
X169284080Y-93033347D01*
X169138765Y-93383305D01*
X169138435Y-93762233D01*
X168503436Y-93762233D01*
X168503765Y-93384967D01*
X168359061Y-93034757D01*
X168091353Y-92766580D01*
X167741395Y-92621265D01*
X167362467Y-92620935D01*
X167012257Y-92765639D01*
X166744080Y-93033347D01*
X166598765Y-93383305D01*
X166598435Y-93762233D01*
X165963436Y-93762233D01*
X165963765Y-93384967D01*
X165819061Y-93034757D01*
X165551353Y-92766580D01*
X165201395Y-92621265D01*
X164822467Y-92620935D01*
X164472257Y-92765639D01*
X164204080Y-93033347D01*
X164058765Y-93383305D01*
X164058435Y-93762233D01*
X163423436Y-93762233D01*
X163423765Y-93384967D01*
X163279061Y-93034757D01*
X163011353Y-92766580D01*
X162661395Y-92621265D01*
X162282467Y-92620935D01*
X161932257Y-92765639D01*
X161664080Y-93033347D01*
X161518765Y-93383305D01*
X161518435Y-93762233D01*
X160883436Y-93762233D01*
X160883765Y-93384967D01*
X160739061Y-93034757D01*
X160471353Y-92766580D01*
X160121395Y-92621265D01*
X159742467Y-92620935D01*
X159392257Y-92765639D01*
X159124080Y-93033347D01*
X158978765Y-93383305D01*
X158978435Y-93762233D01*
X158343436Y-93762233D01*
X158343765Y-93384967D01*
X158199061Y-93034757D01*
X157931353Y-92766580D01*
X157581395Y-92621265D01*
X157202467Y-92620935D01*
X156852257Y-92765639D01*
X156584080Y-93033347D01*
X156438765Y-93383305D01*
X156438435Y-93762233D01*
X155803436Y-93762233D01*
X155803765Y-93384967D01*
X155659061Y-93034757D01*
X155391353Y-92766580D01*
X155041395Y-92621265D01*
X154662467Y-92620935D01*
X154312257Y-92765639D01*
X154044080Y-93033347D01*
X153898765Y-93383305D01*
X153898435Y-93762233D01*
X153245340Y-93762233D01*
X153281553Y-93610672D01*
X153221869Y-93236474D01*
X153193495Y-93167973D01*
X153084799Y-93069309D01*
X152580508Y-93573600D01*
X152041692Y-93573600D01*
X151537401Y-93069309D01*
X151428705Y-93167973D01*
X151340647Y-93536528D01*
X150723633Y-93536528D01*
X150723765Y-93384967D01*
X150579061Y-93034757D01*
X150344616Y-92799901D01*
X151806809Y-92799901D01*
X152311100Y-93304192D01*
X152815391Y-92799901D01*
X152716727Y-92691205D01*
X152348172Y-92603147D01*
X151973974Y-92662831D01*
X151905473Y-92691205D01*
X151806809Y-92799901D01*
X150344616Y-92799901D01*
X150311353Y-92766580D01*
X149961395Y-92621265D01*
X149582467Y-92620935D01*
X149232257Y-92765639D01*
X148964080Y-93033347D01*
X148818765Y-93383305D01*
X148818435Y-93762233D01*
X148183436Y-93762233D01*
X148183765Y-93384967D01*
X148039061Y-93034757D01*
X147771353Y-92766580D01*
X147421395Y-92621265D01*
X147042467Y-92620935D01*
X146692257Y-92765639D01*
X146424080Y-93033347D01*
X146278765Y-93383305D01*
X146278435Y-93762233D01*
X145625340Y-93762233D01*
X145661553Y-93610672D01*
X145601869Y-93236474D01*
X145573495Y-93167973D01*
X145464799Y-93069309D01*
X144960508Y-93573600D01*
X144421692Y-93573600D01*
X143917401Y-93069309D01*
X143808705Y-93167973D01*
X143720647Y-93536528D01*
X143103633Y-93536528D01*
X143103765Y-93384967D01*
X142959061Y-93034757D01*
X142724616Y-92799901D01*
X144186809Y-92799901D01*
X144691100Y-93304192D01*
X145195391Y-92799901D01*
X145096727Y-92691205D01*
X144728172Y-92603147D01*
X144353974Y-92662831D01*
X144285473Y-92691205D01*
X144186809Y-92799901D01*
X142724616Y-92799901D01*
X142691353Y-92766580D01*
X142341395Y-92621265D01*
X141962467Y-92620935D01*
X141612257Y-92765639D01*
X141344080Y-93033347D01*
X141198765Y-93383305D01*
X141198435Y-93762233D01*
X140563436Y-93762233D01*
X140563765Y-93384967D01*
X140419061Y-93034757D01*
X140151353Y-92766580D01*
X139801395Y-92621265D01*
X139422467Y-92620935D01*
X139072257Y-92765639D01*
X138804080Y-93033347D01*
X138658765Y-93383305D01*
X138658435Y-93762233D01*
X138023436Y-93762233D01*
X138023765Y-93384967D01*
X137879061Y-93034757D01*
X137611353Y-92766580D01*
X137261395Y-92621265D01*
X136882467Y-92620935D01*
X136532257Y-92765639D01*
X136264080Y-93033347D01*
X136118765Y-93383305D01*
X136118435Y-93762233D01*
X135483436Y-93762233D01*
X135483765Y-93384967D01*
X135339061Y-93034757D01*
X135071353Y-92766580D01*
X134721395Y-92621265D01*
X134342467Y-92620935D01*
X133992257Y-92765639D01*
X133724080Y-93033347D01*
X133578765Y-93383305D01*
X133578435Y-93762233D01*
X132943436Y-93762233D01*
X132943765Y-93384967D01*
X132799061Y-93034757D01*
X132531353Y-92766580D01*
X132181395Y-92621265D01*
X131802467Y-92620935D01*
X131452257Y-92765639D01*
X131184080Y-93033347D01*
X131038765Y-93383305D01*
X131038435Y-93762233D01*
X130403436Y-93762233D01*
X130403765Y-93384967D01*
X130259061Y-93034757D01*
X129991353Y-92766580D01*
X129641395Y-92621265D01*
X129262467Y-92620935D01*
X128912257Y-92765639D01*
X128644080Y-93033347D01*
X128498765Y-93383305D01*
X128498435Y-93762233D01*
X127867332Y-93762233D01*
X127867332Y-92811600D01*
X127854049Y-92741005D01*
X127812327Y-92676168D01*
X127748667Y-92632671D01*
X127673100Y-92617368D01*
X126149100Y-92617368D01*
X126078505Y-92630651D01*
X126013668Y-92672373D01*
X125970171Y-92736033D01*
X125954868Y-92811600D01*
X122659704Y-92811600D01*
X123721685Y-91222233D01*
X125958435Y-91222233D01*
X126103139Y-91572443D01*
X126370847Y-91840620D01*
X126720805Y-91985935D01*
X127099733Y-91986265D01*
X127449943Y-91841561D01*
X127718120Y-91573853D01*
X127863435Y-91223895D01*
X127863436Y-91222233D01*
X128498435Y-91222233D01*
X128643139Y-91572443D01*
X128910847Y-91840620D01*
X129260805Y-91985935D01*
X129639733Y-91986265D01*
X129989943Y-91841561D01*
X130258120Y-91573853D01*
X130403435Y-91223895D01*
X130403436Y-91222233D01*
X131038435Y-91222233D01*
X131183139Y-91572443D01*
X131450847Y-91840620D01*
X131800805Y-91985935D01*
X132179733Y-91986265D01*
X132529943Y-91841561D01*
X132798120Y-91573853D01*
X132943435Y-91223895D01*
X132943436Y-91222233D01*
X133578435Y-91222233D01*
X133723139Y-91572443D01*
X133990847Y-91840620D01*
X134340805Y-91985935D01*
X134719733Y-91986265D01*
X135069943Y-91841561D01*
X135338120Y-91573853D01*
X135483435Y-91223895D01*
X135483436Y-91222233D01*
X136118435Y-91222233D01*
X136263139Y-91572443D01*
X136530847Y-91840620D01*
X136880805Y-91985935D01*
X137259733Y-91986265D01*
X137609943Y-91841561D01*
X137878120Y-91573853D01*
X138023435Y-91223895D01*
X138023436Y-91222233D01*
X138658435Y-91222233D01*
X138803139Y-91572443D01*
X139070847Y-91840620D01*
X139420805Y-91985935D01*
X139799733Y-91986265D01*
X140149943Y-91841561D01*
X140418120Y-91573853D01*
X140563435Y-91223895D01*
X140563436Y-91222233D01*
X141198435Y-91222233D01*
X141343139Y-91572443D01*
X141610847Y-91840620D01*
X141960805Y-91985935D01*
X142339733Y-91986265D01*
X142689943Y-91841561D01*
X142958120Y-91573853D01*
X143103435Y-91223895D01*
X143103436Y-91222233D01*
X143738435Y-91222233D01*
X143883139Y-91572443D01*
X144150847Y-91840620D01*
X144500805Y-91985935D01*
X144879733Y-91986265D01*
X145229943Y-91841561D01*
X145498120Y-91573853D01*
X145643435Y-91223895D01*
X145643436Y-91222233D01*
X146278435Y-91222233D01*
X146423139Y-91572443D01*
X146690847Y-91840620D01*
X147040805Y-91985935D01*
X147419733Y-91986265D01*
X147769943Y-91841561D01*
X148038120Y-91573853D01*
X148183435Y-91223895D01*
X148183436Y-91222233D01*
X148818435Y-91222233D01*
X148963139Y-91572443D01*
X149230847Y-91840620D01*
X149580805Y-91985935D01*
X149959733Y-91986265D01*
X150309943Y-91841561D01*
X150578120Y-91573853D01*
X150723435Y-91223895D01*
X150723436Y-91222233D01*
X151358435Y-91222233D01*
X151503139Y-91572443D01*
X151770847Y-91840620D01*
X152120805Y-91985935D01*
X152499733Y-91986265D01*
X152849943Y-91841561D01*
X153118120Y-91573853D01*
X153263435Y-91223895D01*
X153263436Y-91222233D01*
X153898435Y-91222233D01*
X154043139Y-91572443D01*
X154310847Y-91840620D01*
X154660805Y-91985935D01*
X155039733Y-91986265D01*
X155389943Y-91841561D01*
X155658120Y-91573853D01*
X155803435Y-91223895D01*
X155803436Y-91222233D01*
X156438435Y-91222233D01*
X156583139Y-91572443D01*
X156850847Y-91840620D01*
X157200805Y-91985935D01*
X157579733Y-91986265D01*
X157929943Y-91841561D01*
X158198120Y-91573853D01*
X158343435Y-91223895D01*
X158343436Y-91222233D01*
X158978435Y-91222233D01*
X159123139Y-91572443D01*
X159390847Y-91840620D01*
X159740805Y-91985935D01*
X160119733Y-91986265D01*
X160469943Y-91841561D01*
X160738120Y-91573853D01*
X160883435Y-91223895D01*
X160883436Y-91222233D01*
X161518435Y-91222233D01*
X161663139Y-91572443D01*
X161930847Y-91840620D01*
X162280805Y-91985935D01*
X162659733Y-91986265D01*
X163009943Y-91841561D01*
X163278120Y-91573853D01*
X163423435Y-91223895D01*
X163423436Y-91222233D01*
X164058435Y-91222233D01*
X164203139Y-91572443D01*
X164470847Y-91840620D01*
X164820805Y-91985935D01*
X165199733Y-91986265D01*
X165549943Y-91841561D01*
X165818120Y-91573853D01*
X165963435Y-91223895D01*
X165963436Y-91222233D01*
X166598435Y-91222233D01*
X166743139Y-91572443D01*
X167010847Y-91840620D01*
X167360805Y-91985935D01*
X167739733Y-91986265D01*
X168089943Y-91841561D01*
X168358120Y-91573853D01*
X168503435Y-91223895D01*
X168503436Y-91222233D01*
X169138435Y-91222233D01*
X169283139Y-91572443D01*
X169550847Y-91840620D01*
X169900805Y-91985935D01*
X170279733Y-91986265D01*
X170629943Y-91841561D01*
X170898120Y-91573853D01*
X171043435Y-91223895D01*
X171043765Y-90844967D01*
X170899061Y-90494757D01*
X170631353Y-90226580D01*
X170281395Y-90081265D01*
X169902467Y-90080935D01*
X169552257Y-90225639D01*
X169284080Y-90493347D01*
X169138765Y-90843305D01*
X169138435Y-91222233D01*
X168503436Y-91222233D01*
X168503765Y-90844967D01*
X168359061Y-90494757D01*
X168091353Y-90226580D01*
X167741395Y-90081265D01*
X167362467Y-90080935D01*
X167012257Y-90225639D01*
X166744080Y-90493347D01*
X166598765Y-90843305D01*
X166598435Y-91222233D01*
X165963436Y-91222233D01*
X165963765Y-90844967D01*
X165819061Y-90494757D01*
X165551353Y-90226580D01*
X165201395Y-90081265D01*
X164822467Y-90080935D01*
X164472257Y-90225639D01*
X164204080Y-90493347D01*
X164058765Y-90843305D01*
X164058435Y-91222233D01*
X163423436Y-91222233D01*
X163423765Y-90844967D01*
X163279061Y-90494757D01*
X163011353Y-90226580D01*
X162661395Y-90081265D01*
X162282467Y-90080935D01*
X161932257Y-90225639D01*
X161664080Y-90493347D01*
X161518765Y-90843305D01*
X161518435Y-91222233D01*
X160883436Y-91222233D01*
X160883765Y-90844967D01*
X160739061Y-90494757D01*
X160471353Y-90226580D01*
X160121395Y-90081265D01*
X159742467Y-90080935D01*
X159392257Y-90225639D01*
X159124080Y-90493347D01*
X158978765Y-90843305D01*
X158978435Y-91222233D01*
X158343436Y-91222233D01*
X158343765Y-90844967D01*
X158199061Y-90494757D01*
X157931353Y-90226580D01*
X157581395Y-90081265D01*
X157202467Y-90080935D01*
X156852257Y-90225639D01*
X156584080Y-90493347D01*
X156438765Y-90843305D01*
X156438435Y-91222233D01*
X155803436Y-91222233D01*
X155803765Y-90844967D01*
X155659061Y-90494757D01*
X155391353Y-90226580D01*
X155041395Y-90081265D01*
X154662467Y-90080935D01*
X154312257Y-90225639D01*
X154044080Y-90493347D01*
X153898765Y-90843305D01*
X153898435Y-91222233D01*
X153263436Y-91222233D01*
X153263765Y-90844967D01*
X153119061Y-90494757D01*
X152851353Y-90226580D01*
X152501395Y-90081265D01*
X152122467Y-90080935D01*
X151772257Y-90225639D01*
X151504080Y-90493347D01*
X151358765Y-90843305D01*
X151358435Y-91222233D01*
X150723436Y-91222233D01*
X150723765Y-90844967D01*
X150579061Y-90494757D01*
X150311353Y-90226580D01*
X149961395Y-90081265D01*
X149582467Y-90080935D01*
X149232257Y-90225639D01*
X148964080Y-90493347D01*
X148818765Y-90843305D01*
X148818435Y-91222233D01*
X148183436Y-91222233D01*
X148183765Y-90844967D01*
X148039061Y-90494757D01*
X147771353Y-90226580D01*
X147421395Y-90081265D01*
X147042467Y-90080935D01*
X146692257Y-90225639D01*
X146424080Y-90493347D01*
X146278765Y-90843305D01*
X146278435Y-91222233D01*
X145643436Y-91222233D01*
X145643765Y-90844967D01*
X145499061Y-90494757D01*
X145231353Y-90226580D01*
X144881395Y-90081265D01*
X144502467Y-90080935D01*
X144152257Y-90225639D01*
X143884080Y-90493347D01*
X143738765Y-90843305D01*
X143738435Y-91222233D01*
X143103436Y-91222233D01*
X143103765Y-90844967D01*
X142959061Y-90494757D01*
X142691353Y-90226580D01*
X142341395Y-90081265D01*
X141962467Y-90080935D01*
X141612257Y-90225639D01*
X141344080Y-90493347D01*
X141198765Y-90843305D01*
X141198435Y-91222233D01*
X140563436Y-91222233D01*
X140563765Y-90844967D01*
X140419061Y-90494757D01*
X140151353Y-90226580D01*
X139801395Y-90081265D01*
X139422467Y-90080935D01*
X139072257Y-90225639D01*
X138804080Y-90493347D01*
X138658765Y-90843305D01*
X138658435Y-91222233D01*
X138023436Y-91222233D01*
X138023765Y-90844967D01*
X137879061Y-90494757D01*
X137611353Y-90226580D01*
X137261395Y-90081265D01*
X136882467Y-90080935D01*
X136532257Y-90225639D01*
X136264080Y-90493347D01*
X136118765Y-90843305D01*
X136118435Y-91222233D01*
X135483436Y-91222233D01*
X135483765Y-90844967D01*
X135339061Y-90494757D01*
X135071353Y-90226580D01*
X134721395Y-90081265D01*
X134342467Y-90080935D01*
X133992257Y-90225639D01*
X133724080Y-90493347D01*
X133578765Y-90843305D01*
X133578435Y-91222233D01*
X132943436Y-91222233D01*
X132943765Y-90844967D01*
X132799061Y-90494757D01*
X132531353Y-90226580D01*
X132181395Y-90081265D01*
X131802467Y-90080935D01*
X131452257Y-90225639D01*
X131184080Y-90493347D01*
X131038765Y-90843305D01*
X131038435Y-91222233D01*
X130403436Y-91222233D01*
X130403765Y-90844967D01*
X130259061Y-90494757D01*
X129991353Y-90226580D01*
X129641395Y-90081265D01*
X129262467Y-90080935D01*
X128912257Y-90225639D01*
X128644080Y-90493347D01*
X128498765Y-90843305D01*
X128498435Y-91222233D01*
X127863436Y-91222233D01*
X127863765Y-90844967D01*
X127719061Y-90494757D01*
X127451353Y-90226580D01*
X127101395Y-90081265D01*
X126722467Y-90080935D01*
X126372257Y-90225639D01*
X126104080Y-90493347D01*
X125958765Y-90843305D01*
X125958435Y-91222233D01*
X123721685Y-91222233D01*
X124121447Y-90623947D01*
X127277860Y-88514900D01*
X131027252Y-87769100D01*
X165974952Y-87769100D01*
X169724340Y-88514900D01*
M02*
