G04 #@! TF.FileFunction,Copper,L4,Bot,Signal*
%FSLAX46Y46*%
G04 Gerber Fmt 4.6, Leading zero omitted, Abs format (unit mm)*
G04 Created by KiCad (PCBNEW 4.0.7) date Friday, December 01, 2017 'PMt' 04:26:45 PM*
%MOMM*%
%LPD*%
G01*
G04 APERTURE LIST*
%ADD10C,0.100000*%
%ADD11O,0.950000X1.250000*%
%ADD12O,1.550000X1.000000*%
%ADD13R,0.600000X0.500000*%
%ADD14C,0.599440*%
%ADD15R,0.500000X0.900000*%
%ADD16R,1.100000X1.000000*%
%ADD17R,3.000000X1.000000*%
%ADD18R,0.400000X0.600000*%
%ADD19R,0.600000X0.400000*%
%ADD20R,0.500000X0.600000*%
%ADD21R,0.750000X0.800000*%
%ADD22C,1.524000*%
%ADD23R,1.524000X1.524000*%
%ADD24R,2.500000X1.000000*%
%ADD25R,1.700000X1.700000*%
%ADD26O,1.700000X1.700000*%
%ADD27R,1.000000X1.000000*%
%ADD28R,1.100000X0.500000*%
%ADD29R,0.800000X0.750000*%
%ADD30C,0.300000*%
%ADD31R,0.900000X0.800000*%
%ADD32C,0.600000*%
%ADD33C,0.127000*%
%ADD34C,0.254000*%
%ADD35C,0.508000*%
G04 APERTURE END LIST*
D10*
D11*
X126207500Y-107347500D03*
X126207500Y-112347500D03*
D12*
X123507500Y-106347500D03*
X123507500Y-113347500D03*
D13*
X147659000Y-109982000D03*
X148759000Y-109982000D03*
D14*
X165608000Y-103530400D03*
X139420600Y-103568500D03*
X139369800Y-102184200D03*
X139395200Y-106222800D03*
X139509500Y-104787700D03*
X141097000Y-114173000D03*
X142227300Y-114287300D03*
X142621000Y-113487200D03*
X142671800Y-112115600D03*
X143535400Y-112852200D03*
X145046700Y-111671100D03*
X145516600Y-113309400D03*
X144195800Y-114503200D03*
X145491200Y-114350800D03*
X146735800Y-114350800D03*
X148437600Y-114477800D03*
X149783800Y-114427000D03*
X151282400Y-114147600D03*
X151282400Y-113411000D03*
X152323800Y-113995200D03*
X153619200Y-114223800D03*
X152603200Y-113030000D03*
X151206200Y-112420400D03*
X170256200Y-96189800D03*
X172999400Y-97332800D03*
X152527000Y-97815400D03*
X142913100Y-95161100D03*
X143713200Y-95999300D03*
X142900400Y-96659700D03*
X143865600Y-97282000D03*
X142240000Y-101574600D03*
X142138400Y-102971600D03*
X143129000Y-107492800D03*
X143205200Y-102387400D03*
X143230600Y-101244400D03*
X146697700Y-101320600D03*
X147967700Y-101409500D03*
X156895800Y-104724200D03*
X154787600Y-103936800D03*
X154876500Y-107086400D03*
X154914600Y-108153200D03*
X152425400Y-108864400D03*
X151180800Y-107823000D03*
X147447000Y-107721400D03*
X149275800Y-107696000D03*
X149225000Y-105816400D03*
X149199600Y-103454200D03*
X149504400Y-102057200D03*
X149275800Y-101117400D03*
X150558500Y-101371400D03*
X151688800Y-101079300D03*
X153771600Y-101498400D03*
X155117800Y-101574600D03*
X161493200Y-102641400D03*
X166878000Y-103543100D03*
X170434000Y-98806000D03*
X171500800Y-100177600D03*
X171958000Y-103949500D03*
X171958000Y-103949500D03*
X171005500Y-104711500D03*
X169989500Y-105283000D03*
X175450500Y-102997000D03*
X174625000Y-104013000D03*
X174294800Y-97282000D03*
X170332400Y-97434400D03*
X173177200Y-106883200D03*
X175260000Y-105308400D03*
X156464000Y-112166400D03*
X156413200Y-109118400D03*
X154838400Y-112166400D03*
X159781240Y-113421160D03*
X161373820Y-113289080D03*
X160748980Y-114368580D03*
X162814000Y-113233200D03*
X162605720Y-114330480D03*
X164236400Y-114452400D03*
X158191200Y-108813600D03*
X164338000Y-113334800D03*
X166014400Y-101447600D03*
X165712140Y-114218720D03*
X167132000Y-113972340D03*
X160528000Y-101904800D03*
X159613600Y-102565200D03*
X163677600Y-99263200D03*
X165996620Y-112778540D03*
X167304720Y-112796320D03*
X156667200Y-101600000D03*
X168783000Y-113192560D03*
X168910000Y-114350800D03*
X162763200Y-100228400D03*
X162814000Y-102412800D03*
X168986200Y-112141000D03*
X165912800Y-99263200D03*
X170185080Y-113329720D03*
X171424600Y-111302800D03*
X169849800Y-111125000D03*
X171983400Y-112816640D03*
X164134800Y-101498400D03*
X170332400Y-114350800D03*
X170764200Y-112369600D03*
X170891200Y-103276400D03*
X170281600Y-100431600D03*
X171627800Y-114122200D03*
X173045120Y-114427000D03*
X173024800Y-112039400D03*
X173857920Y-113309400D03*
X157530800Y-113436400D03*
X174823120Y-114274600D03*
X157683200Y-114503200D03*
X159270700Y-114482880D03*
X175323500Y-112725200D03*
X174421800Y-111963200D03*
X163906200Y-103974900D03*
X171958000Y-102412800D03*
X155905200Y-113436400D03*
X168808400Y-110286800D03*
X169964100Y-109359700D03*
X156362400Y-114503200D03*
X158750000Y-101650800D03*
X154228800Y-113233200D03*
X172770800Y-110896400D03*
X174371000Y-110871000D03*
X170027600Y-104038400D03*
X175196500Y-108458000D03*
X171856400Y-99110800D03*
X175056800Y-109677200D03*
X173736000Y-109728000D03*
X154838400Y-114350800D03*
X172110400Y-109728000D03*
X170789600Y-110159800D03*
X171297600Y-108508800D03*
X170053000Y-107861100D03*
X154051000Y-102870000D03*
X153098500Y-102870000D03*
X152209500Y-102870000D03*
X151574500Y-104457500D03*
X151384000Y-105346500D03*
X163195000Y-107886500D03*
X162306000Y-107886500D03*
X161353500Y-107886500D03*
D15*
X158762000Y-112204500D03*
X160262000Y-112204500D03*
D16*
X173540000Y-104140000D03*
X173590000Y-101600000D03*
X173540000Y-99060000D03*
X161740000Y-99060000D03*
X161740000Y-101600000D03*
X161740000Y-104140000D03*
D17*
X167640000Y-106900000D03*
X167640000Y-96300000D03*
D18*
X126434000Y-110109000D03*
X125534000Y-110109000D03*
D19*
X141351000Y-98546500D03*
X141351000Y-99446500D03*
X148526500Y-96906500D03*
X148526500Y-96006500D03*
X149542500Y-96006500D03*
X149542500Y-96906500D03*
X147447000Y-96906500D03*
X147447000Y-96006500D03*
D20*
X146558000Y-95991500D03*
X146558000Y-97091500D03*
D18*
X144266500Y-95313500D03*
X145166500Y-95313500D03*
D21*
X138239500Y-110986000D03*
X138239500Y-109486000D03*
D14*
X136525000Y-107061000D03*
X136017000Y-106553000D03*
X135445500Y-107061000D03*
X135445500Y-113284000D03*
X135445500Y-112331500D03*
X135953500Y-112839500D03*
X136461500Y-113284000D03*
X136461500Y-112331500D03*
X132588000Y-109347000D03*
X133223000Y-109728000D03*
X133794500Y-109347000D03*
X141605000Y-107315000D03*
X140589000Y-107315000D03*
X139509500Y-107315000D03*
X139573000Y-108204000D03*
X140589000Y-108204000D03*
X141605000Y-108204000D03*
X141732000Y-110998000D03*
X140970000Y-110998000D03*
X140208000Y-110998000D03*
D22*
X170091100Y-116433600D03*
X170091100Y-118973600D03*
X167551100Y-116433600D03*
X167551100Y-118973600D03*
X165011100Y-116433600D03*
X165011100Y-118973600D03*
X162471100Y-116433600D03*
X162471100Y-118973600D03*
X159931100Y-116433600D03*
X159931100Y-118973600D03*
X157391100Y-116433600D03*
X157391100Y-118973600D03*
X154851100Y-116433600D03*
X154851100Y-118973600D03*
X152311100Y-116433600D03*
X152311100Y-118973600D03*
X149771100Y-116433600D03*
X149771100Y-118973600D03*
X147231100Y-116433600D03*
X147231100Y-118973600D03*
X144691100Y-116433600D03*
X144691100Y-118973600D03*
X142151100Y-116433600D03*
X142151100Y-118973600D03*
X139611100Y-116433600D03*
X139611100Y-118973600D03*
X137071100Y-116433600D03*
X137071100Y-118973600D03*
X134531100Y-116433600D03*
X134531100Y-118973600D03*
X131991100Y-116433600D03*
X131991100Y-118973600D03*
X129451100Y-116433600D03*
X129451100Y-118973600D03*
X126911100Y-116433600D03*
D23*
X126911100Y-118973600D03*
D22*
X170091100Y-91033600D03*
X170091100Y-93573600D03*
X167551100Y-91033600D03*
X167551100Y-93573600D03*
X165011100Y-91033600D03*
X165011100Y-93573600D03*
X162471100Y-91033600D03*
X162471100Y-93573600D03*
X159931100Y-91033600D03*
X159931100Y-93573600D03*
X157391100Y-91033600D03*
X157391100Y-93573600D03*
X154851100Y-91033600D03*
X154851100Y-93573600D03*
X152311100Y-91033600D03*
X152311100Y-93573600D03*
X149771100Y-91033600D03*
X149771100Y-93573600D03*
X147231100Y-91033600D03*
X147231100Y-93573600D03*
X144691100Y-91033600D03*
X144691100Y-93573600D03*
X142151100Y-91033600D03*
X142151100Y-93573600D03*
X139611100Y-91033600D03*
X139611100Y-93573600D03*
X137071100Y-91033600D03*
X137071100Y-93573600D03*
X134531100Y-91033600D03*
X134531100Y-93573600D03*
X131991100Y-91033600D03*
X131991100Y-93573600D03*
X129451100Y-91033600D03*
X129451100Y-93573600D03*
X126911100Y-91033600D03*
D23*
X126911100Y-93573600D03*
D20*
X153035000Y-96266000D03*
X153035000Y-95166000D03*
X153924000Y-96266000D03*
X153924000Y-95166000D03*
X154813000Y-96244500D03*
X154813000Y-95144500D03*
X158623000Y-96710500D03*
X158623000Y-95610500D03*
D21*
X144208500Y-109613000D03*
X144208500Y-111113000D03*
D20*
X157607000Y-96752500D03*
X157607000Y-95652500D03*
X159702500Y-96689000D03*
X159702500Y-95589000D03*
D21*
X142811500Y-109613000D03*
X142811500Y-111113000D03*
D20*
X158305500Y-107780000D03*
X158305500Y-106680000D03*
X157353000Y-107738000D03*
X157353000Y-106638000D03*
X158559500Y-103018500D03*
X158559500Y-104118500D03*
X160718500Y-106468000D03*
X160718500Y-105368000D03*
D24*
X162369500Y-112180500D03*
X162369500Y-109180500D03*
D20*
X167132000Y-110278000D03*
X167132000Y-109178000D03*
X164274500Y-110299500D03*
X164274500Y-109199500D03*
X165227000Y-110299500D03*
X165227000Y-109199500D03*
X166179500Y-110278000D03*
X166179500Y-109178000D03*
D18*
X123830500Y-107696000D03*
X122930500Y-107696000D03*
X123830500Y-110109000D03*
X122930500Y-110109000D03*
X123830500Y-108775500D03*
X122930500Y-108775500D03*
D19*
X159766000Y-105352000D03*
X159766000Y-104452000D03*
X157543500Y-104145500D03*
X157543500Y-103245500D03*
D18*
X148659000Y-108839000D03*
X147759000Y-108839000D03*
D19*
X159258000Y-106611000D03*
X159258000Y-107511000D03*
D25*
X123571000Y-99314000D03*
D26*
X123571000Y-101854000D03*
D18*
X131503000Y-106743500D03*
X132403000Y-106743500D03*
X152146000Y-96266000D03*
X151246000Y-96266000D03*
X124772000Y-104584500D03*
X125672000Y-104584500D03*
D19*
X123507500Y-115506500D03*
X123507500Y-114606500D03*
X141351000Y-96774000D03*
X141351000Y-97674000D03*
X141351000Y-94985000D03*
X141351000Y-95885000D03*
D18*
X156660000Y-96774000D03*
X155760000Y-96774000D03*
X122930500Y-111315500D03*
X123830500Y-111315500D03*
X126439500Y-109029500D03*
X125539500Y-109029500D03*
X143071000Y-120840500D03*
X142171000Y-120840500D03*
D19*
X160337500Y-99118000D03*
X160337500Y-100018000D03*
X158242000Y-99181500D03*
X158242000Y-100081500D03*
X157162500Y-99181500D03*
X157162500Y-100081500D03*
X159258000Y-99181500D03*
X159258000Y-100081500D03*
D18*
X140721500Y-89281000D03*
X139821500Y-89281000D03*
D19*
X147828000Y-113607000D03*
X147828000Y-112707000D03*
X150050500Y-113607000D03*
X150050500Y-112707000D03*
X148971000Y-113607000D03*
X148971000Y-112707000D03*
X146748500Y-113607000D03*
X146748500Y-112707000D03*
D27*
X152606500Y-105219500D03*
D28*
X150206500Y-106624500D03*
X150206500Y-105354500D03*
X150206500Y-104084500D03*
X150206500Y-102814500D03*
X156006500Y-102814500D03*
X156006500Y-104084500D03*
X156006500Y-105354500D03*
X156006500Y-106624500D03*
D27*
X153606500Y-105219500D03*
X152606500Y-104219500D03*
X153606500Y-104219500D03*
D29*
X129147000Y-106616500D03*
X127647000Y-106616500D03*
D24*
X140398500Y-109712500D03*
X140398500Y-112712500D03*
D19*
X131889500Y-95117500D03*
X131889500Y-96017500D03*
X134493000Y-95244500D03*
X134493000Y-96144500D03*
X141287500Y-100388000D03*
X141287500Y-101288000D03*
X129476500Y-95181000D03*
X129476500Y-96081000D03*
X126936500Y-95181000D03*
X126936500Y-96081000D03*
D25*
X140843000Y-103060500D03*
D26*
X140843000Y-105600500D03*
D14*
X139446000Y-110998000D03*
D30*
X135493000Y-110212000D03*
X136493000Y-110712000D03*
X135493000Y-109712000D03*
X135493000Y-110712000D03*
X135493000Y-109212000D03*
X135493000Y-108712000D03*
X135993000Y-108712000D03*
X135993000Y-109212000D03*
X135993000Y-109712000D03*
X135993000Y-110212000D03*
X135993000Y-110712000D03*
X136493000Y-110212000D03*
X136493000Y-109712000D03*
X136493000Y-109212000D03*
X136493000Y-108712000D03*
D31*
X135525000Y-101153000D03*
X135525000Y-99253000D03*
X137525000Y-100203000D03*
X131969000Y-101153000D03*
X131969000Y-99253000D03*
X133969000Y-100203000D03*
X135525000Y-104836000D03*
X135525000Y-102936000D03*
X137525000Y-103886000D03*
X131969000Y-104836000D03*
X131969000Y-102936000D03*
X133969000Y-103886000D03*
X173847000Y-93919000D03*
X173847000Y-95819000D03*
X171847000Y-94869000D03*
X130540000Y-112207000D03*
X130540000Y-114107000D03*
X128540000Y-113157000D03*
D18*
X149860000Y-89190000D03*
X148960000Y-89190000D03*
D32*
X156996475Y-95411212D03*
X155466077Y-95120775D03*
X162814000Y-104140000D03*
X157543500Y-102425500D03*
X124147790Y-116517210D03*
X166115812Y-107826316D03*
X151193500Y-106616500D03*
X157353000Y-108521500D03*
X151892000Y-98425000D03*
X155892500Y-100330000D03*
X142811500Y-108585000D03*
X164274500Y-107759500D03*
X144843500Y-97091500D03*
X137223500Y-99123500D03*
X143764000Y-121077010D03*
X129540000Y-114427000D03*
X161607500Y-106467991D03*
X167068500Y-107827002D03*
X130159801Y-107303861D03*
X165227000Y-107759500D03*
X122936000Y-112268000D03*
X138500000Y-99750000D03*
X130302000Y-98552000D03*
X130365500Y-105156000D03*
X123571000Y-95313500D03*
X130492500Y-103251000D03*
X130556000Y-100965000D03*
X133667500Y-110583500D03*
X137414000Y-111760000D03*
X170434000Y-94742000D03*
X124841000Y-107759500D03*
X174642479Y-100711000D03*
X158750000Y-113220500D03*
X157734000Y-112204500D03*
X139446000Y-114109500D03*
X147845925Y-95016611D03*
X154622500Y-109347000D03*
X152250000Y-111825000D03*
X151193500Y-109029500D03*
X153352500Y-112268000D03*
X165481000Y-111696500D03*
X166560500Y-111696500D03*
X167640000Y-111760000D03*
X174434500Y-103124000D03*
X174688500Y-94742000D03*
X124657553Y-109851890D03*
X124714000Y-109029500D03*
X123761500Y-104457500D03*
X175023490Y-99197813D03*
X156591000Y-97790000D03*
X157734000Y-97917000D03*
X154749500Y-98552000D03*
X155340886Y-97791794D03*
X124525709Y-110749556D03*
X150968870Y-97616990D03*
X138343220Y-115692200D03*
X143011598Y-105168298D03*
X143065500Y-98171000D03*
X138343220Y-114914400D03*
X143011598Y-104390498D03*
X150495000Y-95313500D03*
X166439368Y-94759490D03*
X144827498Y-96329500D03*
X162115500Y-97917000D03*
X161290000Y-95250000D03*
X158559500Y-97980500D03*
X160817077Y-97811112D03*
X149468050Y-95060277D03*
X147828000Y-111823500D03*
X150050500Y-111823500D03*
X148971000Y-111823500D03*
X146748500Y-111823500D03*
X146939000Y-95059500D03*
X130048000Y-108411872D03*
X128016000Y-111379000D03*
X140754101Y-96012000D03*
X140754101Y-97790000D03*
X140754101Y-99568000D03*
X140462000Y-101346000D03*
X131150000Y-105635489D03*
X133725000Y-101450000D03*
X136144000Y-88646000D03*
X133158936Y-95249582D03*
X128079500Y-95250000D03*
X130683000Y-95250000D03*
X135826500Y-95250000D03*
X130810000Y-109982000D03*
D33*
X147759000Y-108839000D02*
X147759000Y-108033400D01*
X147759000Y-108033400D02*
X147447000Y-107721400D01*
X147659000Y-109982000D02*
X147659000Y-108939000D01*
X147659000Y-108939000D02*
X147759000Y-108839000D01*
X173847000Y-95819000D02*
X173847000Y-96834200D01*
X173847000Y-96834200D02*
X174294800Y-97282000D01*
D34*
X156996475Y-95545975D02*
X156996475Y-95411212D01*
X157607000Y-95652500D02*
X157103000Y-95652500D01*
X157103000Y-95652500D02*
X156996475Y-95545975D01*
X155442352Y-95144500D02*
X155466077Y-95120775D01*
X154813000Y-95144500D02*
X155442352Y-95144500D01*
X150206500Y-106624500D02*
X151185500Y-106624500D01*
D33*
X143527490Y-120840500D02*
X143764000Y-121077010D01*
X143071000Y-120840500D02*
X143527490Y-120840500D01*
D34*
X159702500Y-95589000D02*
X158644500Y-95589000D01*
X157649000Y-95610500D02*
X157607000Y-95652500D01*
X158623000Y-95610500D02*
X157649000Y-95610500D01*
X154791500Y-95166000D02*
X154813000Y-95144500D01*
X153924000Y-95166000D02*
X154791500Y-95166000D01*
X159766000Y-104452000D02*
X160320000Y-104452000D01*
X153035000Y-95166000D02*
X153924000Y-95166000D01*
X161740000Y-104140000D02*
X162814000Y-104140000D01*
X160655000Y-104117000D02*
X160678000Y-104140000D01*
X158332500Y-103245500D02*
X158559500Y-103018500D01*
D35*
X123507500Y-115506500D02*
X123507500Y-115876920D01*
D34*
X157543500Y-103245500D02*
X157543500Y-102425500D01*
D35*
X164274500Y-109199500D02*
X164274500Y-107759500D01*
X166179500Y-107890004D02*
X166115812Y-107826316D01*
X167132000Y-107890502D02*
X167068500Y-107827002D01*
X162369500Y-107950000D02*
X162306000Y-107886500D01*
X162369500Y-109180500D02*
X162369500Y-107950000D01*
X162369500Y-108712000D02*
X163195000Y-107886500D01*
X162369500Y-108902500D02*
X161353500Y-107886500D01*
X158574500Y-107511000D02*
X158305500Y-107780000D01*
X159258000Y-107511000D02*
X158574500Y-107511000D01*
X157395000Y-107780000D02*
X157353000Y-107738000D01*
X158305500Y-107780000D02*
X157395000Y-107780000D01*
X157353000Y-107738000D02*
X157353000Y-108521500D01*
D34*
X159321500Y-100018000D02*
X159258000Y-100081500D01*
X157162500Y-100081500D02*
X156141000Y-100081500D01*
D35*
X122930500Y-107696000D02*
X122930500Y-108775500D01*
X122930500Y-111315500D02*
X122930500Y-112262500D01*
X165227000Y-109199500D02*
X165227000Y-107759500D01*
D34*
X151185500Y-106624500D02*
X151193500Y-106616500D01*
D35*
X142811500Y-109613000D02*
X144208500Y-109613000D01*
D34*
X158644500Y-95589000D02*
X158623000Y-95610500D01*
D35*
X122930500Y-110109000D02*
X122930500Y-111315500D01*
D34*
X149542500Y-97360500D02*
X150607000Y-98425000D01*
D35*
X122930500Y-112262500D02*
X122936000Y-112268000D01*
D34*
X160678000Y-104140000D02*
X161740000Y-104140000D01*
X160337500Y-100018000D02*
X159321500Y-100018000D01*
X150607000Y-98425000D02*
X151892000Y-98425000D01*
D35*
X166179500Y-109178000D02*
X166179500Y-107890004D01*
X162369500Y-109180500D02*
X162369500Y-108712000D01*
D34*
X149542500Y-96906500D02*
X149542500Y-97360500D01*
D35*
X167132000Y-109178000D02*
X167132000Y-107890502D01*
X162369500Y-109180500D02*
X162369500Y-108902500D01*
D34*
X158242000Y-100081500D02*
X157162500Y-100081500D01*
X160718500Y-106468000D02*
X161607491Y-106468000D01*
X146558000Y-97091500D02*
X144843500Y-97091500D01*
X160320000Y-104452000D02*
X160655000Y-104117000D01*
D35*
X123507500Y-115876920D02*
X124147790Y-116517210D01*
X122930500Y-108775500D02*
X122930500Y-110109000D01*
D34*
X129860000Y-114107000D02*
X130540000Y-114107000D01*
X129540000Y-114427000D02*
X129860000Y-114107000D01*
X129172000Y-106616500D02*
X129859361Y-107303861D01*
D35*
X142811500Y-109613000D02*
X142811500Y-108585000D01*
D34*
X159258000Y-100081500D02*
X158242000Y-100081500D01*
X129147000Y-106616500D02*
X129172000Y-106616500D01*
X129859361Y-107303861D02*
X130159801Y-107303861D01*
X156141000Y-100081500D02*
X155892500Y-100330000D01*
X157543500Y-103245500D02*
X158332500Y-103245500D01*
X161607491Y-106468000D02*
X161607500Y-106467991D01*
D35*
X134531100Y-118973600D02*
X133350000Y-117792500D01*
X133350000Y-117792500D02*
X124244100Y-117792500D01*
X122110500Y-105981500D02*
X122745500Y-105346500D01*
X122745500Y-105346500D02*
X125412500Y-105346500D01*
X124244100Y-117792500D02*
X122110500Y-115658900D01*
X122110500Y-115658900D02*
X122110500Y-105981500D01*
X125412500Y-105346500D02*
X125672000Y-105087000D01*
X125672000Y-105087000D02*
X125672000Y-104584500D01*
D34*
X133969000Y-103886000D02*
X128411000Y-103886000D01*
X128411000Y-103886000D02*
X125950000Y-101425000D01*
X125950000Y-101425000D02*
X125950000Y-95350000D01*
X125950000Y-95350000D02*
X126119000Y-95181000D01*
X126119000Y-95181000D02*
X126936500Y-95181000D01*
X126936500Y-95181000D02*
X126936500Y-93599000D01*
X126936500Y-93599000D02*
X126911100Y-93573600D01*
X137525000Y-103886000D02*
X137475000Y-103886000D01*
X129612702Y-105850000D02*
X129600000Y-105850000D01*
X125500000Y-101749999D02*
X125500000Y-93003498D01*
X137475000Y-103886000D02*
X136821000Y-104540000D01*
X136821000Y-104540000D02*
X136821000Y-104847202D01*
X135478703Y-106189499D02*
X129952201Y-106189499D01*
X136821000Y-104847202D02*
X135478703Y-106189499D01*
X129952201Y-106189499D02*
X129612702Y-105850000D01*
X126203498Y-92300000D02*
X128800000Y-92300000D01*
X129600000Y-105850000D02*
X125500000Y-101749999D01*
X125500000Y-93003498D02*
X126203498Y-92300000D01*
X128800000Y-92300000D02*
X129451100Y-92951100D01*
X129451100Y-92951100D02*
X129451100Y-93573600D01*
X129451100Y-93573600D02*
X129451100Y-95155600D01*
X129451100Y-95155600D02*
X129476500Y-95181000D01*
X137525000Y-100203000D02*
X138047000Y-100203000D01*
X138047000Y-100203000D02*
X138500000Y-99750000D01*
X131789500Y-95117500D02*
X131889500Y-95117500D01*
X131991100Y-93573600D02*
X131991100Y-95015900D01*
X131991100Y-95015900D02*
X131889500Y-95117500D01*
X133575000Y-96700000D02*
X133575000Y-96062500D01*
X133575000Y-96062500D02*
X134393000Y-95244500D01*
X134393000Y-95244500D02*
X134493000Y-95244500D01*
X133200000Y-97075000D02*
X133575000Y-96700000D01*
X132475000Y-97075000D02*
X133200000Y-97075000D01*
X130975000Y-98575000D02*
X132475000Y-97075000D01*
X130975000Y-99950000D02*
X130975000Y-98575000D01*
X131228000Y-100203000D02*
X130975000Y-99950000D01*
X133969000Y-100203000D02*
X131228000Y-100203000D01*
D33*
X134531100Y-93573600D02*
X134531100Y-95206400D01*
X134531100Y-95206400D02*
X134493000Y-95244500D01*
X142151100Y-118973600D02*
X142151100Y-120820600D01*
X142151100Y-120820600D02*
X142171000Y-120840500D01*
D34*
X139821500Y-89281000D02*
X127160018Y-89281000D01*
X127160018Y-89281000D02*
X123571000Y-92870018D01*
X123571000Y-92870018D02*
X123571000Y-95313500D01*
D33*
X170434000Y-94996000D02*
X170434000Y-94742000D01*
X170074511Y-95355489D02*
X170434000Y-94996000D01*
X162770713Y-95355489D02*
X170074511Y-95355489D01*
X160676785Y-94487991D02*
X161903215Y-94487991D01*
X160638673Y-94526103D02*
X160676785Y-94487991D01*
X156574672Y-94526103D02*
X160638673Y-94526103D01*
X155956000Y-95144775D02*
X156574672Y-94526103D01*
X155956000Y-95478500D02*
X155956000Y-95144775D01*
X155190000Y-96244500D02*
X155956000Y-95478500D01*
X154813000Y-96244500D02*
X155190000Y-96244500D01*
X161903215Y-94487991D02*
X162770713Y-95355489D01*
X153035000Y-96266000D02*
X152146000Y-96266000D01*
X153924000Y-96266000D02*
X153035000Y-96266000D01*
X154813000Y-96244500D02*
X153945500Y-96244500D01*
X153945500Y-96244500D02*
X153924000Y-96266000D01*
D34*
X127672000Y-106616500D02*
X127647000Y-106616500D01*
X130488638Y-107857862D02*
X128913362Y-107857862D01*
X128913362Y-107857862D02*
X127672000Y-106616500D01*
X131503000Y-106743500D02*
X131503000Y-106843500D01*
X131503000Y-106843500D02*
X130488638Y-107857862D01*
D35*
X126682500Y-106299000D02*
X127000000Y-106616500D01*
X127000000Y-106616500D02*
X127647000Y-106616500D01*
X125666500Y-106299000D02*
X126682500Y-106299000D01*
X125140999Y-106824501D02*
X125666500Y-106299000D01*
X124841000Y-107759500D02*
X125140999Y-107459501D01*
X125140999Y-107459501D02*
X125140999Y-106824501D01*
X124841000Y-107759500D02*
X123894000Y-107759500D01*
X123894000Y-107759500D02*
X123830500Y-107696000D01*
X144208500Y-111113000D02*
X142811500Y-111113000D01*
X141732000Y-110998000D02*
X142696500Y-110998000D01*
X142696500Y-110998000D02*
X142811500Y-111113000D01*
X158762000Y-112204500D02*
X158762000Y-113208500D01*
X158762000Y-113208500D02*
X158750000Y-113220500D01*
X158762000Y-112204500D02*
X157734000Y-112204500D01*
D33*
X173847000Y-93919000D02*
X171257000Y-93919000D01*
X160528000Y-94996000D02*
X160528000Y-96240500D01*
X160079500Y-96689000D02*
X159702500Y-96689000D01*
X171257000Y-93919000D02*
X170942000Y-94234000D01*
X170942000Y-94234000D02*
X170942000Y-95250000D01*
X170942000Y-95250000D02*
X170582501Y-95609499D01*
X170582501Y-95609499D02*
X162375441Y-95609499D01*
X162375441Y-95609499D02*
X161525441Y-94759499D01*
X161525441Y-94759499D02*
X161054559Y-94759499D01*
X161054559Y-94759499D02*
X160818058Y-94996000D01*
X160818058Y-94996000D02*
X160528000Y-94996000D01*
X160528000Y-96240500D02*
X160079500Y-96689000D01*
X156210000Y-95504000D02*
X156718000Y-94996000D01*
X156210000Y-96224000D02*
X156210000Y-95504000D01*
X156660000Y-96674000D02*
X156210000Y-96224000D01*
X156660000Y-96674000D02*
X156660000Y-96774000D01*
X156660000Y-96774000D02*
X157585500Y-96774000D01*
X157585500Y-96774000D02*
X157607000Y-96752500D01*
X158623000Y-96710500D02*
X159681000Y-96710500D01*
X159681000Y-96710500D02*
X159702500Y-96689000D01*
X157607000Y-96752500D02*
X158581000Y-96752500D01*
X158581000Y-96752500D02*
X158623000Y-96710500D01*
X147545926Y-95316610D02*
X147845925Y-95016611D01*
X147447000Y-95415536D02*
X147545926Y-95316610D01*
X147447000Y-96006500D02*
X147447000Y-95415536D01*
X146558000Y-95991500D02*
X147432000Y-95991500D01*
X147432000Y-95991500D02*
X147447000Y-96006500D01*
D34*
X159258000Y-106611000D02*
X159812000Y-106611000D01*
X173490000Y-104140000D02*
X173540000Y-104140000D01*
X159812000Y-106611000D02*
X160223001Y-107022001D01*
X171635800Y-105994200D02*
X173490000Y-104140000D01*
X160223001Y-107022001D02*
X164300799Y-107022001D01*
X164300799Y-107022001D02*
X165328600Y-105994200D01*
X165328600Y-105994200D02*
X171635800Y-105994200D01*
X173540000Y-103386000D02*
X173540000Y-104140000D01*
X173540000Y-103198576D02*
X173540000Y-103386000D01*
X175196489Y-101542087D02*
X173540000Y-103198576D01*
X175196489Y-100260913D02*
X175196489Y-101542087D01*
X174469488Y-99533912D02*
X175196489Y-100260913D01*
X166036500Y-98107500D02*
X174094702Y-98107500D01*
X174094702Y-98107500D02*
X174469488Y-98482286D01*
X162544000Y-101600000D02*
X166036500Y-98107500D01*
X161740000Y-101600000D02*
X162544000Y-101600000D01*
X174469488Y-98482286D02*
X174469488Y-99533912D01*
X159358000Y-106611000D02*
X159258000Y-106611000D01*
X157353000Y-106638000D02*
X158263500Y-106638000D01*
X158263500Y-106638000D02*
X158305500Y-106680000D01*
X159258000Y-106611000D02*
X158374500Y-106611000D01*
X158374500Y-106611000D02*
X158305500Y-106680000D01*
X154622500Y-109347000D02*
X156006500Y-107963000D01*
X156006500Y-107963000D02*
X156006500Y-106624500D01*
X157353000Y-106638000D02*
X156020000Y-106638000D01*
X156020000Y-106638000D02*
X156006500Y-106624500D01*
X151732000Y-109982000D02*
X152250000Y-110500000D01*
X152250000Y-110500000D02*
X152250000Y-111825000D01*
X148759000Y-109982000D02*
X151732000Y-109982000D01*
X148659000Y-108839000D02*
X148659000Y-109882000D01*
X148659000Y-109882000D02*
X148759000Y-109982000D01*
X148600000Y-104887000D02*
X148659000Y-104946000D01*
X148659000Y-104946000D02*
X148659000Y-108839000D01*
X150206500Y-104084500D02*
X149402500Y-104084500D01*
X149402500Y-104084500D02*
X148600000Y-104887000D01*
X161740000Y-99814000D02*
X161740000Y-99060000D01*
X150198500Y-104076500D02*
X150206500Y-104084500D01*
X150206500Y-104084500D02*
X151122000Y-104084500D01*
X151122000Y-104084500D02*
X151511000Y-103695500D01*
X151511000Y-103695500D02*
X151511000Y-102362000D01*
X151511000Y-102362000D02*
X152971500Y-100901500D01*
X152971500Y-100901500D02*
X160652500Y-100901500D01*
X160652500Y-100901500D02*
X161740000Y-99814000D01*
X170878500Y-100901500D02*
X169176700Y-102603300D01*
X163288979Y-103195121D02*
X163880800Y-102603300D01*
X163880800Y-102603300D02*
X169176700Y-102603300D01*
X159994500Y-103187500D02*
X160002121Y-103195121D01*
X160002121Y-103195121D02*
X163288979Y-103195121D01*
X159063500Y-104118500D02*
X158559500Y-104118500D01*
X159994500Y-103187500D02*
X159063500Y-104118500D01*
X172452500Y-100901500D02*
X170878500Y-100901500D01*
X173540000Y-99060000D02*
X173540000Y-99814000D01*
X173540000Y-99814000D02*
X172452500Y-100901500D01*
X158559500Y-104118500D02*
X157570500Y-104118500D01*
X157570500Y-104118500D02*
X157543500Y-104145500D01*
X154178000Y-106235500D02*
X154749500Y-105664000D01*
X154749500Y-105664000D02*
X154749500Y-105041500D01*
X152717500Y-106235500D02*
X154178000Y-106235500D01*
X152146000Y-106807000D02*
X152717500Y-106235500D01*
X152146000Y-108077000D02*
X152146000Y-106807000D01*
X151193500Y-109029500D02*
X152146000Y-108077000D01*
X154749500Y-105041500D02*
X155706500Y-104084500D01*
X155706500Y-104084500D02*
X156006500Y-104084500D01*
X157543500Y-104145500D02*
X156067500Y-104145500D01*
X156067500Y-104145500D02*
X156006500Y-104084500D01*
X153352500Y-107708500D02*
X153352500Y-112268000D01*
X167237500Y-105368000D02*
X171005500Y-101600000D01*
X171005500Y-101600000D02*
X173590000Y-101600000D01*
X160718500Y-105368000D02*
X167237500Y-105368000D01*
X160718500Y-105368000D02*
X159782000Y-105368000D01*
X159782000Y-105368000D02*
X159766000Y-105352000D01*
X156006500Y-105354500D02*
X155706500Y-105354500D01*
X155706500Y-105354500D02*
X153352500Y-107708500D01*
X159766000Y-105352000D02*
X156009000Y-105352000D01*
X156009000Y-105352000D02*
X156006500Y-105354500D01*
D35*
X160262000Y-112204500D02*
X162345500Y-112204500D01*
X162345500Y-112204500D02*
X162369500Y-112180500D01*
X162369500Y-112180500D02*
X163092000Y-112180500D01*
X162369500Y-112180500D02*
X164997000Y-112180500D01*
X164997000Y-112180500D02*
X165481000Y-111696500D01*
X166560500Y-111696500D02*
X167576500Y-111696500D01*
X167576500Y-111696500D02*
X167640000Y-111760000D01*
X165481000Y-111696500D02*
X166560500Y-111696500D01*
X164274500Y-110299500D02*
X164274500Y-111442500D01*
X164274500Y-111442500D02*
X164528500Y-111696500D01*
X164528500Y-111696500D02*
X165481000Y-111696500D01*
X165227000Y-110299500D02*
X165227000Y-111442500D01*
X165227000Y-111442500D02*
X165481000Y-111696500D01*
X166560500Y-111061500D02*
X166179500Y-110680500D01*
X166179500Y-110680500D02*
X166179500Y-110278000D01*
X166560500Y-111696500D02*
X166560500Y-111061500D01*
X167237500Y-110278000D02*
X167640000Y-110680500D01*
X167640000Y-110680500D02*
X167640000Y-111760000D01*
X167132000Y-110278000D02*
X167237500Y-110278000D01*
D33*
X175514000Y-102044500D02*
X174434500Y-103124000D01*
X175514000Y-95567500D02*
X175514000Y-102044500D01*
X174988499Y-95041999D02*
X175514000Y-95567500D01*
X174688500Y-94742000D02*
X174988499Y-95041999D01*
D35*
X124657553Y-109940553D02*
X124657553Y-109851890D01*
X124233289Y-109851890D02*
X124657553Y-109851890D01*
X123830500Y-110109000D02*
X124087610Y-109851890D01*
X125534000Y-110109000D02*
X124826000Y-110109000D01*
X124087610Y-109851890D02*
X124233289Y-109851890D01*
X124826000Y-110109000D02*
X124657553Y-109940553D01*
X124650500Y-109029500D02*
X124650500Y-108887500D01*
X124650500Y-108887500D02*
X124538500Y-108775500D01*
X124538500Y-108775500D02*
X123830500Y-108775500D01*
X124714000Y-109029500D02*
X124650500Y-109029500D01*
X125539500Y-109029500D02*
X124714000Y-109029500D01*
X123761500Y-104457500D02*
X124645000Y-104457500D01*
X124645000Y-104457500D02*
X124772000Y-104584500D01*
D33*
X175023490Y-98773549D02*
X175023490Y-99197813D01*
X175023490Y-95802588D02*
X175023490Y-98773549D01*
X174449401Y-95228499D02*
X175023490Y-95802588D01*
X173682445Y-95228499D02*
X174449401Y-95228499D01*
X172959444Y-94505498D02*
X173682445Y-95228499D01*
X171847000Y-94996000D02*
X172337502Y-94505498D01*
X172337502Y-94505498D02*
X172959444Y-94505498D01*
D34*
X141351000Y-98546500D02*
X140467500Y-98546500D01*
X131969000Y-102346000D02*
X131969000Y-102936000D01*
X132207000Y-102108000D02*
X131969000Y-102346000D01*
X137668000Y-102108000D02*
X132207000Y-102108000D01*
X140081000Y-99695000D02*
X137668000Y-102108000D01*
X140081000Y-98933000D02*
X140081000Y-99695000D01*
X140467500Y-98546500D02*
X140081000Y-98933000D01*
X141351000Y-98546500D02*
X141102500Y-98546500D01*
D33*
X141351000Y-98580990D02*
X142892045Y-100122035D01*
X156291001Y-98089999D02*
X156591000Y-97790000D01*
X156291001Y-98493467D02*
X156291001Y-98089999D01*
X154662433Y-100122035D02*
X156291001Y-98493467D01*
X142892045Y-100122035D02*
X154662433Y-100122035D01*
D34*
X141351000Y-98546500D02*
X141351000Y-98580990D01*
X141301000Y-98496500D02*
X141351000Y-98546500D01*
X141287500Y-100388000D02*
X140023000Y-100388000D01*
X137983000Y-102936000D02*
X135525000Y-102936000D01*
X138430000Y-102489000D02*
X137983000Y-102936000D01*
D33*
X157434001Y-98216999D02*
X157734000Y-97917000D01*
X141956546Y-100503046D02*
X154820252Y-100503046D01*
X141287500Y-100388000D02*
X141841500Y-100388000D01*
X157106299Y-98216999D02*
X157434001Y-98216999D01*
X141841500Y-100388000D02*
X141956546Y-100503046D01*
X154820252Y-100503046D02*
X157106299Y-98216999D01*
D34*
X141174000Y-100274500D02*
X141287500Y-100388000D01*
X138430000Y-101981000D02*
X138430000Y-102489000D01*
X140023000Y-100388000D02*
X138430000Y-101981000D01*
X132673000Y-99253000D02*
X131969000Y-99253000D01*
X136941000Y-94985000D02*
X132673000Y-99253000D01*
X141351000Y-94985000D02*
X136941000Y-94985000D01*
D33*
X154749500Y-98552000D02*
X153941487Y-99360013D01*
X153941487Y-99360013D02*
X143207683Y-99360013D01*
X141998700Y-95689798D02*
X141998700Y-95135700D01*
X143207683Y-99360013D02*
X142493991Y-98646321D01*
X142493991Y-98646321D02*
X142474021Y-98646321D01*
X142240000Y-95931098D02*
X141998700Y-95689798D01*
X142474021Y-98646321D02*
X142240000Y-98412300D01*
X142240000Y-98412300D02*
X142240000Y-95931098D01*
X141998700Y-95135700D02*
X141848000Y-94985000D01*
X141848000Y-94985000D02*
X141351000Y-94985000D01*
D34*
X141351000Y-94985000D02*
X141451000Y-94985000D01*
D33*
X141243000Y-94877000D02*
X141351000Y-94985000D01*
D34*
X140797000Y-96774000D02*
X141351000Y-96774000D01*
X138054000Y-96774000D02*
X140797000Y-96774000D01*
X135575000Y-99253000D02*
X138054000Y-96774000D01*
X135525000Y-99253000D02*
X135575000Y-99253000D01*
D33*
X141905000Y-98596160D02*
X143049864Y-99741024D01*
X141905000Y-97228000D02*
X141905000Y-98596160D01*
X155340886Y-98216058D02*
X155340886Y-97791794D01*
X155340886Y-98780538D02*
X155340886Y-98216058D01*
X143049864Y-99741024D02*
X154380400Y-99741024D01*
X141451000Y-96774000D02*
X141905000Y-97228000D01*
D34*
X141351000Y-96774000D02*
X141451000Y-96774000D01*
D33*
X154380400Y-99741024D02*
X155340886Y-98780538D01*
D34*
X141287500Y-96710500D02*
X141351000Y-96774000D01*
D35*
X123959765Y-111315500D02*
X124225710Y-111049555D01*
X123830500Y-111315500D02*
X123959765Y-111315500D01*
X124225710Y-111049555D02*
X124525709Y-110749556D01*
D33*
X126207500Y-112497500D02*
X125357500Y-113347500D01*
X125357500Y-113347500D02*
X123507500Y-113347500D01*
D35*
X123507500Y-114606500D02*
X123507500Y-113347500D01*
D34*
X126207500Y-112497500D02*
X126207500Y-112347500D01*
D33*
X151246000Y-97339860D02*
X150968870Y-97616990D01*
X151246000Y-96266000D02*
X151246000Y-97339860D01*
X127127000Y-113563026D02*
X127127000Y-110148052D01*
X127127000Y-110148052D02*
X127087948Y-110109000D01*
X127087948Y-110109000D02*
X126434000Y-110109000D01*
X129019673Y-115455699D02*
X127127000Y-113563026D01*
X138343220Y-115692200D02*
X138106719Y-115455699D01*
X138106719Y-115455699D02*
X129019673Y-115455699D01*
X143490555Y-106697788D02*
X143924012Y-107131245D01*
X138579721Y-115455699D02*
X138343220Y-115692200D01*
X143011598Y-105168298D02*
X142775097Y-104931797D01*
X143924012Y-107131245D02*
X143924012Y-107183286D01*
X142775097Y-104931797D02*
X142651701Y-104931797D01*
X142651701Y-104931797D02*
X142544800Y-105038698D01*
X142544800Y-105038698D02*
X142544800Y-105804074D01*
X142544800Y-105804074D02*
X143438514Y-106697788D01*
X143438514Y-106697788D02*
X143490555Y-106697788D01*
X143924012Y-107183286D02*
X146024600Y-109283874D01*
X146024600Y-109283874D02*
X146024600Y-111932728D01*
X146024600Y-111932728D02*
X142501627Y-115455699D01*
X142501627Y-115455699D02*
X138579721Y-115455699D01*
X143873502Y-98979002D02*
X143365499Y-98470999D01*
X153100998Y-98979002D02*
X143873502Y-98979002D01*
X155306000Y-96774000D02*
X153100998Y-98979002D01*
X143365499Y-98470999D02*
X143065500Y-98171000D01*
D34*
X155760000Y-96774000D02*
X155306000Y-96774000D01*
D33*
X138579721Y-115150901D02*
X138343220Y-114914400D01*
X145719800Y-111806476D02*
X142375375Y-115150901D01*
X145719800Y-109410126D02*
X145719800Y-111806476D01*
X143619221Y-107309547D02*
X145719800Y-109410126D01*
X143312253Y-107002579D02*
X143364307Y-107002579D01*
X142240000Y-105930326D02*
X143312253Y-107002579D01*
X142525447Y-104626999D02*
X142240000Y-104912446D01*
X143364307Y-107002579D02*
X143619221Y-107257493D01*
X142375375Y-115150901D02*
X138579721Y-115150901D01*
X142775097Y-104626999D02*
X142525447Y-104626999D01*
X142240000Y-104912446D02*
X142240000Y-105930326D01*
X143011598Y-104390498D02*
X142775097Y-104626999D01*
X138106719Y-115150901D02*
X129145927Y-115150901D01*
X143619221Y-107257493D02*
X143619221Y-107309547D01*
X127431800Y-113436774D02*
X127431800Y-110021800D01*
X138343220Y-114914400D02*
X138106719Y-115150901D01*
X127431800Y-110021800D02*
X127303474Y-109893474D01*
X127303474Y-109893474D02*
X126439500Y-109029500D01*
X129145927Y-115150901D02*
X127431800Y-113436774D01*
X149845000Y-95377000D02*
X150431500Y-95377000D01*
X150431500Y-95377000D02*
X150495000Y-95313500D01*
X149542500Y-96006500D02*
X149542500Y-95679500D01*
X149542500Y-95679500D02*
X149845000Y-95377000D01*
X148526500Y-96006500D02*
X149542500Y-96006500D01*
X147421499Y-96482001D02*
X147447000Y-96507502D01*
X147447000Y-96507502D02*
X147447000Y-96906500D01*
X144827498Y-96329500D02*
X145251762Y-96329500D01*
X145251762Y-96329500D02*
X145404263Y-96482001D01*
X145404263Y-96482001D02*
X147421499Y-96482001D01*
D34*
X147447000Y-96906500D02*
X148526500Y-96906500D01*
D33*
X161159387Y-98301613D02*
X161544000Y-97917000D01*
X161544000Y-97917000D02*
X162115500Y-97917000D01*
X160337500Y-99181500D02*
X160337500Y-98854500D01*
X160337500Y-98854500D02*
X160890387Y-98301613D01*
X160890387Y-98301613D02*
X161159387Y-98301613D01*
X161290000Y-95674264D02*
X161290000Y-95250000D01*
X158342000Y-99181500D02*
X161290000Y-96233500D01*
X161290000Y-96233500D02*
X161290000Y-95674264D01*
X158242000Y-99181500D02*
X158342000Y-99181500D01*
X158559500Y-97980500D02*
X157924500Y-98615500D01*
X157924500Y-98615500D02*
X157401500Y-98615500D01*
X157401500Y-98615500D02*
X157162500Y-98854500D01*
X157162500Y-98854500D02*
X157162500Y-99181500D01*
X159825889Y-98111111D02*
X159258000Y-98679000D01*
X159258000Y-98679000D02*
X159258000Y-99181500D01*
X160817077Y-97811112D02*
X160517078Y-98111111D01*
X160517078Y-98111111D02*
X159825889Y-98111111D01*
X160760888Y-97811112D02*
X160817077Y-97811112D01*
D34*
X148526500Y-94118727D02*
X149168051Y-94760278D01*
X149168051Y-94760278D02*
X149468050Y-95060277D01*
X147536182Y-89835000D02*
X148526500Y-90825318D01*
X141729500Y-89835000D02*
X147536182Y-89835000D01*
X141175500Y-89281000D02*
X141729500Y-89835000D01*
X140721500Y-89281000D02*
X141175500Y-89281000D01*
X148526500Y-90825318D02*
X148526500Y-94118727D01*
X147828000Y-111823500D02*
X147828000Y-112707000D01*
X150050500Y-111823500D02*
X150050500Y-112707000D01*
X148971000Y-111823500D02*
X148971000Y-112707000D01*
X146748500Y-111823500D02*
X146748500Y-112707000D01*
X145620500Y-95313500D02*
X146685000Y-95313500D01*
X146685000Y-95313500D02*
X146939000Y-95059500D01*
X145166500Y-95313500D02*
X145620500Y-95313500D01*
X130472264Y-108411872D02*
X130048000Y-108411872D01*
X130834628Y-108411872D02*
X130472264Y-108411872D01*
X132403000Y-106743500D02*
X132403000Y-106843500D01*
X132403000Y-106843500D02*
X130834628Y-108411872D01*
X128016000Y-111379000D02*
X127762000Y-111633000D01*
X127762000Y-111633000D02*
X127762000Y-112903000D01*
X127762000Y-112903000D02*
X128016000Y-113157000D01*
X128016000Y-113157000D02*
X128540000Y-113157000D01*
X141351000Y-95885000D02*
X140881101Y-95885000D01*
X140881101Y-95885000D02*
X140754101Y-96012000D01*
X141351000Y-97674000D02*
X140870101Y-97674000D01*
X140870101Y-97674000D02*
X140754101Y-97790000D01*
X141351000Y-99446500D02*
X140875601Y-99446500D01*
X140875601Y-99446500D02*
X140754101Y-99568000D01*
X141287500Y-101288000D02*
X140520000Y-101288000D01*
X140520000Y-101288000D02*
X140462000Y-101346000D01*
X131919000Y-104836000D02*
X131150000Y-105605000D01*
X131969000Y-104836000D02*
X131919000Y-104836000D01*
X131150000Y-105605000D02*
X131150000Y-105635489D01*
X131969000Y-104836000D02*
X135525000Y-104836000D01*
X134599999Y-101150001D02*
X134602998Y-101153000D01*
X134602998Y-101153000D02*
X135525000Y-101153000D01*
X133725000Y-101450000D02*
X134024999Y-101150001D01*
X134024999Y-101150001D02*
X134599999Y-101150001D01*
X131969000Y-101153000D02*
X133428000Y-101153000D01*
X133428000Y-101153000D02*
X133725000Y-101450000D01*
X141274000Y-101274500D02*
X141287500Y-101288000D01*
X141301000Y-99496500D02*
X141351000Y-99446500D01*
X141314500Y-97710500D02*
X141351000Y-97674000D01*
X141343000Y-95877000D02*
X141351000Y-95885000D01*
D35*
X142530000Y-89190000D02*
X141939999Y-88599999D01*
X136190001Y-88599999D02*
X136144000Y-88646000D01*
X141939999Y-88599999D02*
X136190001Y-88599999D01*
X148960000Y-89190000D02*
X142530000Y-89190000D01*
X132858937Y-95549581D02*
X133158936Y-95249582D01*
X131889500Y-96017500D02*
X132697500Y-96017500D01*
X132697500Y-96017500D02*
X132858937Y-95856063D01*
X132858937Y-95856063D02*
X132858937Y-95549581D01*
X127248500Y-96081000D02*
X128079500Y-95250000D01*
X126936500Y-96081000D02*
X127248500Y-96081000D01*
X129852000Y-96081000D02*
X130683000Y-95250000D01*
X129476500Y-96081000D02*
X129852000Y-96081000D01*
X135826500Y-95250000D02*
X134932000Y-96144500D01*
X134932000Y-96144500D02*
X134493000Y-96144500D01*
X153708099Y-89954099D02*
X152944000Y-89190000D01*
X152944000Y-89190000D02*
X149860000Y-89190000D01*
X154851100Y-93573600D02*
X153708099Y-92430599D01*
X153708099Y-92430599D02*
X153708099Y-89954099D01*
D34*
X130540000Y-112207000D02*
X130540000Y-110252000D01*
X130540000Y-110252000D02*
X130810000Y-109982000D01*
D33*
G36*
X141921970Y-111506000D02*
X139128500Y-111506000D01*
X139128500Y-109956600D01*
X139123497Y-109931895D01*
X139109277Y-109911083D01*
X139088080Y-109897443D01*
X139065000Y-109893100D01*
X137033000Y-109893100D01*
X137033000Y-109156500D01*
X139065000Y-109156500D01*
X139089705Y-109151497D01*
X139110517Y-109137277D01*
X139124157Y-109116080D01*
X139128499Y-109092617D01*
X139116184Y-107048300D01*
X141884925Y-107048300D01*
X141921970Y-111506000D01*
X141921970Y-111506000D01*
G37*
X141921970Y-111506000D02*
X139128500Y-111506000D01*
X139128500Y-109956600D01*
X139123497Y-109931895D01*
X139109277Y-109911083D01*
X139088080Y-109897443D01*
X139065000Y-109893100D01*
X137033000Y-109893100D01*
X137033000Y-109156500D01*
X139065000Y-109156500D01*
X139089705Y-109151497D01*
X139110517Y-109137277D01*
X139124157Y-109116080D01*
X139128499Y-109092617D01*
X139116184Y-107048300D01*
X141884925Y-107048300D01*
X141921970Y-111506000D01*
D34*
G36*
X138747500Y-111823500D02*
X138757506Y-111872910D01*
X138785947Y-111914535D01*
X138828341Y-111941815D01*
X138874500Y-111950500D01*
X141986000Y-111950500D01*
X141986000Y-113538000D01*
X135194015Y-113538000D01*
X135226726Y-111869714D01*
X136859904Y-111869714D01*
X136944067Y-112073406D01*
X137099774Y-112229385D01*
X137303319Y-112313904D01*
X137523714Y-112314096D01*
X137727406Y-112229933D01*
X137883385Y-112074226D01*
X137967904Y-111870681D01*
X137968096Y-111650286D01*
X137883933Y-111446594D01*
X137728226Y-111290615D01*
X137524681Y-111206096D01*
X137304286Y-111205904D01*
X137100594Y-111290067D01*
X136944615Y-111445774D01*
X136860096Y-111649319D01*
X136859904Y-111869714D01*
X135226726Y-111869714D01*
X135252535Y-110553500D01*
X138747500Y-110553500D01*
X138747500Y-111823500D01*
X138747500Y-111823500D01*
G37*
X138747500Y-111823500D02*
X138757506Y-111872910D01*
X138785947Y-111914535D01*
X138828341Y-111941815D01*
X138874500Y-111950500D01*
X141986000Y-111950500D01*
X141986000Y-113538000D01*
X135194015Y-113538000D01*
X135226726Y-111869714D01*
X136859904Y-111869714D01*
X136944067Y-112073406D01*
X137099774Y-112229385D01*
X137303319Y-112313904D01*
X137523714Y-112314096D01*
X137727406Y-112229933D01*
X137883385Y-112074226D01*
X137967904Y-111870681D01*
X137968096Y-111650286D01*
X137883933Y-111446594D01*
X137728226Y-111290615D01*
X137524681Y-111206096D01*
X137304286Y-111205904D01*
X137100594Y-111290067D01*
X136944615Y-111445774D01*
X136860096Y-111649319D01*
X136859904Y-111869714D01*
X135226726Y-111869714D01*
X135252535Y-110553500D01*
X138747500Y-110553500D01*
X138747500Y-111823500D01*
M02*
