G04 #@! TF.FileFunction,Copper,L4,Bot,Signal*
%FSLAX46Y46*%
G04 Gerber Fmt 4.6, Leading zero omitted, Abs format (unit mm)*
G04 Created by KiCad (PCBNEW 4.0.6) date 10/14/17 16:46:59*
%MOMM*%
%LPD*%
G01*
G04 APERTURE LIST*
%ADD10C,0.100000*%
%ADD11C,0.599440*%
%ADD12R,0.500000X0.900000*%
%ADD13R,1.100000X1.000000*%
%ADD14R,3.000000X1.000000*%
%ADD15O,0.950000X1.250000*%
%ADD16O,1.550000X1.000000*%
%ADD17R,0.400000X0.600000*%
%ADD18R,0.440000X0.300000*%
%ADD19R,0.600000X0.400000*%
%ADD20R,0.500000X0.600000*%
%ADD21R,0.750000X0.800000*%
%ADD22C,1.524000*%
%ADD23R,1.524000X1.524000*%
%ADD24R,0.600000X0.500000*%
%ADD25R,2.500000X1.000000*%
%ADD26R,1.700000X1.700000*%
%ADD27O,1.700000X1.700000*%
%ADD28R,1.000000X1.000000*%
%ADD29R,1.100000X0.500000*%
%ADD30R,0.900000X0.800000*%
%ADD31R,0.800000X0.750000*%
%ADD32R,0.800000X0.900000*%
%ADD33C,0.300000*%
%ADD34C,0.600000*%
%ADD35C,0.254000*%
%ADD36C,0.508000*%
%ADD37C,0.127000*%
G04 APERTURE END LIST*
D10*
D11*
X165608000Y-103530400D03*
X139420600Y-103568500D03*
X139369800Y-102184200D03*
X139395200Y-106222800D03*
X139509500Y-104787700D03*
X141097000Y-114173000D03*
X142227300Y-114287300D03*
X142621000Y-113487200D03*
X142671800Y-112115600D03*
X143535400Y-112852200D03*
X145046700Y-111671100D03*
X145516600Y-113309400D03*
X144195800Y-114503200D03*
X145491200Y-114350800D03*
X146735800Y-114350800D03*
X148437600Y-114477800D03*
X149783800Y-114427000D03*
X151282400Y-114147600D03*
X151282400Y-113411000D03*
X152323800Y-113995200D03*
X153619200Y-114223800D03*
X152603200Y-113030000D03*
X151206200Y-112420400D03*
X170256200Y-96189800D03*
X172999400Y-97332800D03*
X152527000Y-97815400D03*
X142913100Y-95161100D03*
X143713200Y-95999300D03*
X142900400Y-96659700D03*
X143865600Y-97282000D03*
X142240000Y-101574600D03*
X142138400Y-102971600D03*
X143129000Y-107492800D03*
X143205200Y-102387400D03*
X143230600Y-101244400D03*
X146697700Y-101320600D03*
X147967700Y-101409500D03*
X156895800Y-104724200D03*
X154787600Y-103936800D03*
X154876500Y-107086400D03*
X154914600Y-108153200D03*
X152425400Y-108864400D03*
X151180800Y-107823000D03*
X147447000Y-107721400D03*
X149275800Y-107696000D03*
X149225000Y-105816400D03*
X149199600Y-103454200D03*
X149504400Y-102057200D03*
X149275800Y-101117400D03*
X150558500Y-101371400D03*
X151688800Y-101079300D03*
X153771600Y-101498400D03*
X155117800Y-101574600D03*
X161493200Y-102641400D03*
X166878000Y-103543100D03*
X170434000Y-98806000D03*
X171500800Y-100177600D03*
X171958000Y-103949500D03*
X171958000Y-103949500D03*
X171005500Y-104711500D03*
X169989500Y-105283000D03*
X175450500Y-102997000D03*
X174625000Y-104013000D03*
X174294800Y-97282000D03*
X170332400Y-97434400D03*
X173177200Y-106883200D03*
X175260000Y-105308400D03*
X156464000Y-112166400D03*
X156413200Y-109118400D03*
X154838400Y-112166400D03*
X159781240Y-113421160D03*
X161373820Y-113289080D03*
X160748980Y-114368580D03*
X162814000Y-113233200D03*
X162605720Y-114330480D03*
X164236400Y-114452400D03*
X158191200Y-108813600D03*
X164338000Y-113334800D03*
X166014400Y-101447600D03*
X165712140Y-114218720D03*
X167132000Y-113972340D03*
X160528000Y-101904800D03*
X159613600Y-102565200D03*
X163677600Y-99263200D03*
X165996620Y-112778540D03*
X167304720Y-112796320D03*
X156667200Y-101600000D03*
X168783000Y-113192560D03*
X168910000Y-114350800D03*
X162763200Y-100228400D03*
X162814000Y-102412800D03*
X168986200Y-112141000D03*
X165912800Y-99263200D03*
X170185080Y-113329720D03*
X171424600Y-111302800D03*
X169849800Y-111125000D03*
X171983400Y-112816640D03*
X164134800Y-101498400D03*
X170332400Y-114350800D03*
X170764200Y-112369600D03*
X170891200Y-103276400D03*
X170281600Y-100431600D03*
X171627800Y-114122200D03*
X173045120Y-114427000D03*
X173024800Y-112039400D03*
X173857920Y-113309400D03*
X157530800Y-113436400D03*
X174823120Y-114274600D03*
X157683200Y-114503200D03*
X159270700Y-114482880D03*
X175323500Y-112725200D03*
X174421800Y-111963200D03*
X163906200Y-103974900D03*
X171958000Y-102412800D03*
X155905200Y-113436400D03*
X168808400Y-110286800D03*
X169964100Y-109359700D03*
X156362400Y-114503200D03*
X158750000Y-101650800D03*
X154228800Y-113233200D03*
X172770800Y-110896400D03*
X174371000Y-110871000D03*
X170027600Y-104038400D03*
X175196500Y-108458000D03*
X171856400Y-99110800D03*
X175056800Y-109677200D03*
X173736000Y-109728000D03*
X154838400Y-114350800D03*
X172110400Y-109728000D03*
X170789600Y-110159800D03*
X171297600Y-108508800D03*
X170053000Y-107861100D03*
X154051000Y-102870000D03*
X153098500Y-102870000D03*
X152209500Y-102870000D03*
X151574500Y-104457500D03*
X151384000Y-105346500D03*
X163195000Y-107886500D03*
X162306000Y-107886500D03*
X161353500Y-107886500D03*
D12*
X158762000Y-112204500D03*
X160262000Y-112204500D03*
D13*
X173540000Y-104140000D03*
X173590000Y-101600000D03*
X173540000Y-99060000D03*
X161740000Y-99060000D03*
X161740000Y-101600000D03*
X161740000Y-104140000D03*
D14*
X167640000Y-106900000D03*
X167640000Y-96300000D03*
D15*
X126207500Y-107347500D03*
X126207500Y-112347500D03*
D16*
X123507500Y-106347500D03*
X123507500Y-113347500D03*
D17*
X126434000Y-110109000D03*
X125534000Y-110109000D03*
D18*
X140343500Y-101274500D03*
X140343500Y-100274500D03*
X139183500Y-100774500D03*
D19*
X141351000Y-98546500D03*
X141351000Y-99446500D03*
X148526500Y-96906500D03*
X148526500Y-96006500D03*
X149542500Y-96006500D03*
X149542500Y-96906500D03*
X147447000Y-96906500D03*
X147447000Y-96006500D03*
D20*
X146558000Y-95991500D03*
X146558000Y-97091500D03*
D17*
X144266500Y-95313500D03*
X145166500Y-95313500D03*
D21*
X138239500Y-110986000D03*
X138239500Y-109486000D03*
D11*
X136525000Y-107061000D03*
X136017000Y-106553000D03*
X135445500Y-107061000D03*
X135445500Y-113284000D03*
X135445500Y-112331500D03*
X135953500Y-112839500D03*
X136461500Y-113284000D03*
X136461500Y-112331500D03*
X132588000Y-109347000D03*
X133223000Y-109728000D03*
X133794500Y-109347000D03*
X141605000Y-107315000D03*
X140589000Y-107315000D03*
X139509500Y-107315000D03*
X139573000Y-108204000D03*
X140589000Y-108204000D03*
X141605000Y-108204000D03*
X141732000Y-110998000D03*
X140970000Y-110998000D03*
X140208000Y-110998000D03*
D22*
X170091100Y-116433600D03*
X170091100Y-118973600D03*
X167551100Y-116433600D03*
X167551100Y-118973600D03*
X165011100Y-116433600D03*
X165011100Y-118973600D03*
X162471100Y-116433600D03*
X162471100Y-118973600D03*
X159931100Y-116433600D03*
X159931100Y-118973600D03*
X157391100Y-116433600D03*
X157391100Y-118973600D03*
X154851100Y-116433600D03*
X154851100Y-118973600D03*
X152311100Y-116433600D03*
X152311100Y-118973600D03*
X149771100Y-116433600D03*
X149771100Y-118973600D03*
X147231100Y-116433600D03*
X147231100Y-118973600D03*
X144691100Y-116433600D03*
X144691100Y-118973600D03*
X142151100Y-116433600D03*
X142151100Y-118973600D03*
X139611100Y-116433600D03*
X139611100Y-118973600D03*
X137071100Y-116433600D03*
X137071100Y-118973600D03*
X134531100Y-116433600D03*
X134531100Y-118973600D03*
X131991100Y-116433600D03*
X131991100Y-118973600D03*
X129451100Y-116433600D03*
X129451100Y-118973600D03*
X126911100Y-116433600D03*
D23*
X126911100Y-118973600D03*
D22*
X170091100Y-91033600D03*
X170091100Y-93573600D03*
X167551100Y-91033600D03*
X167551100Y-93573600D03*
X165011100Y-91033600D03*
X165011100Y-93573600D03*
X162471100Y-91033600D03*
X162471100Y-93573600D03*
X159931100Y-91033600D03*
X159931100Y-93573600D03*
X157391100Y-91033600D03*
X157391100Y-93573600D03*
X154851100Y-91033600D03*
X154851100Y-93573600D03*
X152311100Y-91033600D03*
X152311100Y-93573600D03*
X149771100Y-91033600D03*
X149771100Y-93573600D03*
X147231100Y-91033600D03*
X147231100Y-93573600D03*
X144691100Y-91033600D03*
X144691100Y-93573600D03*
X142151100Y-91033600D03*
X142151100Y-93573600D03*
X139611100Y-91033600D03*
X139611100Y-93573600D03*
X137071100Y-91033600D03*
X137071100Y-93573600D03*
X134531100Y-91033600D03*
X134531100Y-93573600D03*
X131991100Y-91033600D03*
X131991100Y-93573600D03*
X129451100Y-91033600D03*
X129451100Y-93573600D03*
X126911100Y-91033600D03*
D23*
X126911100Y-93573600D03*
D20*
X153035000Y-96266000D03*
X153035000Y-95166000D03*
X153924000Y-96266000D03*
X153924000Y-95166000D03*
X154813000Y-96244500D03*
X154813000Y-95144500D03*
X158623000Y-96710500D03*
X158623000Y-95610500D03*
D21*
X144208500Y-109613000D03*
X144208500Y-111113000D03*
D20*
X157607000Y-96752500D03*
X157607000Y-95652500D03*
X159702500Y-96689000D03*
X159702500Y-95589000D03*
D21*
X142811500Y-109613000D03*
X142811500Y-111113000D03*
D20*
X158305500Y-107780000D03*
X158305500Y-106680000D03*
X157353000Y-107738000D03*
X157353000Y-106638000D03*
D24*
X147341500Y-105029000D03*
X148441500Y-105029000D03*
D20*
X158559500Y-103018500D03*
X158559500Y-104118500D03*
X160718500Y-106468000D03*
X160718500Y-105368000D03*
D25*
X162369500Y-112180500D03*
X162369500Y-109180500D03*
D20*
X167132000Y-110278000D03*
X167132000Y-109178000D03*
X164274500Y-110299500D03*
X164274500Y-109199500D03*
X165227000Y-110299500D03*
X165227000Y-109199500D03*
X166179500Y-110278000D03*
X166179500Y-109178000D03*
D17*
X123830500Y-107696000D03*
X122930500Y-107696000D03*
X123830500Y-110109000D03*
X122930500Y-110109000D03*
X123830500Y-108775500D03*
X122930500Y-108775500D03*
D19*
X159766000Y-105352000D03*
X159766000Y-104452000D03*
X157543500Y-104145500D03*
X157543500Y-103245500D03*
D17*
X148405000Y-104076500D03*
X147505000Y-104076500D03*
D19*
X159258000Y-106611000D03*
X159258000Y-107511000D03*
D26*
X123571000Y-99314000D03*
D27*
X123571000Y-101854000D03*
D17*
X131503000Y-106743500D03*
X132403000Y-106743500D03*
X152146000Y-96266000D03*
X151246000Y-96266000D03*
X124772000Y-104584500D03*
X125672000Y-104584500D03*
D19*
X123507500Y-115506500D03*
X123507500Y-114606500D03*
X141351000Y-96774000D03*
X141351000Y-97674000D03*
X141351000Y-94985000D03*
X141351000Y-95885000D03*
D17*
X156660000Y-96774000D03*
X155760000Y-96774000D03*
X122930500Y-111315500D03*
X123830500Y-111315500D03*
X126439500Y-109029500D03*
X125539500Y-109029500D03*
X143071000Y-120840500D03*
X142171000Y-120840500D03*
D19*
X160337500Y-99118000D03*
X160337500Y-100018000D03*
X158242000Y-99181500D03*
X158242000Y-100081500D03*
X157162500Y-99181500D03*
X157162500Y-100081500D03*
X159258000Y-99181500D03*
X159258000Y-100081500D03*
D17*
X140721500Y-89281000D03*
X139821500Y-89281000D03*
D19*
X147828000Y-113607000D03*
X147828000Y-112707000D03*
X150050500Y-113607000D03*
X150050500Y-112707000D03*
X148971000Y-113607000D03*
X148971000Y-112707000D03*
X146748500Y-113607000D03*
X146748500Y-112707000D03*
D28*
X152606500Y-105219500D03*
D29*
X150206500Y-106624500D03*
X150206500Y-105354500D03*
X150206500Y-104084500D03*
X150206500Y-102814500D03*
X156006500Y-102814500D03*
X156006500Y-104084500D03*
X156006500Y-105354500D03*
X156006500Y-106624500D03*
D28*
X153606500Y-105219500D03*
X152606500Y-104219500D03*
X153606500Y-104219500D03*
D30*
X173847000Y-94046000D03*
X173847000Y-95946000D03*
X171847000Y-94996000D03*
D31*
X129147000Y-106616500D03*
X127647000Y-106616500D03*
D25*
X140398500Y-109712500D03*
X140398500Y-112712500D03*
D32*
X130932000Y-112522000D03*
X129032000Y-112522000D03*
X129982000Y-110522000D03*
D18*
X140398500Y-97710500D03*
X140398500Y-96710500D03*
X139238500Y-97210500D03*
X140415500Y-95877000D03*
X140415500Y-94877000D03*
X139255500Y-95377000D03*
X140407000Y-99496500D03*
X140407000Y-98496500D03*
X139247000Y-98996500D03*
D19*
X131889500Y-95117500D03*
X131889500Y-96017500D03*
X134493000Y-95244500D03*
X134493000Y-96144500D03*
X141287500Y-100388000D03*
X141287500Y-101288000D03*
X129476500Y-95181000D03*
X129476500Y-96081000D03*
X126936500Y-95181000D03*
X126936500Y-96081000D03*
D26*
X140843000Y-103060500D03*
D27*
X140843000Y-105600500D03*
D11*
X139446000Y-110998000D03*
D33*
X135493000Y-110212000D03*
X136493000Y-110712000D03*
X135493000Y-109712000D03*
X135493000Y-110712000D03*
X135493000Y-109212000D03*
X135493000Y-108712000D03*
X135993000Y-108712000D03*
X135993000Y-109212000D03*
X135993000Y-109712000D03*
X135993000Y-110212000D03*
X135993000Y-110712000D03*
X136493000Y-110212000D03*
X136493000Y-109712000D03*
X136493000Y-109212000D03*
X136493000Y-108712000D03*
D34*
X161607500Y-106467991D03*
X137223500Y-99123500D03*
X144843500Y-97091500D03*
X147383500Y-103314500D03*
X156908500Y-95377000D03*
X155511500Y-95123000D03*
X151892000Y-98425000D03*
X142811500Y-108585000D03*
X130175000Y-107251500D03*
X122936000Y-112268000D03*
X129159000Y-113474500D03*
X155892500Y-100330000D03*
X157353000Y-108521500D03*
X167068500Y-107827002D03*
X166115812Y-107826316D03*
X165227000Y-107759500D03*
X164274500Y-107759500D03*
X173101000Y-92773500D03*
X130937000Y-113383002D03*
X124147790Y-116517210D03*
X157543500Y-102425500D03*
X162814000Y-104140000D03*
X143764000Y-121077010D03*
X151193500Y-106616500D03*
X130365500Y-105156000D03*
X123571000Y-95313500D03*
X130492500Y-103251000D03*
X130556000Y-100965000D03*
X130746500Y-98552000D03*
X133667500Y-110583500D03*
X137414000Y-111760000D03*
X170815000Y-95059500D03*
X124841000Y-107759500D03*
X174642479Y-100711000D03*
X158750000Y-113220500D03*
X157734000Y-112204500D03*
X139446000Y-114109500D03*
X147845925Y-95016611D03*
X154622500Y-109347000D03*
X152209500Y-111950500D03*
X151193500Y-109029500D03*
X153352500Y-112268000D03*
X165481000Y-111696500D03*
X166560500Y-111696500D03*
X167640000Y-111760000D03*
X174434500Y-103124000D03*
X174688500Y-94742000D03*
X124657553Y-109851890D03*
X124714000Y-109029500D03*
X123761500Y-104457500D03*
X175023490Y-99197813D03*
X156591000Y-97790000D03*
X157734000Y-97917000D03*
X154749500Y-98552000D03*
X155340886Y-97791794D03*
X124525709Y-110749556D03*
X150968870Y-97616990D03*
X138343220Y-115692200D03*
X143011598Y-105168298D03*
X143065500Y-98171000D03*
X138343220Y-114914400D03*
X143011598Y-104390498D03*
X150495000Y-95313500D03*
X144827498Y-96329500D03*
X166433500Y-94805500D03*
X162115500Y-97917000D03*
X160782000Y-95359521D03*
X158559500Y-97980500D03*
X160817077Y-97811112D03*
X149468050Y-95060277D03*
X147828000Y-111823500D03*
X150050500Y-111823500D03*
X148971000Y-111823500D03*
X146748500Y-111823500D03*
X146939000Y-95059500D03*
X130048000Y-108394500D03*
X128968500Y-109537500D03*
X130937000Y-111442500D03*
X139767544Y-95838513D03*
X133158936Y-95249582D03*
X128079500Y-95250000D03*
X130683000Y-95250000D03*
X135826500Y-95250000D03*
D35*
X161607491Y-106468000D02*
X161607500Y-106467991D01*
X160718500Y-106468000D02*
X161607491Y-106468000D01*
X146558000Y-97091500D02*
X144843500Y-97091500D01*
X147505000Y-104076500D02*
X147505000Y-103436000D01*
X147505000Y-103436000D02*
X147383500Y-103314500D01*
X147505000Y-104076500D02*
X147505000Y-104865500D01*
X147505000Y-104865500D02*
X147341500Y-105029000D01*
X157120500Y-95589000D02*
X156908500Y-95377000D01*
X157120500Y-95652500D02*
X157120500Y-95589000D01*
X154813000Y-95144500D02*
X155490000Y-95144500D01*
X155490000Y-95144500D02*
X155511500Y-95123000D01*
X150607000Y-98425000D02*
X151892000Y-98425000D01*
X149542500Y-96906500D02*
X149542500Y-97360500D01*
X149542500Y-97360500D02*
X150607000Y-98425000D01*
D36*
X142811500Y-109613000D02*
X144208500Y-109613000D01*
X142811500Y-109613000D02*
X142811500Y-108585000D01*
D35*
X129147000Y-106616500D02*
X129540000Y-106616500D01*
X129540000Y-106616500D02*
X130175000Y-107251500D01*
D36*
X122930500Y-111315500D02*
X122930500Y-112262500D01*
X122930500Y-112262500D02*
X122936000Y-112268000D01*
X122930500Y-110109000D02*
X122930500Y-111315500D01*
X122930500Y-108775500D02*
X122930500Y-110109000D01*
X122930500Y-107696000D02*
X122930500Y-108775500D01*
D35*
X129979500Y-113474500D02*
X129159000Y-113474500D01*
X130932000Y-112522000D02*
X129979500Y-113474500D01*
X157162500Y-100081500D02*
X156141000Y-100081500D01*
X156141000Y-100081500D02*
X155892500Y-100330000D01*
X158242000Y-100081500D02*
X157162500Y-100081500D01*
X159258000Y-100081500D02*
X158242000Y-100081500D01*
X160337500Y-100018000D02*
X159321500Y-100018000D01*
X159321500Y-100018000D02*
X159258000Y-100081500D01*
D36*
X157353000Y-107738000D02*
X157353000Y-108521500D01*
X158305500Y-107780000D02*
X157395000Y-107780000D01*
X157395000Y-107780000D02*
X157353000Y-107738000D01*
X159258000Y-107511000D02*
X158574500Y-107511000D01*
X158574500Y-107511000D02*
X158305500Y-107780000D01*
X162369500Y-109180500D02*
X162369500Y-108902500D01*
X162369500Y-108902500D02*
X161353500Y-107886500D01*
X162369500Y-109180500D02*
X162369500Y-108712000D01*
X162369500Y-108712000D02*
X163195000Y-107886500D01*
X162369500Y-109180500D02*
X162369500Y-107950000D01*
X162369500Y-107950000D02*
X162306000Y-107886500D01*
X167132000Y-109178000D02*
X167132000Y-107890502D01*
X167132000Y-107890502D02*
X167068500Y-107827002D01*
X166179500Y-109178000D02*
X166179500Y-107890004D01*
X166179500Y-107890004D02*
X166115812Y-107826316D01*
X165227000Y-109199500D02*
X165227000Y-107759500D01*
X164274500Y-109199500D02*
X164274500Y-107759500D01*
D35*
X173799500Y-94107000D02*
X173799500Y-93472000D01*
X173799500Y-93472000D02*
X173101000Y-92773500D01*
D36*
X130932000Y-112522000D02*
X130932000Y-113378002D01*
X130932000Y-113378002D02*
X130937000Y-113383002D01*
X123507500Y-115506500D02*
X123507500Y-115876920D01*
X123507500Y-115876920D02*
X124147790Y-116517210D01*
D35*
X157543500Y-103245500D02*
X157543500Y-102425500D01*
X157543500Y-103245500D02*
X158332500Y-103245500D01*
X158332500Y-103245500D02*
X158559500Y-103018500D01*
X160655000Y-104117000D02*
X160678000Y-104140000D01*
X160678000Y-104140000D02*
X161740000Y-104140000D01*
X159766000Y-104452000D02*
X160320000Y-104452000D01*
X160320000Y-104452000D02*
X160655000Y-104117000D01*
X161740000Y-104140000D02*
X162814000Y-104140000D01*
X153924000Y-95166000D02*
X154791500Y-95166000D01*
X154791500Y-95166000D02*
X154813000Y-95144500D01*
X153035000Y-95166000D02*
X153924000Y-95166000D01*
X157607000Y-95652500D02*
X157120500Y-95652500D01*
X158623000Y-95610500D02*
X157649000Y-95610500D01*
X157649000Y-95610500D02*
X157607000Y-95652500D01*
X159702500Y-95589000D02*
X158644500Y-95589000D01*
X158644500Y-95589000D02*
X158623000Y-95610500D01*
D37*
X143071000Y-120840500D02*
X143527490Y-120840500D01*
X143527490Y-120840500D02*
X143764000Y-121077010D01*
D35*
X150206500Y-106624500D02*
X151185500Y-106624500D01*
X151185500Y-106624500D02*
X151193500Y-106616500D01*
D36*
X134531100Y-118973600D02*
X133350000Y-117792500D01*
X133350000Y-117792500D02*
X124244100Y-117792500D01*
X122110500Y-105981500D02*
X122745500Y-105346500D01*
X122745500Y-105346500D02*
X125412500Y-105346500D01*
X124244100Y-117792500D02*
X122110500Y-115658900D01*
X122110500Y-115658900D02*
X122110500Y-105981500D01*
X125412500Y-105346500D02*
X125672000Y-105087000D01*
X125672000Y-105087000D02*
X125672000Y-104584500D01*
D35*
X126936500Y-95181000D02*
X126936500Y-93599000D01*
X126936500Y-93599000D02*
X126911100Y-93573600D01*
X126382500Y-95181000D02*
X126936500Y-95181000D01*
X125857000Y-95706500D02*
X126382500Y-95181000D01*
X125857000Y-95958702D02*
X125857000Y-95706500D01*
X126672298Y-96774000D02*
X125857000Y-95958702D01*
X130746500Y-96774000D02*
X126672298Y-96774000D01*
X131699000Y-97726500D02*
X130746500Y-96774000D01*
X137907000Y-97726500D02*
X131699000Y-97726500D01*
X139177000Y-98996500D02*
X137907000Y-97726500D01*
X139247000Y-98996500D02*
X139177000Y-98996500D01*
X126111000Y-92265500D02*
X128143000Y-92265500D01*
X128143000Y-92265500D02*
X129451100Y-93573600D01*
X125285500Y-93091000D02*
X126111000Y-92265500D01*
X125285500Y-95926032D02*
X125285500Y-93091000D01*
X130429000Y-97345500D02*
X126704968Y-97345500D01*
X126704968Y-97345500D02*
X125285500Y-95926032D01*
X131254500Y-98171000D02*
X130429000Y-97345500D01*
X137731500Y-98171000D02*
X131254500Y-98171000D01*
X138430000Y-98869500D02*
X137731500Y-98171000D01*
X138430000Y-99617000D02*
X138430000Y-98869500D01*
X139183500Y-100370500D02*
X138430000Y-99617000D01*
X129451100Y-93573600D02*
X129451100Y-95155600D01*
X139183500Y-100774500D02*
X139183500Y-100370500D01*
X129451100Y-95155600D02*
X129476500Y-95181000D01*
X139238500Y-97210500D02*
X132125298Y-97210500D01*
X132125298Y-97210500D02*
X131233899Y-96319101D01*
X131789500Y-95117500D02*
X131889500Y-95117500D01*
X131233899Y-96319101D02*
X131233900Y-95673100D01*
X131233900Y-95673100D02*
X131789500Y-95117500D01*
X131991100Y-93573600D02*
X131991100Y-95015900D01*
X131991100Y-95015900D02*
X131889500Y-95117500D01*
X134493000Y-93611700D02*
X134531100Y-93573600D01*
X134493000Y-95244500D02*
X133939000Y-95244500D01*
X133939000Y-95244500D02*
X133604000Y-95579500D01*
X133604000Y-95579500D02*
X133604000Y-96212702D01*
X133604000Y-96212702D02*
X134043808Y-96652510D01*
X134043808Y-96652510D02*
X135566990Y-96652510D01*
X135566990Y-96652510D02*
X136842500Y-95377000D01*
X136842500Y-95377000D02*
X139255500Y-95377000D01*
X134493000Y-95244500D02*
X134493000Y-93611700D01*
D37*
X142151100Y-118973600D02*
X142151100Y-120820600D01*
X142151100Y-120820600D02*
X142171000Y-120840500D01*
D35*
X139821500Y-89281000D02*
X127160018Y-89281000D01*
X127160018Y-89281000D02*
X123571000Y-92870018D01*
X123571000Y-92870018D02*
X123571000Y-95313500D01*
D37*
X153035000Y-96266000D02*
X152146000Y-96266000D01*
X153924000Y-96266000D02*
X153035000Y-96266000D01*
X154813000Y-96244500D02*
X153945500Y-96244500D01*
X153945500Y-96244500D02*
X153924000Y-96266000D01*
X156019500Y-95567500D02*
X155342500Y-96244500D01*
X155342500Y-96244500D02*
X154813000Y-96244500D01*
X156019500Y-95186500D02*
X156019500Y-95567500D01*
X156679899Y-94526101D02*
X156019500Y-95186500D01*
X162026601Y-94526101D02*
X156679899Y-94526101D01*
X162814000Y-95313500D02*
X162026601Y-94526101D01*
X170136736Y-95313500D02*
X162814000Y-95313500D01*
X170815000Y-95059500D02*
X170390736Y-95059500D01*
X170390736Y-95059500D02*
X170136736Y-95313500D01*
D36*
X126682500Y-106299000D02*
X127000000Y-106616500D01*
X127000000Y-106616500D02*
X127647000Y-106616500D01*
X125666500Y-106299000D02*
X126682500Y-106299000D01*
X125140999Y-106824501D02*
X125666500Y-106299000D01*
X124841000Y-107759500D02*
X125140999Y-107459501D01*
X125140999Y-107459501D02*
X125140999Y-106824501D01*
D35*
X131503000Y-106743500D02*
X131000500Y-106743500D01*
X131000500Y-106743500D02*
X130111500Y-105854500D01*
X127647000Y-106350500D02*
X127647000Y-106616500D01*
X130111500Y-105854500D02*
X128143000Y-105854500D01*
X128143000Y-105854500D02*
X127647000Y-106350500D01*
D36*
X124841000Y-107759500D02*
X123894000Y-107759500D01*
X123894000Y-107759500D02*
X123830500Y-107696000D01*
X144208500Y-111113000D02*
X142811500Y-111113000D01*
X141732000Y-110998000D02*
X142696500Y-110998000D01*
X142696500Y-110998000D02*
X142811500Y-111113000D01*
X158762000Y-112204500D02*
X158762000Y-113208500D01*
X158762000Y-113208500D02*
X158750000Y-113220500D01*
X158762000Y-112204500D02*
X157734000Y-112204500D01*
D37*
X156660000Y-96674000D02*
X156660000Y-96774000D01*
X156333000Y-95254000D02*
X156333000Y-96347000D01*
X156333000Y-96347000D02*
X156660000Y-96674000D01*
X156806888Y-94780112D02*
X156333000Y-95254000D01*
X173847000Y-95946000D02*
X173270000Y-95946000D01*
X161836112Y-94780112D02*
X156806888Y-94780112D01*
X172933499Y-95609499D02*
X162665499Y-95609499D01*
X162665499Y-95609499D02*
X161836112Y-94780112D01*
X173270000Y-95946000D02*
X172933499Y-95609499D01*
X156660000Y-96774000D02*
X157585500Y-96774000D01*
X157585500Y-96774000D02*
X157607000Y-96752500D01*
X158623000Y-96710500D02*
X159681000Y-96710500D01*
X159681000Y-96710500D02*
X159702500Y-96689000D01*
X157607000Y-96752500D02*
X158581000Y-96752500D01*
X158581000Y-96752500D02*
X158623000Y-96710500D01*
X147545926Y-95316610D02*
X147845925Y-95016611D01*
X147447000Y-95415536D02*
X147545926Y-95316610D01*
X147447000Y-96006500D02*
X147447000Y-95415536D01*
X146558000Y-95991500D02*
X147432000Y-95991500D01*
X147432000Y-95991500D02*
X147447000Y-96006500D01*
D35*
X159258000Y-106611000D02*
X159812000Y-106611000D01*
X173490000Y-104140000D02*
X173540000Y-104140000D01*
X159812000Y-106611000D02*
X160223001Y-107022001D01*
X171635800Y-105994200D02*
X173490000Y-104140000D01*
X160223001Y-107022001D02*
X164300799Y-107022001D01*
X164300799Y-107022001D02*
X165328600Y-105994200D01*
X165328600Y-105994200D02*
X171635800Y-105994200D01*
X173540000Y-103386000D02*
X173540000Y-104140000D01*
X173540000Y-103198576D02*
X173540000Y-103386000D01*
X175196489Y-101542087D02*
X173540000Y-103198576D01*
X175196489Y-100260913D02*
X175196489Y-101542087D01*
X174469488Y-99533912D02*
X175196489Y-100260913D01*
X166036500Y-98107500D02*
X174094702Y-98107500D01*
X174094702Y-98107500D02*
X174469488Y-98482286D01*
X162544000Y-101600000D02*
X166036500Y-98107500D01*
X161740000Y-101600000D02*
X162544000Y-101600000D01*
X174469488Y-98482286D02*
X174469488Y-99533912D01*
X159358000Y-106611000D02*
X159258000Y-106611000D01*
X157353000Y-106638000D02*
X158263500Y-106638000D01*
X158263500Y-106638000D02*
X158305500Y-106680000D01*
X159258000Y-106611000D02*
X158374500Y-106611000D01*
X158374500Y-106611000D02*
X158305500Y-106680000D01*
X154622500Y-109347000D02*
X156006500Y-107963000D01*
X156006500Y-107963000D02*
X156006500Y-106624500D01*
X157353000Y-106638000D02*
X156020000Y-106638000D01*
X156020000Y-106638000D02*
X156006500Y-106624500D01*
X148405000Y-104076500D02*
X150198500Y-104076500D01*
X148405000Y-104076500D02*
X148405000Y-104992500D01*
X148405000Y-104992500D02*
X148441500Y-105029000D01*
X152209500Y-111950500D02*
X148441500Y-108182500D01*
X148441500Y-108182500D02*
X148441500Y-105029000D01*
X161740000Y-99814000D02*
X161740000Y-99060000D01*
X150198500Y-104076500D02*
X150206500Y-104084500D01*
X150206500Y-104084500D02*
X151122000Y-104084500D01*
X151122000Y-104084500D02*
X151511000Y-103695500D01*
X151511000Y-103695500D02*
X151511000Y-102362000D01*
X151511000Y-102362000D02*
X152971500Y-100901500D01*
X152971500Y-100901500D02*
X160652500Y-100901500D01*
X160652500Y-100901500D02*
X161740000Y-99814000D01*
X170878500Y-100901500D02*
X169176700Y-102603300D01*
X163288979Y-103195121D02*
X163880800Y-102603300D01*
X163880800Y-102603300D02*
X169176700Y-102603300D01*
X159994500Y-103187500D02*
X160002121Y-103195121D01*
X160002121Y-103195121D02*
X163288979Y-103195121D01*
X159063500Y-104118500D02*
X158559500Y-104118500D01*
X159994500Y-103187500D02*
X159063500Y-104118500D01*
X172452500Y-100901500D02*
X170878500Y-100901500D01*
X173540000Y-99060000D02*
X173540000Y-99814000D01*
X173540000Y-99814000D02*
X172452500Y-100901500D01*
X158559500Y-104118500D02*
X157570500Y-104118500D01*
X157570500Y-104118500D02*
X157543500Y-104145500D01*
X154178000Y-106235500D02*
X154749500Y-105664000D01*
X154749500Y-105664000D02*
X154749500Y-105041500D01*
X152717500Y-106235500D02*
X154178000Y-106235500D01*
X152146000Y-106807000D02*
X152717500Y-106235500D01*
X152146000Y-108077000D02*
X152146000Y-106807000D01*
X151193500Y-109029500D02*
X152146000Y-108077000D01*
X154749500Y-105041500D02*
X155706500Y-104084500D01*
X155706500Y-104084500D02*
X156006500Y-104084500D01*
X157543500Y-104145500D02*
X156067500Y-104145500D01*
X156067500Y-104145500D02*
X156006500Y-104084500D01*
X153352500Y-107708500D02*
X153352500Y-112268000D01*
X167237500Y-105368000D02*
X171005500Y-101600000D01*
X171005500Y-101600000D02*
X173590000Y-101600000D01*
X160718500Y-105368000D02*
X167237500Y-105368000D01*
X160718500Y-105368000D02*
X159782000Y-105368000D01*
X159782000Y-105368000D02*
X159766000Y-105352000D01*
X156006500Y-105354500D02*
X155706500Y-105354500D01*
X155706500Y-105354500D02*
X153352500Y-107708500D01*
X159766000Y-105352000D02*
X156009000Y-105352000D01*
X156009000Y-105352000D02*
X156006500Y-105354500D01*
D36*
X160262000Y-112204500D02*
X162345500Y-112204500D01*
X162345500Y-112204500D02*
X162369500Y-112180500D01*
X162369500Y-112180500D02*
X163092000Y-112180500D01*
X162369500Y-112180500D02*
X164997000Y-112180500D01*
X164997000Y-112180500D02*
X165481000Y-111696500D01*
X166560500Y-111696500D02*
X167576500Y-111696500D01*
X167576500Y-111696500D02*
X167640000Y-111760000D01*
X165481000Y-111696500D02*
X166560500Y-111696500D01*
X164274500Y-110299500D02*
X164274500Y-111442500D01*
X164274500Y-111442500D02*
X164528500Y-111696500D01*
X164528500Y-111696500D02*
X165481000Y-111696500D01*
X165227000Y-110299500D02*
X165227000Y-111442500D01*
X165227000Y-111442500D02*
X165481000Y-111696500D01*
X166560500Y-111061500D02*
X166179500Y-110680500D01*
X166179500Y-110680500D02*
X166179500Y-110278000D01*
X166560500Y-111696500D02*
X166560500Y-111061500D01*
X167237500Y-110278000D02*
X167640000Y-110680500D01*
X167640000Y-110680500D02*
X167640000Y-111760000D01*
X167132000Y-110278000D02*
X167237500Y-110278000D01*
D37*
X175514000Y-102044500D02*
X174434500Y-103124000D01*
X175514000Y-95567500D02*
X175514000Y-102044500D01*
X174988499Y-95041999D02*
X175514000Y-95567500D01*
X174688500Y-94742000D02*
X174988499Y-95041999D01*
D36*
X124657553Y-109940553D02*
X124657553Y-109851890D01*
X124233289Y-109851890D02*
X124657553Y-109851890D01*
X123830500Y-110109000D02*
X124087610Y-109851890D01*
X125534000Y-110109000D02*
X124826000Y-110109000D01*
X124087610Y-109851890D02*
X124233289Y-109851890D01*
X124826000Y-110109000D02*
X124657553Y-109940553D01*
X124650500Y-109029500D02*
X124650500Y-108887500D01*
X124650500Y-108887500D02*
X124538500Y-108775500D01*
X124538500Y-108775500D02*
X123830500Y-108775500D01*
X124714000Y-109029500D02*
X124650500Y-109029500D01*
X125539500Y-109029500D02*
X124714000Y-109029500D01*
X123761500Y-104457500D02*
X124645000Y-104457500D01*
X124645000Y-104457500D02*
X124772000Y-104584500D01*
D37*
X171847000Y-94996000D02*
X174089902Y-94996000D01*
X175023490Y-95929588D02*
X175023490Y-98773549D01*
X175023490Y-98773549D02*
X175023490Y-99197813D01*
X174089902Y-94996000D02*
X175023490Y-95929588D01*
X141351000Y-98580990D02*
X142892045Y-100122035D01*
X156291001Y-98089999D02*
X156591000Y-97790000D01*
X156291001Y-98493467D02*
X156291001Y-98089999D01*
X154662433Y-100122035D02*
X156291001Y-98493467D01*
X142892045Y-100122035D02*
X154662433Y-100122035D01*
D35*
X141351000Y-98546500D02*
X141351000Y-98580990D01*
D37*
X140407000Y-98496500D02*
X141301000Y-98496500D01*
D35*
X141301000Y-98496500D02*
X141351000Y-98546500D01*
D37*
X157434001Y-98216999D02*
X157734000Y-97917000D01*
X141956546Y-100503046D02*
X154820252Y-100503046D01*
X141287500Y-100388000D02*
X141841500Y-100388000D01*
X157106299Y-98216999D02*
X157434001Y-98216999D01*
X141841500Y-100388000D02*
X141956546Y-100503046D01*
X154820252Y-100503046D02*
X157106299Y-98216999D01*
X140343500Y-100274500D02*
X141174000Y-100274500D01*
D35*
X141174000Y-100274500D02*
X141287500Y-100388000D01*
D37*
X154749500Y-98552000D02*
X153941487Y-99360013D01*
X153941487Y-99360013D02*
X143207683Y-99360013D01*
X141998700Y-95689798D02*
X141998700Y-95135700D01*
X143207683Y-99360013D02*
X142493991Y-98646321D01*
X142493991Y-98646321D02*
X142474021Y-98646321D01*
X142240000Y-95931098D02*
X141998700Y-95689798D01*
X142474021Y-98646321D02*
X142240000Y-98412300D01*
X142240000Y-98412300D02*
X142240000Y-95931098D01*
X141998700Y-95135700D02*
X141848000Y-94985000D01*
X141848000Y-94985000D02*
X141351000Y-94985000D01*
D35*
X141351000Y-94985000D02*
X141451000Y-94985000D01*
D37*
X140415500Y-94877000D02*
X141243000Y-94877000D01*
X141243000Y-94877000D02*
X141351000Y-94985000D01*
X141905000Y-98596160D02*
X143049864Y-99741024D01*
X141905000Y-97228000D02*
X141905000Y-98596160D01*
X155340886Y-98216058D02*
X155340886Y-97791794D01*
X155340886Y-98780538D02*
X155340886Y-98216058D01*
X143049864Y-99741024D02*
X154380400Y-99741024D01*
X141451000Y-96774000D02*
X141905000Y-97228000D01*
D35*
X141351000Y-96774000D02*
X141451000Y-96774000D01*
D37*
X154380400Y-99741024D02*
X155340886Y-98780538D01*
X140398500Y-96710500D02*
X141287500Y-96710500D01*
D35*
X141287500Y-96710500D02*
X141351000Y-96774000D01*
D36*
X123959765Y-111315500D02*
X124225710Y-111049555D01*
X123830500Y-111315500D02*
X123959765Y-111315500D01*
X124225710Y-111049555D02*
X124525709Y-110749556D01*
X123507500Y-114606500D02*
X123507500Y-113347500D01*
D37*
X151246000Y-97339860D02*
X150968870Y-97616990D01*
X151246000Y-96266000D02*
X151246000Y-97339860D01*
X127127000Y-113563026D02*
X127127000Y-110148052D01*
X127127000Y-110148052D02*
X127087948Y-110109000D01*
X127087948Y-110109000D02*
X126434000Y-110109000D01*
X129019673Y-115455699D02*
X127127000Y-113563026D01*
X138343220Y-115692200D02*
X138106719Y-115455699D01*
X138106719Y-115455699D02*
X129019673Y-115455699D01*
X143490555Y-106697788D02*
X143924012Y-107131245D01*
X138579721Y-115455699D02*
X138343220Y-115692200D01*
X143011598Y-105168298D02*
X142775097Y-104931797D01*
X143924012Y-107131245D02*
X143924012Y-107183286D01*
X142775097Y-104931797D02*
X142651701Y-104931797D01*
X142651701Y-104931797D02*
X142544800Y-105038698D01*
X142544800Y-105038698D02*
X142544800Y-105804074D01*
X142544800Y-105804074D02*
X143438514Y-106697788D01*
X143438514Y-106697788D02*
X143490555Y-106697788D01*
X143924012Y-107183286D02*
X146024600Y-109283874D01*
X146024600Y-109283874D02*
X146024600Y-111932728D01*
X146024600Y-111932728D02*
X142501627Y-115455699D01*
X142501627Y-115455699D02*
X138579721Y-115455699D01*
X143873502Y-98979002D02*
X143365499Y-98470999D01*
X153100998Y-98979002D02*
X143873502Y-98979002D01*
X155306000Y-96774000D02*
X153100998Y-98979002D01*
X143365499Y-98470999D02*
X143065500Y-98171000D01*
D35*
X155760000Y-96774000D02*
X155306000Y-96774000D01*
D37*
X138579721Y-115150901D02*
X138343220Y-114914400D01*
X145719800Y-111806476D02*
X142375375Y-115150901D01*
X145719800Y-109410126D02*
X145719800Y-111806476D01*
X143619221Y-107309547D02*
X145719800Y-109410126D01*
X143312253Y-107002579D02*
X143364307Y-107002579D01*
X142240000Y-105930326D02*
X143312253Y-107002579D01*
X142525447Y-104626999D02*
X142240000Y-104912446D01*
X143364307Y-107002579D02*
X143619221Y-107257493D01*
X142375375Y-115150901D02*
X138579721Y-115150901D01*
X142775097Y-104626999D02*
X142525447Y-104626999D01*
X142240000Y-104912446D02*
X142240000Y-105930326D01*
X143011598Y-104390498D02*
X142775097Y-104626999D01*
X138106719Y-115150901D02*
X129145927Y-115150901D01*
X143619221Y-107257493D02*
X143619221Y-107309547D01*
X127431800Y-113436774D02*
X127431800Y-110021800D01*
X138343220Y-114914400D02*
X138106719Y-115150901D01*
X127431800Y-110021800D02*
X127303474Y-109893474D01*
X127303474Y-109893474D02*
X126439500Y-109029500D01*
X129145927Y-115150901D02*
X127431800Y-113436774D01*
X149845000Y-95377000D02*
X150431500Y-95377000D01*
X150431500Y-95377000D02*
X150495000Y-95313500D01*
X149542500Y-96006500D02*
X149542500Y-95679500D01*
X149542500Y-95679500D02*
X149845000Y-95377000D01*
X148526500Y-96006500D02*
X149542500Y-96006500D01*
X147421499Y-96482001D02*
X147447000Y-96507502D01*
X147447000Y-96507502D02*
X147447000Y-96906500D01*
X144827498Y-96329500D02*
X145251762Y-96329500D01*
X145251762Y-96329500D02*
X145404263Y-96482001D01*
X145404263Y-96482001D02*
X147421499Y-96482001D01*
D35*
X147447000Y-96906500D02*
X148526500Y-96906500D01*
D37*
X161159387Y-98301613D02*
X161544000Y-97917000D01*
X161544000Y-97917000D02*
X162115500Y-97917000D01*
X160337500Y-99181500D02*
X160337500Y-98854500D01*
X160337500Y-98854500D02*
X160890387Y-98301613D01*
X160890387Y-98301613D02*
X161159387Y-98301613D01*
X160782000Y-95783785D02*
X160782000Y-95359521D01*
X158242000Y-99181500D02*
X158342000Y-99181500D01*
X158342000Y-99181500D02*
X160782000Y-96741500D01*
X160782000Y-96741500D02*
X160782000Y-95783785D01*
X158559500Y-97980500D02*
X157924500Y-98615500D01*
X157924500Y-98615500D02*
X157401500Y-98615500D01*
X157401500Y-98615500D02*
X157162500Y-98854500D01*
X157162500Y-98854500D02*
X157162500Y-99181500D01*
X159825889Y-98111111D02*
X159258000Y-98679000D01*
X159258000Y-98679000D02*
X159258000Y-99181500D01*
X160817077Y-97811112D02*
X160517078Y-98111111D01*
X160517078Y-98111111D02*
X159825889Y-98111111D01*
X160760888Y-97811112D02*
X160817077Y-97811112D01*
D35*
X148526500Y-90825318D02*
X148526500Y-94340288D01*
X148526500Y-94340288D02*
X149246489Y-95060277D01*
X149246489Y-95060277D02*
X149468050Y-95060277D01*
X140721500Y-89281000D02*
X146982182Y-89281000D01*
X146982182Y-89281000D02*
X148526500Y-90825318D01*
X147828000Y-111823500D02*
X147828000Y-112707000D01*
X150050500Y-111823500D02*
X150050500Y-112707000D01*
X148971000Y-111823500D02*
X148971000Y-112707000D01*
X146748500Y-111823500D02*
X146748500Y-112707000D01*
X145620500Y-95313500D02*
X146685000Y-95313500D01*
X146685000Y-95313500D02*
X146939000Y-95059500D01*
X145166500Y-95313500D02*
X145620500Y-95313500D01*
X131306000Y-108394500D02*
X130048000Y-108394500D01*
X132403000Y-106743500D02*
X132403000Y-107297500D01*
X132403000Y-107297500D02*
X131306000Y-108394500D01*
D36*
X128968500Y-109537500D02*
X128968500Y-112458500D01*
X128968500Y-112458500D02*
X129032000Y-112522000D01*
D35*
X130651500Y-110522000D02*
X130937000Y-110807500D01*
X130937000Y-110807500D02*
X130937000Y-111442500D01*
X129982000Y-110522000D02*
X130651500Y-110522000D01*
D37*
X140343500Y-101274500D02*
X141274000Y-101274500D01*
D35*
X141274000Y-101274500D02*
X141287500Y-101288000D01*
D37*
X140407000Y-99496500D02*
X141301000Y-99496500D01*
D35*
X141301000Y-99496500D02*
X141351000Y-99446500D01*
D37*
X140398500Y-97710500D02*
X141314500Y-97710500D01*
D35*
X141314500Y-97710500D02*
X141351000Y-97674000D01*
D37*
X140415500Y-95877000D02*
X141343000Y-95877000D01*
D35*
X141343000Y-95877000D02*
X141351000Y-95885000D01*
D37*
X139763500Y-99327000D02*
X139763500Y-101168500D01*
X139869500Y-101274500D02*
X140343500Y-101274500D01*
X139763500Y-101168500D02*
X139869500Y-101274500D01*
X139763500Y-97549500D02*
X139763500Y-99327000D01*
X139763500Y-99327000D02*
X139933000Y-99496500D01*
X139933000Y-99496500D02*
X140407000Y-99496500D01*
X139767544Y-95838513D02*
X139767544Y-96262777D01*
X139767544Y-96262777D02*
X139763500Y-96266821D01*
X139763500Y-96266821D02*
X139763500Y-97549500D01*
X139763500Y-97549500D02*
X139924500Y-97710500D01*
X139924500Y-97710500D02*
X140398500Y-97710500D01*
X139767544Y-95838513D02*
X140377013Y-95838513D01*
X140377013Y-95838513D02*
X140415500Y-95877000D01*
D36*
X132858937Y-95549581D02*
X133158936Y-95249582D01*
X131889500Y-96017500D02*
X132697500Y-96017500D01*
X132697500Y-96017500D02*
X132858937Y-95856063D01*
X132858937Y-95856063D02*
X132858937Y-95549581D01*
X127248500Y-96081000D02*
X128079500Y-95250000D01*
X126936500Y-96081000D02*
X127248500Y-96081000D01*
X129852000Y-96081000D02*
X130683000Y-95250000D01*
X129476500Y-96081000D02*
X129852000Y-96081000D01*
X135826500Y-95250000D02*
X134932000Y-96144500D01*
X134932000Y-96144500D02*
X134493000Y-96144500D01*
D37*
G36*
X141921970Y-111506000D02*
X139128500Y-111506000D01*
X139128500Y-109956600D01*
X139123497Y-109931895D01*
X139109277Y-109911083D01*
X139088080Y-109897443D01*
X139065000Y-109893100D01*
X137033000Y-109893100D01*
X137033000Y-109156500D01*
X139065000Y-109156500D01*
X139089705Y-109151497D01*
X139110517Y-109137277D01*
X139124157Y-109116080D01*
X139128499Y-109092617D01*
X139116184Y-107048300D01*
X141884925Y-107048300D01*
X141921970Y-111506000D01*
X141921970Y-111506000D01*
G37*
X141921970Y-111506000D02*
X139128500Y-111506000D01*
X139128500Y-109956600D01*
X139123497Y-109931895D01*
X139109277Y-109911083D01*
X139088080Y-109897443D01*
X139065000Y-109893100D01*
X137033000Y-109893100D01*
X137033000Y-109156500D01*
X139065000Y-109156500D01*
X139089705Y-109151497D01*
X139110517Y-109137277D01*
X139124157Y-109116080D01*
X139128499Y-109092617D01*
X139116184Y-107048300D01*
X141884925Y-107048300D01*
X141921970Y-111506000D01*
D35*
G36*
X138747500Y-111823500D02*
X138757506Y-111872910D01*
X138785947Y-111914535D01*
X138828341Y-111941815D01*
X138874500Y-111950500D01*
X141986000Y-111950500D01*
X141986000Y-113538000D01*
X135194015Y-113538000D01*
X135226726Y-111869714D01*
X136859904Y-111869714D01*
X136944067Y-112073406D01*
X137099774Y-112229385D01*
X137303319Y-112313904D01*
X137523714Y-112314096D01*
X137727406Y-112229933D01*
X137883385Y-112074226D01*
X137967904Y-111870681D01*
X137968096Y-111650286D01*
X137883933Y-111446594D01*
X137728226Y-111290615D01*
X137524681Y-111206096D01*
X137304286Y-111205904D01*
X137100594Y-111290067D01*
X136944615Y-111445774D01*
X136860096Y-111649319D01*
X136859904Y-111869714D01*
X135226726Y-111869714D01*
X135252535Y-110553500D01*
X138747500Y-110553500D01*
X138747500Y-111823500D01*
X138747500Y-111823500D01*
G37*
X138747500Y-111823500D02*
X138757506Y-111872910D01*
X138785947Y-111914535D01*
X138828341Y-111941815D01*
X138874500Y-111950500D01*
X141986000Y-111950500D01*
X141986000Y-113538000D01*
X135194015Y-113538000D01*
X135226726Y-111869714D01*
X136859904Y-111869714D01*
X136944067Y-112073406D01*
X137099774Y-112229385D01*
X137303319Y-112313904D01*
X137523714Y-112314096D01*
X137727406Y-112229933D01*
X137883385Y-112074226D01*
X137967904Y-111870681D01*
X137968096Y-111650286D01*
X137883933Y-111446594D01*
X137728226Y-111290615D01*
X137524681Y-111206096D01*
X137304286Y-111205904D01*
X137100594Y-111290067D01*
X136944615Y-111445774D01*
X136860096Y-111649319D01*
X136859904Y-111869714D01*
X135226726Y-111869714D01*
X135252535Y-110553500D01*
X138747500Y-110553500D01*
X138747500Y-111823500D01*
M02*
