G04 #@! TF.FileFunction,Soldermask,Top*
%FSLAX46Y46*%
G04 Gerber Fmt 4.6, Leading zero omitted, Abs format (unit mm)*
G04 Created by KiCad (PCBNEW 4.0.6) date 10/14/17 16:46:59*
%MOMM*%
%LPD*%
G01*
G04 APERTURE LIST*
%ADD10C,0.100000*%
%ADD11C,0.852400*%
%ADD12C,1.052400*%
%ADD13R,0.752400X0.552400*%
%ADD14R,1.502400X0.552400*%
%ADD15O,1.102400X1.402400*%
%ADD16O,1.702400X1.152400*%
%ADD17R,0.552400X0.752400*%
%ADD18R,0.952400X1.652400*%
%ADD19R,1.652400X0.952400*%
%ADD20R,1.252400X1.252400*%
%ADD21C,1.676400*%
%ADD22R,1.676400X1.676400*%
%ADD23R,1.202400X1.152400*%
%ADD24R,2.352400X1.202400*%
%ADD25R,0.902400X0.952400*%
%ADD26R,0.652400X0.752400*%
%ADD27R,0.752400X0.852400*%
%ADD28R,1.052400X1.352400*%
%ADD29R,1.352400X1.052400*%
%ADD30R,1.852400X1.852400*%
%ADD31O,1.852400X1.852400*%
%ADD32R,1.132400X3.552400*%
%ADD33R,1.052400X0.952400*%
%ADD34R,2.652400X1.152400*%
%ADD35R,0.952400X1.052400*%
%ADD36O,0.740000X0.380000*%
%ADD37R,1.720000X2.990000*%
%ADD38R,0.340000X0.915000*%
G04 APERTURE END LIST*
D10*
D11*
X163490000Y-106200000D03*
D12*
X171790000Y-97200000D03*
D13*
X138430000Y-110992500D03*
X138430000Y-111892500D03*
D14*
X126207500Y-108547500D03*
X126207500Y-109197500D03*
X126207500Y-109847500D03*
X126207500Y-110497500D03*
X126207500Y-111147500D03*
D15*
X126207500Y-107347500D03*
X126207500Y-112347500D03*
D16*
X123507500Y-106347500D03*
X123507500Y-113347500D03*
D17*
X152405500Y-89090500D03*
X151505500Y-89090500D03*
D18*
X167654500Y-96618500D03*
X166554500Y-96618500D03*
X165454500Y-96618500D03*
X164354500Y-96618500D03*
X163254500Y-96618500D03*
X162154500Y-96618500D03*
X161054500Y-96618500D03*
X159954500Y-96618500D03*
X158854500Y-96618500D03*
X157754500Y-96618500D03*
X156654500Y-96618500D03*
X155554500Y-96618500D03*
X154454500Y-96618500D03*
X153354500Y-96618500D03*
X152254500Y-96618500D03*
X151154500Y-96618500D03*
X150054500Y-96618500D03*
X148954500Y-96618500D03*
X147854500Y-96618500D03*
X146754500Y-96618500D03*
X145654500Y-96618500D03*
D19*
X144704500Y-98068500D03*
X144704500Y-99168500D03*
X144704500Y-100268500D03*
X144704500Y-101368500D03*
X144704500Y-102468500D03*
X144704500Y-103568500D03*
X144704500Y-104668500D03*
X144704500Y-105768500D03*
X144704500Y-106868500D03*
X144704500Y-107968500D03*
X144704500Y-109068500D03*
D18*
X145654500Y-110518500D03*
X146754500Y-110518500D03*
X147854500Y-110518500D03*
X148954500Y-110518500D03*
X150054500Y-110518500D03*
X151154500Y-110518500D03*
X152254500Y-110518500D03*
X153354500Y-110518500D03*
X154454500Y-110518500D03*
X155554500Y-110518500D03*
X156654500Y-110518500D03*
X157754500Y-110518500D03*
X158854500Y-110518500D03*
X159954500Y-110518500D03*
X161054500Y-110518500D03*
X162154500Y-110518500D03*
X163254500Y-110518500D03*
X164354500Y-110518500D03*
X165454500Y-110518500D03*
X166554500Y-110518500D03*
X167654500Y-110518500D03*
D19*
X168604500Y-109068500D03*
X168604500Y-107968500D03*
X168604500Y-106868500D03*
X168604500Y-105768500D03*
X168604500Y-104668500D03*
X168604500Y-103568500D03*
X168604500Y-102468500D03*
X168604500Y-101368500D03*
X168604500Y-100268500D03*
X168604500Y-99168500D03*
X168604500Y-98068500D03*
D20*
X166904500Y-98318500D03*
X166904500Y-100418500D03*
X166904500Y-102518500D03*
X166904500Y-104618500D03*
X166904500Y-106718500D03*
X166904500Y-108818500D03*
X165104500Y-98318500D03*
X165104500Y-100418500D03*
X165104500Y-102518500D03*
X165104500Y-104618500D03*
X165104500Y-106718500D03*
X165104500Y-108818500D03*
X163304500Y-98318500D03*
X163304500Y-108818500D03*
X159704500Y-98318500D03*
X159704500Y-108818500D03*
X153604500Y-98318500D03*
X153604500Y-108818500D03*
X150004500Y-98318500D03*
X150004500Y-108818500D03*
X148404500Y-98318500D03*
X148404500Y-100418500D03*
X148404500Y-102518500D03*
X148404500Y-104618500D03*
X148404500Y-106718500D03*
X148404500Y-108818500D03*
X146604500Y-98318500D03*
X146604500Y-100268500D03*
X146604500Y-102418500D03*
X146604500Y-104618500D03*
X146604500Y-106718500D03*
X146604500Y-108818500D03*
D13*
X138430000Y-112770500D03*
X138430000Y-113670500D03*
D21*
X170091100Y-116433600D03*
X170091100Y-118973600D03*
X167551100Y-116433600D03*
X167551100Y-118973600D03*
X165011100Y-116433600D03*
X165011100Y-118973600D03*
X162471100Y-116433600D03*
X162471100Y-118973600D03*
X159931100Y-116433600D03*
X159931100Y-118973600D03*
X157391100Y-116433600D03*
X157391100Y-118973600D03*
X154851100Y-116433600D03*
X154851100Y-118973600D03*
X152311100Y-116433600D03*
X152311100Y-118973600D03*
X149771100Y-116433600D03*
X149771100Y-118973600D03*
X147231100Y-116433600D03*
X147231100Y-118973600D03*
X144691100Y-116433600D03*
X144691100Y-118973600D03*
X142151100Y-116433600D03*
X142151100Y-118973600D03*
X139611100Y-116433600D03*
X139611100Y-118973600D03*
X137071100Y-116433600D03*
X137071100Y-118973600D03*
X134531100Y-116433600D03*
X134531100Y-118973600D03*
X131991100Y-116433600D03*
X131991100Y-118973600D03*
X129451100Y-116433600D03*
X129451100Y-118973600D03*
X126911100Y-116433600D03*
D22*
X126911100Y-118973600D03*
D21*
X170091100Y-91033600D03*
X170091100Y-93573600D03*
X167551100Y-91033600D03*
X167551100Y-93573600D03*
X165011100Y-91033600D03*
X165011100Y-93573600D03*
X162471100Y-91033600D03*
X162471100Y-93573600D03*
X159931100Y-91033600D03*
X159931100Y-93573600D03*
X157391100Y-91033600D03*
X157391100Y-93573600D03*
X154851100Y-91033600D03*
X154851100Y-93573600D03*
X152311100Y-91033600D03*
X152311100Y-93573600D03*
X149771100Y-91033600D03*
X149771100Y-93573600D03*
X147231100Y-91033600D03*
X147231100Y-93573600D03*
X144691100Y-91033600D03*
X144691100Y-93573600D03*
X142151100Y-91033600D03*
X142151100Y-93573600D03*
X139611100Y-91033600D03*
X139611100Y-93573600D03*
X137071100Y-91033600D03*
X137071100Y-93573600D03*
X134531100Y-91033600D03*
X134531100Y-93573600D03*
X131991100Y-91033600D03*
X131991100Y-93573600D03*
X129451100Y-91033600D03*
X129451100Y-93573600D03*
X126911100Y-91033600D03*
D22*
X126911100Y-93573600D03*
D23*
X171766500Y-106870500D03*
D24*
X173291500Y-108345500D03*
D23*
X174816500Y-106870500D03*
D24*
X173291500Y-105395500D03*
D25*
X132588000Y-112637000D03*
X132588000Y-111137000D03*
D26*
X133667500Y-111591000D03*
X133667500Y-112691000D03*
D27*
X173313000Y-102235000D03*
X174413000Y-102235000D03*
D28*
X129413000Y-98552000D03*
X126113000Y-98552000D03*
X129412000Y-103251000D03*
X126112000Y-103251000D03*
X129412000Y-100965000D03*
X126112000Y-100965000D03*
D29*
X129032000Y-105157000D03*
X129032000Y-108457000D03*
D27*
X173249500Y-99187000D03*
X174349500Y-99187000D03*
D30*
X123571000Y-99314000D03*
D31*
X123571000Y-101854000D03*
D32*
X134705000Y-104013000D03*
X137075000Y-104013000D03*
D17*
X123386000Y-96837500D03*
X122486000Y-96837500D03*
X174186000Y-101219000D03*
X173286000Y-101219000D03*
X124269500Y-95250000D03*
X125169500Y-95250000D03*
D13*
X134620000Y-112781500D03*
X134620000Y-111881500D03*
D17*
X139567500Y-114935000D03*
X140467500Y-114935000D03*
X137038500Y-114935000D03*
X136138500Y-114935000D03*
X174186000Y-100203000D03*
X173286000Y-100203000D03*
D33*
X171894500Y-94043500D03*
X171894500Y-95943500D03*
X173894500Y-94993500D03*
D34*
X140398500Y-109625000D03*
X140398500Y-112625000D03*
D35*
X129034500Y-112506000D03*
X130934500Y-112506000D03*
X129984500Y-110506000D03*
D17*
X130931500Y-109220000D03*
X131831500Y-109220000D03*
X133731000Y-113728500D03*
X134631000Y-113728500D03*
X133725500Y-114808000D03*
X134625500Y-114808000D03*
D30*
X140843000Y-103060500D03*
D31*
X140843000Y-105600500D03*
D25*
X137922000Y-97968500D03*
X137922000Y-96468500D03*
X136525000Y-97968500D03*
X136525000Y-96468500D03*
D36*
X137393000Y-111212000D03*
X137393000Y-110712000D03*
X137393000Y-110212000D03*
X137393000Y-109712000D03*
X137393000Y-109212000D03*
X137393000Y-108712000D03*
X137393000Y-108212000D03*
X134593000Y-108212000D03*
X134593000Y-108712000D03*
X134593000Y-109212000D03*
X134593000Y-109712000D03*
X134593000Y-110212000D03*
X134593000Y-110712000D03*
X134593000Y-111212000D03*
D37*
X135993000Y-109712000D03*
D38*
X135303000Y-111524500D03*
X135763000Y-111524500D03*
X136223000Y-111524500D03*
X136683000Y-111524500D03*
X136683000Y-107899500D03*
X136223000Y-107899500D03*
X135763000Y-107899500D03*
X135303000Y-107899500D03*
M02*
