G04 #@! TF.FileFunction,Paste,Bot*
%FSLAX46Y46*%
G04 Gerber Fmt 4.6, Leading zero omitted, Abs format (unit mm)*
G04 Created by KiCad (PCBNEW 4.0.7) date Friday, December 01, 2017 'PMt' 04:26:45 PM*
%MOMM*%
%LPD*%
G01*
G04 APERTURE LIST*
%ADD10C,0.100000*%
%ADD11R,0.600000X0.500000*%
%ADD12R,0.500000X0.900000*%
%ADD13R,1.100000X1.000000*%
%ADD14R,3.000000X1.000000*%
%ADD15R,0.400000X0.600000*%
%ADD16R,0.600000X0.400000*%
%ADD17R,0.500000X0.600000*%
%ADD18R,0.750000X0.800000*%
%ADD19R,2.500000X1.000000*%
%ADD20R,0.700000X0.700000*%
%ADD21R,1.100000X0.500000*%
%ADD22R,0.800000X0.750000*%
%ADD23R,0.900000X0.800000*%
G04 APERTURE END LIST*
D10*
D11*
X147659000Y-109982000D03*
X148759000Y-109982000D03*
D12*
X158762000Y-112204500D03*
X160262000Y-112204500D03*
D13*
X173540000Y-104140000D03*
X173590000Y-101600000D03*
X173540000Y-99060000D03*
X161740000Y-99060000D03*
X161740000Y-101600000D03*
X161740000Y-104140000D03*
D14*
X167640000Y-106900000D03*
X167640000Y-96300000D03*
D15*
X126434000Y-110109000D03*
X125534000Y-110109000D03*
D16*
X141351000Y-98546500D03*
X141351000Y-99446500D03*
X148526500Y-96906500D03*
X148526500Y-96006500D03*
X149542500Y-96006500D03*
X149542500Y-96906500D03*
X147447000Y-96906500D03*
X147447000Y-96006500D03*
D17*
X146558000Y-95991500D03*
X146558000Y-97091500D03*
D15*
X144266500Y-95313500D03*
X145166500Y-95313500D03*
D18*
X138239500Y-110986000D03*
X138239500Y-109486000D03*
D17*
X153035000Y-96266000D03*
X153035000Y-95166000D03*
X153924000Y-96266000D03*
X153924000Y-95166000D03*
X154813000Y-96244500D03*
X154813000Y-95144500D03*
X158623000Y-96710500D03*
X158623000Y-95610500D03*
D18*
X144208500Y-109613000D03*
X144208500Y-111113000D03*
D17*
X157607000Y-96752500D03*
X157607000Y-95652500D03*
X159702500Y-96689000D03*
X159702500Y-95589000D03*
D18*
X142811500Y-109613000D03*
X142811500Y-111113000D03*
D17*
X158305500Y-107780000D03*
X158305500Y-106680000D03*
X157353000Y-107738000D03*
X157353000Y-106638000D03*
X158559500Y-103018500D03*
X158559500Y-104118500D03*
X160718500Y-106468000D03*
X160718500Y-105368000D03*
D19*
X162369500Y-112180500D03*
X162369500Y-109180500D03*
D17*
X167132000Y-110278000D03*
X167132000Y-109178000D03*
X164274500Y-110299500D03*
X164274500Y-109199500D03*
X165227000Y-110299500D03*
X165227000Y-109199500D03*
X166179500Y-110278000D03*
X166179500Y-109178000D03*
D15*
X123830500Y-107696000D03*
X122930500Y-107696000D03*
X123830500Y-110109000D03*
X122930500Y-110109000D03*
X123830500Y-108775500D03*
X122930500Y-108775500D03*
D16*
X159766000Y-105352000D03*
X159766000Y-104452000D03*
X157543500Y-104145500D03*
X157543500Y-103245500D03*
D15*
X148659000Y-108839000D03*
X147759000Y-108839000D03*
D16*
X159258000Y-106611000D03*
X159258000Y-107511000D03*
D15*
X131503000Y-106743500D03*
X132403000Y-106743500D03*
X152146000Y-96266000D03*
X151246000Y-96266000D03*
X124772000Y-104584500D03*
X125672000Y-104584500D03*
D16*
X123507500Y-115506500D03*
X123507500Y-114606500D03*
X141351000Y-96774000D03*
X141351000Y-97674000D03*
X141351000Y-94985000D03*
X141351000Y-95885000D03*
D15*
X156660000Y-96774000D03*
X155760000Y-96774000D03*
X122930500Y-111315500D03*
X123830500Y-111315500D03*
X126439500Y-109029500D03*
X125539500Y-109029500D03*
X143071000Y-120840500D03*
X142171000Y-120840500D03*
D16*
X160337500Y-99118000D03*
X160337500Y-100018000D03*
X158242000Y-99181500D03*
X158242000Y-100081500D03*
X157162500Y-99181500D03*
X157162500Y-100081500D03*
X159258000Y-99181500D03*
X159258000Y-100081500D03*
D15*
X140721500Y-89281000D03*
X139821500Y-89281000D03*
D16*
X147828000Y-113607000D03*
X147828000Y-112707000D03*
X150050500Y-113607000D03*
X150050500Y-112707000D03*
X148971000Y-113607000D03*
X148971000Y-112707000D03*
X146748500Y-113607000D03*
X146748500Y-112707000D03*
D20*
X152606500Y-105219500D03*
D21*
X150206500Y-106624500D03*
X150206500Y-105354500D03*
X150206500Y-104084500D03*
X150206500Y-102814500D03*
X156006500Y-102814500D03*
X156006500Y-104084500D03*
X156006500Y-105354500D03*
X156006500Y-106624500D03*
D20*
X153606500Y-105219500D03*
X152606500Y-104219500D03*
X153606500Y-104219500D03*
D22*
X129147000Y-106616500D03*
X127647000Y-106616500D03*
D19*
X140398500Y-109712500D03*
X140398500Y-112712500D03*
D16*
X131889500Y-95117500D03*
X131889500Y-96017500D03*
X134493000Y-95244500D03*
X134493000Y-96144500D03*
X141287500Y-100388000D03*
X141287500Y-101288000D03*
X129476500Y-95181000D03*
X129476500Y-96081000D03*
X126936500Y-95181000D03*
X126936500Y-96081000D03*
D23*
X135525000Y-101153000D03*
X135525000Y-99253000D03*
X137525000Y-100203000D03*
X131969000Y-101153000D03*
X131969000Y-99253000D03*
X133969000Y-100203000D03*
X135525000Y-104836000D03*
X135525000Y-102936000D03*
X137525000Y-103886000D03*
X131969000Y-104836000D03*
X131969000Y-102936000D03*
X133969000Y-103886000D03*
X173847000Y-93919000D03*
X173847000Y-95819000D03*
X171847000Y-94869000D03*
X130540000Y-112207000D03*
X130540000Y-114107000D03*
X128540000Y-113157000D03*
D15*
X149860000Y-89190000D03*
X148960000Y-89190000D03*
M02*
