M48
;DRILL file {KiCad 4.0.7} date Friday, December 01, 2017 'PMt' 04:27:25 PM
;FORMAT={-:-/ absolute / inch / decimal}
FMAT,2
INCH,TZ
T1C0.012
T2C0.012
T3C0.020
T4C0.022
T5C0.035
T6C0.039
T7C0.028
T8C0.035
%
G90
G05
M72
T1
X5.22Y-4.305
X5.245Y-4.32
X5.2675Y-4.305
X5.3325Y-4.215
X5.3325Y-4.4225
X5.3325Y-4.46
X5.3525Y-4.4425
X5.355Y-4.195
X5.3725Y-4.4225
X5.3725Y-4.46
X5.375Y-4.215
X5.487Y-4.023
X5.488Y-4.182
X5.489Y-4.0775
X5.49Y-4.37
X5.4925Y-4.1255
X5.4925Y-4.225
X5.495Y-4.26
X5.52Y-4.37
X5.535Y-4.225
X5.535Y-4.26
X5.55Y-4.37
X5.555Y-4.495
X5.575Y-4.225
X5.575Y-4.26
X5.58Y-4.37
X5.596Y-4.054
X5.5995Y-4.4995
X5.6Y-3.999
X5.615Y-4.468
X5.617Y-4.414
X5.626Y-3.8055
X5.6265Y-3.7465
X5.635Y-4.232
X5.638Y-4.031
X5.639Y-3.986
X5.651Y-4.443
X5.658Y-3.7795
X5.664Y-3.83
X5.677Y-4.508
X5.7105Y-4.3965
X5.728Y-4.502
X5.729Y-4.461
X5.7755Y-3.989
X5.777Y-4.502
X5.805Y-4.241
X5.8255Y-3.9925
X5.844Y-4.507
X5.874Y-4.073
X5.875Y-4.166
X5.877Y-3.981
X5.877Y-4.24
X5.886Y-4.018
X5.897Y-4.505
X5.9275Y-3.991
X5.952Y-4.245
X5.953Y-4.426
X5.956Y-4.465
X5.956Y-4.494
X5.96Y-4.1475
X5.9675Y-4.1125
X5.972Y-3.9795
X5.9925Y-4.05
X5.997Y-4.488
X6.001Y-4.286
X6.005Y-3.851
X6.008Y-4.45
X6.0275Y-4.05
X6.048Y-4.497
X6.054Y-3.996
X6.065Y-4.05
X6.072Y-4.458
X6.094Y-4.092
X6.096Y-4.416
X6.096Y-4.502
X6.0975Y-4.216
X6.099Y-4.258
X6.107Y-3.999
X6.138Y-4.466
X6.156Y-4.508
X6.158Y-4.296
X6.16Y-4.416
X6.168Y-4.
X6.177Y-4.123
X6.202Y-4.466
X6.208Y-4.508
X6.228Y-4.284
X6.25Y-4.002
X6.2705Y-4.5072
X6.284Y-4.038
X6.2906Y-4.4654
X6.32Y-4.012
X6.3287Y-4.5027
X6.3525Y-4.2475
X6.3533Y-4.4602
X6.358Y-4.041
X6.39Y-4.2475
X6.4018Y-4.5012
X6.408Y-3.946
X6.41Y-4.032
X6.41Y-4.458
X6.425Y-4.2475
X6.444Y-3.908
X6.453Y-4.0935
X6.462Y-3.996
X6.466Y-4.506
X6.47Y-4.462
X6.52Y-4.076
X6.5241Y-4.4968
X6.532Y-3.908
X6.5353Y-4.4401
X6.536Y-3.994
X6.57Y-4.0765
X6.58Y-4.4871
X6.5868Y-4.4408
X6.645Y-4.4564
X6.646Y-4.342
X6.65Y-4.502
X6.653Y-4.415
X6.687Y-4.375
X6.6915Y-4.3055
X6.6925Y-4.145
X6.694Y-4.096
X6.695Y-4.2465
X6.7002Y-4.4618
X6.703Y-3.787
X6.704Y-3.954
X6.706Y-3.836
X6.706Y-4.502
X6.71Y-3.89
X6.723Y-4.424
X6.724Y-4.337
X6.728Y-4.066
X6.7325Y-4.1225
X6.744Y-4.272
X6.749Y-4.382
X6.752Y-3.944
X6.757Y-4.493
X6.766Y-3.902
X6.77Y-4.032
X6.77Y-4.0925
X6.77Y-4.0925
X6.771Y-4.4416
X6.776Y-4.32
X6.802Y-4.366
X6.811Y-3.832
X6.812Y-4.411
X6.8128Y-4.505
X6.818Y-4.208
X6.84Y-4.32
X6.8448Y-4.461
X6.862Y-3.83
X6.865Y-4.365
X6.867Y-4.408
X6.875Y-4.095
X6.8828Y-4.499
X6.892Y-4.318
X6.8975Y-4.27
X6.9Y-4.146
X6.9025Y-4.438
X6.9075Y-4.055
T2
X4.84Y-4.42
X4.865Y-3.7525
X4.8725Y-4.1125
X4.8877Y-4.5873
X4.9026Y-4.3602
X4.9078Y-4.3249
X4.91Y-4.2925
X4.915Y-4.2425
X5.04Y-4.385
X5.0425Y-3.75
X5.1Y-4.505
X5.12Y-4.2682
X5.1244Y-4.2246
X5.13Y-3.88
X5.1325Y-4.14
X5.1375Y-4.065
X5.14Y-3.975
X5.145Y-3.75
X5.15Y-4.33
X5.1634Y-4.1589
X5.2425Y-3.75
X5.2625Y-4.3537
X5.2648Y-3.9941
X5.3344Y-4.28
X5.3344Y-4.2997
X5.3344Y-4.3194
X5.3344Y-4.3391
X5.3344Y-4.3587
X5.3475Y-3.75
X5.3541Y-4.28
X5.3541Y-4.2997
X5.3541Y-4.3194
X5.3541Y-4.3391
X5.3541Y-4.3587
X5.36Y-3.49
X5.3737Y-4.28
X5.3737Y-4.2997
X5.3737Y-4.3194
X5.3737Y-4.3391
X5.3737Y-4.3587
X5.4025Y-3.9025
X5.41Y-4.4
X5.4466Y-4.5242
X5.4466Y-4.5548
X5.4528Y-3.9272
X5.49Y-4.4925
X5.53Y-3.99
X5.5415Y-3.78
X5.5415Y-3.85
X5.5415Y-3.92
X5.6225Y-4.275
X5.6304Y-4.1099
X5.6304Y-4.1405
X5.6325Y-3.865
X5.66Y-4.7668
X5.7019Y-3.7925
X5.7025Y-3.8225
X5.7775Y-4.4025
X5.785Y-3.7425
X5.82Y-4.4025
X5.8207Y-3.7408
X5.865Y-4.4025
X5.8846Y-3.7425
X5.9075Y-4.4025
X5.925Y-3.7525
X5.9437Y-3.8432
X5.9525Y-4.1975
X5.9525Y-4.2925
X5.98Y-3.875
X5.9941Y-4.4026
X6.0375Y-4.42
X6.0875Y-4.305
X6.0925Y-3.88
X6.1158Y-3.8501
X6.1207Y-3.7449
X6.1375Y-3.95
X6.165Y-3.85
X6.181Y-3.7563
X6.195Y-4.2725
X6.2025Y-4.0325
X6.21Y-3.855
X6.21Y-4.4175
X6.2425Y-3.8575
X6.25Y-4.4575
X6.3314Y-3.8508
X6.35Y-3.75
X6.3625Y-4.1917
X6.3825Y-3.855
X6.41Y-4.1
X6.4675Y-4.2425
X6.505Y-4.2425
X6.515Y-4.3975
X6.54Y-4.2451
X6.5527Y-3.7307
X6.5575Y-4.3975
X6.5775Y-4.2452
X6.6Y-4.4
X6.71Y-3.73
X6.8675Y-4.06
X6.8757Y-3.965
X6.8775Y-3.73
X6.8907Y-3.9054
T5
X4.9965Y-3.584
X4.9965Y-3.684
X4.9965Y-4.584
X4.9965Y-4.684
X5.0965Y-3.584
X5.0965Y-3.684
X5.0965Y-4.584
X5.0965Y-4.684
X5.1965Y-3.584
X5.1965Y-3.684
X5.1965Y-4.584
X5.1965Y-4.684
X5.2965Y-3.584
X5.2965Y-3.684
X5.2965Y-4.584
X5.2965Y-4.684
X5.3965Y-3.584
X5.3965Y-3.684
X5.3965Y-4.584
X5.3965Y-4.684
X5.4965Y-3.584
X5.4965Y-3.684
X5.4965Y-4.584
X5.4965Y-4.684
X5.5965Y-3.584
X5.5965Y-3.684
X5.5965Y-4.584
X5.5965Y-4.684
X5.6965Y-3.584
X5.6965Y-3.684
X5.6965Y-4.584
X5.6965Y-4.684
X5.7965Y-3.584
X5.7965Y-3.684
X5.7965Y-4.584
X5.7965Y-4.684
X5.8965Y-3.584
X5.8965Y-3.684
X5.8965Y-4.584
X5.8965Y-4.684
X5.9965Y-3.584
X5.9965Y-3.684
X5.9965Y-4.584
X5.9965Y-4.684
X6.0965Y-3.584
X6.0965Y-3.684
X6.0965Y-4.584
X6.0965Y-4.684
X6.1965Y-3.584
X6.1965Y-3.684
X6.1965Y-4.584
X6.1965Y-4.684
X6.2965Y-3.584
X6.2965Y-3.684
X6.2965Y-4.584
X6.2965Y-4.684
X6.3965Y-3.584
X6.3965Y-3.684
X6.3965Y-4.584
X6.3965Y-4.684
X6.4965Y-3.584
X6.4965Y-3.684
X6.4965Y-4.584
X6.4965Y-4.684
X6.5965Y-3.584
X6.5965Y-3.684
X6.5965Y-4.584
X6.5965Y-4.684
X6.6965Y-3.584
X6.6965Y-3.684
X6.6965Y-4.584
X6.6965Y-4.684
T6
X4.865Y-3.91
X4.865Y-4.01
X5.545Y-4.0575
X5.545Y-4.1575
T7
X6.4366Y-4.1811
T8
X6.7634Y-3.8268
T3
X4.8497Y-4.1869G85X4.8753Y-4.1869
G05
X4.8497Y-4.4625G85X4.8753Y-4.4625
G05
T4
X4.9688Y-4.2204G85X4.9688Y-4.2322
G05
X4.9688Y-4.4172G85X4.9688Y-4.429
G05
T0
M30
