G04 #@! TF.FileFunction,Soldermask,Bot*
%FSLAX46Y46*%
G04 Gerber Fmt 4.6, Leading zero omitted, Abs format (unit mm)*
G04 Created by KiCad (PCBNEW 4.0.6) date 10/14/17 16:51:08*
%MOMM*%
%LPD*%
G01*
G04 APERTURE LIST*
%ADD10C,0.100000*%
%ADD11R,0.652400X1.052400*%
%ADD12C,0.852400*%
%ADD13R,1.252400X1.152400*%
%ADD14R,3.152400X1.152400*%
%ADD15C,1.052400*%
%ADD16O,1.102400X1.402400*%
%ADD17O,1.702400X1.152400*%
%ADD18R,0.552400X0.752400*%
%ADD19R,0.592400X0.452400*%
%ADD20R,0.752400X0.552400*%
%ADD21R,0.652400X0.752400*%
%ADD22R,0.902400X0.952400*%
%ADD23C,1.676400*%
%ADD24R,1.676400X1.676400*%
%ADD25R,0.752400X0.652400*%
%ADD26R,2.652400X1.152400*%
%ADD27R,1.852400X1.852400*%
%ADD28O,1.852400X1.852400*%
%ADD29R,1.200000X1.200000*%
%ADD30R,1.300000X0.700000*%
%ADD31R,1.052400X0.952400*%
%ADD32R,0.952400X0.902400*%
%ADD33R,0.952400X1.052400*%
G04 APERTURE END LIST*
D10*
D11*
X158762000Y-112204500D03*
X160262000Y-112204500D03*
D12*
X163490000Y-106200000D03*
D13*
X173540000Y-104140000D03*
X173590000Y-101600000D03*
X173540000Y-99060000D03*
X161740000Y-99060000D03*
X161740000Y-101600000D03*
X161740000Y-104140000D03*
D14*
X167640000Y-106900000D03*
X167640000Y-96300000D03*
D15*
X171790000Y-97200000D03*
D16*
X126207500Y-107347500D03*
X126207500Y-112347500D03*
D17*
X123507500Y-106347500D03*
X123507500Y-113347500D03*
D18*
X126434000Y-110109000D03*
X125534000Y-110109000D03*
D19*
X140343500Y-101274500D03*
X140343500Y-100274500D03*
X139183500Y-100774500D03*
D20*
X141351000Y-98546500D03*
X141351000Y-99446500D03*
X148526500Y-96906500D03*
X148526500Y-96006500D03*
X149542500Y-96006500D03*
X149542500Y-96906500D03*
X147447000Y-96906500D03*
X147447000Y-96006500D03*
D21*
X146558000Y-95991500D03*
X146558000Y-97091500D03*
D18*
X144266500Y-95313500D03*
X145166500Y-95313500D03*
D22*
X138239500Y-110986000D03*
X138239500Y-109486000D03*
D23*
X170091100Y-116433600D03*
X170091100Y-118973600D03*
X167551100Y-116433600D03*
X167551100Y-118973600D03*
X165011100Y-116433600D03*
X165011100Y-118973600D03*
X162471100Y-116433600D03*
X162471100Y-118973600D03*
X159931100Y-116433600D03*
X159931100Y-118973600D03*
X157391100Y-116433600D03*
X157391100Y-118973600D03*
X154851100Y-116433600D03*
X154851100Y-118973600D03*
X152311100Y-116433600D03*
X152311100Y-118973600D03*
X149771100Y-116433600D03*
X149771100Y-118973600D03*
X147231100Y-116433600D03*
X147231100Y-118973600D03*
X144691100Y-116433600D03*
X144691100Y-118973600D03*
X142151100Y-116433600D03*
X142151100Y-118973600D03*
X139611100Y-116433600D03*
X139611100Y-118973600D03*
X137071100Y-116433600D03*
X137071100Y-118973600D03*
X134531100Y-116433600D03*
X134531100Y-118973600D03*
X131991100Y-116433600D03*
X131991100Y-118973600D03*
X129451100Y-116433600D03*
X129451100Y-118973600D03*
X126911100Y-116433600D03*
D24*
X126911100Y-118973600D03*
D23*
X170091100Y-91033600D03*
X170091100Y-93573600D03*
X167551100Y-91033600D03*
X167551100Y-93573600D03*
X165011100Y-91033600D03*
X165011100Y-93573600D03*
X162471100Y-91033600D03*
X162471100Y-93573600D03*
X159931100Y-91033600D03*
X159931100Y-93573600D03*
X157391100Y-91033600D03*
X157391100Y-93573600D03*
X154851100Y-91033600D03*
X154851100Y-93573600D03*
X152311100Y-91033600D03*
X152311100Y-93573600D03*
X149771100Y-91033600D03*
X149771100Y-93573600D03*
X147231100Y-91033600D03*
X147231100Y-93573600D03*
X144691100Y-91033600D03*
X144691100Y-93573600D03*
X142151100Y-91033600D03*
X142151100Y-93573600D03*
X139611100Y-91033600D03*
X139611100Y-93573600D03*
X137071100Y-91033600D03*
X137071100Y-93573600D03*
X134531100Y-91033600D03*
X134531100Y-93573600D03*
X131991100Y-91033600D03*
X131991100Y-93573600D03*
X129451100Y-91033600D03*
X129451100Y-93573600D03*
X126911100Y-91033600D03*
D24*
X126911100Y-93573600D03*
D21*
X153035000Y-96266000D03*
X153035000Y-95166000D03*
X153924000Y-96266000D03*
X153924000Y-95166000D03*
X154813000Y-96244500D03*
X154813000Y-95144500D03*
X158623000Y-96710500D03*
X158623000Y-95610500D03*
D22*
X144208500Y-109613000D03*
X144208500Y-111113000D03*
D21*
X157607000Y-96752500D03*
X157607000Y-95652500D03*
X159702500Y-96689000D03*
X159702500Y-95589000D03*
D22*
X142811500Y-109613000D03*
X142811500Y-111113000D03*
D21*
X158305500Y-107780000D03*
X158305500Y-106680000D03*
X157353000Y-107738000D03*
X157353000Y-106638000D03*
D25*
X147341500Y-105029000D03*
X148441500Y-105029000D03*
D21*
X158559500Y-103018500D03*
X158559500Y-104118500D03*
X160718500Y-106468000D03*
X160718500Y-105368000D03*
D26*
X162369500Y-112180500D03*
X162369500Y-109180500D03*
D21*
X167132000Y-110278000D03*
X167132000Y-109178000D03*
X164274500Y-110299500D03*
X164274500Y-109199500D03*
X165227000Y-110299500D03*
X165227000Y-109199500D03*
X166179500Y-110278000D03*
X166179500Y-109178000D03*
D18*
X123830500Y-107696000D03*
X122930500Y-107696000D03*
X123830500Y-110109000D03*
X122930500Y-110109000D03*
X123830500Y-108775500D03*
X122930500Y-108775500D03*
D20*
X159766000Y-105352000D03*
X159766000Y-104452000D03*
X157543500Y-104145500D03*
X157543500Y-103245500D03*
D18*
X148405000Y-104076500D03*
X147505000Y-104076500D03*
D20*
X159258000Y-106611000D03*
X159258000Y-107511000D03*
D27*
X123571000Y-99314000D03*
D28*
X123571000Y-101854000D03*
D18*
X131503000Y-106743500D03*
X132403000Y-106743500D03*
X152146000Y-96266000D03*
X151246000Y-96266000D03*
X124772000Y-104584500D03*
X125672000Y-104584500D03*
D20*
X123507500Y-115506500D03*
X123507500Y-114606500D03*
X141351000Y-96774000D03*
X141351000Y-97674000D03*
X141351000Y-94985000D03*
X141351000Y-95885000D03*
D18*
X156660000Y-96774000D03*
X155760000Y-96774000D03*
X122930500Y-111315500D03*
X123830500Y-111315500D03*
X126439500Y-109029500D03*
X125539500Y-109029500D03*
X143071000Y-120840500D03*
X142171000Y-120840500D03*
D20*
X160337500Y-99118000D03*
X160337500Y-100018000D03*
X158242000Y-99181500D03*
X158242000Y-100081500D03*
X157162500Y-99181500D03*
X157162500Y-100081500D03*
X159258000Y-99181500D03*
X159258000Y-100081500D03*
D18*
X140721500Y-89281000D03*
X139821500Y-89281000D03*
D20*
X147828000Y-113607000D03*
X147828000Y-112707000D03*
X150050500Y-113607000D03*
X150050500Y-112707000D03*
X148971000Y-113607000D03*
X148971000Y-112707000D03*
X146748500Y-113607000D03*
X146748500Y-112707000D03*
D29*
X152606500Y-105219500D03*
D30*
X150206500Y-106624500D03*
X150206500Y-105354500D03*
X150206500Y-104084500D03*
X150206500Y-102814500D03*
X156006500Y-102814500D03*
X156006500Y-104084500D03*
X156006500Y-105354500D03*
X156006500Y-106624500D03*
D29*
X153606500Y-105219500D03*
X152606500Y-104219500D03*
X153606500Y-104219500D03*
D31*
X173847000Y-94046000D03*
X173847000Y-95946000D03*
X171847000Y-94996000D03*
D32*
X129147000Y-106616500D03*
X127647000Y-106616500D03*
D26*
X140398500Y-109712500D03*
X140398500Y-112712500D03*
D33*
X130932000Y-112522000D03*
X129032000Y-112522000D03*
X129982000Y-110522000D03*
D19*
X140398500Y-97710500D03*
X140398500Y-96710500D03*
X139238500Y-97210500D03*
X140415500Y-95877000D03*
X140415500Y-94877000D03*
X139255500Y-95377000D03*
X140407000Y-99496500D03*
X140407000Y-98496500D03*
X139247000Y-98996500D03*
D20*
X131889500Y-95117500D03*
X131889500Y-96017500D03*
X134493000Y-95244500D03*
X134493000Y-96144500D03*
X141287500Y-100388000D03*
X141287500Y-101288000D03*
X129476500Y-95181000D03*
X129476500Y-96081000D03*
X126936500Y-95181000D03*
X126936500Y-96081000D03*
D27*
X140843000Y-103060500D03*
D28*
X140843000Y-105600500D03*
M02*
