G04 #@! TF.FileFunction,Paste,Top*
%FSLAX46Y46*%
G04 Gerber Fmt 4.6, Leading zero omitted, Abs format (unit mm)*
G04 Created by KiCad (PCBNEW 4.0.7) date Friday, December 01, 2017 'PMt' 04:26:45 PM*
%MOMM*%
%LPD*%
G01*
G04 APERTURE LIST*
%ADD10C,0.100000*%
%ADD11R,1.350000X0.400000*%
%ADD12R,0.600000X0.400000*%
%ADD13R,0.400000X0.600000*%
%ADD14R,0.647600X1.347600*%
%ADD15R,1.347600X0.647600*%
%ADD16R,0.947600X0.947600*%
%ADD17R,0.897600X0.847600*%
%ADD18R,2.047600X0.897600*%
%ADD19R,0.750000X0.800000*%
%ADD20R,0.500000X0.600000*%
%ADD21R,0.600000X0.700000*%
%ADD22R,0.900000X1.200000*%
%ADD23R,1.200000X0.900000*%
%ADD24R,0.980000X3.400000*%
%ADD25R,2.500000X1.000000*%
%ADD26O,0.600000X0.240000*%
%ADD27R,1.427600X2.697600*%
%ADD28R,0.200000X0.775000*%
%ADD29R,0.900000X0.800000*%
G04 APERTURE END LIST*
D10*
D11*
X126207500Y-108547500D03*
X126207500Y-109197500D03*
X126207500Y-109847500D03*
X126207500Y-110497500D03*
X126207500Y-111147500D03*
D12*
X138430000Y-110992500D03*
X138430000Y-111892500D03*
D13*
X152405500Y-89090500D03*
X151505500Y-89090500D03*
D14*
X167654500Y-96618500D03*
X166554500Y-96618500D03*
X165454500Y-96618500D03*
X164354500Y-96618500D03*
X163254500Y-96618500D03*
X162154500Y-96618500D03*
X161054500Y-96618500D03*
X159954500Y-96618500D03*
X158854500Y-96618500D03*
X157754500Y-96618500D03*
X156654500Y-96618500D03*
X155554500Y-96618500D03*
X154454500Y-96618500D03*
X153354500Y-96618500D03*
X152254500Y-96618500D03*
X151154500Y-96618500D03*
X150054500Y-96618500D03*
X148954500Y-96618500D03*
X147854500Y-96618500D03*
X146754500Y-96618500D03*
X145654500Y-96618500D03*
D15*
X144704500Y-98068500D03*
X144704500Y-99168500D03*
X144704500Y-100268500D03*
X144704500Y-101368500D03*
X144704500Y-102468500D03*
X144704500Y-103568500D03*
X144704500Y-104668500D03*
X144704500Y-105768500D03*
X144704500Y-106868500D03*
X144704500Y-107968500D03*
X144704500Y-109068500D03*
D14*
X145654500Y-110518500D03*
X146754500Y-110518500D03*
X147854500Y-110518500D03*
X148954500Y-110518500D03*
X150054500Y-110518500D03*
X151154500Y-110518500D03*
X152254500Y-110518500D03*
X153354500Y-110518500D03*
X154454500Y-110518500D03*
X155554500Y-110518500D03*
X156654500Y-110518500D03*
X157754500Y-110518500D03*
X158854500Y-110518500D03*
X159954500Y-110518500D03*
X161054500Y-110518500D03*
X162154500Y-110518500D03*
X163254500Y-110518500D03*
X164354500Y-110518500D03*
X165454500Y-110518500D03*
X166554500Y-110518500D03*
X167654500Y-110518500D03*
D15*
X168604500Y-109068500D03*
X168604500Y-107968500D03*
X168604500Y-106868500D03*
X168604500Y-105768500D03*
X168604500Y-104668500D03*
X168604500Y-103568500D03*
X168604500Y-102468500D03*
X168604500Y-101368500D03*
X168604500Y-100268500D03*
X168604500Y-99168500D03*
X168604500Y-98068500D03*
D16*
X166904500Y-98318500D03*
X166904500Y-100418500D03*
X166904500Y-102518500D03*
X166904500Y-104618500D03*
X166904500Y-106718500D03*
X166904500Y-108818500D03*
X165104500Y-98318500D03*
X165104500Y-100418500D03*
X165104500Y-102518500D03*
X165104500Y-104618500D03*
X165104500Y-106718500D03*
X165104500Y-108818500D03*
X163304500Y-98318500D03*
X163304500Y-108818500D03*
X159704500Y-98318500D03*
X159704500Y-108818500D03*
X153604500Y-98318500D03*
X153604500Y-108818500D03*
X150004500Y-98318500D03*
X150004500Y-108818500D03*
X148404500Y-98318500D03*
X148404500Y-100418500D03*
X148404500Y-102518500D03*
X148404500Y-104618500D03*
X148404500Y-106718500D03*
X148404500Y-108818500D03*
X146604500Y-98318500D03*
X146604500Y-100268500D03*
X146604500Y-102418500D03*
X146604500Y-104618500D03*
X146604500Y-106718500D03*
X146604500Y-108818500D03*
D12*
X138430000Y-112770500D03*
X138430000Y-113670500D03*
D17*
X171766500Y-106870500D03*
D18*
X173291500Y-108345500D03*
D17*
X174816500Y-106870500D03*
D18*
X173291500Y-105395500D03*
D19*
X132588000Y-112637000D03*
X132588000Y-111137000D03*
D20*
X133667500Y-111591000D03*
X133667500Y-112691000D03*
D21*
X173313000Y-102235000D03*
X174413000Y-102235000D03*
D22*
X129413000Y-98552000D03*
X126113000Y-98552000D03*
X129412000Y-103251000D03*
X126112000Y-103251000D03*
X129412000Y-100965000D03*
X126112000Y-100965000D03*
D23*
X129032000Y-105157000D03*
X129032000Y-108457000D03*
D21*
X173249500Y-99187000D03*
X174349500Y-99187000D03*
D24*
X134705000Y-104013000D03*
X137075000Y-104013000D03*
D13*
X123386000Y-96837500D03*
X122486000Y-96837500D03*
X174186000Y-101219000D03*
X173286000Y-101219000D03*
X124269500Y-95250000D03*
X125169500Y-95250000D03*
D12*
X134620000Y-112781500D03*
X134620000Y-111881500D03*
D13*
X139567500Y-114935000D03*
X140467500Y-114935000D03*
X137038500Y-114935000D03*
X136138500Y-114935000D03*
X174186000Y-100203000D03*
X173286000Y-100203000D03*
D25*
X140398500Y-109625000D03*
X140398500Y-112625000D03*
D13*
X130931500Y-109220000D03*
X131831500Y-109220000D03*
X133731000Y-113728500D03*
X134631000Y-113728500D03*
X133725500Y-114808000D03*
X134625500Y-114808000D03*
D19*
X137922000Y-97968500D03*
X137922000Y-96468500D03*
X136525000Y-97968500D03*
X136525000Y-96468500D03*
D26*
X137393000Y-111212000D03*
X137393000Y-110712000D03*
X137393000Y-110212000D03*
X137393000Y-109712000D03*
X137393000Y-109212000D03*
X137393000Y-108712000D03*
X137393000Y-108212000D03*
X134593000Y-108212000D03*
X134593000Y-108712000D03*
X134593000Y-109212000D03*
X134593000Y-109712000D03*
X134593000Y-110212000D03*
X134593000Y-110712000D03*
X134593000Y-111212000D03*
D27*
X135993000Y-109712000D03*
D28*
X135303000Y-111524500D03*
X135763000Y-111524500D03*
X136223000Y-111524500D03*
X136683000Y-111524500D03*
X136683000Y-107899500D03*
X136223000Y-107899500D03*
X135763000Y-107899500D03*
X135303000Y-107899500D03*
D29*
X171847000Y-93919000D03*
X171847000Y-95819000D03*
X173847000Y-94869000D03*
X128540000Y-112207000D03*
X128540000Y-114107000D03*
X130540000Y-113157000D03*
M02*
