M48
;DRILL file {KiCad 4.0.6} date 10/14/17 16:51:10
;FORMAT={2:4/ absolute / inch / suppress trailing zeros}
FMAT,2
INCH,LZ
T1C0.012
T2C0.012
T3C0.020
T4C0.022
T5C0.035
T6C0.039
T7C0.028
T8C0.035
%
G90
G05
M72
T1
X0522Y-04305
X05245Y-0432
X052675Y-04305
X053325Y-04215
X053325Y-044225
X053325Y-0446
X053525Y-044425
X05355Y-04195
X053725Y-044225
X053725Y-0446
X05375Y-04215
X05487Y-04023
X05488Y-04182
X05489Y-040775
X0549Y-0437
X054925Y-041255
X054925Y-04225
X05495Y-0426
X0552Y-0437
X05535Y-04225
X05535Y-0426
X0555Y-0437
X05555Y-04495
X05575Y-04225
X05575Y-0426
X0558Y-0437
X05596Y-04054
X055995Y-044995
X056Y-03999
X05615Y-04468
X05617Y-04414
X05626Y-038055
X056265Y-037465
X05635Y-04232
X05638Y-04031
X05639Y-03986
X05651Y-04443
X05658Y-037795
X05664Y-0383
X05677Y-04508
X057105Y-043965
X05728Y-04502
X05729Y-04461
X057755Y-03989
X05777Y-04502
X05805Y-04241
X058255Y-039925
X05844Y-04507
X05874Y-04073
X05875Y-04166
X05877Y-03981
X05877Y-0424
X05886Y-04018
X05897Y-04505
X059275Y-03991
X05952Y-04245
X05953Y-04426
X05956Y-04465
X05956Y-04494
X0596Y-041475
X059675Y-041125
X05972Y-039795
X059925Y-0405
X05997Y-04488
X06001Y-04286
X06005Y-03851
X06008Y-0445
X060275Y-0405
X06048Y-04497
X06054Y-03996
X06065Y-0405
X06072Y-04458
X06094Y-04092
X06096Y-04416
X06096Y-04502
X060975Y-04216
X06099Y-04258
X06107Y-03999
X06138Y-04466
X06156Y-04508
X06158Y-04296
X0616Y-04416
X06168Y-04
X06177Y-04123
X06202Y-04466
X06208Y-04508
X06228Y-04284
X0625Y-04002
X062705Y-045072
X06284Y-04038
X062906Y-044654
X0632Y-04012
X063287Y-045027
X063525Y-042475
X063533Y-044602
X06358Y-04041
X0639Y-042475
X064018Y-045012
X06408Y-03946
X0641Y-04032
X0641Y-04458
X06425Y-042475
X06444Y-03908
X06453Y-040935
X06462Y-03996
X06466Y-04506
X0647Y-04462
X0652Y-04076
X065241Y-044968
X06532Y-03908
X065353Y-044401
X06536Y-03994
X0657Y-040765
X0658Y-044871
X065868Y-044408
X06645Y-044564
X06646Y-04342
X0665Y-04502
X06653Y-04415
X06687Y-04375
X066915Y-043055
X066925Y-04145
X06694Y-04096
X06695Y-042465
X067002Y-044618
X06703Y-03787
X06704Y-03954
X06706Y-03836
X06706Y-04502
X0671Y-0389
X06723Y-04424
X06724Y-04337
X06728Y-04066
X067325Y-041225
X06744Y-04272
X06749Y-04382
X06752Y-03944
X06757Y-04493
X06766Y-03902
X0677Y-04032
X0677Y-040925
X0677Y-040925
X06771Y-044416
X06776Y-0432
X06802Y-04366
X06811Y-03832
X06812Y-04411
X068128Y-04505
X06818Y-04208
X0684Y-0432
X068448Y-04461
X06862Y-0383
X06865Y-04365
X06867Y-04408
X06875Y-04095
X068828Y-04499
X06892Y-04318
X068975Y-0427
X069Y-04146
X069025Y-04438
X069075Y-04055
T2
X0484Y-0442
X04865Y-037525
X048725Y-041125
X048877Y-045873
X049026Y-043602
X049078Y-043249
X0491Y-042925
X04915Y-042425
X050425Y-0375
X050775Y-043125
X05085Y-044675
X0512Y-042675
X05125Y-042225
X051325Y-0414
X051375Y-04065
X0514Y-03975
X05145Y-0375
X051475Y-0388
X05155Y-043875
X05155Y-044639
X052425Y-0375
X052625Y-043537
X053344Y-0428
X053344Y-042997
X053344Y-043194
X053344Y-043391
X053344Y-043587
X053475Y-0375
X053541Y-0428
X053541Y-042997
X053541Y-043194
X053541Y-043391
X053541Y-043587
X053737Y-0428
X053737Y-042997
X053737Y-043194
X053737Y-043391
X053737Y-043587
X054025Y-039025
X0541Y-044
X054466Y-045242
X054466Y-045548
X0549Y-044925
X055027Y-037732
X056225Y-04275
X056304Y-041099
X056304Y-041405
X056325Y-03865
X0566Y-047668
X057019Y-037925
X057025Y-038225
X057775Y-044025
X05785Y-037425
X058025Y-040675
X0582Y-044025
X058207Y-037408
X05865Y-044025
X058846Y-037425
X059075Y-044025
X05925Y-037525
X059437Y-038432
X059525Y-041975
X059525Y-042925
X0598Y-03875
X059925Y-044075
X060375Y-0442
X060875Y-04305
X060925Y-0388
X061158Y-038501
X061225Y-03745
X061375Y-0395
X06165Y-0385
X061775Y-03755
X06195Y-042725
X062025Y-040325
X0621Y-03855
X0621Y-044175
X062425Y-038575
X0625Y-044575
X0633Y-037543
X063314Y-038508
X063625Y-041917
X063825Y-03855
X0641Y-041
X064675Y-042425
X06505Y-042425
X06515Y-043975
X0654Y-042451
X065525Y-037325
X065575Y-043975
X065775Y-042452
X066Y-044
X06725Y-037425
X06815Y-036525
X068675Y-0406
X068757Y-03965
X068775Y-0373
X068907Y-039054
T5
X049965Y-03584
X049965Y-03684
X049965Y-04584
X049965Y-04684
X050965Y-03584
X050965Y-03684
X050965Y-04584
X050965Y-04684
X051965Y-03584
X051965Y-03684
X051965Y-04584
X051965Y-04684
X052965Y-03584
X052965Y-03684
X052965Y-04584
X052965Y-04684
X053965Y-03584
X053965Y-03684
X053965Y-04584
X053965Y-04684
X054965Y-03584
X054965Y-03684
X054965Y-04584
X054965Y-04684
X055965Y-03584
X055965Y-03684
X055965Y-04584
X055965Y-04684
X056965Y-03584
X056965Y-03684
X056965Y-04584
X056965Y-04684
X057965Y-03584
X057965Y-03684
X057965Y-04584
X057965Y-04684
X058965Y-03584
X058965Y-03684
X058965Y-04584
X058965Y-04684
X059965Y-03584
X059965Y-03684
X059965Y-04584
X059965Y-04684
X060965Y-03584
X060965Y-03684
X060965Y-04584
X060965Y-04684
X061965Y-03584
X061965Y-03684
X061965Y-04584
X061965Y-04684
X062965Y-03584
X062965Y-03684
X062965Y-04584
X062965Y-04684
X063965Y-03584
X063965Y-03684
X063965Y-04584
X063965Y-04684
X064965Y-03584
X064965Y-03684
X064965Y-04584
X064965Y-04684
X065965Y-03584
X065965Y-03684
X065965Y-04584
X065965Y-04684
X066965Y-03584
X066965Y-03684
X066965Y-04584
X066965Y-04684
T6
X04865Y-0391
X04865Y-0401
X05545Y-040575
X05545Y-041575
T7
X064366Y-041811
T8
X067634Y-038268
T3
X048497Y-041869G85X048753Y-041869
G05
X048497Y-044625G85X048753Y-044625
G05
T4
X049688Y-042204G85X049688Y-042322
G05
X049688Y-044172G85X049688Y-04429
G05
T0
M30
