G04 #@! TF.FileFunction,Legend,Bot*
%FSLAX46Y46*%
G04 Gerber Fmt 4.6, Leading zero omitted, Abs format (unit mm)*
G04 Created by KiCad (PCBNEW 4.0.7) date Friday, December 01, 2017 'PMt' 04:26:45 PM*
%MOMM*%
%LPD*%
G01*
G04 APERTURE LIST*
%ADD10C,0.100000*%
%ADD11C,0.381000*%
%ADD12C,0.300000*%
%ADD13C,0.203200*%
%ADD14C,0.120000*%
%ADD15C,0.150000*%
%ADD16C,0.010000*%
%ADD17C,0.139700*%
%ADD18C,0.101600*%
G04 APERTURE END LIST*
D10*
D11*
X169865523Y-100707976D02*
X169575238Y-100804738D01*
X169091428Y-100804738D01*
X168897904Y-100707976D01*
X168801142Y-100611214D01*
X168704381Y-100417690D01*
X168704381Y-100224167D01*
X168801142Y-100030643D01*
X168897904Y-99933881D01*
X169091428Y-99837119D01*
X169478476Y-99740357D01*
X169672000Y-99643595D01*
X169768761Y-99546833D01*
X169865523Y-99353310D01*
X169865523Y-99159786D01*
X169768761Y-98966262D01*
X169672000Y-98869500D01*
X169478476Y-98772738D01*
X168994666Y-98772738D01*
X168704381Y-98869500D01*
X167833523Y-100804738D02*
X167833523Y-98772738D01*
X166865904Y-100804738D02*
X166865904Y-98772738D01*
X166188571Y-100224167D01*
X165511238Y-98772738D01*
X165511238Y-100804738D01*
X169913904Y-104233738D02*
X169913904Y-102201738D01*
X169139809Y-102201738D01*
X168946285Y-102298500D01*
X168849524Y-102395262D01*
X168752762Y-102588786D01*
X168752762Y-102879071D01*
X168849524Y-103072595D01*
X168946285Y-103169357D01*
X169139809Y-103266119D01*
X169913904Y-103266119D01*
X166914285Y-104233738D02*
X167881904Y-104233738D01*
X167881904Y-102201738D01*
X166236952Y-103169357D02*
X165559619Y-103169357D01*
X165269333Y-104233738D02*
X166236952Y-104233738D01*
X166236952Y-102201738D01*
X165269333Y-102201738D01*
D12*
X173778285Y-114192857D02*
X173563999Y-114264286D01*
X173492571Y-114335714D01*
X173421142Y-114478571D01*
X173421142Y-114692857D01*
X173492571Y-114835714D01*
X173563999Y-114907143D01*
X173706857Y-114978571D01*
X174278285Y-114978571D01*
X174278285Y-113478571D01*
X173778285Y-113478571D01*
X173635428Y-113550000D01*
X173563999Y-113621429D01*
X173492571Y-113764286D01*
X173492571Y-113907143D01*
X173563999Y-114050000D01*
X173635428Y-114121429D01*
X173778285Y-114192857D01*
X174278285Y-114192857D01*
X172206857Y-114907143D02*
X172349714Y-114978571D01*
X172635428Y-114978571D01*
X172778285Y-114907143D01*
X172849714Y-114764286D01*
X172849714Y-114192857D01*
X172778285Y-114050000D01*
X172635428Y-113978571D01*
X172349714Y-113978571D01*
X172206857Y-114050000D01*
X172135428Y-114192857D01*
X172135428Y-114335714D01*
X172849714Y-114478571D01*
X170849714Y-114978571D02*
X170849714Y-114192857D01*
X170921143Y-114050000D01*
X171064000Y-113978571D01*
X171349714Y-113978571D01*
X171492571Y-114050000D01*
X170849714Y-114907143D02*
X170992571Y-114978571D01*
X171349714Y-114978571D01*
X171492571Y-114907143D01*
X171564000Y-114764286D01*
X171564000Y-114621429D01*
X171492571Y-114478571D01*
X171349714Y-114407143D01*
X170992571Y-114407143D01*
X170849714Y-114335714D01*
X169492571Y-113978571D02*
X169492571Y-115192857D01*
X169564000Y-115335714D01*
X169635428Y-115407143D01*
X169778285Y-115478571D01*
X169992571Y-115478571D01*
X170135428Y-115407143D01*
X169492571Y-114907143D02*
X169635428Y-114978571D01*
X169921142Y-114978571D01*
X170064000Y-114907143D01*
X170135428Y-114835714D01*
X170206857Y-114692857D01*
X170206857Y-114264286D01*
X170135428Y-114121429D01*
X170064000Y-114050000D01*
X169921142Y-113978571D01*
X169635428Y-113978571D01*
X169492571Y-114050000D01*
X168563999Y-114978571D02*
X168706857Y-114907143D01*
X168778285Y-114764286D01*
X168778285Y-113478571D01*
X167421143Y-114907143D02*
X167564000Y-114978571D01*
X167849714Y-114978571D01*
X167992571Y-114907143D01*
X168064000Y-114764286D01*
X168064000Y-114192857D01*
X167992571Y-114050000D01*
X167849714Y-113978571D01*
X167564000Y-113978571D01*
X167421143Y-114050000D01*
X167349714Y-114192857D01*
X167349714Y-114335714D01*
X168064000Y-114478571D01*
X166706857Y-113978571D02*
X166706857Y-115478571D01*
X166706857Y-114050000D02*
X166564000Y-113978571D01*
X166278286Y-113978571D01*
X166135429Y-114050000D01*
X166064000Y-114121429D01*
X165992571Y-114264286D01*
X165992571Y-114692857D01*
X166064000Y-114835714D01*
X166135429Y-114907143D01*
X166278286Y-114978571D01*
X166564000Y-114978571D01*
X166706857Y-114907143D01*
X165349714Y-114978571D02*
X165349714Y-113478571D01*
X164706857Y-114978571D02*
X164706857Y-114192857D01*
X164778286Y-114050000D01*
X164921143Y-113978571D01*
X165135428Y-113978571D01*
X165278286Y-114050000D01*
X165349714Y-114121429D01*
X163778285Y-114978571D02*
X163921143Y-114907143D01*
X163992571Y-114835714D01*
X164064000Y-114692857D01*
X164064000Y-114264286D01*
X163992571Y-114121429D01*
X163921143Y-114050000D01*
X163778285Y-113978571D01*
X163564000Y-113978571D01*
X163421143Y-114050000D01*
X163349714Y-114121429D01*
X163278285Y-114264286D01*
X163278285Y-114692857D01*
X163349714Y-114835714D01*
X163421143Y-114907143D01*
X163564000Y-114978571D01*
X163778285Y-114978571D01*
X162635428Y-113978571D02*
X162635428Y-114978571D01*
X162635428Y-114121429D02*
X162564000Y-114050000D01*
X162421142Y-113978571D01*
X162206857Y-113978571D01*
X162064000Y-114050000D01*
X161992571Y-114192857D01*
X161992571Y-114978571D01*
X160706857Y-114907143D02*
X160849714Y-114978571D01*
X161135428Y-114978571D01*
X161278285Y-114907143D01*
X161349714Y-114764286D01*
X161349714Y-114192857D01*
X161278285Y-114050000D01*
X161135428Y-113978571D01*
X160849714Y-113978571D01*
X160706857Y-114050000D01*
X160635428Y-114192857D01*
X160635428Y-114335714D01*
X161349714Y-114478571D01*
X159992571Y-114407143D02*
X158849714Y-114407143D01*
X158135428Y-114978571D02*
X158135428Y-113478571D01*
X157564000Y-113478571D01*
X157421142Y-113550000D01*
X157349714Y-113621429D01*
X157278285Y-113764286D01*
X157278285Y-113978571D01*
X157349714Y-114121429D01*
X157421142Y-114192857D01*
X157564000Y-114264286D01*
X158135428Y-114264286D01*
X156421142Y-114978571D02*
X156564000Y-114907143D01*
X156635428Y-114835714D01*
X156706857Y-114692857D01*
X156706857Y-114264286D01*
X156635428Y-114121429D01*
X156564000Y-114050000D01*
X156421142Y-113978571D01*
X156206857Y-113978571D01*
X156064000Y-114050000D01*
X155992571Y-114121429D01*
X155921142Y-114264286D01*
X155921142Y-114692857D01*
X155992571Y-114835714D01*
X156064000Y-114907143D01*
X156206857Y-114978571D01*
X156421142Y-114978571D01*
X154635428Y-114907143D02*
X154778285Y-114978571D01*
X155063999Y-114978571D01*
X155206857Y-114907143D01*
X155278285Y-114835714D01*
X155349714Y-114692857D01*
X155349714Y-114264286D01*
X155278285Y-114121429D01*
X155206857Y-114050000D01*
X155063999Y-113978571D01*
X154778285Y-113978571D01*
X154635428Y-114050000D01*
X153992571Y-114978571D02*
X153992571Y-113478571D01*
X153849714Y-114407143D02*
X153421143Y-114978571D01*
X153421143Y-113978571D02*
X153992571Y-114550000D01*
X152206857Y-114907143D02*
X152349714Y-114978571D01*
X152635428Y-114978571D01*
X152778285Y-114907143D01*
X152849714Y-114764286D01*
X152849714Y-114192857D01*
X152778285Y-114050000D01*
X152635428Y-113978571D01*
X152349714Y-113978571D01*
X152206857Y-114050000D01*
X152135428Y-114192857D01*
X152135428Y-114335714D01*
X152849714Y-114478571D01*
X151706857Y-113978571D02*
X151135428Y-113978571D01*
X151492571Y-113478571D02*
X151492571Y-114764286D01*
X151421143Y-114907143D01*
X151278285Y-114978571D01*
X151135428Y-114978571D01*
D13*
X129784324Y-99773619D02*
X130122990Y-99289810D01*
X130364895Y-99773619D02*
X130364895Y-98757619D01*
X129977848Y-98757619D01*
X129881086Y-98806000D01*
X129832705Y-98854381D01*
X129784324Y-98951143D01*
X129784324Y-99096286D01*
X129832705Y-99193048D01*
X129881086Y-99241429D01*
X129977848Y-99289810D01*
X130364895Y-99289810D01*
X128961848Y-99725238D02*
X129058610Y-99773619D01*
X129252133Y-99773619D01*
X129348895Y-99725238D01*
X129397276Y-99628476D01*
X129397276Y-99241429D01*
X129348895Y-99144667D01*
X129252133Y-99096286D01*
X129058610Y-99096286D01*
X128961848Y-99144667D01*
X128913467Y-99241429D01*
X128913467Y-99338190D01*
X129397276Y-99434952D01*
X128574800Y-99096286D02*
X128332895Y-99773619D01*
X128090991Y-99096286D01*
X126397658Y-99773619D02*
X126978229Y-99773619D01*
X126687943Y-99773619D02*
X126687943Y-98757619D01*
X126784705Y-98902762D01*
X126881467Y-98999524D01*
X126978229Y-99047905D01*
X125962229Y-99676857D02*
X125913848Y-99725238D01*
X125962229Y-99773619D01*
X126010610Y-99725238D01*
X125962229Y-99676857D01*
X125962229Y-99773619D01*
X124946229Y-99773619D02*
X125526800Y-99773619D01*
X125236514Y-99773619D02*
X125236514Y-98757619D01*
X125333276Y-98902762D01*
X125430038Y-98999524D01*
X125526800Y-99047905D01*
X130060095Y-103723319D02*
X130060095Y-102707319D01*
X130060095Y-103191129D02*
X129479524Y-103191129D01*
X129479524Y-103723319D02*
X129479524Y-102707319D01*
X128850571Y-103723319D02*
X128947333Y-103674938D01*
X128995714Y-103626557D01*
X129044095Y-103529795D01*
X129044095Y-103239510D01*
X128995714Y-103142748D01*
X128947333Y-103094367D01*
X128850571Y-103045986D01*
X128705429Y-103045986D01*
X128608667Y-103094367D01*
X128560286Y-103142748D01*
X128511905Y-103239510D01*
X128511905Y-103529795D01*
X128560286Y-103626557D01*
X128608667Y-103674938D01*
X128705429Y-103723319D01*
X128850571Y-103723319D01*
X127931333Y-103723319D02*
X128028095Y-103674938D01*
X128076476Y-103578176D01*
X128076476Y-102707319D01*
X127399143Y-103723319D02*
X127495905Y-103674938D01*
X127544286Y-103626557D01*
X127592667Y-103529795D01*
X127592667Y-103239510D01*
X127544286Y-103142748D01*
X127495905Y-103094367D01*
X127399143Y-103045986D01*
X127254001Y-103045986D01*
X127157239Y-103094367D01*
X127108858Y-103142748D01*
X127060477Y-103239510D01*
X127060477Y-103529795D01*
X127108858Y-103626557D01*
X127157239Y-103674938D01*
X127254001Y-103723319D01*
X127399143Y-103723319D01*
X126189620Y-103045986D02*
X126189620Y-103868462D01*
X126238001Y-103965224D01*
X126286382Y-104013605D01*
X126383143Y-104061986D01*
X126528286Y-104061986D01*
X126625048Y-104013605D01*
X126189620Y-103674938D02*
X126286382Y-103723319D01*
X126479905Y-103723319D01*
X126576667Y-103674938D01*
X126625048Y-103626557D01*
X126673429Y-103529795D01*
X126673429Y-103239510D01*
X126625048Y-103142748D01*
X126576667Y-103094367D01*
X126479905Y-103045986D01*
X126286382Y-103045986D01*
X126189620Y-103094367D01*
X125705810Y-103723319D02*
X125705810Y-103045986D01*
X125705810Y-103239510D02*
X125657429Y-103142748D01*
X125609048Y-103094367D01*
X125512286Y-103045986D01*
X125415525Y-103045986D01*
X124641430Y-103723319D02*
X124641430Y-103191129D01*
X124689811Y-103094367D01*
X124786573Y-103045986D01*
X124980096Y-103045986D01*
X125076858Y-103094367D01*
X124641430Y-103674938D02*
X124738192Y-103723319D01*
X124980096Y-103723319D01*
X125076858Y-103674938D01*
X125125239Y-103578176D01*
X125125239Y-103481414D01*
X125076858Y-103384652D01*
X124980096Y-103336271D01*
X124738192Y-103336271D01*
X124641430Y-103287890D01*
X124157620Y-103723319D02*
X124157620Y-103045986D01*
X124157620Y-103142748D02*
X124109239Y-103094367D01*
X124012477Y-103045986D01*
X123867335Y-103045986D01*
X123770573Y-103094367D01*
X123722192Y-103191129D01*
X123722192Y-103723319D01*
X123722192Y-103191129D02*
X123673811Y-103094367D01*
X123577049Y-103045986D01*
X123431906Y-103045986D01*
X123335144Y-103094367D01*
X123286763Y-103191129D01*
X123286763Y-103723319D01*
X122802953Y-103626557D02*
X122754572Y-103674938D01*
X122802953Y-103723319D01*
X122851334Y-103674938D01*
X122802953Y-103626557D01*
X122802953Y-103723319D01*
X122319143Y-103723319D02*
X122319143Y-103045986D01*
X122319143Y-102707319D02*
X122367524Y-102755700D01*
X122319143Y-102804081D01*
X122270762Y-102755700D01*
X122319143Y-102707319D01*
X122319143Y-102804081D01*
X121690190Y-103723319D02*
X121786952Y-103674938D01*
X121835333Y-103626557D01*
X121883714Y-103529795D01*
X121883714Y-103239510D01*
X121835333Y-103142748D01*
X121786952Y-103094367D01*
X121690190Y-103045986D01*
X121545048Y-103045986D01*
X121448286Y-103094367D01*
X121399905Y-103142748D01*
X121351524Y-103239510D01*
X121351524Y-103529795D01*
X121399905Y-103626557D01*
X121448286Y-103674938D01*
X121545048Y-103723319D01*
X121690190Y-103723319D01*
D14*
X148459000Y-110452000D02*
X147959000Y-110452000D01*
X147959000Y-109512000D02*
X148459000Y-109512000D01*
X160012000Y-111524500D02*
X159012000Y-111524500D01*
X159012000Y-112884500D02*
X160012000Y-112884500D01*
D15*
X174363607Y-106100000D02*
G75*
G03X174363607Y-106100000I-223607J0D01*
G01*
X161640000Y-106300000D02*
X173540000Y-106300000D01*
X173540000Y-106300000D02*
X173540000Y-96900000D01*
X173540000Y-96900000D02*
X161640000Y-96900000D01*
X161640000Y-96900000D02*
X161640000Y-106300000D01*
D14*
X125734000Y-109579000D02*
X126234000Y-109579000D01*
X126234000Y-110639000D02*
X125734000Y-110639000D01*
X140821000Y-99246500D02*
X140821000Y-98746500D01*
X141881000Y-98746500D02*
X141881000Y-99246500D01*
X149056500Y-96206500D02*
X149056500Y-96706500D01*
X147996500Y-96706500D02*
X147996500Y-96206500D01*
X149012500Y-96706500D02*
X149012500Y-96206500D01*
X150072500Y-96206500D02*
X150072500Y-96706500D01*
X147977000Y-96206500D02*
X147977000Y-96706500D01*
X146917000Y-96706500D02*
X146917000Y-96206500D01*
X146088000Y-96791500D02*
X146088000Y-96291500D01*
X147028000Y-96291500D02*
X147028000Y-96791500D01*
X144966500Y-95843500D02*
X144466500Y-95843500D01*
X144466500Y-94783500D02*
X144966500Y-94783500D01*
X138839500Y-110586000D02*
X138839500Y-109886000D01*
X137639500Y-109886000D02*
X137639500Y-110586000D01*
X153505000Y-95466000D02*
X153505000Y-95966000D01*
X152565000Y-95966000D02*
X152565000Y-95466000D01*
X154394000Y-95466000D02*
X154394000Y-95966000D01*
X153454000Y-95966000D02*
X153454000Y-95466000D01*
X155283000Y-95444500D02*
X155283000Y-95944500D01*
X154343000Y-95944500D02*
X154343000Y-95444500D01*
X159093000Y-95910500D02*
X159093000Y-96410500D01*
X158153000Y-96410500D02*
X158153000Y-95910500D01*
X143608500Y-110013000D02*
X143608500Y-110713000D01*
X144808500Y-110713000D02*
X144808500Y-110013000D01*
X158077000Y-95952500D02*
X158077000Y-96452500D01*
X157137000Y-96452500D02*
X157137000Y-95952500D01*
X160172500Y-95889000D02*
X160172500Y-96389000D01*
X159232500Y-96389000D02*
X159232500Y-95889000D01*
X142211500Y-110013000D02*
X142211500Y-110713000D01*
X143411500Y-110713000D02*
X143411500Y-110013000D01*
X158775500Y-106980000D02*
X158775500Y-107480000D01*
X157835500Y-107480000D02*
X157835500Y-106980000D01*
X157823000Y-106938000D02*
X157823000Y-107438000D01*
X156883000Y-107438000D02*
X156883000Y-106938000D01*
X158089500Y-103818500D02*
X158089500Y-103318500D01*
X159029500Y-103318500D02*
X159029500Y-103818500D01*
X161188500Y-105668000D02*
X161188500Y-106168000D01*
X160248500Y-106168000D02*
X160248500Y-105668000D01*
X163849500Y-109680500D02*
X163849500Y-111680500D01*
X160889500Y-111680500D02*
X160889500Y-109680500D01*
X167602000Y-109478000D02*
X167602000Y-109978000D01*
X166662000Y-109978000D02*
X166662000Y-109478000D01*
X164744500Y-109499500D02*
X164744500Y-109999500D01*
X163804500Y-109999500D02*
X163804500Y-109499500D01*
X165697000Y-109499500D02*
X165697000Y-109999500D01*
X164757000Y-109999500D02*
X164757000Y-109499500D01*
X166649500Y-109478000D02*
X166649500Y-109978000D01*
X165709500Y-109978000D02*
X165709500Y-109478000D01*
X123130500Y-107166000D02*
X123630500Y-107166000D01*
X123630500Y-108226000D02*
X123130500Y-108226000D01*
X123130500Y-109579000D02*
X123630500Y-109579000D01*
X123630500Y-110639000D02*
X123130500Y-110639000D01*
X123130500Y-108245500D02*
X123630500Y-108245500D01*
X123630500Y-109305500D02*
X123130500Y-109305500D01*
X160296000Y-104652000D02*
X160296000Y-105152000D01*
X159236000Y-105152000D02*
X159236000Y-104652000D01*
X158073500Y-103445500D02*
X158073500Y-103945500D01*
X157013500Y-103945500D02*
X157013500Y-103445500D01*
X147959000Y-108309000D02*
X148459000Y-108309000D01*
X148459000Y-109369000D02*
X147959000Y-109369000D01*
X158728000Y-107311000D02*
X158728000Y-106811000D01*
X159788000Y-106811000D02*
X159788000Y-107311000D01*
X132203000Y-107273500D02*
X131703000Y-107273500D01*
X131703000Y-106213500D02*
X132203000Y-106213500D01*
X151446000Y-95736000D02*
X151946000Y-95736000D01*
X151946000Y-96796000D02*
X151446000Y-96796000D01*
X125472000Y-105114500D02*
X124972000Y-105114500D01*
X124972000Y-104054500D02*
X125472000Y-104054500D01*
X124037500Y-114806500D02*
X124037500Y-115306500D01*
X122977500Y-115306500D02*
X122977500Y-114806500D01*
X140821000Y-97474000D02*
X140821000Y-96974000D01*
X141881000Y-96974000D02*
X141881000Y-97474000D01*
X140821000Y-95685000D02*
X140821000Y-95185000D01*
X141881000Y-95185000D02*
X141881000Y-95685000D01*
X155960000Y-96244000D02*
X156460000Y-96244000D01*
X156460000Y-97304000D02*
X155960000Y-97304000D01*
X123630500Y-111845500D02*
X123130500Y-111845500D01*
X123130500Y-110785500D02*
X123630500Y-110785500D01*
X125739500Y-108499500D02*
X126239500Y-108499500D01*
X126239500Y-109559500D02*
X125739500Y-109559500D01*
X142371000Y-120310500D02*
X142871000Y-120310500D01*
X142871000Y-121370500D02*
X142371000Y-121370500D01*
X159807500Y-99818000D02*
X159807500Y-99318000D01*
X160867500Y-99318000D02*
X160867500Y-99818000D01*
X157712000Y-99881500D02*
X157712000Y-99381500D01*
X158772000Y-99381500D02*
X158772000Y-99881500D01*
X156632500Y-99881500D02*
X156632500Y-99381500D01*
X157692500Y-99381500D02*
X157692500Y-99881500D01*
X158728000Y-99881500D02*
X158728000Y-99381500D01*
X159788000Y-99381500D02*
X159788000Y-99881500D01*
X140021500Y-88751000D02*
X140521500Y-88751000D01*
X140521500Y-89811000D02*
X140021500Y-89811000D01*
X148358000Y-112907000D02*
X148358000Y-113407000D01*
X147298000Y-113407000D02*
X147298000Y-112907000D01*
X150580500Y-112907000D02*
X150580500Y-113407000D01*
X149520500Y-113407000D02*
X149520500Y-112907000D01*
X149501000Y-112907000D02*
X149501000Y-113407000D01*
X148441000Y-113407000D02*
X148441000Y-112907000D01*
X147278500Y-112907000D02*
X147278500Y-113407000D01*
X146218500Y-113407000D02*
X146218500Y-112907000D01*
X149606500Y-107319500D02*
X156206500Y-107319500D01*
X150606500Y-102119500D02*
X155606500Y-102119500D01*
X128747000Y-106016500D02*
X128047000Y-106016500D01*
X128047000Y-107216500D02*
X128747000Y-107216500D01*
X138918500Y-112212500D02*
X138918500Y-110212500D01*
X141878500Y-110212500D02*
X141878500Y-112212500D01*
X131359500Y-95817500D02*
X131359500Y-95317500D01*
X132419500Y-95317500D02*
X132419500Y-95817500D01*
X133963000Y-95944500D02*
X133963000Y-95444500D01*
X135023000Y-95444500D02*
X135023000Y-95944500D01*
X140757500Y-101088000D02*
X140757500Y-100588000D01*
X141817500Y-100588000D02*
X141817500Y-101088000D01*
X128946500Y-95881000D02*
X128946500Y-95381000D01*
X130006500Y-95381000D02*
X130006500Y-95881000D01*
X126406500Y-95881000D02*
X126406500Y-95381000D01*
X127466500Y-95381000D02*
X127466500Y-95881000D01*
D16*
G36*
X145157877Y-98135789D02*
X145008506Y-98189644D01*
X144787403Y-98294301D01*
X144477352Y-98458090D01*
X144061137Y-98689340D01*
X143521541Y-98996382D01*
X143340667Y-99100133D01*
X143056416Y-99262902D01*
X142730926Y-99448623D01*
X142599834Y-99523222D01*
X142197667Y-99751810D01*
X142197667Y-103091562D01*
X142198490Y-103950022D01*
X142201300Y-104653789D01*
X142206615Y-105217498D01*
X142214949Y-105655784D01*
X142226817Y-105983281D01*
X142242736Y-106214624D01*
X142263219Y-106364447D01*
X142288784Y-106447384D01*
X142316896Y-106477067D01*
X142439644Y-106457860D01*
X142667035Y-106367752D01*
X142958950Y-106223697D01*
X143100062Y-106146136D01*
X143439943Y-105953407D01*
X143760926Y-105771569D01*
X144007479Y-105632075D01*
X144060334Y-105602225D01*
X144344002Y-105438322D01*
X144633313Y-105265763D01*
X144653000Y-105253751D01*
X144949334Y-105072505D01*
X144991667Y-106573716D01*
X145009350Y-107124741D01*
X145028355Y-107528079D01*
X145051088Y-107805372D01*
X145079955Y-107978261D01*
X145117362Y-108068388D01*
X145161000Y-108096750D01*
X145285615Y-108066180D01*
X145516867Y-107966174D01*
X145816188Y-107814414D01*
X146007667Y-107708575D01*
X146434683Y-107464149D01*
X146916944Y-107186348D01*
X147363654Y-106927506D01*
X147447000Y-106878967D01*
X148166667Y-106459358D01*
X148167609Y-106316247D01*
X147540447Y-106316247D01*
X147519724Y-106395682D01*
X147378417Y-106509234D01*
X147297509Y-106555725D01*
X147087011Y-106670748D01*
X146779920Y-106843433D01*
X146425729Y-107045807D01*
X146219517Y-107165011D01*
X145457334Y-107607689D01*
X145432606Y-106974511D01*
X145423247Y-106538065D01*
X145424253Y-106053538D01*
X145432606Y-105709875D01*
X145457334Y-105078417D01*
X146462456Y-105660897D01*
X146835465Y-105879198D01*
X147156886Y-106071326D01*
X147397492Y-106219511D01*
X147528056Y-106305987D01*
X147540447Y-106316247D01*
X148167609Y-106316247D01*
X148178033Y-104732667D01*
X147870334Y-104732667D01*
X147867862Y-105174636D01*
X147861053Y-105549709D01*
X147850811Y-105828622D01*
X147838044Y-105982106D01*
X147830996Y-106002667D01*
X147746410Y-105962733D01*
X147546615Y-105854332D01*
X147262525Y-105694564D01*
X146963163Y-105522632D01*
X146604197Y-105314715D01*
X146277263Y-105125477D01*
X146023479Y-104978711D01*
X145902369Y-104908799D01*
X145740886Y-104800047D01*
X145669698Y-104720968D01*
X145669626Y-104720047D01*
X144737667Y-104720047D01*
X144669249Y-104779522D01*
X144485022Y-104903582D01*
X144216530Y-105073379D01*
X143895318Y-105270065D01*
X143552929Y-105474792D01*
X143220905Y-105668709D01*
X142930792Y-105832970D01*
X142714133Y-105948726D01*
X142602471Y-105997129D01*
X142599834Y-105997477D01*
X142577745Y-105919568D01*
X142558997Y-105701442D01*
X142545052Y-105372205D01*
X142537370Y-104960961D01*
X142536334Y-104732667D01*
X142540636Y-104290707D01*
X142552490Y-103915640D01*
X142570318Y-103636727D01*
X142592543Y-103483235D01*
X142604815Y-103462667D01*
X142708103Y-103503400D01*
X142909229Y-103609561D01*
X143133981Y-103739975D01*
X143453866Y-103928996D01*
X143835224Y-104149331D01*
X144166167Y-104336785D01*
X144436921Y-104495812D01*
X144638344Y-104628709D01*
X144734298Y-104711242D01*
X144737667Y-104720047D01*
X145669626Y-104720047D01*
X145669536Y-104718910D01*
X145738226Y-104658651D01*
X145923561Y-104535351D01*
X146193787Y-104367532D01*
X146517154Y-104173714D01*
X146861910Y-103972420D01*
X147196302Y-103782172D01*
X147488579Y-103621490D01*
X147706989Y-103508897D01*
X147819781Y-103462914D01*
X147823127Y-103462667D01*
X147839556Y-103542453D01*
X147853497Y-103762300D01*
X147863864Y-104092944D01*
X147869570Y-104505116D01*
X147870334Y-104732667D01*
X148178033Y-104732667D01*
X148188754Y-103103967D01*
X147637845Y-103103967D01*
X147013256Y-103463828D01*
X146646878Y-103676419D01*
X146265618Y-103900036D01*
X145946825Y-104089291D01*
X145923000Y-104103592D01*
X145457334Y-104383495D01*
X145433836Y-103149300D01*
X145432953Y-103081667D01*
X144991667Y-103081667D01*
X144986494Y-103538259D01*
X144972083Y-103910942D01*
X144950095Y-104173913D01*
X144922191Y-104301371D01*
X144912626Y-104309333D01*
X144801416Y-104268550D01*
X144598178Y-104163449D01*
X144425793Y-104063762D01*
X144148069Y-103898933D01*
X143794390Y-103692315D01*
X143436138Y-103485580D01*
X143397617Y-103463535D01*
X143119851Y-103300398D01*
X142913346Y-103170751D01*
X142810276Y-103095150D01*
X142804950Y-103084846D01*
X142891164Y-103030511D01*
X143089963Y-102913110D01*
X143369478Y-102750849D01*
X143697842Y-102561933D01*
X144043187Y-102364568D01*
X144373644Y-102176957D01*
X144657347Y-102017307D01*
X144862427Y-101903822D01*
X144957017Y-101854707D01*
X144959533Y-101854000D01*
X144970894Y-101933704D01*
X144980492Y-102152971D01*
X144987546Y-102482035D01*
X144991278Y-102891128D01*
X144991667Y-103081667D01*
X145432953Y-103081667D01*
X145428099Y-102710045D01*
X145428163Y-102334160D01*
X145433639Y-102052603D01*
X145444134Y-101896329D01*
X145449959Y-101875485D01*
X145538449Y-101901391D01*
X145760962Y-102012520D01*
X146108301Y-102203754D01*
X146571270Y-102469973D01*
X147140671Y-102806058D01*
X147394256Y-102957757D01*
X147637845Y-103103967D01*
X148188754Y-103103967D01*
X148188807Y-103096062D01*
X148193597Y-102226460D01*
X148195178Y-101516057D01*
X147870334Y-101516057D01*
X147870334Y-102786781D01*
X147383500Y-102516112D01*
X147052993Y-102328690D01*
X146665128Y-102103461D01*
X146324589Y-101901555D01*
X146054032Y-101729974D01*
X145849875Y-101583538D01*
X145748175Y-101488595D01*
X145743038Y-101476582D01*
X145746738Y-101473000D01*
X144690144Y-101473000D01*
X144620116Y-101551645D01*
X144433497Y-101690256D01*
X144163149Y-101869192D01*
X143841934Y-102068814D01*
X143502717Y-102269481D01*
X143178360Y-102451553D01*
X142901726Y-102595391D01*
X142705678Y-102681353D01*
X142642167Y-102696944D01*
X142598367Y-102654998D01*
X142567520Y-102513171D01*
X142548016Y-102252839D01*
X142538246Y-101855376D01*
X142536334Y-101473000D01*
X142540545Y-101038950D01*
X142552129Y-100672292D01*
X142569514Y-100402791D01*
X142591126Y-100260211D01*
X142601196Y-100245333D01*
X142711352Y-100285807D01*
X142927258Y-100394586D01*
X143216646Y-100552707D01*
X143547246Y-100741204D01*
X143886791Y-100941115D01*
X144203012Y-101133476D01*
X144463642Y-101299321D01*
X144636411Y-101419688D01*
X144690144Y-101473000D01*
X145746738Y-101473000D01*
X145808725Y-101413002D01*
X145990382Y-101286450D01*
X146255894Y-101116079D01*
X146573149Y-100921045D01*
X146910032Y-100720500D01*
X147234429Y-100533600D01*
X147514226Y-100379499D01*
X147717308Y-100277350D01*
X147806834Y-100245645D01*
X147828925Y-100325318D01*
X147847675Y-100545066D01*
X147861621Y-100875644D01*
X147869300Y-101287804D01*
X147870334Y-101516057D01*
X148195178Y-101516057D01*
X148195187Y-101512199D01*
X148193207Y-100939311D01*
X148187289Y-100493827D01*
X148177062Y-100161779D01*
X148162158Y-99929198D01*
X148142207Y-99782116D01*
X148116840Y-99706564D01*
X148098716Y-99689699D01*
X147980337Y-99711354D01*
X147757215Y-99805437D01*
X147468133Y-99954518D01*
X147314576Y-100042115D01*
X146925807Y-100270977D01*
X146508717Y-100516566D01*
X146143039Y-100731932D01*
X146087244Y-100764799D01*
X145810854Y-100921845D01*
X145588199Y-101037742D01*
X145461218Y-101090873D01*
X145452244Y-101092108D01*
X145424558Y-101010811D01*
X145405110Y-100779801D01*
X145394647Y-100418537D01*
X145393914Y-99946474D01*
X145394988Y-99864333D01*
X144991667Y-99864333D01*
X144988900Y-100298391D01*
X144981289Y-100665053D01*
X144969866Y-100934555D01*
X144955666Y-101077128D01*
X144949051Y-101092000D01*
X144864287Y-101052127D01*
X144660161Y-100942510D01*
X144363910Y-100778148D01*
X144002773Y-100574043D01*
X143848607Y-100485982D01*
X143434412Y-100245816D01*
X143150964Y-100072332D01*
X142980167Y-99951467D01*
X142903927Y-99869160D01*
X142904147Y-99811346D01*
X142938723Y-99778857D01*
X143087935Y-99684832D01*
X143332396Y-99539080D01*
X143638826Y-99360548D01*
X143973948Y-99168182D01*
X144304484Y-98980930D01*
X144597154Y-98817739D01*
X144818682Y-98697554D01*
X144935787Y-98639324D01*
X144944873Y-98636667D01*
X144961418Y-98716369D01*
X144975394Y-98935633D01*
X144985666Y-99264691D01*
X144991100Y-99673778D01*
X144991667Y-99864333D01*
X145394988Y-99864333D01*
X145397581Y-99666252D01*
X145404191Y-99110128D01*
X145400954Y-98702118D01*
X145386662Y-98421224D01*
X145360109Y-98246447D01*
X145320087Y-98156789D01*
X145310291Y-98147166D01*
X145252733Y-98124406D01*
X145157877Y-98135789D01*
X145157877Y-98135789D01*
G37*
X145157877Y-98135789D02*
X145008506Y-98189644D01*
X144787403Y-98294301D01*
X144477352Y-98458090D01*
X144061137Y-98689340D01*
X143521541Y-98996382D01*
X143340667Y-99100133D01*
X143056416Y-99262902D01*
X142730926Y-99448623D01*
X142599834Y-99523222D01*
X142197667Y-99751810D01*
X142197667Y-103091562D01*
X142198490Y-103950022D01*
X142201300Y-104653789D01*
X142206615Y-105217498D01*
X142214949Y-105655784D01*
X142226817Y-105983281D01*
X142242736Y-106214624D01*
X142263219Y-106364447D01*
X142288784Y-106447384D01*
X142316896Y-106477067D01*
X142439644Y-106457860D01*
X142667035Y-106367752D01*
X142958950Y-106223697D01*
X143100062Y-106146136D01*
X143439943Y-105953407D01*
X143760926Y-105771569D01*
X144007479Y-105632075D01*
X144060334Y-105602225D01*
X144344002Y-105438322D01*
X144633313Y-105265763D01*
X144653000Y-105253751D01*
X144949334Y-105072505D01*
X144991667Y-106573716D01*
X145009350Y-107124741D01*
X145028355Y-107528079D01*
X145051088Y-107805372D01*
X145079955Y-107978261D01*
X145117362Y-108068388D01*
X145161000Y-108096750D01*
X145285615Y-108066180D01*
X145516867Y-107966174D01*
X145816188Y-107814414D01*
X146007667Y-107708575D01*
X146434683Y-107464149D01*
X146916944Y-107186348D01*
X147363654Y-106927506D01*
X147447000Y-106878967D01*
X148166667Y-106459358D01*
X148167609Y-106316247D01*
X147540447Y-106316247D01*
X147519724Y-106395682D01*
X147378417Y-106509234D01*
X147297509Y-106555725D01*
X147087011Y-106670748D01*
X146779920Y-106843433D01*
X146425729Y-107045807D01*
X146219517Y-107165011D01*
X145457334Y-107607689D01*
X145432606Y-106974511D01*
X145423247Y-106538065D01*
X145424253Y-106053538D01*
X145432606Y-105709875D01*
X145457334Y-105078417D01*
X146462456Y-105660897D01*
X146835465Y-105879198D01*
X147156886Y-106071326D01*
X147397492Y-106219511D01*
X147528056Y-106305987D01*
X147540447Y-106316247D01*
X148167609Y-106316247D01*
X148178033Y-104732667D01*
X147870334Y-104732667D01*
X147867862Y-105174636D01*
X147861053Y-105549709D01*
X147850811Y-105828622D01*
X147838044Y-105982106D01*
X147830996Y-106002667D01*
X147746410Y-105962733D01*
X147546615Y-105854332D01*
X147262525Y-105694564D01*
X146963163Y-105522632D01*
X146604197Y-105314715D01*
X146277263Y-105125477D01*
X146023479Y-104978711D01*
X145902369Y-104908799D01*
X145740886Y-104800047D01*
X145669698Y-104720968D01*
X145669626Y-104720047D01*
X144737667Y-104720047D01*
X144669249Y-104779522D01*
X144485022Y-104903582D01*
X144216530Y-105073379D01*
X143895318Y-105270065D01*
X143552929Y-105474792D01*
X143220905Y-105668709D01*
X142930792Y-105832970D01*
X142714133Y-105948726D01*
X142602471Y-105997129D01*
X142599834Y-105997477D01*
X142577745Y-105919568D01*
X142558997Y-105701442D01*
X142545052Y-105372205D01*
X142537370Y-104960961D01*
X142536334Y-104732667D01*
X142540636Y-104290707D01*
X142552490Y-103915640D01*
X142570318Y-103636727D01*
X142592543Y-103483235D01*
X142604815Y-103462667D01*
X142708103Y-103503400D01*
X142909229Y-103609561D01*
X143133981Y-103739975D01*
X143453866Y-103928996D01*
X143835224Y-104149331D01*
X144166167Y-104336785D01*
X144436921Y-104495812D01*
X144638344Y-104628709D01*
X144734298Y-104711242D01*
X144737667Y-104720047D01*
X145669626Y-104720047D01*
X145669536Y-104718910D01*
X145738226Y-104658651D01*
X145923561Y-104535351D01*
X146193787Y-104367532D01*
X146517154Y-104173714D01*
X146861910Y-103972420D01*
X147196302Y-103782172D01*
X147488579Y-103621490D01*
X147706989Y-103508897D01*
X147819781Y-103462914D01*
X147823127Y-103462667D01*
X147839556Y-103542453D01*
X147853497Y-103762300D01*
X147863864Y-104092944D01*
X147869570Y-104505116D01*
X147870334Y-104732667D01*
X148178033Y-104732667D01*
X148188754Y-103103967D01*
X147637845Y-103103967D01*
X147013256Y-103463828D01*
X146646878Y-103676419D01*
X146265618Y-103900036D01*
X145946825Y-104089291D01*
X145923000Y-104103592D01*
X145457334Y-104383495D01*
X145433836Y-103149300D01*
X145432953Y-103081667D01*
X144991667Y-103081667D01*
X144986494Y-103538259D01*
X144972083Y-103910942D01*
X144950095Y-104173913D01*
X144922191Y-104301371D01*
X144912626Y-104309333D01*
X144801416Y-104268550D01*
X144598178Y-104163449D01*
X144425793Y-104063762D01*
X144148069Y-103898933D01*
X143794390Y-103692315D01*
X143436138Y-103485580D01*
X143397617Y-103463535D01*
X143119851Y-103300398D01*
X142913346Y-103170751D01*
X142810276Y-103095150D01*
X142804950Y-103084846D01*
X142891164Y-103030511D01*
X143089963Y-102913110D01*
X143369478Y-102750849D01*
X143697842Y-102561933D01*
X144043187Y-102364568D01*
X144373644Y-102176957D01*
X144657347Y-102017307D01*
X144862427Y-101903822D01*
X144957017Y-101854707D01*
X144959533Y-101854000D01*
X144970894Y-101933704D01*
X144980492Y-102152971D01*
X144987546Y-102482035D01*
X144991278Y-102891128D01*
X144991667Y-103081667D01*
X145432953Y-103081667D01*
X145428099Y-102710045D01*
X145428163Y-102334160D01*
X145433639Y-102052603D01*
X145444134Y-101896329D01*
X145449959Y-101875485D01*
X145538449Y-101901391D01*
X145760962Y-102012520D01*
X146108301Y-102203754D01*
X146571270Y-102469973D01*
X147140671Y-102806058D01*
X147394256Y-102957757D01*
X147637845Y-103103967D01*
X148188754Y-103103967D01*
X148188807Y-103096062D01*
X148193597Y-102226460D01*
X148195178Y-101516057D01*
X147870334Y-101516057D01*
X147870334Y-102786781D01*
X147383500Y-102516112D01*
X147052993Y-102328690D01*
X146665128Y-102103461D01*
X146324589Y-101901555D01*
X146054032Y-101729974D01*
X145849875Y-101583538D01*
X145748175Y-101488595D01*
X145743038Y-101476582D01*
X145746738Y-101473000D01*
X144690144Y-101473000D01*
X144620116Y-101551645D01*
X144433497Y-101690256D01*
X144163149Y-101869192D01*
X143841934Y-102068814D01*
X143502717Y-102269481D01*
X143178360Y-102451553D01*
X142901726Y-102595391D01*
X142705678Y-102681353D01*
X142642167Y-102696944D01*
X142598367Y-102654998D01*
X142567520Y-102513171D01*
X142548016Y-102252839D01*
X142538246Y-101855376D01*
X142536334Y-101473000D01*
X142540545Y-101038950D01*
X142552129Y-100672292D01*
X142569514Y-100402791D01*
X142591126Y-100260211D01*
X142601196Y-100245333D01*
X142711352Y-100285807D01*
X142927258Y-100394586D01*
X143216646Y-100552707D01*
X143547246Y-100741204D01*
X143886791Y-100941115D01*
X144203012Y-101133476D01*
X144463642Y-101299321D01*
X144636411Y-101419688D01*
X144690144Y-101473000D01*
X145746738Y-101473000D01*
X145808725Y-101413002D01*
X145990382Y-101286450D01*
X146255894Y-101116079D01*
X146573149Y-100921045D01*
X146910032Y-100720500D01*
X147234429Y-100533600D01*
X147514226Y-100379499D01*
X147717308Y-100277350D01*
X147806834Y-100245645D01*
X147828925Y-100325318D01*
X147847675Y-100545066D01*
X147861621Y-100875644D01*
X147869300Y-101287804D01*
X147870334Y-101516057D01*
X148195178Y-101516057D01*
X148195187Y-101512199D01*
X148193207Y-100939311D01*
X148187289Y-100493827D01*
X148177062Y-100161779D01*
X148162158Y-99929198D01*
X148142207Y-99782116D01*
X148116840Y-99706564D01*
X148098716Y-99689699D01*
X147980337Y-99711354D01*
X147757215Y-99805437D01*
X147468133Y-99954518D01*
X147314576Y-100042115D01*
X146925807Y-100270977D01*
X146508717Y-100516566D01*
X146143039Y-100731932D01*
X146087244Y-100764799D01*
X145810854Y-100921845D01*
X145588199Y-101037742D01*
X145461218Y-101090873D01*
X145452244Y-101092108D01*
X145424558Y-101010811D01*
X145405110Y-100779801D01*
X145394647Y-100418537D01*
X145393914Y-99946474D01*
X145394988Y-99864333D01*
X144991667Y-99864333D01*
X144988900Y-100298391D01*
X144981289Y-100665053D01*
X144969866Y-100934555D01*
X144955666Y-101077128D01*
X144949051Y-101092000D01*
X144864287Y-101052127D01*
X144660161Y-100942510D01*
X144363910Y-100778148D01*
X144002773Y-100574043D01*
X143848607Y-100485982D01*
X143434412Y-100245816D01*
X143150964Y-100072332D01*
X142980167Y-99951467D01*
X142903927Y-99869160D01*
X142904147Y-99811346D01*
X142938723Y-99778857D01*
X143087935Y-99684832D01*
X143332396Y-99539080D01*
X143638826Y-99360548D01*
X143973948Y-99168182D01*
X144304484Y-98980930D01*
X144597154Y-98817739D01*
X144818682Y-98697554D01*
X144935787Y-98639324D01*
X144944873Y-98636667D01*
X144961418Y-98716369D01*
X144975394Y-98935633D01*
X144985666Y-99264691D01*
X144991100Y-99673778D01*
X144991667Y-99864333D01*
X145394988Y-99864333D01*
X145397581Y-99666252D01*
X145404191Y-99110128D01*
X145400954Y-98702118D01*
X145386662Y-98421224D01*
X145360109Y-98246447D01*
X145320087Y-98156789D01*
X145310291Y-98147166D01*
X145252733Y-98124406D01*
X145157877Y-98135789D01*
D14*
X137285000Y-98623000D02*
X137285000Y-99553000D01*
X137285000Y-101783000D02*
X137285000Y-100853000D01*
X137285000Y-101783000D02*
X135125000Y-101783000D01*
X137285000Y-98623000D02*
X135825000Y-98623000D01*
X133729000Y-98623000D02*
X133729000Y-99553000D01*
X133729000Y-101783000D02*
X133729000Y-100853000D01*
X133729000Y-101783000D02*
X131569000Y-101783000D01*
X133729000Y-98623000D02*
X132269000Y-98623000D01*
X137285000Y-102306000D02*
X137285000Y-103236000D01*
X137285000Y-105466000D02*
X137285000Y-104536000D01*
X137285000Y-105466000D02*
X135125000Y-105466000D01*
X137285000Y-102306000D02*
X135825000Y-102306000D01*
X133729000Y-102306000D02*
X133729000Y-103236000D01*
X133729000Y-105466000D02*
X133729000Y-104536000D01*
X133729000Y-105466000D02*
X131569000Y-105466000D01*
X133729000Y-102306000D02*
X132269000Y-102306000D01*
X172087000Y-96449000D02*
X172087000Y-95519000D01*
X172087000Y-93289000D02*
X172087000Y-94219000D01*
X172087000Y-93289000D02*
X174247000Y-93289000D01*
X172087000Y-96449000D02*
X173547000Y-96449000D01*
X128780000Y-114737000D02*
X128780000Y-113807000D01*
X128780000Y-111577000D02*
X128780000Y-112507000D01*
X128780000Y-111577000D02*
X130940000Y-111577000D01*
X128780000Y-114737000D02*
X130240000Y-114737000D01*
X149160000Y-88660000D02*
X149660000Y-88660000D01*
X149660000Y-89720000D02*
X149160000Y-89720000D01*
D16*
G36*
X170281849Y-107424403D02*
X169968333Y-107745473D01*
X169968333Y-109812667D01*
X173609000Y-109812667D01*
X173609000Y-107272667D01*
X173439666Y-107272667D01*
X173439666Y-109643333D01*
X170137666Y-109643333D01*
X170137666Y-107914806D01*
X170451183Y-107593736D01*
X170764699Y-107272667D01*
X173439666Y-107272667D01*
X173609000Y-107272667D01*
X173609000Y-107103333D01*
X170595366Y-107103333D01*
X170281849Y-107424403D01*
X170281849Y-107424403D01*
G37*
X170281849Y-107424403D02*
X169968333Y-107745473D01*
X169968333Y-109812667D01*
X173609000Y-109812667D01*
X173609000Y-107272667D01*
X173439666Y-107272667D01*
X173439666Y-109643333D01*
X170137666Y-109643333D01*
X170137666Y-107914806D01*
X170451183Y-107593736D01*
X170764699Y-107272667D01*
X173439666Y-107272667D01*
X173609000Y-107272667D01*
X173609000Y-107103333D01*
X170595366Y-107103333D01*
X170281849Y-107424403D01*
G36*
X171349629Y-108025356D02*
X171170190Y-108108782D01*
X170952723Y-108232900D01*
X170746519Y-108368027D01*
X170600870Y-108484483D01*
X170561000Y-108542667D01*
X170626643Y-108624615D01*
X170790711Y-108748039D01*
X171003912Y-108883258D01*
X171216955Y-109000589D01*
X171380548Y-109070350D01*
X171441748Y-109073029D01*
X171485094Y-108954231D01*
X171492333Y-108867222D01*
X171507563Y-108796312D01*
X171573440Y-108750888D01*
X171720246Y-108725398D01*
X171978261Y-108714289D01*
X172339000Y-108712000D01*
X172724350Y-108709676D01*
X172971036Y-108698617D01*
X173109706Y-108672694D01*
X173171010Y-108625777D01*
X173185597Y-108551735D01*
X173185666Y-108542667D01*
X173174046Y-108465597D01*
X173118753Y-108416259D01*
X172989137Y-108388525D01*
X172754551Y-108376264D01*
X172384344Y-108373347D01*
X172339000Y-108373333D01*
X171952220Y-108370541D01*
X171704452Y-108358464D01*
X171565413Y-108331549D01*
X171504822Y-108284246D01*
X171492333Y-108218111D01*
X171467744Y-108060514D01*
X171441748Y-108012304D01*
X171349629Y-108025356D01*
X171349629Y-108025356D01*
G37*
X171349629Y-108025356D02*
X171170190Y-108108782D01*
X170952723Y-108232900D01*
X170746519Y-108368027D01*
X170600870Y-108484483D01*
X170561000Y-108542667D01*
X170626643Y-108624615D01*
X170790711Y-108748039D01*
X171003912Y-108883258D01*
X171216955Y-109000589D01*
X171380548Y-109070350D01*
X171441748Y-109073029D01*
X171485094Y-108954231D01*
X171492333Y-108867222D01*
X171507563Y-108796312D01*
X171573440Y-108750888D01*
X171720246Y-108725398D01*
X171978261Y-108714289D01*
X172339000Y-108712000D01*
X172724350Y-108709676D01*
X172971036Y-108698617D01*
X173109706Y-108672694D01*
X173171010Y-108625777D01*
X173185597Y-108551735D01*
X173185666Y-108542667D01*
X173174046Y-108465597D01*
X173118753Y-108416259D01*
X172989137Y-108388525D01*
X172754551Y-108376264D01*
X172384344Y-108373347D01*
X172339000Y-108373333D01*
X171952220Y-108370541D01*
X171704452Y-108358464D01*
X171565413Y-108331549D01*
X171504822Y-108284246D01*
X171492333Y-108218111D01*
X171467744Y-108060514D01*
X171441748Y-108012304D01*
X171349629Y-108025356D01*
D17*
X146724914Y-110234186D02*
X146755152Y-110264424D01*
X146845867Y-110294662D01*
X146906343Y-110294662D01*
X146997057Y-110264424D01*
X147057533Y-110203948D01*
X147087772Y-110143471D01*
X147118010Y-110022519D01*
X147118010Y-109931805D01*
X147087772Y-109810852D01*
X147057533Y-109750376D01*
X146997057Y-109689900D01*
X146906343Y-109659662D01*
X146845867Y-109659662D01*
X146755152Y-109689900D01*
X146724914Y-109720138D01*
X146120152Y-110294662D02*
X146483010Y-110294662D01*
X146301581Y-110294662D02*
X146301581Y-109659662D01*
X146362057Y-109750376D01*
X146422533Y-109810852D01*
X146483010Y-109841090D01*
X145757295Y-109931805D02*
X145817771Y-109901567D01*
X145848010Y-109871329D01*
X145878248Y-109810852D01*
X145878248Y-109780614D01*
X145848010Y-109720138D01*
X145817771Y-109689900D01*
X145757295Y-109659662D01*
X145636343Y-109659662D01*
X145575867Y-109689900D01*
X145545629Y-109720138D01*
X145515390Y-109780614D01*
X145515390Y-109810852D01*
X145545629Y-109871329D01*
X145575867Y-109901567D01*
X145636343Y-109931805D01*
X145757295Y-109931805D01*
X145817771Y-109962043D01*
X145848010Y-109992281D01*
X145878248Y-110052757D01*
X145878248Y-110173710D01*
X145848010Y-110234186D01*
X145817771Y-110264424D01*
X145757295Y-110294662D01*
X145636343Y-110294662D01*
X145575867Y-110264424D01*
X145545629Y-110234186D01*
X145515390Y-110173710D01*
X145515390Y-110052757D01*
X145545629Y-109992281D01*
X145575867Y-109962043D01*
X145636343Y-109931805D01*
X157941434Y-112453662D02*
X158243815Y-112453662D01*
X158243815Y-111818662D01*
X157790243Y-111818662D02*
X157397147Y-111818662D01*
X157608814Y-112060567D01*
X157518100Y-112060567D01*
X157457624Y-112090805D01*
X157427386Y-112121043D01*
X157397147Y-112181519D01*
X157397147Y-112332710D01*
X157427386Y-112393186D01*
X157457624Y-112423424D01*
X157518100Y-112453662D01*
X157699528Y-112453662D01*
X157760005Y-112423424D01*
X157790243Y-112393186D01*
X162662810Y-106840262D02*
X162662810Y-107354310D01*
X162632571Y-107414786D01*
X162602333Y-107445024D01*
X162541857Y-107475262D01*
X162420905Y-107475262D01*
X162360429Y-107445024D01*
X162330190Y-107414786D01*
X162299952Y-107354310D01*
X162299952Y-106840262D01*
X161725429Y-107051929D02*
X161725429Y-107475262D01*
X161876619Y-106810024D02*
X162027810Y-107263595D01*
X161634714Y-107263595D01*
X127967014Y-110472462D02*
X128178681Y-110170081D01*
X128329872Y-110472462D02*
X128329872Y-109837462D01*
X128087967Y-109837462D01*
X128027491Y-109867700D01*
X127997252Y-109897938D01*
X127967014Y-109958414D01*
X127967014Y-110049129D01*
X127997252Y-110109605D01*
X128027491Y-110139843D01*
X128087967Y-110170081D01*
X128329872Y-110170081D01*
X127362252Y-110472462D02*
X127725110Y-110472462D01*
X127543681Y-110472462D02*
X127543681Y-109837462D01*
X127604157Y-109928176D01*
X127664633Y-109988652D01*
X127725110Y-110018890D01*
X127150586Y-109837462D02*
X126757490Y-109837462D01*
X126969157Y-110079367D01*
X126878443Y-110079367D01*
X126817967Y-110109605D01*
X126787729Y-110139843D01*
X126757490Y-110200319D01*
X126757490Y-110351510D01*
X126787729Y-110411986D01*
X126817967Y-110442224D01*
X126878443Y-110472462D01*
X127059871Y-110472462D01*
X127120348Y-110442224D01*
X127150586Y-110411986D01*
X140108214Y-99347262D02*
X140319881Y-99044881D01*
X140471072Y-99347262D02*
X140471072Y-98712262D01*
X140229167Y-98712262D01*
X140168691Y-98742500D01*
X140138452Y-98772738D01*
X140108214Y-98833214D01*
X140108214Y-98923929D01*
X140138452Y-98984405D01*
X140168691Y-99014643D01*
X140229167Y-99044881D01*
X140471072Y-99044881D01*
X139563929Y-98923929D02*
X139563929Y-99347262D01*
X139715119Y-98682024D02*
X139866310Y-99135595D01*
X139473214Y-99135595D01*
X138928929Y-98712262D02*
X139231310Y-98712262D01*
X139261548Y-99014643D01*
X139231310Y-98984405D01*
X139170833Y-98954167D01*
X139019643Y-98954167D01*
X138959167Y-98984405D01*
X138928929Y-99014643D01*
X138898690Y-99075119D01*
X138898690Y-99226310D01*
X138928929Y-99286786D01*
X138959167Y-99317024D01*
X139019643Y-99347262D01*
X139170833Y-99347262D01*
X139231310Y-99317024D01*
X139261548Y-99286786D01*
X148928062Y-97635786D02*
X148625681Y-97424119D01*
X148928062Y-97272928D02*
X148293062Y-97272928D01*
X148293062Y-97514833D01*
X148323300Y-97575309D01*
X148353538Y-97605548D01*
X148414014Y-97635786D01*
X148504729Y-97635786D01*
X148565205Y-97605548D01*
X148595443Y-97575309D01*
X148625681Y-97514833D01*
X148625681Y-97272928D01*
X148353538Y-97877690D02*
X148323300Y-97907928D01*
X148293062Y-97968405D01*
X148293062Y-98119595D01*
X148323300Y-98180071D01*
X148353538Y-98210309D01*
X148414014Y-98240548D01*
X148474490Y-98240548D01*
X148565205Y-98210309D01*
X148928062Y-97847452D01*
X148928062Y-98240548D01*
X148293062Y-98815071D02*
X148293062Y-98512690D01*
X148595443Y-98482452D01*
X148565205Y-98512690D01*
X148534967Y-98573167D01*
X148534967Y-98724357D01*
X148565205Y-98784833D01*
X148595443Y-98815071D01*
X148655919Y-98845310D01*
X148807110Y-98845310D01*
X148867586Y-98815071D01*
X148897824Y-98784833D01*
X148928062Y-98724357D01*
X148928062Y-98573167D01*
X148897824Y-98512690D01*
X148867586Y-98482452D01*
X149842462Y-97686586D02*
X149540081Y-97474919D01*
X149842462Y-97323728D02*
X149207462Y-97323728D01*
X149207462Y-97565633D01*
X149237700Y-97626109D01*
X149267938Y-97656348D01*
X149328414Y-97686586D01*
X149419129Y-97686586D01*
X149479605Y-97656348D01*
X149509843Y-97626109D01*
X149540081Y-97565633D01*
X149540081Y-97323728D01*
X149267938Y-97928490D02*
X149237700Y-97958728D01*
X149207462Y-98019205D01*
X149207462Y-98170395D01*
X149237700Y-98230871D01*
X149267938Y-98261109D01*
X149328414Y-98291348D01*
X149388890Y-98291348D01*
X149479605Y-98261109D01*
X149842462Y-97898252D01*
X149842462Y-98291348D01*
X149842462Y-98896110D02*
X149842462Y-98533252D01*
X149842462Y-98714681D02*
X149207462Y-98714681D01*
X149298176Y-98654205D01*
X149358652Y-98593729D01*
X149388890Y-98533252D01*
X147759662Y-97686586D02*
X147457281Y-97474919D01*
X147759662Y-97323728D02*
X147124662Y-97323728D01*
X147124662Y-97565633D01*
X147154900Y-97626109D01*
X147185138Y-97656348D01*
X147245614Y-97686586D01*
X147336329Y-97686586D01*
X147396805Y-97656348D01*
X147427043Y-97626109D01*
X147457281Y-97565633D01*
X147457281Y-97323728D01*
X147185138Y-97928490D02*
X147154900Y-97958728D01*
X147124662Y-98019205D01*
X147124662Y-98170395D01*
X147154900Y-98230871D01*
X147185138Y-98261109D01*
X147245614Y-98291348D01*
X147306090Y-98291348D01*
X147396805Y-98261109D01*
X147759662Y-97898252D01*
X147759662Y-98291348D01*
X147185138Y-98533252D02*
X147154900Y-98563490D01*
X147124662Y-98623967D01*
X147124662Y-98775157D01*
X147154900Y-98835633D01*
X147185138Y-98865871D01*
X147245614Y-98896110D01*
X147306090Y-98896110D01*
X147396805Y-98865871D01*
X147759662Y-98503014D01*
X147759662Y-98896110D01*
X146784786Y-97991386D02*
X146815024Y-97961148D01*
X146845262Y-97870433D01*
X146845262Y-97809957D01*
X146815024Y-97719243D01*
X146754548Y-97658767D01*
X146694071Y-97628528D01*
X146573119Y-97598290D01*
X146482405Y-97598290D01*
X146361452Y-97628528D01*
X146300976Y-97658767D01*
X146240500Y-97719243D01*
X146210262Y-97809957D01*
X146210262Y-97870433D01*
X146240500Y-97961148D01*
X146270738Y-97991386D01*
X146845262Y-98596148D02*
X146845262Y-98233290D01*
X146845262Y-98414719D02*
X146210262Y-98414719D01*
X146300976Y-98354243D01*
X146361452Y-98293767D01*
X146391690Y-98233290D01*
X146210262Y-99170671D02*
X146210262Y-98868290D01*
X146512643Y-98838052D01*
X146482405Y-98868290D01*
X146452167Y-98928767D01*
X146452167Y-99079957D01*
X146482405Y-99140433D01*
X146512643Y-99170671D01*
X146573119Y-99200910D01*
X146724310Y-99200910D01*
X146784786Y-99170671D01*
X146815024Y-99140433D01*
X146845262Y-99079957D01*
X146845262Y-98928767D01*
X146815024Y-98868290D01*
X146784786Y-98838052D01*
X146763014Y-95334062D02*
X146974681Y-95031681D01*
X147125872Y-95334062D02*
X147125872Y-94699062D01*
X146883967Y-94699062D01*
X146823491Y-94729300D01*
X146793252Y-94759538D01*
X146763014Y-94820014D01*
X146763014Y-94910729D01*
X146793252Y-94971205D01*
X146823491Y-95001443D01*
X146883967Y-95031681D01*
X147125872Y-95031681D01*
X146551348Y-94699062D02*
X146158252Y-94699062D01*
X146369919Y-94940967D01*
X146279205Y-94940967D01*
X146218729Y-94971205D01*
X146188491Y-95001443D01*
X146158252Y-95061919D01*
X146158252Y-95213110D01*
X146188491Y-95273586D01*
X146218729Y-95303824D01*
X146279205Y-95334062D01*
X146460633Y-95334062D01*
X146521110Y-95303824D01*
X146551348Y-95273586D01*
X145795395Y-94971205D02*
X145855871Y-94940967D01*
X145886110Y-94910729D01*
X145916348Y-94850252D01*
X145916348Y-94820014D01*
X145886110Y-94759538D01*
X145855871Y-94729300D01*
X145795395Y-94699062D01*
X145674443Y-94699062D01*
X145613967Y-94729300D01*
X145583729Y-94759538D01*
X145553490Y-94820014D01*
X145553490Y-94850252D01*
X145583729Y-94910729D01*
X145613967Y-94940967D01*
X145674443Y-94971205D01*
X145795395Y-94971205D01*
X145855871Y-95001443D01*
X145886110Y-95031681D01*
X145916348Y-95092157D01*
X145916348Y-95213110D01*
X145886110Y-95273586D01*
X145855871Y-95303824D01*
X145795395Y-95334062D01*
X145674443Y-95334062D01*
X145613967Y-95303824D01*
X145583729Y-95273586D01*
X145553490Y-95213110D01*
X145553490Y-95092157D01*
X145583729Y-95031681D01*
X145613967Y-95001443D01*
X145674443Y-94971205D01*
X138402786Y-112009767D02*
X138433024Y-111979529D01*
X138463262Y-111888814D01*
X138463262Y-111828338D01*
X138433024Y-111737624D01*
X138372548Y-111677148D01*
X138312071Y-111646909D01*
X138191119Y-111616671D01*
X138100405Y-111616671D01*
X137979452Y-111646909D01*
X137918976Y-111677148D01*
X137858500Y-111737624D01*
X137828262Y-111828338D01*
X137828262Y-111888814D01*
X137858500Y-111979529D01*
X137888738Y-112009767D01*
X137828262Y-112221433D02*
X137828262Y-112644767D01*
X138463262Y-112372624D01*
X153287186Y-97125367D02*
X153317424Y-97095129D01*
X153347662Y-97004414D01*
X153347662Y-96943938D01*
X153317424Y-96853224D01*
X153256948Y-96792748D01*
X153196471Y-96762509D01*
X153075519Y-96732271D01*
X152984805Y-96732271D01*
X152863852Y-96762509D01*
X152803376Y-96792748D01*
X152742900Y-96853224D01*
X152712662Y-96943938D01*
X152712662Y-97004414D01*
X152742900Y-97095129D01*
X152773138Y-97125367D01*
X152712662Y-97337033D02*
X152712662Y-97730129D01*
X152954567Y-97518462D01*
X152954567Y-97609176D01*
X152984805Y-97669652D01*
X153015043Y-97699890D01*
X153075519Y-97730129D01*
X153226710Y-97730129D01*
X153287186Y-97699890D01*
X153317424Y-97669652D01*
X153347662Y-97609176D01*
X153347662Y-97427748D01*
X153317424Y-97367271D01*
X153287186Y-97337033D01*
X154099986Y-97176167D02*
X154130224Y-97145929D01*
X154160462Y-97055214D01*
X154160462Y-96994738D01*
X154130224Y-96904024D01*
X154069748Y-96843548D01*
X154009271Y-96813309D01*
X153888319Y-96783071D01*
X153797605Y-96783071D01*
X153676652Y-96813309D01*
X153616176Y-96843548D01*
X153555700Y-96904024D01*
X153525462Y-96994738D01*
X153525462Y-97055214D01*
X153555700Y-97145929D01*
X153585938Y-97176167D01*
X153737129Y-97720452D02*
X154160462Y-97720452D01*
X153495224Y-97569262D02*
X153948795Y-97418071D01*
X153948795Y-97811167D01*
X154963586Y-97176167D02*
X154993824Y-97145929D01*
X155024062Y-97055214D01*
X155024062Y-96994738D01*
X154993824Y-96904024D01*
X154933348Y-96843548D01*
X154872871Y-96813309D01*
X154751919Y-96783071D01*
X154661205Y-96783071D01*
X154540252Y-96813309D01*
X154479776Y-96843548D01*
X154419300Y-96904024D01*
X154389062Y-96994738D01*
X154389062Y-97055214D01*
X154419300Y-97145929D01*
X154449538Y-97176167D01*
X154389062Y-97750690D02*
X154389062Y-97448309D01*
X154691443Y-97418071D01*
X154661205Y-97448309D01*
X154630967Y-97508786D01*
X154630967Y-97659976D01*
X154661205Y-97720452D01*
X154691443Y-97750690D01*
X154751919Y-97780929D01*
X154903110Y-97780929D01*
X154963586Y-97750690D01*
X154993824Y-97720452D01*
X155024062Y-97659976D01*
X155024062Y-97508786D01*
X154993824Y-97448309D01*
X154963586Y-97418071D01*
X158875186Y-97684167D02*
X158905424Y-97653929D01*
X158935662Y-97563214D01*
X158935662Y-97502738D01*
X158905424Y-97412024D01*
X158844948Y-97351548D01*
X158784471Y-97321309D01*
X158663519Y-97291071D01*
X158572805Y-97291071D01*
X158451852Y-97321309D01*
X158391376Y-97351548D01*
X158330900Y-97412024D01*
X158300662Y-97502738D01*
X158300662Y-97563214D01*
X158330900Y-97653929D01*
X158361138Y-97684167D01*
X158572805Y-98047024D02*
X158542567Y-97986548D01*
X158512329Y-97956309D01*
X158451852Y-97926071D01*
X158421614Y-97926071D01*
X158361138Y-97956309D01*
X158330900Y-97986548D01*
X158300662Y-98047024D01*
X158300662Y-98167976D01*
X158330900Y-98228452D01*
X158361138Y-98258690D01*
X158421614Y-98288929D01*
X158451852Y-98288929D01*
X158512329Y-98258690D01*
X158542567Y-98228452D01*
X158572805Y-98167976D01*
X158572805Y-98047024D01*
X158603043Y-97986548D01*
X158633281Y-97956309D01*
X158693757Y-97926071D01*
X158814710Y-97926071D01*
X158875186Y-97956309D01*
X158905424Y-97986548D01*
X158935662Y-98047024D01*
X158935662Y-98167976D01*
X158905424Y-98228452D01*
X158875186Y-98258690D01*
X158814710Y-98288929D01*
X158693757Y-98288929D01*
X158633281Y-98258690D01*
X158603043Y-98228452D01*
X158572805Y-98167976D01*
X144447986Y-112111367D02*
X144478224Y-112081129D01*
X144508462Y-111990414D01*
X144508462Y-111929938D01*
X144478224Y-111839224D01*
X144417748Y-111778748D01*
X144357271Y-111748509D01*
X144236319Y-111718271D01*
X144145605Y-111718271D01*
X144024652Y-111748509D01*
X143964176Y-111778748D01*
X143903700Y-111839224D01*
X143873462Y-111929938D01*
X143873462Y-111990414D01*
X143903700Y-112081129D01*
X143933938Y-112111367D01*
X144508462Y-112413748D02*
X144508462Y-112534700D01*
X144478224Y-112595176D01*
X144447986Y-112625414D01*
X144357271Y-112685890D01*
X144236319Y-112716129D01*
X143994414Y-112716129D01*
X143933938Y-112685890D01*
X143903700Y-112655652D01*
X143873462Y-112595176D01*
X143873462Y-112474224D01*
X143903700Y-112413748D01*
X143933938Y-112383509D01*
X143994414Y-112353271D01*
X144145605Y-112353271D01*
X144206081Y-112383509D01*
X144236319Y-112413748D01*
X144266557Y-112474224D01*
X144266557Y-112595176D01*
X144236319Y-112655652D01*
X144206081Y-112685890D01*
X144145605Y-112716129D01*
X157859186Y-97584986D02*
X157889424Y-97554748D01*
X157919662Y-97464033D01*
X157919662Y-97403557D01*
X157889424Y-97312843D01*
X157828948Y-97252367D01*
X157768471Y-97222128D01*
X157647519Y-97191890D01*
X157556805Y-97191890D01*
X157435852Y-97222128D01*
X157375376Y-97252367D01*
X157314900Y-97312843D01*
X157284662Y-97403557D01*
X157284662Y-97464033D01*
X157314900Y-97554748D01*
X157345138Y-97584986D01*
X157919662Y-98189748D02*
X157919662Y-97826890D01*
X157919662Y-98008319D02*
X157284662Y-98008319D01*
X157375376Y-97947843D01*
X157435852Y-97887367D01*
X157466090Y-97826890D01*
X157284662Y-98582843D02*
X157284662Y-98643319D01*
X157314900Y-98703795D01*
X157345138Y-98734033D01*
X157405614Y-98764271D01*
X157526567Y-98794510D01*
X157677757Y-98794510D01*
X157798710Y-98764271D01*
X157859186Y-98734033D01*
X157889424Y-98703795D01*
X157919662Y-98643319D01*
X157919662Y-98582843D01*
X157889424Y-98522367D01*
X157859186Y-98492129D01*
X157798710Y-98461890D01*
X157677757Y-98431652D01*
X157526567Y-98431652D01*
X157405614Y-98461890D01*
X157345138Y-98492129D01*
X157314900Y-98522367D01*
X157284662Y-98582843D01*
X159891186Y-97534186D02*
X159921424Y-97503948D01*
X159951662Y-97413233D01*
X159951662Y-97352757D01*
X159921424Y-97262043D01*
X159860948Y-97201567D01*
X159800471Y-97171328D01*
X159679519Y-97141090D01*
X159588805Y-97141090D01*
X159467852Y-97171328D01*
X159407376Y-97201567D01*
X159346900Y-97262043D01*
X159316662Y-97352757D01*
X159316662Y-97413233D01*
X159346900Y-97503948D01*
X159377138Y-97534186D01*
X159951662Y-98138948D02*
X159951662Y-97776090D01*
X159951662Y-97957519D02*
X159316662Y-97957519D01*
X159407376Y-97897043D01*
X159467852Y-97836567D01*
X159498090Y-97776090D01*
X159951662Y-98743710D02*
X159951662Y-98380852D01*
X159951662Y-98562281D02*
X159316662Y-98562281D01*
X159407376Y-98501805D01*
X159467852Y-98441329D01*
X159498090Y-98380852D01*
X143025586Y-112113786D02*
X143055824Y-112083548D01*
X143086062Y-111992833D01*
X143086062Y-111932357D01*
X143055824Y-111841643D01*
X142995348Y-111781167D01*
X142934871Y-111750928D01*
X142813919Y-111720690D01*
X142723205Y-111720690D01*
X142602252Y-111750928D01*
X142541776Y-111781167D01*
X142481300Y-111841643D01*
X142451062Y-111932357D01*
X142451062Y-111992833D01*
X142481300Y-112083548D01*
X142511538Y-112113786D01*
X143086062Y-112718548D02*
X143086062Y-112355690D01*
X143086062Y-112537119D02*
X142451062Y-112537119D01*
X142541776Y-112476643D01*
X142602252Y-112416167D01*
X142632490Y-112355690D01*
X142511538Y-112960452D02*
X142481300Y-112990690D01*
X142451062Y-113051167D01*
X142451062Y-113202357D01*
X142481300Y-113262833D01*
X142511538Y-113293071D01*
X142572014Y-113323310D01*
X142632490Y-113323310D01*
X142723205Y-113293071D01*
X143086062Y-112930214D01*
X143086062Y-113323310D01*
X158570386Y-108710186D02*
X158600624Y-108679948D01*
X158630862Y-108589233D01*
X158630862Y-108528757D01*
X158600624Y-108438043D01*
X158540148Y-108377567D01*
X158479671Y-108347328D01*
X158358719Y-108317090D01*
X158268005Y-108317090D01*
X158147052Y-108347328D01*
X158086576Y-108377567D01*
X158026100Y-108438043D01*
X157995862Y-108528757D01*
X157995862Y-108589233D01*
X158026100Y-108679948D01*
X158056338Y-108710186D01*
X158630862Y-109314948D02*
X158630862Y-108952090D01*
X158630862Y-109133519D02*
X157995862Y-109133519D01*
X158086576Y-109073043D01*
X158147052Y-109012567D01*
X158177290Y-108952090D01*
X157995862Y-109859233D02*
X157995862Y-109738281D01*
X158026100Y-109677805D01*
X158056338Y-109647567D01*
X158147052Y-109587090D01*
X158268005Y-109556852D01*
X158509910Y-109556852D01*
X158570386Y-109587090D01*
X158600624Y-109617329D01*
X158630862Y-109677805D01*
X158630862Y-109798757D01*
X158600624Y-109859233D01*
X158570386Y-109889471D01*
X158509910Y-109919710D01*
X158358719Y-109919710D01*
X158298243Y-109889471D01*
X158268005Y-109859233D01*
X158237767Y-109798757D01*
X158237767Y-109677805D01*
X158268005Y-109617329D01*
X158298243Y-109587090D01*
X158358719Y-109556852D01*
X157605186Y-108710186D02*
X157635424Y-108679948D01*
X157665662Y-108589233D01*
X157665662Y-108528757D01*
X157635424Y-108438043D01*
X157574948Y-108377567D01*
X157514471Y-108347328D01*
X157393519Y-108317090D01*
X157302805Y-108317090D01*
X157181852Y-108347328D01*
X157121376Y-108377567D01*
X157060900Y-108438043D01*
X157030662Y-108528757D01*
X157030662Y-108589233D01*
X157060900Y-108679948D01*
X157091138Y-108710186D01*
X157665662Y-109314948D02*
X157665662Y-108952090D01*
X157665662Y-109133519D02*
X157030662Y-109133519D01*
X157121376Y-109073043D01*
X157181852Y-109012567D01*
X157212090Y-108952090D01*
X157030662Y-109526614D02*
X157030662Y-109949948D01*
X157665662Y-109677805D01*
X159738786Y-102563386D02*
X159769024Y-102533148D01*
X159799262Y-102442433D01*
X159799262Y-102381957D01*
X159769024Y-102291243D01*
X159708548Y-102230767D01*
X159648071Y-102200528D01*
X159527119Y-102170290D01*
X159436405Y-102170290D01*
X159315452Y-102200528D01*
X159254976Y-102230767D01*
X159194500Y-102291243D01*
X159164262Y-102381957D01*
X159164262Y-102442433D01*
X159194500Y-102533148D01*
X159224738Y-102563386D01*
X159799262Y-103168148D02*
X159799262Y-102805290D01*
X159799262Y-102986719D02*
X159164262Y-102986719D01*
X159254976Y-102926243D01*
X159315452Y-102865767D01*
X159345690Y-102805290D01*
X159799262Y-103470529D02*
X159799262Y-103591481D01*
X159769024Y-103651957D01*
X159738786Y-103682195D01*
X159648071Y-103742671D01*
X159527119Y-103772910D01*
X159285214Y-103772910D01*
X159224738Y-103742671D01*
X159194500Y-103712433D01*
X159164262Y-103651957D01*
X159164262Y-103531005D01*
X159194500Y-103470529D01*
X159224738Y-103440290D01*
X159285214Y-103410052D01*
X159436405Y-103410052D01*
X159496881Y-103440290D01*
X159527119Y-103470529D01*
X159557357Y-103531005D01*
X159557357Y-103651957D01*
X159527119Y-103712433D01*
X159496881Y-103742671D01*
X159436405Y-103772910D01*
X160856386Y-107338586D02*
X160886624Y-107308348D01*
X160916862Y-107217633D01*
X160916862Y-107157157D01*
X160886624Y-107066443D01*
X160826148Y-107005967D01*
X160765671Y-106975728D01*
X160644719Y-106945490D01*
X160554005Y-106945490D01*
X160433052Y-106975728D01*
X160372576Y-107005967D01*
X160312100Y-107066443D01*
X160281862Y-107157157D01*
X160281862Y-107217633D01*
X160312100Y-107308348D01*
X160342338Y-107338586D01*
X160342338Y-107580490D02*
X160312100Y-107610728D01*
X160281862Y-107671205D01*
X160281862Y-107822395D01*
X160312100Y-107882871D01*
X160342338Y-107913109D01*
X160402814Y-107943348D01*
X160463290Y-107943348D01*
X160554005Y-107913109D01*
X160916862Y-107550252D01*
X160916862Y-107943348D01*
X160281862Y-108336443D02*
X160281862Y-108396919D01*
X160312100Y-108457395D01*
X160342338Y-108487633D01*
X160402814Y-108517871D01*
X160523767Y-108548110D01*
X160674957Y-108548110D01*
X160795910Y-108517871D01*
X160856386Y-108487633D01*
X160886624Y-108457395D01*
X160916862Y-108396919D01*
X160916862Y-108336443D01*
X160886624Y-108275967D01*
X160856386Y-108245729D01*
X160795910Y-108215490D01*
X160674957Y-108185252D01*
X160523767Y-108185252D01*
X160402814Y-108215490D01*
X160342338Y-108245729D01*
X160312100Y-108275967D01*
X160281862Y-108336443D01*
X160225014Y-111173986D02*
X160255252Y-111204224D01*
X160345967Y-111234462D01*
X160406443Y-111234462D01*
X160497157Y-111204224D01*
X160557633Y-111143748D01*
X160587872Y-111083271D01*
X160618110Y-110962319D01*
X160618110Y-110871605D01*
X160587872Y-110750652D01*
X160557633Y-110690176D01*
X160497157Y-110629700D01*
X160406443Y-110599462D01*
X160345967Y-110599462D01*
X160255252Y-110629700D01*
X160225014Y-110659938D01*
X159983110Y-110659938D02*
X159952872Y-110629700D01*
X159892395Y-110599462D01*
X159741205Y-110599462D01*
X159680729Y-110629700D01*
X159650491Y-110659938D01*
X159620252Y-110720414D01*
X159620252Y-110780890D01*
X159650491Y-110871605D01*
X160013348Y-111234462D01*
X159620252Y-111234462D01*
X159378348Y-110659938D02*
X159348110Y-110629700D01*
X159287633Y-110599462D01*
X159136443Y-110599462D01*
X159075967Y-110629700D01*
X159045729Y-110659938D01*
X159015490Y-110720414D01*
X159015490Y-110780890D01*
X159045729Y-110871605D01*
X159408586Y-111234462D01*
X159015490Y-111234462D01*
X167460386Y-111148586D02*
X167490624Y-111118348D01*
X167520862Y-111027633D01*
X167520862Y-110967157D01*
X167490624Y-110876443D01*
X167430148Y-110815967D01*
X167369671Y-110785728D01*
X167248719Y-110755490D01*
X167158005Y-110755490D01*
X167037052Y-110785728D01*
X166976576Y-110815967D01*
X166916100Y-110876443D01*
X166885862Y-110967157D01*
X166885862Y-111027633D01*
X166916100Y-111118348D01*
X166946338Y-111148586D01*
X166946338Y-111390490D02*
X166916100Y-111420728D01*
X166885862Y-111481205D01*
X166885862Y-111632395D01*
X166916100Y-111692871D01*
X166946338Y-111723109D01*
X167006814Y-111753348D01*
X167067290Y-111753348D01*
X167158005Y-111723109D01*
X167520862Y-111360252D01*
X167520862Y-111753348D01*
X166885862Y-111965014D02*
X166885862Y-112358110D01*
X167127767Y-112146443D01*
X167127767Y-112237157D01*
X167158005Y-112297633D01*
X167188243Y-112327871D01*
X167248719Y-112358110D01*
X167399910Y-112358110D01*
X167460386Y-112327871D01*
X167490624Y-112297633D01*
X167520862Y-112237157D01*
X167520862Y-112055729D01*
X167490624Y-111995252D01*
X167460386Y-111965014D01*
X164564786Y-107592586D02*
X164595024Y-107562348D01*
X164625262Y-107471633D01*
X164625262Y-107411157D01*
X164595024Y-107320443D01*
X164534548Y-107259967D01*
X164474071Y-107229728D01*
X164353119Y-107199490D01*
X164262405Y-107199490D01*
X164141452Y-107229728D01*
X164080976Y-107259967D01*
X164020500Y-107320443D01*
X163990262Y-107411157D01*
X163990262Y-107471633D01*
X164020500Y-107562348D01*
X164050738Y-107592586D01*
X164050738Y-107834490D02*
X164020500Y-107864728D01*
X163990262Y-107925205D01*
X163990262Y-108076395D01*
X164020500Y-108136871D01*
X164050738Y-108167109D01*
X164111214Y-108197348D01*
X164171690Y-108197348D01*
X164262405Y-108167109D01*
X164625262Y-107804252D01*
X164625262Y-108197348D01*
X164201929Y-108741633D02*
X164625262Y-108741633D01*
X163960024Y-108590443D02*
X164413595Y-108439252D01*
X164413595Y-108832348D01*
X165631586Y-107490986D02*
X165661824Y-107460748D01*
X165692062Y-107370033D01*
X165692062Y-107309557D01*
X165661824Y-107218843D01*
X165601348Y-107158367D01*
X165540871Y-107128128D01*
X165419919Y-107097890D01*
X165329205Y-107097890D01*
X165208252Y-107128128D01*
X165147776Y-107158367D01*
X165087300Y-107218843D01*
X165057062Y-107309557D01*
X165057062Y-107370033D01*
X165087300Y-107460748D01*
X165117538Y-107490986D01*
X165117538Y-107732890D02*
X165087300Y-107763128D01*
X165057062Y-107823605D01*
X165057062Y-107974795D01*
X165087300Y-108035271D01*
X165117538Y-108065509D01*
X165178014Y-108095748D01*
X165238490Y-108095748D01*
X165329205Y-108065509D01*
X165692062Y-107702652D01*
X165692062Y-108095748D01*
X165057062Y-108670271D02*
X165057062Y-108367890D01*
X165359443Y-108337652D01*
X165329205Y-108367890D01*
X165298967Y-108428367D01*
X165298967Y-108579557D01*
X165329205Y-108640033D01*
X165359443Y-108670271D01*
X165419919Y-108700510D01*
X165571110Y-108700510D01*
X165631586Y-108670271D01*
X165661824Y-108640033D01*
X165692062Y-108579557D01*
X165692062Y-108428367D01*
X165661824Y-108367890D01*
X165631586Y-108337652D01*
X166393586Y-111097786D02*
X166423824Y-111067548D01*
X166454062Y-110976833D01*
X166454062Y-110916357D01*
X166423824Y-110825643D01*
X166363348Y-110765167D01*
X166302871Y-110734928D01*
X166181919Y-110704690D01*
X166091205Y-110704690D01*
X165970252Y-110734928D01*
X165909776Y-110765167D01*
X165849300Y-110825643D01*
X165819062Y-110916357D01*
X165819062Y-110976833D01*
X165849300Y-111067548D01*
X165879538Y-111097786D01*
X165879538Y-111339690D02*
X165849300Y-111369928D01*
X165819062Y-111430405D01*
X165819062Y-111581595D01*
X165849300Y-111642071D01*
X165879538Y-111672309D01*
X165940014Y-111702548D01*
X166000490Y-111702548D01*
X166091205Y-111672309D01*
X166454062Y-111309452D01*
X166454062Y-111702548D01*
X165819062Y-112246833D02*
X165819062Y-112125881D01*
X165849300Y-112065405D01*
X165879538Y-112035167D01*
X165970252Y-111974690D01*
X166091205Y-111944452D01*
X166333110Y-111944452D01*
X166393586Y-111974690D01*
X166423824Y-112004929D01*
X166454062Y-112065405D01*
X166454062Y-112186357D01*
X166423824Y-112246833D01*
X166393586Y-112277071D01*
X166333110Y-112307310D01*
X166181919Y-112307310D01*
X166121443Y-112277071D01*
X166091205Y-112246833D01*
X166060967Y-112186357D01*
X166060967Y-112065405D01*
X166091205Y-112004929D01*
X166121443Y-111974690D01*
X166181919Y-111944452D01*
X125131891Y-107983262D02*
X125131891Y-107348262D01*
X124980700Y-107348262D01*
X124889986Y-107378500D01*
X124829510Y-107438976D01*
X124799271Y-107499452D01*
X124769033Y-107620405D01*
X124769033Y-107711119D01*
X124799271Y-107832071D01*
X124829510Y-107892548D01*
X124889986Y-107953024D01*
X124980700Y-107983262D01*
X125131891Y-107983262D01*
X124527129Y-107408738D02*
X124496891Y-107378500D01*
X124436414Y-107348262D01*
X124285224Y-107348262D01*
X124224748Y-107378500D01*
X124194510Y-107408738D01*
X124164271Y-107469214D01*
X124164271Y-107529690D01*
X124194510Y-107620405D01*
X124557367Y-107983262D01*
X124164271Y-107983262D01*
X125131891Y-110421662D02*
X125131891Y-109786662D01*
X124980700Y-109786662D01*
X124889986Y-109816900D01*
X124829510Y-109877376D01*
X124799271Y-109937852D01*
X124769033Y-110058805D01*
X124769033Y-110149519D01*
X124799271Y-110270471D01*
X124829510Y-110330948D01*
X124889986Y-110391424D01*
X124980700Y-110421662D01*
X125131891Y-110421662D01*
X124557367Y-109786662D02*
X124164271Y-109786662D01*
X124375938Y-110028567D01*
X124285224Y-110028567D01*
X124224748Y-110058805D01*
X124194510Y-110089043D01*
X124164271Y-110149519D01*
X124164271Y-110300710D01*
X124194510Y-110361186D01*
X124224748Y-110391424D01*
X124285224Y-110421662D01*
X124466652Y-110421662D01*
X124527129Y-110391424D01*
X124557367Y-110361186D01*
X125131891Y-108999262D02*
X125131891Y-108364262D01*
X124980700Y-108364262D01*
X124889986Y-108394500D01*
X124829510Y-108454976D01*
X124799271Y-108515452D01*
X124769033Y-108636405D01*
X124769033Y-108727119D01*
X124799271Y-108848071D01*
X124829510Y-108908548D01*
X124889986Y-108969024D01*
X124980700Y-108999262D01*
X125131891Y-108999262D01*
X124224748Y-108575929D02*
X124224748Y-108999262D01*
X124375938Y-108334024D02*
X124527129Y-108787595D01*
X124134033Y-108787595D01*
X159037262Y-104537328D02*
X158402262Y-104537328D01*
X158402262Y-104688519D01*
X158432500Y-104779233D01*
X158492976Y-104839709D01*
X158553452Y-104869948D01*
X158674405Y-104900186D01*
X158765119Y-104900186D01*
X158886071Y-104869948D01*
X158946548Y-104839709D01*
X159007024Y-104779233D01*
X159037262Y-104688519D01*
X159037262Y-104537328D01*
X159037262Y-105504948D02*
X159037262Y-105142090D01*
X159037262Y-105323519D02*
X158402262Y-105323519D01*
X158492976Y-105263043D01*
X158553452Y-105202567D01*
X158583690Y-105142090D01*
X158402262Y-105898043D02*
X158402262Y-105958519D01*
X158432500Y-106018995D01*
X158462738Y-106049233D01*
X158523214Y-106079471D01*
X158644167Y-106109710D01*
X158795357Y-106109710D01*
X158916310Y-106079471D01*
X158976786Y-106049233D01*
X159007024Y-106018995D01*
X159037262Y-105958519D01*
X159037262Y-105898043D01*
X159007024Y-105837567D01*
X158976786Y-105807329D01*
X158916310Y-105777090D01*
X158795357Y-105746852D01*
X158644167Y-105746852D01*
X158523214Y-105777090D01*
X158462738Y-105807329D01*
X158432500Y-105837567D01*
X158402262Y-105898043D01*
X157767262Y-104486528D02*
X157132262Y-104486528D01*
X157132262Y-104637719D01*
X157162500Y-104728433D01*
X157222976Y-104788909D01*
X157283452Y-104819148D01*
X157404405Y-104849386D01*
X157495119Y-104849386D01*
X157616071Y-104819148D01*
X157676548Y-104788909D01*
X157737024Y-104728433D01*
X157767262Y-104637719D01*
X157767262Y-104486528D01*
X157767262Y-105454148D02*
X157767262Y-105091290D01*
X157767262Y-105272719D02*
X157132262Y-105272719D01*
X157222976Y-105212243D01*
X157283452Y-105151767D01*
X157313690Y-105091290D01*
X157767262Y-106058910D02*
X157767262Y-105696052D01*
X157767262Y-105877481D02*
X157132262Y-105877481D01*
X157222976Y-105817005D01*
X157283452Y-105756529D01*
X157313690Y-105696052D01*
X147024272Y-109138962D02*
X147024272Y-108503962D01*
X146873081Y-108503962D01*
X146782367Y-108534200D01*
X146721891Y-108594676D01*
X146691652Y-108655152D01*
X146661414Y-108776105D01*
X146661414Y-108866819D01*
X146691652Y-108987771D01*
X146721891Y-109048248D01*
X146782367Y-109108724D01*
X146873081Y-109138962D01*
X147024272Y-109138962D01*
X146056652Y-109138962D02*
X146419510Y-109138962D01*
X146238081Y-109138962D02*
X146238081Y-108503962D01*
X146298557Y-108594676D01*
X146359033Y-108655152D01*
X146419510Y-108685390D01*
X145814748Y-108564438D02*
X145784510Y-108534200D01*
X145724033Y-108503962D01*
X145572843Y-108503962D01*
X145512367Y-108534200D01*
X145482129Y-108564438D01*
X145451890Y-108624914D01*
X145451890Y-108685390D01*
X145482129Y-108776105D01*
X145844986Y-109138962D01*
X145451890Y-109138962D01*
X159596062Y-108042528D02*
X158961062Y-108042528D01*
X158961062Y-108193719D01*
X158991300Y-108284433D01*
X159051776Y-108344909D01*
X159112252Y-108375148D01*
X159233205Y-108405386D01*
X159323919Y-108405386D01*
X159444871Y-108375148D01*
X159505348Y-108344909D01*
X159565824Y-108284433D01*
X159596062Y-108193719D01*
X159596062Y-108042528D01*
X159596062Y-109010148D02*
X159596062Y-108647290D01*
X159596062Y-108828719D02*
X158961062Y-108828719D01*
X159051776Y-108768243D01*
X159112252Y-108707767D01*
X159142490Y-108647290D01*
X158961062Y-109221814D02*
X158961062Y-109614910D01*
X159202967Y-109403243D01*
X159202967Y-109493957D01*
X159233205Y-109554433D01*
X159263443Y-109584671D01*
X159323919Y-109614910D01*
X159475110Y-109614910D01*
X159535586Y-109584671D01*
X159565824Y-109554433D01*
X159596062Y-109493957D01*
X159596062Y-109312529D01*
X159565824Y-109252052D01*
X159535586Y-109221814D01*
X132033434Y-108084862D02*
X132335815Y-108084862D01*
X132335815Y-107449862D01*
X131852005Y-107510338D02*
X131821767Y-107480100D01*
X131761290Y-107449862D01*
X131610100Y-107449862D01*
X131549624Y-107480100D01*
X131519386Y-107510338D01*
X131489147Y-107570814D01*
X131489147Y-107631290D01*
X131519386Y-107722005D01*
X131882243Y-108084862D01*
X131489147Y-108084862D01*
X151743833Y-97670862D02*
X151955500Y-97368481D01*
X152106691Y-97670862D02*
X152106691Y-97035862D01*
X151864786Y-97035862D01*
X151804310Y-97066100D01*
X151774071Y-97096338D01*
X151743833Y-97156814D01*
X151743833Y-97247529D01*
X151774071Y-97308005D01*
X151804310Y-97338243D01*
X151864786Y-97368481D01*
X152106691Y-97368481D01*
X151139071Y-97670862D02*
X151501929Y-97670862D01*
X151320500Y-97670862D02*
X151320500Y-97035862D01*
X151380976Y-97126576D01*
X151441452Y-97187052D01*
X151501929Y-97217290D01*
X123079933Y-105303562D02*
X123291600Y-105001181D01*
X123442791Y-105303562D02*
X123442791Y-104668562D01*
X123200886Y-104668562D01*
X123140410Y-104698800D01*
X123110171Y-104729038D01*
X123079933Y-104789514D01*
X123079933Y-104880229D01*
X123110171Y-104940705D01*
X123140410Y-104970943D01*
X123200886Y-105001181D01*
X123442791Y-105001181D01*
X122868267Y-104668562D02*
X122475171Y-104668562D01*
X122686838Y-104910467D01*
X122596124Y-104910467D01*
X122535648Y-104940705D01*
X122505410Y-104970943D01*
X122475171Y-105031419D01*
X122475171Y-105182610D01*
X122505410Y-105243086D01*
X122535648Y-105273324D01*
X122596124Y-105303562D01*
X122777552Y-105303562D01*
X122838029Y-105273324D01*
X122868267Y-105243086D01*
X123883662Y-116226167D02*
X123581281Y-116014500D01*
X123883662Y-115863309D02*
X123248662Y-115863309D01*
X123248662Y-116105214D01*
X123278900Y-116165690D01*
X123309138Y-116195929D01*
X123369614Y-116226167D01*
X123460329Y-116226167D01*
X123520805Y-116195929D01*
X123551043Y-116165690D01*
X123581281Y-116105214D01*
X123581281Y-115863309D01*
X123460329Y-116770452D02*
X123883662Y-116770452D01*
X123218424Y-116619262D02*
X123671995Y-116468071D01*
X123671995Y-116861167D01*
X140059833Y-97569262D02*
X140271500Y-97266881D01*
X140422691Y-97569262D02*
X140422691Y-96934262D01*
X140180786Y-96934262D01*
X140120310Y-96964500D01*
X140090071Y-96994738D01*
X140059833Y-97055214D01*
X140059833Y-97145929D01*
X140090071Y-97206405D01*
X140120310Y-97236643D01*
X140180786Y-97266881D01*
X140422691Y-97266881D01*
X139515548Y-96934262D02*
X139636500Y-96934262D01*
X139696976Y-96964500D01*
X139727214Y-96994738D01*
X139787691Y-97085452D01*
X139817929Y-97206405D01*
X139817929Y-97448310D01*
X139787691Y-97508786D01*
X139757452Y-97539024D01*
X139696976Y-97569262D01*
X139576024Y-97569262D01*
X139515548Y-97539024D01*
X139485310Y-97508786D01*
X139455071Y-97448310D01*
X139455071Y-97297119D01*
X139485310Y-97236643D01*
X139515548Y-97206405D01*
X139576024Y-97176167D01*
X139696976Y-97176167D01*
X139757452Y-97206405D01*
X139787691Y-97236643D01*
X139817929Y-97297119D01*
X140059833Y-95791262D02*
X140271500Y-95488881D01*
X140422691Y-95791262D02*
X140422691Y-95156262D01*
X140180786Y-95156262D01*
X140120310Y-95186500D01*
X140090071Y-95216738D01*
X140059833Y-95277214D01*
X140059833Y-95367929D01*
X140090071Y-95428405D01*
X140120310Y-95458643D01*
X140180786Y-95488881D01*
X140422691Y-95488881D01*
X139848167Y-95156262D02*
X139424833Y-95156262D01*
X139696976Y-95791262D01*
X156567414Y-98128062D02*
X156779081Y-97825681D01*
X156930272Y-98128062D02*
X156930272Y-97493062D01*
X156688367Y-97493062D01*
X156627891Y-97523300D01*
X156597652Y-97553538D01*
X156567414Y-97614014D01*
X156567414Y-97704729D01*
X156597652Y-97765205D01*
X156627891Y-97795443D01*
X156688367Y-97825681D01*
X156930272Y-97825681D01*
X155962652Y-98128062D02*
X156325510Y-98128062D01*
X156144081Y-98128062D02*
X156144081Y-97493062D01*
X156204557Y-97583776D01*
X156265033Y-97644252D01*
X156325510Y-97674490D01*
X155418367Y-97704729D02*
X155418367Y-98128062D01*
X155569557Y-97462824D02*
X155720748Y-97916395D01*
X155327652Y-97916395D01*
X125376214Y-111691662D02*
X125587881Y-111389281D01*
X125739072Y-111691662D02*
X125739072Y-111056662D01*
X125497167Y-111056662D01*
X125436691Y-111086900D01*
X125406452Y-111117138D01*
X125376214Y-111177614D01*
X125376214Y-111268329D01*
X125406452Y-111328805D01*
X125436691Y-111359043D01*
X125497167Y-111389281D01*
X125739072Y-111389281D01*
X124771452Y-111691662D02*
X125134310Y-111691662D01*
X124952881Y-111691662D02*
X124952881Y-111056662D01*
X125013357Y-111147376D01*
X125073833Y-111207852D01*
X125134310Y-111238090D01*
X124196929Y-111056662D02*
X124499310Y-111056662D01*
X124529548Y-111359043D01*
X124499310Y-111328805D01*
X124438833Y-111298567D01*
X124287643Y-111298567D01*
X124227167Y-111328805D01*
X124196929Y-111359043D01*
X124166690Y-111419519D01*
X124166690Y-111570710D01*
X124196929Y-111631186D01*
X124227167Y-111661424D01*
X124287643Y-111691662D01*
X124438833Y-111691662D01*
X124499310Y-111661424D01*
X124529548Y-111631186D01*
X128068614Y-109405662D02*
X128280281Y-109103281D01*
X128431472Y-109405662D02*
X128431472Y-108770662D01*
X128189567Y-108770662D01*
X128129091Y-108800900D01*
X128098852Y-108831138D01*
X128068614Y-108891614D01*
X128068614Y-108982329D01*
X128098852Y-109042805D01*
X128129091Y-109073043D01*
X128189567Y-109103281D01*
X128431472Y-109103281D01*
X127463852Y-109405662D02*
X127826710Y-109405662D01*
X127645281Y-109405662D02*
X127645281Y-108770662D01*
X127705757Y-108861376D01*
X127766233Y-108921852D01*
X127826710Y-108952090D01*
X126919567Y-108770662D02*
X127040519Y-108770662D01*
X127100995Y-108800900D01*
X127131233Y-108831138D01*
X127191710Y-108921852D01*
X127221948Y-109042805D01*
X127221948Y-109284710D01*
X127191710Y-109345186D01*
X127161471Y-109375424D01*
X127100995Y-109405662D01*
X126980043Y-109405662D01*
X126919567Y-109375424D01*
X126889329Y-109345186D01*
X126859090Y-109284710D01*
X126859090Y-109133519D01*
X126889329Y-109073043D01*
X126919567Y-109042805D01*
X126980043Y-109012567D01*
X127100995Y-109012567D01*
X127161471Y-109042805D01*
X127191710Y-109073043D01*
X127221948Y-109133519D01*
X141378214Y-121089662D02*
X141589881Y-120787281D01*
X141741072Y-121089662D02*
X141741072Y-120454662D01*
X141499167Y-120454662D01*
X141438691Y-120484900D01*
X141408452Y-120515138D01*
X141378214Y-120575614D01*
X141378214Y-120666329D01*
X141408452Y-120726805D01*
X141438691Y-120757043D01*
X141499167Y-120787281D01*
X141741072Y-120787281D01*
X140773452Y-121089662D02*
X141136310Y-121089662D01*
X140954881Y-121089662D02*
X140954881Y-120454662D01*
X141015357Y-120545376D01*
X141075833Y-120605852D01*
X141136310Y-120636090D01*
X140471071Y-121089662D02*
X140350119Y-121089662D01*
X140289643Y-121059424D01*
X140259405Y-121029186D01*
X140198929Y-120938471D01*
X140168690Y-120817519D01*
X140168690Y-120575614D01*
X140198929Y-120515138D01*
X140229167Y-120484900D01*
X140289643Y-120454662D01*
X140410595Y-120454662D01*
X140471071Y-120484900D01*
X140501310Y-120515138D01*
X140531548Y-120575614D01*
X140531548Y-120726805D01*
X140501310Y-120787281D01*
X140471071Y-120817519D01*
X140410595Y-120847757D01*
X140289643Y-120847757D01*
X140229167Y-120817519D01*
X140198929Y-120787281D01*
X140168690Y-120726805D01*
X160662862Y-100785386D02*
X160360481Y-100573719D01*
X160662862Y-100422528D02*
X160027862Y-100422528D01*
X160027862Y-100664433D01*
X160058100Y-100724909D01*
X160088338Y-100755148D01*
X160148814Y-100785386D01*
X160239529Y-100785386D01*
X160300005Y-100755148D01*
X160330243Y-100724909D01*
X160360481Y-100664433D01*
X160360481Y-100422528D01*
X160088338Y-101027290D02*
X160058100Y-101057528D01*
X160027862Y-101118005D01*
X160027862Y-101269195D01*
X160058100Y-101329671D01*
X160088338Y-101359909D01*
X160148814Y-101390148D01*
X160209290Y-101390148D01*
X160300005Y-101359909D01*
X160662862Y-100997052D01*
X160662862Y-101390148D01*
X160027862Y-101601814D02*
X160027862Y-101994910D01*
X160269767Y-101783243D01*
X160269767Y-101873957D01*
X160300005Y-101934433D01*
X160330243Y-101964671D01*
X160390719Y-101994910D01*
X160541910Y-101994910D01*
X160602386Y-101964671D01*
X160632624Y-101934433D01*
X160662862Y-101873957D01*
X160662862Y-101692529D01*
X160632624Y-101632052D01*
X160602386Y-101601814D01*
X158529262Y-100836186D02*
X158226881Y-100624519D01*
X158529262Y-100473328D02*
X157894262Y-100473328D01*
X157894262Y-100715233D01*
X157924500Y-100775709D01*
X157954738Y-100805948D01*
X158015214Y-100836186D01*
X158105929Y-100836186D01*
X158166405Y-100805948D01*
X158196643Y-100775709D01*
X158226881Y-100715233D01*
X158226881Y-100473328D01*
X157954738Y-101078090D02*
X157924500Y-101108328D01*
X157894262Y-101168805D01*
X157894262Y-101319995D01*
X157924500Y-101380471D01*
X157954738Y-101410709D01*
X158015214Y-101440948D01*
X158075690Y-101440948D01*
X158166405Y-101410709D01*
X158529262Y-101047852D01*
X158529262Y-101440948D01*
X158105929Y-101985233D02*
X158529262Y-101985233D01*
X157864024Y-101834043D02*
X158317595Y-101682852D01*
X158317595Y-102075948D01*
X157462462Y-100836186D02*
X157160081Y-100624519D01*
X157462462Y-100473328D02*
X156827462Y-100473328D01*
X156827462Y-100715233D01*
X156857700Y-100775709D01*
X156887938Y-100805948D01*
X156948414Y-100836186D01*
X157039129Y-100836186D01*
X157099605Y-100805948D01*
X157129843Y-100775709D01*
X157160081Y-100715233D01*
X157160081Y-100473328D01*
X156887938Y-101078090D02*
X156857700Y-101108328D01*
X156827462Y-101168805D01*
X156827462Y-101319995D01*
X156857700Y-101380471D01*
X156887938Y-101410709D01*
X156948414Y-101440948D01*
X157008890Y-101440948D01*
X157099605Y-101410709D01*
X157462462Y-101047852D01*
X157462462Y-101440948D01*
X156827462Y-101985233D02*
X156827462Y-101864281D01*
X156857700Y-101803805D01*
X156887938Y-101773567D01*
X156978652Y-101713090D01*
X157099605Y-101682852D01*
X157341510Y-101682852D01*
X157401986Y-101713090D01*
X157432224Y-101743329D01*
X157462462Y-101803805D01*
X157462462Y-101924757D01*
X157432224Y-101985233D01*
X157401986Y-102015471D01*
X157341510Y-102045710D01*
X157190319Y-102045710D01*
X157129843Y-102015471D01*
X157099605Y-101985233D01*
X157069367Y-101924757D01*
X157069367Y-101803805D01*
X157099605Y-101743329D01*
X157129843Y-101713090D01*
X157190319Y-101682852D01*
X159494462Y-100836186D02*
X159192081Y-100624519D01*
X159494462Y-100473328D02*
X158859462Y-100473328D01*
X158859462Y-100715233D01*
X158889700Y-100775709D01*
X158919938Y-100805948D01*
X158980414Y-100836186D01*
X159071129Y-100836186D01*
X159131605Y-100805948D01*
X159161843Y-100775709D01*
X159192081Y-100715233D01*
X159192081Y-100473328D01*
X158919938Y-101078090D02*
X158889700Y-101108328D01*
X158859462Y-101168805D01*
X158859462Y-101319995D01*
X158889700Y-101380471D01*
X158919938Y-101410709D01*
X158980414Y-101440948D01*
X159040890Y-101440948D01*
X159131605Y-101410709D01*
X159494462Y-101047852D01*
X159494462Y-101440948D01*
X158859462Y-101652614D02*
X158859462Y-102075948D01*
X159494462Y-101803805D01*
X142648214Y-89644462D02*
X142859881Y-89342081D01*
X143011072Y-89644462D02*
X143011072Y-89009462D01*
X142769167Y-89009462D01*
X142708691Y-89039700D01*
X142678452Y-89069938D01*
X142648214Y-89130414D01*
X142648214Y-89221129D01*
X142678452Y-89281605D01*
X142708691Y-89311843D01*
X142769167Y-89342081D01*
X143011072Y-89342081D01*
X142406310Y-89069938D02*
X142376072Y-89039700D01*
X142315595Y-89009462D01*
X142164405Y-89009462D01*
X142103929Y-89039700D01*
X142073691Y-89069938D01*
X142043452Y-89130414D01*
X142043452Y-89190890D01*
X142073691Y-89281605D01*
X142436548Y-89644462D01*
X142043452Y-89644462D01*
X141680595Y-89281605D02*
X141741071Y-89251367D01*
X141771310Y-89221129D01*
X141801548Y-89160652D01*
X141801548Y-89130414D01*
X141771310Y-89069938D01*
X141741071Y-89039700D01*
X141680595Y-89009462D01*
X141559643Y-89009462D01*
X141499167Y-89039700D01*
X141468929Y-89069938D01*
X141438690Y-89130414D01*
X141438690Y-89160652D01*
X141468929Y-89221129D01*
X141499167Y-89251367D01*
X141559643Y-89281605D01*
X141680595Y-89281605D01*
X141741071Y-89311843D01*
X141771310Y-89342081D01*
X141801548Y-89402557D01*
X141801548Y-89523510D01*
X141771310Y-89583986D01*
X141741071Y-89614224D01*
X141680595Y-89644462D01*
X141559643Y-89644462D01*
X141499167Y-89614224D01*
X141468929Y-89583986D01*
X141438690Y-89523510D01*
X141438690Y-89402557D01*
X141468929Y-89342081D01*
X141499167Y-89311843D01*
X141559643Y-89281605D01*
X148115262Y-111046986D02*
X147812881Y-110835319D01*
X148115262Y-110684128D02*
X147480262Y-110684128D01*
X147480262Y-110926033D01*
X147510500Y-110986509D01*
X147540738Y-111016748D01*
X147601214Y-111046986D01*
X147691929Y-111046986D01*
X147752405Y-111016748D01*
X147782643Y-110986509D01*
X147812881Y-110926033D01*
X147812881Y-110684128D01*
X147480262Y-111258652D02*
X147480262Y-111651748D01*
X147722167Y-111440081D01*
X147722167Y-111530795D01*
X147752405Y-111591271D01*
X147782643Y-111621509D01*
X147843119Y-111651748D01*
X147994310Y-111651748D01*
X148054786Y-111621509D01*
X148085024Y-111591271D01*
X148115262Y-111530795D01*
X148115262Y-111349367D01*
X148085024Y-111288890D01*
X148054786Y-111258652D01*
X147691929Y-112196033D02*
X148115262Y-112196033D01*
X147450024Y-112044843D02*
X147903595Y-111893652D01*
X147903595Y-112286748D01*
X150350462Y-111148586D02*
X150048081Y-110936919D01*
X150350462Y-110785728D02*
X149715462Y-110785728D01*
X149715462Y-111027633D01*
X149745700Y-111088109D01*
X149775938Y-111118348D01*
X149836414Y-111148586D01*
X149927129Y-111148586D01*
X149987605Y-111118348D01*
X150017843Y-111088109D01*
X150048081Y-111027633D01*
X150048081Y-110785728D01*
X149715462Y-111360252D02*
X149715462Y-111753348D01*
X149957367Y-111541681D01*
X149957367Y-111632395D01*
X149987605Y-111692871D01*
X150017843Y-111723109D01*
X150078319Y-111753348D01*
X150229510Y-111753348D01*
X150289986Y-111723109D01*
X150320224Y-111692871D01*
X150350462Y-111632395D01*
X150350462Y-111450967D01*
X150320224Y-111390490D01*
X150289986Y-111360252D01*
X149715462Y-112327871D02*
X149715462Y-112025490D01*
X150017843Y-111995252D01*
X149987605Y-112025490D01*
X149957367Y-112085967D01*
X149957367Y-112237157D01*
X149987605Y-112297633D01*
X150017843Y-112327871D01*
X150078319Y-112358110D01*
X150229510Y-112358110D01*
X150289986Y-112327871D01*
X150320224Y-112297633D01*
X150350462Y-112237157D01*
X150350462Y-112085967D01*
X150320224Y-112025490D01*
X150289986Y-111995252D01*
X149283662Y-111097786D02*
X148981281Y-110886119D01*
X149283662Y-110734928D02*
X148648662Y-110734928D01*
X148648662Y-110976833D01*
X148678900Y-111037309D01*
X148709138Y-111067548D01*
X148769614Y-111097786D01*
X148860329Y-111097786D01*
X148920805Y-111067548D01*
X148951043Y-111037309D01*
X148981281Y-110976833D01*
X148981281Y-110734928D01*
X148648662Y-111309452D02*
X148648662Y-111702548D01*
X148890567Y-111490881D01*
X148890567Y-111581595D01*
X148920805Y-111642071D01*
X148951043Y-111672309D01*
X149011519Y-111702548D01*
X149162710Y-111702548D01*
X149223186Y-111672309D01*
X149253424Y-111642071D01*
X149283662Y-111581595D01*
X149283662Y-111400167D01*
X149253424Y-111339690D01*
X149223186Y-111309452D01*
X148648662Y-112246833D02*
X148648662Y-112125881D01*
X148678900Y-112065405D01*
X148709138Y-112035167D01*
X148799852Y-111974690D01*
X148920805Y-111944452D01*
X149162710Y-111944452D01*
X149223186Y-111974690D01*
X149253424Y-112004929D01*
X149283662Y-112065405D01*
X149283662Y-112186357D01*
X149253424Y-112246833D01*
X149223186Y-112277071D01*
X149162710Y-112307310D01*
X149011519Y-112307310D01*
X148951043Y-112277071D01*
X148920805Y-112246833D01*
X148890567Y-112186357D01*
X148890567Y-112065405D01*
X148920805Y-112004929D01*
X148951043Y-111974690D01*
X149011519Y-111944452D01*
X147099262Y-111046986D02*
X146796881Y-110835319D01*
X147099262Y-110684128D02*
X146464262Y-110684128D01*
X146464262Y-110926033D01*
X146494500Y-110986509D01*
X146524738Y-111016748D01*
X146585214Y-111046986D01*
X146675929Y-111046986D01*
X146736405Y-111016748D01*
X146766643Y-110986509D01*
X146796881Y-110926033D01*
X146796881Y-110684128D01*
X146464262Y-111258652D02*
X146464262Y-111651748D01*
X146706167Y-111440081D01*
X146706167Y-111530795D01*
X146736405Y-111591271D01*
X146766643Y-111621509D01*
X146827119Y-111651748D01*
X146978310Y-111651748D01*
X147038786Y-111621509D01*
X147069024Y-111591271D01*
X147099262Y-111530795D01*
X147099262Y-111349367D01*
X147069024Y-111288890D01*
X147038786Y-111258652D01*
X146464262Y-111863414D02*
X146464262Y-112286748D01*
X147099262Y-112014605D01*
X150851810Y-107729262D02*
X150851810Y-108243310D01*
X150821571Y-108303786D01*
X150791333Y-108334024D01*
X150730857Y-108364262D01*
X150609905Y-108364262D01*
X150549429Y-108334024D01*
X150519190Y-108303786D01*
X150488952Y-108243310D01*
X150488952Y-107729262D01*
X150216810Y-107789738D02*
X150186572Y-107759500D01*
X150126095Y-107729262D01*
X149974905Y-107729262D01*
X149914429Y-107759500D01*
X149884191Y-107789738D01*
X149853952Y-107850214D01*
X149853952Y-107910690D01*
X149884191Y-108001405D01*
X150247048Y-108364262D01*
X149853952Y-108364262D01*
X128477433Y-108024386D02*
X128507671Y-108054624D01*
X128598386Y-108084862D01*
X128658862Y-108084862D01*
X128749576Y-108054624D01*
X128810052Y-107994148D01*
X128840291Y-107933671D01*
X128870529Y-107812719D01*
X128870529Y-107722005D01*
X128840291Y-107601052D01*
X128810052Y-107540576D01*
X128749576Y-107480100D01*
X128658862Y-107449862D01*
X128598386Y-107449862D01*
X128507671Y-107480100D01*
X128477433Y-107510338D01*
X127933148Y-107449862D02*
X128054100Y-107449862D01*
X128114576Y-107480100D01*
X128144814Y-107510338D01*
X128205291Y-107601052D01*
X128235529Y-107722005D01*
X128235529Y-107963910D01*
X128205291Y-108024386D01*
X128175052Y-108054624D01*
X128114576Y-108084862D01*
X127993624Y-108084862D01*
X127933148Y-108054624D01*
X127902910Y-108024386D01*
X127872671Y-107963910D01*
X127872671Y-107812719D01*
X127902910Y-107752243D01*
X127933148Y-107722005D01*
X127993624Y-107691767D01*
X128114576Y-107691767D01*
X128175052Y-107722005D01*
X128205291Y-107752243D01*
X128235529Y-107812719D01*
X140921014Y-114120386D02*
X140951252Y-114150624D01*
X141041967Y-114180862D01*
X141102443Y-114180862D01*
X141193157Y-114150624D01*
X141253633Y-114090148D01*
X141283872Y-114029671D01*
X141314110Y-113908719D01*
X141314110Y-113818005D01*
X141283872Y-113697052D01*
X141253633Y-113636576D01*
X141193157Y-113576100D01*
X141102443Y-113545862D01*
X141041967Y-113545862D01*
X140951252Y-113576100D01*
X140921014Y-113606338D01*
X140316252Y-114180862D02*
X140679110Y-114180862D01*
X140497681Y-114180862D02*
X140497681Y-113545862D01*
X140558157Y-113636576D01*
X140618633Y-113697052D01*
X140679110Y-113727290D01*
X140104586Y-113545862D02*
X139711490Y-113545862D01*
X139923157Y-113787767D01*
X139832443Y-113787767D01*
X139771967Y-113818005D01*
X139741729Y-113848243D01*
X139711490Y-113908719D01*
X139711490Y-114059910D01*
X139741729Y-114120386D01*
X139771967Y-114150624D01*
X139832443Y-114180862D01*
X140013871Y-114180862D01*
X140074348Y-114150624D01*
X140104586Y-114120386D01*
X131046462Y-96378486D02*
X130744081Y-96166819D01*
X131046462Y-96015628D02*
X130411462Y-96015628D01*
X130411462Y-96257533D01*
X130441700Y-96318009D01*
X130471938Y-96348248D01*
X130532414Y-96378486D01*
X130623129Y-96378486D01*
X130683605Y-96348248D01*
X130713843Y-96318009D01*
X130744081Y-96257533D01*
X130744081Y-96015628D01*
X130623129Y-96922771D02*
X131046462Y-96922771D01*
X130381224Y-96771581D02*
X130834795Y-96620390D01*
X130834795Y-97013486D01*
X130471938Y-97225152D02*
X130441700Y-97255390D01*
X130411462Y-97315867D01*
X130411462Y-97467057D01*
X130441700Y-97527533D01*
X130471938Y-97557771D01*
X130532414Y-97588010D01*
X130592890Y-97588010D01*
X130683605Y-97557771D01*
X131046462Y-97194914D01*
X131046462Y-97588010D01*
X135859762Y-96340386D02*
X135557381Y-96128719D01*
X135859762Y-95977528D02*
X135224762Y-95977528D01*
X135224762Y-96219433D01*
X135255000Y-96279909D01*
X135285238Y-96310148D01*
X135345714Y-96340386D01*
X135436429Y-96340386D01*
X135496905Y-96310148D01*
X135527143Y-96279909D01*
X135557381Y-96219433D01*
X135557381Y-95977528D01*
X135436429Y-96884671D02*
X135859762Y-96884671D01*
X135194524Y-96733481D02*
X135648095Y-96582290D01*
X135648095Y-96975386D01*
X135224762Y-97156814D02*
X135224762Y-97549910D01*
X135466667Y-97338243D01*
X135466667Y-97428957D01*
X135496905Y-97489433D01*
X135527143Y-97519671D01*
X135587619Y-97549910D01*
X135738810Y-97549910D01*
X135799286Y-97519671D01*
X135829524Y-97489433D01*
X135859762Y-97428957D01*
X135859762Y-97247529D01*
X135829524Y-97187052D01*
X135799286Y-97156814D01*
X139981214Y-101125262D02*
X140192881Y-100822881D01*
X140344072Y-101125262D02*
X140344072Y-100490262D01*
X140102167Y-100490262D01*
X140041691Y-100520500D01*
X140011452Y-100550738D01*
X139981214Y-100611214D01*
X139981214Y-100701929D01*
X140011452Y-100762405D01*
X140041691Y-100792643D01*
X140102167Y-100822881D01*
X140344072Y-100822881D01*
X139436929Y-100701929D02*
X139436929Y-101125262D01*
X139588119Y-100460024D02*
X139739310Y-100913595D01*
X139346214Y-100913595D01*
X138832167Y-100701929D02*
X138832167Y-101125262D01*
X138983357Y-100460024D02*
X139134548Y-100913595D01*
X138741452Y-100913595D01*
X128760462Y-96378486D02*
X128458081Y-96166819D01*
X128760462Y-96015628D02*
X128125462Y-96015628D01*
X128125462Y-96257533D01*
X128155700Y-96318009D01*
X128185938Y-96348248D01*
X128246414Y-96378486D01*
X128337129Y-96378486D01*
X128397605Y-96348248D01*
X128427843Y-96318009D01*
X128458081Y-96257533D01*
X128458081Y-96015628D01*
X128337129Y-96922771D02*
X128760462Y-96922771D01*
X128095224Y-96771581D02*
X128548795Y-96620390D01*
X128548795Y-97013486D01*
X128125462Y-97527533D02*
X128125462Y-97406581D01*
X128155700Y-97346105D01*
X128185938Y-97315867D01*
X128276652Y-97255390D01*
X128397605Y-97225152D01*
X128639510Y-97225152D01*
X128699986Y-97255390D01*
X128730224Y-97285629D01*
X128760462Y-97346105D01*
X128760462Y-97467057D01*
X128730224Y-97527533D01*
X128699986Y-97557771D01*
X128639510Y-97588010D01*
X128488319Y-97588010D01*
X128427843Y-97557771D01*
X128397605Y-97527533D01*
X128367367Y-97467057D01*
X128367367Y-97346105D01*
X128397605Y-97285629D01*
X128427843Y-97255390D01*
X128488319Y-97225152D01*
X126271262Y-96340386D02*
X125968881Y-96128719D01*
X126271262Y-95977528D02*
X125636262Y-95977528D01*
X125636262Y-96219433D01*
X125666500Y-96279909D01*
X125696738Y-96310148D01*
X125757214Y-96340386D01*
X125847929Y-96340386D01*
X125908405Y-96310148D01*
X125938643Y-96279909D01*
X125968881Y-96219433D01*
X125968881Y-95977528D01*
X125847929Y-96884671D02*
X126271262Y-96884671D01*
X125606024Y-96733481D02*
X126059595Y-96582290D01*
X126059595Y-96975386D01*
X125636262Y-97156814D02*
X125636262Y-97580148D01*
X126271262Y-97308005D01*
D15*
X137728476Y-98264738D02*
X137788952Y-98234500D01*
X137849429Y-98174024D01*
X137940143Y-98083310D01*
X138000619Y-98053071D01*
X138061095Y-98053071D01*
X138030857Y-98204262D02*
X138091333Y-98174024D01*
X138151810Y-98113548D01*
X138182048Y-97992595D01*
X138182048Y-97780929D01*
X138151810Y-97659976D01*
X138091333Y-97599500D01*
X138030857Y-97569262D01*
X137909905Y-97569262D01*
X137849429Y-97599500D01*
X137788952Y-97659976D01*
X137758714Y-97780929D01*
X137758714Y-97992595D01*
X137788952Y-98113548D01*
X137849429Y-98174024D01*
X137909905Y-98204262D01*
X138030857Y-98204262D01*
X137184191Y-97569262D02*
X137486572Y-97569262D01*
X137516810Y-97871643D01*
X137486572Y-97841405D01*
X137426095Y-97811167D01*
X137274905Y-97811167D01*
X137214429Y-97841405D01*
X137184191Y-97871643D01*
X137153952Y-97932119D01*
X137153952Y-98083310D01*
X137184191Y-98143786D01*
X137214429Y-98174024D01*
X137274905Y-98204262D01*
X137426095Y-98204262D01*
X137486572Y-98174024D01*
X137516810Y-98143786D01*
X134553476Y-98264738D02*
X134613952Y-98234500D01*
X134674429Y-98174024D01*
X134765143Y-98083310D01*
X134825619Y-98053071D01*
X134886095Y-98053071D01*
X134855857Y-98204262D02*
X134916333Y-98174024D01*
X134976810Y-98113548D01*
X135007048Y-97992595D01*
X135007048Y-97780929D01*
X134976810Y-97659976D01*
X134916333Y-97599500D01*
X134855857Y-97569262D01*
X134734905Y-97569262D01*
X134674429Y-97599500D01*
X134613952Y-97659976D01*
X134583714Y-97780929D01*
X134583714Y-97992595D01*
X134613952Y-98113548D01*
X134674429Y-98174024D01*
X134734905Y-98204262D01*
X134855857Y-98204262D01*
X134039429Y-97569262D02*
X134160381Y-97569262D01*
X134220857Y-97599500D01*
X134251095Y-97629738D01*
X134311572Y-97720452D01*
X134341810Y-97841405D01*
X134341810Y-98083310D01*
X134311572Y-98143786D01*
X134281333Y-98174024D01*
X134220857Y-98204262D01*
X134099905Y-98204262D01*
X134039429Y-98174024D01*
X134009191Y-98143786D01*
X133978952Y-98083310D01*
X133978952Y-97932119D01*
X134009191Y-97871643D01*
X134039429Y-97841405D01*
X134099905Y-97811167D01*
X134220857Y-97811167D01*
X134281333Y-97841405D01*
X134311572Y-97871643D01*
X134341810Y-97932119D01*
X137855476Y-106646738D02*
X137915952Y-106616500D01*
X137976429Y-106556024D01*
X138067143Y-106465310D01*
X138127619Y-106435071D01*
X138188095Y-106435071D01*
X138157857Y-106586262D02*
X138218333Y-106556024D01*
X138278810Y-106495548D01*
X138309048Y-106374595D01*
X138309048Y-106162929D01*
X138278810Y-106041976D01*
X138218333Y-105981500D01*
X138157857Y-105951262D01*
X138036905Y-105951262D01*
X137976429Y-105981500D01*
X137915952Y-106041976D01*
X137885714Y-106162929D01*
X137885714Y-106374595D01*
X137915952Y-106495548D01*
X137976429Y-106556024D01*
X138036905Y-106586262D01*
X138157857Y-106586262D01*
X137674048Y-105951262D02*
X137250714Y-105951262D01*
X137522857Y-106586262D01*
X134426476Y-106519738D02*
X134486952Y-106489500D01*
X134547429Y-106429024D01*
X134638143Y-106338310D01*
X134698619Y-106308071D01*
X134759095Y-106308071D01*
X134728857Y-106459262D02*
X134789333Y-106429024D01*
X134849810Y-106368548D01*
X134880048Y-106247595D01*
X134880048Y-106035929D01*
X134849810Y-105914976D01*
X134789333Y-105854500D01*
X134728857Y-105824262D01*
X134607905Y-105824262D01*
X134547429Y-105854500D01*
X134486952Y-105914976D01*
X134456714Y-106035929D01*
X134456714Y-106247595D01*
X134486952Y-106368548D01*
X134547429Y-106429024D01*
X134607905Y-106459262D01*
X134728857Y-106459262D01*
X134093857Y-106096405D02*
X134154333Y-106066167D01*
X134184572Y-106035929D01*
X134214810Y-105975452D01*
X134214810Y-105945214D01*
X134184572Y-105884738D01*
X134154333Y-105854500D01*
X134093857Y-105824262D01*
X133972905Y-105824262D01*
X133912429Y-105854500D01*
X133882191Y-105884738D01*
X133851952Y-105945214D01*
X133851952Y-105975452D01*
X133882191Y-106035929D01*
X133912429Y-106066167D01*
X133972905Y-106096405D01*
X134093857Y-106096405D01*
X134154333Y-106126643D01*
X134184572Y-106156881D01*
X134214810Y-106217357D01*
X134214810Y-106338310D01*
X134184572Y-106398786D01*
X134154333Y-106429024D01*
X134093857Y-106459262D01*
X133972905Y-106459262D01*
X133912429Y-106429024D01*
X133882191Y-106398786D01*
X133851952Y-106338310D01*
X133851952Y-106217357D01*
X133882191Y-106156881D01*
X133912429Y-106126643D01*
X133972905Y-106096405D01*
X172907476Y-92716738D02*
X172967952Y-92686500D01*
X173028429Y-92626024D01*
X173119143Y-92535310D01*
X173179619Y-92505071D01*
X173240095Y-92505071D01*
X173209857Y-92656262D02*
X173270333Y-92626024D01*
X173330810Y-92565548D01*
X173361048Y-92444595D01*
X173361048Y-92232929D01*
X173330810Y-92111976D01*
X173270333Y-92051500D01*
X173209857Y-92021262D01*
X173088905Y-92021262D01*
X173028429Y-92051500D01*
X172967952Y-92111976D01*
X172937714Y-92232929D01*
X172937714Y-92444595D01*
X172967952Y-92565548D01*
X173028429Y-92626024D01*
X173088905Y-92656262D01*
X173209857Y-92656262D01*
X172695810Y-92081738D02*
X172665572Y-92051500D01*
X172605095Y-92021262D01*
X172453905Y-92021262D01*
X172393429Y-92051500D01*
X172363191Y-92081738D01*
X172332952Y-92142214D01*
X172332952Y-92202690D01*
X172363191Y-92293405D01*
X172726048Y-92656262D01*
X172332952Y-92656262D01*
X129600476Y-111004738D02*
X129660952Y-110974500D01*
X129721429Y-110914024D01*
X129812143Y-110823310D01*
X129872619Y-110793071D01*
X129933095Y-110793071D01*
X129902857Y-110944262D02*
X129963333Y-110914024D01*
X130023810Y-110853548D01*
X130054048Y-110732595D01*
X130054048Y-110520929D01*
X130023810Y-110399976D01*
X129963333Y-110339500D01*
X129902857Y-110309262D01*
X129781905Y-110309262D01*
X129721429Y-110339500D01*
X129660952Y-110399976D01*
X129630714Y-110520929D01*
X129630714Y-110732595D01*
X129660952Y-110853548D01*
X129721429Y-110914024D01*
X129781905Y-110944262D01*
X129902857Y-110944262D01*
X129419048Y-110309262D02*
X129025952Y-110309262D01*
X129237619Y-110551167D01*
X129146905Y-110551167D01*
X129086429Y-110581405D01*
X129056191Y-110611643D01*
X129025952Y-110672119D01*
X129025952Y-110823310D01*
X129056191Y-110883786D01*
X129086429Y-110914024D01*
X129146905Y-110944262D01*
X129328333Y-110944262D01*
X129388810Y-110914024D01*
X129419048Y-110883786D01*
D18*
X151792214Y-89441262D02*
X152003881Y-89138881D01*
X152155072Y-89441262D02*
X152155072Y-88806262D01*
X151913167Y-88806262D01*
X151852691Y-88836500D01*
X151822452Y-88866738D01*
X151792214Y-88927214D01*
X151792214Y-89017929D01*
X151822452Y-89078405D01*
X151852691Y-89108643D01*
X151913167Y-89138881D01*
X152155072Y-89138881D01*
X151550310Y-88866738D02*
X151520072Y-88836500D01*
X151459595Y-88806262D01*
X151308405Y-88806262D01*
X151247929Y-88836500D01*
X151217691Y-88866738D01*
X151187452Y-88927214D01*
X151187452Y-88987690D01*
X151217691Y-89078405D01*
X151580548Y-89441262D01*
X151187452Y-89441262D01*
X150885071Y-89441262D02*
X150764119Y-89441262D01*
X150703643Y-89411024D01*
X150673405Y-89380786D01*
X150612929Y-89290071D01*
X150582690Y-89169119D01*
X150582690Y-88927214D01*
X150612929Y-88866738D01*
X150643167Y-88836500D01*
X150703643Y-88806262D01*
X150824595Y-88806262D01*
X150885071Y-88836500D01*
X150915310Y-88866738D01*
X150945548Y-88927214D01*
X150945548Y-89078405D01*
X150915310Y-89138881D01*
X150885071Y-89169119D01*
X150824595Y-89199357D01*
X150703643Y-89199357D01*
X150643167Y-89169119D01*
X150612929Y-89138881D01*
X150582690Y-89078405D01*
M02*
